<svg width="13" height="13" viewBox="0 0 13 13" fill="none" xmlns="http://www.w3.org/2000/svg">
<path d="M6.34672 8.79877H0.317383V9.77057C0.317429 10.0229 0.418216 10.2648 0.597581 10.4432C0.776945 10.6216 1.0202 10.7219 1.27386 10.7219H6.6812C6.46498 10.4514 6.3471 10.1161 6.34672 9.77057V8.79877ZM10.067 0.283206C9.89826 0.283546 9.73652 0.350374 9.6172 0.469061C9.49787 0.587749 9.43068 0.748626 9.43034 0.916475V3.4408H10.7008V0.916475C10.7014 0.833378 10.6855 0.750977 10.6539 0.674044C10.6223 0.59711 10.5757 0.52717 10.5168 0.468275C10.4578 0.409379 10.3877 0.362696 10.3105 0.330929C10.2333 0.299162 10.1506 0.282941 10.067 0.283206Z" fill="#5F6FFF"/>
<path d="M1.83112 0.86055L1.78711 8.21756H6.63992C6.71767 8.21778 6.79216 8.2486 6.84714 8.30328C6.90211 8.35796 6.93309 8.43206 6.93332 8.50939V9.77301C6.93332 10.0253 7.03409 10.2673 7.21347 10.4457C7.39284 10.6241 7.63613 10.7244 7.8898 10.7244C8.14347 10.7244 8.38676 10.6241 8.56613 10.4457C8.74551 10.2673 8.84628 10.0253 8.84628 9.77301V0.915998C8.84603 0.692524 8.90797 0.473342 9.02525 0.282729H2.42378C2.2683 0.281652 2.1187 0.341813 2.00765 0.450075C1.89661 0.558337 1.83315 0.705904 1.83112 0.86055ZM3.16315 2.54149C3.18008 2.48957 3.21133 2.44344 3.25335 2.40835C3.29538 2.37326 3.34647 2.35063 3.4008 2.34304L4.50691 2.18254L4.99689 1.1874C5.02117 1.13835 5.05878 1.09705 5.10545 1.06816C5.15211 1.03928 5.20598 1.02397 5.26095 1.02397C5.31591 1.02397 5.36978 1.03928 5.41645 1.06816C5.46312 1.09705 5.50072 1.13835 5.52501 1.1874L6.01792 2.18254L7.12403 2.34304C7.17836 2.35063 7.22945 2.37326 7.27148 2.40835C7.3135 2.44344 7.34476 2.48957 7.36168 2.54149C7.37863 2.59343 7.38075 2.64904 7.3678 2.70211C7.35485 2.75518 7.32734 2.80363 7.28833 2.84207L6.48735 3.61833L6.67513 4.71269C6.68408 4.7665 6.67785 4.82171 6.65713 4.87221C6.63641 4.9227 6.60202 4.96648 6.55777 4.99868C6.50775 5.03556 6.44692 5.05504 6.38466 5.05413C6.33689 5.05357 6.28983 5.04261 6.24677 5.02203L5.26095 4.50258L4.2722 5.01911C4.22399 5.04497 4.16933 5.05652 4.11472 5.05238C4.06011 5.04824 4.00784 5.02859 3.96413 4.99577C3.91968 4.96374 3.88513 4.91998 3.86439 4.86944C3.84365 4.8189 3.83755 4.76359 3.84677 4.70977L4.03454 3.61542L3.2365 2.84207C3.19735 2.80373 3.16974 2.75528 3.15678 2.70217C3.14382 2.64906 3.14602 2.59341 3.16315 2.54149ZM2.91083 5.85666H7.59347C7.67128 5.85666 7.74591 5.88741 7.80093 5.94214C7.85595 5.99687 7.88686 6.07109 7.88686 6.14849C7.88686 6.22589 7.85595 6.30012 7.80093 6.35485C7.74591 6.40957 7.67128 6.44032 7.59347 6.44032H2.91083C2.83301 6.44032 2.75838 6.40957 2.70336 6.35485C2.64834 6.30012 2.61743 6.22589 2.61743 6.14849C2.61743 6.07109 2.64834 5.99687 2.70336 5.94214C2.75838 5.88741 2.83301 5.85666 2.91083 5.85666ZM2.91083 7.05024H5.74212C5.81994 7.05024 5.89456 7.08099 5.94959 7.13572C6.00461 7.19045 6.03552 7.26467 6.03552 7.34207C6.03552 7.41947 6.00461 7.4937 5.94959 7.54843C5.89456 7.60315 5.81994 7.6339 5.74212 7.6339H2.91083C2.83301 7.6339 2.75838 7.60315 2.70336 7.54843C2.64834 7.4937 2.61743 7.41947 2.61743 7.34207C2.61743 7.26467 2.64834 7.19045 2.70336 7.13572C2.75838 7.08099 2.83301 7.05024 2.91083 7.05024Z" fill="#5F6FFF"/>
<path d="M4.63901 3.56314L4.52459 4.22559L5.12312 3.91333C5.16569 3.8914 5.21309 3.88037 5.26102 3.88123C5.30879 3.88179 5.35586 3.89275 5.39892 3.91333L5.99745 4.22559L5.88302 3.56314C5.8746 3.51622 5.87796 3.46797 5.89281 3.42265C5.90765 3.37734 5.93352 3.33638 5.96811 3.30341L6.45222 2.83356L5.78327 2.73726C5.73607 2.7308 5.69123 2.71274 5.65281 2.68471C5.61439 2.65669 5.5836 2.61959 5.56322 2.57675L5.26102 1.97559L4.96175 2.57967C4.94067 2.62199 4.90968 2.65866 4.87139 2.68659C4.83309 2.71452 4.78862 2.7329 4.7417 2.74018L4.07275 2.83648L4.55686 3.30633C4.59044 3.33931 4.61546 3.37992 4.62977 3.42466C4.64408 3.46939 4.64725 3.51691 4.63901 3.56314Z" fill="#5F6FFF"/>
<path d="M12.3171 7.00684H11.2021V10.8677H12.3171V7.00684Z" fill="#5F6FFF"/>
<path d="M11.7596 5.54736C11.6864 5.54733 11.6139 5.56165 11.5462 5.58951C11.4786 5.61736 11.4171 5.6582 11.3654 5.7097C11.3136 5.76119 11.2725 5.82233 11.2445 5.88961C11.2165 5.9569 11.2021 6.02902 11.2021 6.10184V6.42285H12.3171V6.10184C12.3171 6.02902 12.3027 5.9569 12.2747 5.88961C12.2467 5.82233 12.2056 5.76119 12.1539 5.7097C12.1021 5.6582 12.0406 5.61736 11.973 5.58951C11.9053 5.56165 11.8328 5.54733 11.7596 5.54736Z" fill="#5F6FFF"/>
<path d="M11.7716 12.2829L12.153 11.4482H11.3726L11.7716 12.2829Z" fill="#5F6FFF"/>
</svg>
