<svg width="21" height="20" viewBox="0 0 21 20" fill="none" xmlns="http://www.w3.org/2000/svg">
<rect x="0.8573" width="20" height="20" rx="4" fill="#F3F7FE"/>
<path d="M11.4372 7.67983C11.8987 7.67983 12.3413 7.86316 12.6676 8.18949C12.994 8.51582 13.1773 8.95842 13.1773 9.41992C13.1773 9.57376 13.2384 9.72129 13.3472 9.83006C13.456 9.93884 13.6035 9.99995 13.7573 9.99995C13.9112 9.99995 14.0587 9.93884 14.1675 9.83006C14.2762 9.72129 14.3374 9.57376 14.3374 9.41992C14.3374 8.65075 14.0318 7.91309 13.4879 7.36921C12.944 6.82533 12.2064 6.51978 11.4372 6.51978C11.2834 6.51978 11.1358 6.58089 11.0271 6.68966C10.9183 6.79844 10.8572 6.94597 10.8572 7.0998C10.8572 7.25364 10.9183 7.40117 11.0271 7.50995C11.1358 7.61872 11.2834 7.67983 11.4372 7.67983Z" fill="#B9C0CE"/>
<path d="M11.4372 5.35952C12.514 5.35952 13.5468 5.78729 14.3082 6.54873C15.0696 7.31016 15.4974 8.34289 15.4974 9.41973C15.4974 9.57356 15.5585 9.72109 15.6673 9.82987C15.7761 9.93865 15.9236 9.99976 16.0774 9.99976C16.2313 9.99976 16.3788 9.93865 16.4876 9.82987C16.5964 9.72109 16.6575 9.57356 16.6575 9.41973C16.6575 8.03523 16.1075 6.70743 15.1285 5.72844C14.1495 4.74945 12.8217 4.19946 11.4372 4.19946C11.2834 4.19946 11.1358 4.26057 11.0271 4.36935C10.9183 4.47813 10.8572 4.62566 10.8572 4.77949C10.8572 4.93333 10.9183 5.08086 11.0271 5.18963C11.1358 5.29841 11.2834 5.35952 11.4372 5.35952ZM16.5125 12.2677C16.4806 12.1746 16.4255 12.0911 16.3524 12.0251C16.2794 11.9592 16.1907 11.9129 16.0948 11.8907L12.6147 11.096C12.5202 11.0746 12.4219 11.0772 12.3287 11.1035C12.2355 11.1299 12.1503 11.1791 12.081 11.2468C11.9998 11.3222 11.994 11.328 11.617 12.0473C10.366 11.4708 9.3636 10.4643 8.79227 9.21092C9.52891 8.8397 9.53471 8.8397 9.61011 8.75269C9.67781 8.68341 9.72708 8.59828 9.75342 8.50507C9.77976 8.41186 9.78234 8.31353 9.76092 8.21907L8.96628 4.77949C8.94404 4.68361 8.89776 4.59497 8.8318 4.52191C8.76584 4.44885 8.68238 4.39377 8.58926 4.36187C8.45381 4.31349 8.31393 4.27852 8.17164 4.25747C8.02504 4.22347 7.87544 4.20404 7.72502 4.19946C7.01739 4.19946 6.33874 4.48057 5.83836 4.98094C5.33799 5.48131 5.05688 6.15996 5.05688 6.8676C5.05995 9.23569 6.00203 11.5059 7.67653 13.1804C9.35102 14.8549 11.6212 15.797 13.9893 15.8C14.3397 15.8 14.6867 15.731 15.0104 15.5969C15.3341 15.4629 15.6282 15.2663 15.876 15.0186C16.1238 14.7708 16.3203 14.4767 16.4544 14.153C16.5885 13.8293 16.6575 13.4823 16.6575 13.1319C16.6576 12.9843 16.646 12.8369 16.6227 12.6911C16.5983 12.547 16.5614 12.4053 16.5125 12.2677Z" fill="#B9C0CE"/>
</svg>
