<svg width="21" height="21" viewBox="0 0 21 21" fill="none" xmlns="http://www.w3.org/2000/svg">
<rect x="0.126953" y="0.577393" width="20" height="20" rx="4" fill="#F3F7FE"/>
<path d="M13.4603 4.57739H5.46029C4.72029 4.57739 4.12695 5.17739 4.12695 5.91073V15.2441C4.12695 15.9774 4.72029 16.5774 5.46029 16.5774H14.7936C15.527 16.5774 16.127 15.9774 16.127 15.2441V7.24406L13.4603 4.57739ZM14.7936 15.2441H5.46029V5.91073H12.907L14.7936 7.79739V15.2441ZM10.127 10.5774C9.02029 10.5774 8.12695 11.4707 8.12695 12.5774C8.12695 13.6841 9.02029 14.5774 10.127 14.5774C11.2336 14.5774 12.127 13.6841 12.127 12.5774C12.127 11.4707 11.2336 10.5774 10.127 10.5774ZM6.12695 6.57739H12.127V9.24406H6.12695V6.57739Z" fill="#17CA89"/>
</svg>
