<svg width="13" height="13" viewBox="0 0 13 13" fill="none" xmlns="http://www.w3.org/2000/svg">
<path d="M9.46029 0.297363H1.46029C0.720286 0.297363 0.126953 0.897363 0.126953 1.6307V10.964C0.126953 11.6974 0.720286 12.2974 1.46029 12.2974H10.7936C11.527 12.2974 12.127 11.6974 12.127 10.964V2.96403L9.46029 0.297363ZM10.7936 10.964H1.46029V1.6307H8.90695L10.7936 3.51736V10.964ZM6.12695 6.29736C5.02029 6.29736 4.12695 7.1907 4.12695 8.29736C4.12695 9.40403 5.02029 10.2974 6.12695 10.2974C7.23362 10.2974 8.12695 9.40403 8.12695 8.29736C8.12695 7.1907 7.23362 6.29736 6.12695 6.29736ZM2.12695 2.29736H8.12695V4.96403H2.12695V2.29736Z" fill="#17CA89"/>
</svg>
