<svg width="21" height="21" viewBox="0 0 21 21" fill="none" xmlns="http://www.w3.org/2000/svg">
<rect x="0.783081" y="0.539062" width="20" height="20" rx="4" fill="#F3F7FE"/>
<path d="M15.8623 10.539C15.1922 9.44343 14.3522 8.62407 13.3426 8.08092C13.6115 8.56372 13.746 9.08597 13.746 9.64769C13.746 10.5065 13.4561 11.2412 12.8763 11.8516C12.2965 12.4621 11.5988 12.7673 10.7831 12.7673C9.96741 12.7673 9.26968 12.4621 8.68989 11.8516C8.11009 11.2412 7.8202 10.5065 7.8202 9.64769C7.8202 9.08597 7.95467 8.56372 8.22363 8.08092C7.21395 8.62407 6.37402 9.44343 5.70384 10.539C6.29025 11.4907 7.02546 12.2485 7.90948 12.8126C8.7935 13.3766 9.75137 13.6586 10.7831 13.6586C11.8148 13.6586 12.7727 13.3766 13.6567 12.8126C14.5407 12.2485 15.2759 11.4907 15.8623 10.539ZM11.1005 7.86505C11.1005 7.77221 11.0697 7.69329 11.008 7.6283C10.9462 7.56331 10.8713 7.53081 10.7831 7.53081C10.232 7.53081 9.75909 7.73855 9.36447 8.15404C8.96986 8.56952 8.77256 9.0674 8.77256 9.64769C8.77256 9.74054 8.80342 9.81945 8.86515 9.88445C8.92687 9.94944 9.00183 9.98193 9.09001 9.98193C9.17819 9.98193 9.25314 9.94944 9.31487 9.88445C9.3766 9.81945 9.40746 9.74054 9.40746 9.64769C9.40746 9.24845 9.54194 8.90725 9.81089 8.62407C10.0798 8.34089 10.4039 8.1993 10.7831 8.1993C10.8713 8.1993 10.9462 8.1668 11.008 8.10181C11.0697 8.03682 11.1005 7.9579 11.1005 7.86505ZM16.7089 10.539C16.7089 10.6968 16.6648 10.857 16.5766 11.0195C15.9593 12.0872 15.1293 12.9425 14.0866 13.5855C13.0438 14.2285 11.9427 14.5499 10.7831 14.5499C9.62351 14.5499 8.52234 14.2273 7.4796 13.582C6.43685 12.9367 5.60684 12.0826 4.98957 11.0195C4.90139 10.857 4.8573 10.6968 4.8573 10.539C4.8573 10.3812 4.90139 10.221 4.98957 10.0585C5.60684 8.99545 6.43685 8.14127 7.4796 7.49599C8.52234 6.85071 9.62351 6.52808 10.7831 6.52808C11.9427 6.52808 13.0438 6.85071 14.0866 7.49599C15.1293 8.14127 15.9593 8.99545 16.5766 10.0585C16.6648 10.221 16.7089 10.3812 16.7089 10.539Z" fill="#17CA89"/>
</svg>
