<svg width="17" height="17" viewBox="0 0 17 17" fill="none" xmlns="http://www.w3.org/2000/svg">
<path d="M9.3776 5.39339C9.90804 5.39339 10.4167 5.60411 10.7918 5.97918C11.1669 6.35425 11.3776 6.86296 11.3776 7.39339C11.3776 7.5702 11.4478 7.73977 11.5729 7.8648C11.6979 7.98982 11.8675 8.06006 12.0443 8.06006C12.2211 8.06006 12.3907 7.98982 12.5157 7.8648C12.6407 7.73977 12.7109 7.5702 12.7109 7.39339C12.7109 6.50934 12.3597 5.66149 11.7346 5.03637C11.1095 4.41125 10.2617 4.06006 9.3776 4.06006C9.20079 4.06006 9.03122 4.1303 8.9062 4.25532C8.78118 4.38035 8.71094 4.54991 8.71094 4.72673C8.71094 4.90354 8.78118 5.07311 8.9062 5.19813C9.03122 5.32315 9.20079 5.39339 9.3776 5.39339Z" fill="#17CA89"/>
<path d="M9.37825 2.72664C10.6159 2.72664 11.8029 3.21831 12.6781 4.09348C13.5533 4.96865 14.0449 6.15563 14.0449 7.39331C14.0449 7.57012 14.1152 7.73969 14.2402 7.86471C14.3652 7.98974 14.5348 8.05998 14.7116 8.05998C14.8884 8.05998 15.058 7.98974 15.183 7.86471C15.308 7.73969 15.3783 7.57012 15.3783 7.39331C15.3783 5.80201 14.7461 4.27589 13.6209 3.15067C12.4957 2.02545 10.9696 1.39331 9.37825 1.39331C9.20144 1.39331 9.03187 1.46355 8.90685 1.58857C8.78182 1.7136 8.71159 1.88317 8.71159 2.05998C8.71159 2.23679 8.78182 2.40636 8.90685 2.53138C9.03187 2.65641 9.20144 2.72664 9.37825 2.72664ZM15.2116 10.6666C15.1749 10.5596 15.1116 10.4637 15.0276 10.3879C14.9437 10.3121 14.8418 10.2589 14.7316 10.2333L10.7316 9.31998C10.623 9.29536 10.51 9.29832 10.4029 9.3286C10.2957 9.35888 10.1979 9.4155 10.1183 9.49331C10.0249 9.57998 10.0183 9.58664 9.58492 10.4133C8.14705 9.75075 6.99492 8.59388 6.33825 7.15331C7.18492 6.72664 7.19159 6.72664 7.27825 6.62664C7.35606 6.54701 7.41269 6.44917 7.44296 6.34203C7.47324 6.2349 7.4762 6.12189 7.45159 6.01331L6.53825 2.05998C6.51268 1.94977 6.45949 1.84789 6.38368 1.76392C6.30787 1.67995 6.21194 1.61665 6.10492 1.57998C5.94923 1.52437 5.78846 1.48418 5.62492 1.45998C5.45642 1.42091 5.28448 1.39858 5.11159 1.39331C4.29826 1.39331 3.51824 1.7164 2.94313 2.29152C2.36802 2.86663 2.04492 3.64665 2.04492 4.45998C2.04845 7.18178 3.13125 9.7911 5.05585 11.7157C6.98046 13.6403 9.58978 14.7231 12.3116 14.7266C12.7143 14.7266 13.1131 14.6473 13.4851 14.4932C13.8572 14.3391 14.1953 14.1132 14.48 13.8284C14.7648 13.5437 14.9907 13.2056 15.1448 12.8335C15.2989 12.4615 15.3783 12.0627 15.3783 11.66C15.3785 11.4903 15.3651 11.3209 15.3383 11.1533C15.3102 10.9877 15.2679 10.8249 15.2116 10.6666Z" fill="#17CA89"/>
</svg>
