<svg width="201" height="201" viewBox="0 0 201 201" fill="none" xmlns="http://www.w3.org/2000/svg">
<g clip-path="url(#clip0)">
<path d="M31.8125 25.9355C38.7156 25.9355 44.3125 20.3387 44.3125 13.4355C44.3125 6.53242 38.7156 0.935547 31.8125 0.935547C24.9094 0.935547 19.3125 6.53242 19.3125 13.4355C19.3125 20.3387 24.9094 25.9355 31.8125 25.9355Z" fill="url(#paint0_radial)"/>
<path d="M24 200.936C30.0406 200.936 34.9375 196.039 34.9375 189.998C34.9375 183.957 30.0406 179.061 24 179.061C17.9594 179.061 13.0625 183.957 13.0625 189.998C13.0625 196.039 17.9594 200.936 24 200.936Z" fill="url(#paint1_radial)"/>
<path d="M194.312 64.998C194.312 57.2324 188.016 50.9355 180.25 50.9355H138.062C131.159 50.9355 125.562 45.3387 125.562 38.4355C125.562 31.5324 131.159 25.9355 138.062 25.9355H144.312C151.216 25.9355 156.812 20.3387 156.812 13.4355C156.812 6.53242 151.216 0.935547 144.312 0.935547H69.3125C62.4094 0.935547 56.8125 6.53242 56.8125 13.4355C56.8125 20.3387 62.4094 25.9355 69.3125 25.9355H75.5625C80.7406 25.9355 84.9375 30.1324 84.9375 35.3105C84.9375 40.4887 80.7406 44.6855 75.5625 44.6855H31.8125C26.6344 44.6855 22.4375 48.8824 22.4375 54.0605V57.1855C22.4375 62.3637 26.6344 66.5605 31.8125 66.5605H41.1875C46.3656 66.5605 50.5625 70.7574 50.5625 75.9355C50.5625 81.1137 46.3656 85.3105 41.1875 85.3105H25.5625C16.9344 85.3105 9.9375 92.3074 9.9375 100.936C9.9375 109.564 16.9344 116.561 25.5625 116.561H42.75C48.7906 116.561 53.6875 121.457 53.6875 127.498C53.6875 133.539 48.7906 138.436 42.75 138.436H28.6875C21.7844 138.436 16.1875 144.032 16.1875 150.936C16.1875 157.839 21.7844 163.436 28.6875 163.436H55.25C59.5656 163.436 63.0625 166.932 63.0625 171.248C63.0625 175.564 59.5656 179.061 55.25 179.061C49.2094 179.061 44.3125 183.957 44.3125 189.998C44.3125 196.039 49.2094 200.936 55.25 200.936H149C155.041 200.936 159.938 196.039 159.938 189.998C159.938 183.957 155.041 179.061 149 179.061H147.438C143.984 179.061 141.188 176.264 141.188 172.811C141.188 169.357 143.984 166.561 147.438 166.561H169.312C176.216 166.561 181.812 160.964 181.812 154.061C181.812 147.157 176.216 141.561 169.312 141.561H152.125C147.809 141.561 144.312 138.064 144.312 133.748C144.312 129.432 147.809 125.936 152.125 125.936H153.688C160.591 125.936 166.188 120.339 166.188 113.436C166.188 106.532 160.591 100.936 153.688 100.936H149C142.959 100.936 138.062 96.0387 138.062 89.998C138.062 83.9574 142.959 79.0605 149 79.0605H180.25C188.016 79.0605 194.312 72.7637 194.312 64.998Z" fill="url(#paint2_radial)"/>
<path d="M184.938 125.936C178.034 125.936 172.438 120.339 172.438 113.436C172.438 106.532 178.034 100.936 184.938 100.936C191.841 100.936 197.438 106.532 197.438 113.436C197.438 120.339 191.841 125.936 184.938 125.936Z" fill="url(#paint3_radial)"/>
</g>
<path d="M144.576 142.353L145.263 144.014L146.312 142.554C148.955 138.877 150.562 134.394 150.562 129.51V72.3613C150.562 59.9887 140.499 49.9355 128.137 49.9355H70.9883C58.616 49.9355 48.5625 59.989 48.5625 72.3613V129.51C48.5625 134.007 49.9328 138.174 52.1983 141.692L53.217 143.274L53.9582 141.544C61.5129 123.917 78.738 112.181 98.4812 111.935L98.5063 109.936C85.7359 109.456 75.4844 98.9955 75.4844 86.1309C75.4844 72.9431 86.2185 62.209 99.4062 62.209C112.595 62.209 123.328 72.9246 123.328 86.1113C123.328 99.0841 112.928 109.629 100.025 109.955L100.031 111.955C119.68 112.337 137.226 124.576 144.576 142.353ZM40.5625 72.3613C40.5625 55.5836 54.2106 41.9355 70.9883 41.9355H128.137C144.914 41.9355 158.562 55.5836 158.562 72.3613V129.51C158.562 146.287 144.905 159.936 128.137 159.936H70.9883C54.2108 159.936 40.5625 146.278 40.5625 129.51V72.3613Z" fill="#7986FC" stroke="white" stroke-width="2"/>
<circle cx="141.562" cy="142" r="32" fill="#7986FC" stroke="white" stroke-width="4"/>
<path d="M153.298 144.802V150.617C153.298 152.068 152.783 153.308 151.753 154.338C150.723 155.368 149.483 155.883 148.032 155.883H132.817C131.367 155.883 130.126 155.368 129.096 154.338C128.066 153.308 127.551 152.068 127.551 150.617V135.402C127.551 133.952 128.066 132.711 129.096 131.681C130.126 130.651 131.367 130.136 132.817 130.136H148.032C148.8 130.136 149.513 130.288 150.171 130.593C150.354 130.678 150.464 130.818 150.501 131.014C150.537 131.221 150.482 131.398 150.336 131.544L149.44 132.44C149.318 132.562 149.178 132.623 149.019 132.623C148.983 132.623 148.928 132.611 148.855 132.586C148.574 132.513 148.3 132.476 148.032 132.476H132.817C132.013 132.476 131.324 132.763 130.751 133.336C130.178 133.909 129.891 134.598 129.891 135.402V150.617C129.891 151.421 130.178 152.11 130.751 152.683C131.324 153.256 132.013 153.543 132.817 153.543H148.032C148.836 153.543 149.525 153.256 150.098 152.683C150.671 152.11 150.958 151.421 150.958 150.617V145.972C150.958 145.814 151.013 145.679 151.122 145.57L152.293 144.399C152.415 144.277 152.555 144.216 152.713 144.216C152.786 144.216 152.86 144.235 152.933 144.271C153.177 144.369 153.298 144.546 153.298 144.802ZM157.523 135.859L142.637 150.745C142.345 151.037 141.997 151.184 141.595 151.184C141.193 151.184 140.845 151.037 140.553 150.745L132.689 142.882C132.397 142.589 132.25 142.242 132.25 141.839C132.25 141.437 132.397 141.089 132.689 140.797L134.701 138.785C134.993 138.493 135.341 138.346 135.743 138.346C136.146 138.346 136.493 138.493 136.786 138.785L141.595 143.595L153.426 131.763C153.719 131.471 154.066 131.324 154.469 131.324C154.871 131.324 155.219 131.471 155.511 131.763L157.523 133.775C157.815 134.067 157.962 134.415 157.962 134.817C157.962 135.219 157.815 135.567 157.523 135.859Z" fill="white"/>
<defs>
<radialGradient id="paint0_radial" cx="0" cy="0" r="1" gradientUnits="userSpaceOnUse" gradientTransform="translate(115.666 113.176) scale(81.25)">
<stop stop-color="#AFEEFF"/>
<stop offset="0.193" stop-color="#BBF1FF"/>
<stop offset="0.703" stop-color="#D7F8FF"/>
<stop offset="1" stop-color="#E1FAFF"/>
</radialGradient>
<radialGradient id="paint1_radial" cx="0" cy="0" r="1" gradientUnits="userSpaceOnUse" gradientTransform="translate(98.7406 94.4262) scale(89.9062)">
<stop stop-color="#AFEEFF"/>
<stop offset="0.193" stop-color="#BBF1FF"/>
<stop offset="0.703" stop-color="#D7F8FF"/>
<stop offset="1" stop-color="#E1FAFF"/>
</radialGradient>
<radialGradient id="paint2_radial" cx="0" cy="0" r="1" gradientUnits="userSpaceOnUse" gradientTransform="translate(102.125 100.936) scale(96.1719)">
<stop stop-color="#AFEEFF"/>
<stop offset="0.193" stop-color="#BBF1FF"/>
<stop offset="0.703" stop-color="#D7F8FF"/>
<stop offset="1" stop-color="#E1FAFF"/>
</radialGradient>
<radialGradient id="paint3_radial" cx="0" cy="0" r="1" gradientUnits="userSpaceOnUse" gradientTransform="translate(112.803 111.614) scale(87.3062)">
<stop stop-color="#AFEEFF"/>
<stop offset="0.193" stop-color="#BBF1FF"/>
<stop offset="0.703" stop-color="#D7F8FF"/>
<stop offset="1" stop-color="#E1FAFF"/>
</radialGradient>
<clipPath id="clip0">
<rect width="200" height="200" fill="white" transform="translate(0.5625 0.935547)"/>
</clipPath>
</defs>
</svg>
