<svg width="81" height="47" viewBox="0 0 81 47" fill="none" xmlns="http://www.w3.org/2000/svg">
<g filter="url(#filter0_d)">
<path d="M70.1287 5.29004L10.8703 5.29004C9.56665 5.29004 8.5 6.21918 8.5 7.35479L8.50096 33.29L13.2416 29.1605L70.1297 29.1605C71.4334 29.1605 72.5 28.2314 72.5 27.0958L72.499 7.35479C72.499 6.21918 71.4324 5.29004 70.1287 5.29004Z" fill="white"/>
<path d="M8.5 7.35479H8V7.35481L8.5 7.35479ZM8.50096 33.29L8.00096 33.2901L8.001 34.3886L8.82937 33.6671L8.50096 33.29ZM13.2416 29.1605V28.6605H13.0544L12.9132 28.7835L13.2416 29.1605ZM72.5 27.0958H73V27.0958L72.5 27.0958ZM72.499 7.35479H71.999V7.35481L72.499 7.35479ZM70.1287 4.79004L10.8703 4.79004V5.79004L70.1287 5.79004V4.79004ZM10.8703 4.79004C9.35755 4.79004 8 5.88046 8 7.35479H9C9 6.5579 9.77575 5.79004 10.8703 5.79004V4.79004ZM8 7.35481L8.00096 33.2901L9.00096 33.29L9 7.35477L8 7.35481ZM8.82937 33.6671L13.57 29.5376L12.9132 28.7835L8.17254 32.913L8.82937 33.6671ZM13.2416 29.6605L70.1297 29.6605V28.6605L13.2416 28.6605V29.6605ZM70.1297 29.6605C71.6425 29.6605 73 28.5701 73 27.0958H72C72 27.8927 71.2243 28.6605 70.1297 28.6605V29.6605ZM73 27.0958L72.999 7.35476L71.999 7.35481L72 27.0958L73 27.0958ZM72.999 7.35479C72.999 5.88046 71.6415 4.79004 70.1287 4.79004V5.79004C71.2233 5.79004 71.999 6.5579 71.999 7.35479H72.999Z" fill="#E2E5EF"/>
</g>
<defs>
<filter id="filter0_d" x="0" y="0.790039" width="81" height="45.5986" filterUnits="userSpaceOnUse" color-interpolation-filters="sRGB">
<feFlood flood-opacity="0" result="BackgroundImageFix"/>
<feColorMatrix in="SourceAlpha" type="matrix" values="0 0 0 0 0 0 0 0 0 0 0 0 0 0 0 0 0 0 127 0"/>
<feOffset dy="4"/>
<feGaussianBlur stdDeviation="4"/>
<feColorMatrix type="matrix" values="0 0 0 0 0.49567 0 0 0 0 0.519049 0 0 0 0 0.579167 0 0 0 0.22 0"/>
<feBlend mode="normal" in2="BackgroundImageFix" result="effect1_dropShadow"/>
<feBlend mode="normal" in="SourceGraphic" in2="effect1_dropShadow" result="shape"/>
</filter>
</defs>
</svg>
