<svg width="91" height="99" viewBox="0 0 91 99" fill="none" xmlns="http://www.w3.org/2000/svg">
<circle cx="45.1794" cy="45.6208" r="45.0271" fill="#FCC858" fill-opacity="0.2"/>
<path d="M20.4088 83.7861C19.3372 83.1663 17.6098 83.1663 16.5402 83.7861C15.4705 84.4059 15.4805 85.4096 16.5522 86.0274C17.6238 86.6451 19.3512 86.6471 20.4228 86.0274C21.4945 85.4076 21.4825 84.4059 20.4088 83.7861Z" fill="#E0E0E0"/>
<path d="M57.9057 46.4668L55.1906 44.9013C54.7738 44.6602 54.3007 44.5332 53.8191 44.5332C53.3375 44.5332 52.8644 44.6602 52.4476 44.9013L37.3867 53.6303L36.0572 52.8646L25.1549 59.2464L26.4125 59.9662L8.58458 70.2646C8.44547 70.3448 8.32993 70.4601 8.24959 70.5991C8.16925 70.7381 8.12695 70.8958 8.12695 71.0564C8.12695 71.2169 8.16925 71.3746 8.24959 71.5136C8.32993 71.6526 8.44547 71.768 8.58458 71.8481L11.3376 73.4316C11.755 73.6733 12.2288 73.8005 12.7112 73.8005C13.1935 73.8005 13.6673 73.6733 14.0847 73.4316L31.9026 63.1271L33.9839 64.3267C34.8181 64.8076 35.7641 65.0608 36.727 65.0608C37.6898 65.0608 38.6358 64.8076 39.47 64.3267L45.8678 60.6299C46.0534 60.5227 46.2075 60.3685 46.3146 60.1828C46.4217 59.9972 46.4781 59.7866 46.4781 59.5723C46.4781 59.358 46.4217 59.1474 46.3146 58.9618C46.2075 58.7761 46.0534 58.6219 45.8678 58.5147L42.8689 56.7873L45.398 55.3198L46.2737 54.8099L57.9157 48.0542C58.0553 47.9735 58.171 47.8573 58.2511 47.7174C58.3312 47.5775 58.3729 47.4188 58.3718 47.2576C58.3708 47.0964 58.3272 46.9383 58.2453 46.7994C58.1634 46.6605 58.0463 46.5458 57.9057 46.4668Z" fill="#E0E0E0"/>
<g filter="url(#filter0_d)">
<path d="M38.1279 72.6738C34.9989 70.8744 29.9407 70.8744 26.8317 72.6738C23.7228 74.4731 23.7388 77.4101 26.8697 79.2175C30.0007 81.0249 35.0549 81.0169 38.1659 79.2175C41.2768 77.4181 41.2628 74.4811 38.1279 72.6738Z" fill="#E0E0E0"/>
</g>
<g filter="url(#filter1_d)">
<path d="M64.5346 83.7754C61.6996 82.138 57.1152 82.138 54.2981 83.7754C51.4811 85.4129 51.4991 88.066 54.3321 89.7034C57.1651 91.3409 61.7516 91.3409 64.5686 89.7034C67.3856 88.066 67.3696 85.4129 64.5346 83.7754Z" fill="#E0E0E0"/>
</g>
<g filter="url(#filter2_d)">
<path d="M67.9301 59.7661C65.0071 58.0786 60.2827 58.0786 57.3797 59.7661C54.4767 61.4535 54.4907 64.1885 57.4137 65.876C60.3367 67.5634 65.0611 67.5634 67.9641 65.876C70.8671 64.1885 70.8531 61.4495 67.9301 59.7661Z" fill="#E0E0E0"/>
</g>
<path d="M81.4513 58.4924C80.3037 57.8307 78.4523 57.8307 77.3107 58.4924C76.1691 59.1542 76.1791 60.2278 77.3247 60.8916C78.4703 61.5554 80.3237 61.5534 81.4633 60.8916C82.6029 60.2298 82.5969 59.1542 81.4513 58.4924Z" fill="#E0E0E0"/>
<path d="M20.3598 19.0973L19.764 18.7515L13.4521 22.3802V23.072L20.3598 19.0973Z" fill="#F5F5F5"/>
<path d="M20.3598 19.0972L13.4521 23.0718V23.8595L20.3618 19.8909L20.3598 19.0972Z" fill="#E0E0E0"/>
<path d="M12.7954 23.444L12.1976 23.0981L5.88574 26.7269V27.4187L12.7954 23.444Z" fill="#F5F5F5"/>
<path d="M12.7954 23.4438L5.88574 27.4185V28.2062L12.7974 24.2376L12.7954 23.4438Z" fill="#E0E0E0"/>
<path d="M38.8031 8.47528L38.2073 8.12939L31.8955 11.7602V12.4499L38.8031 8.47528Z" fill="#F5F5F5"/>
<path d="M38.8031 8.47559L31.8955 12.4502V13.238L38.8051 9.26931L38.8031 8.47559Z" fill="#E0E0E0"/>
<path d="M31.2416 12.8215L30.6438 12.4756L24.334 16.1063V16.7961L31.2416 12.8215Z" fill="#F5F5F5"/>
<path d="M31.2416 12.8223L24.334 16.7969V17.5866L31.2436 13.616L31.2416 12.8223Z" fill="#E0E0E0"/>
<path d="M20.3263 12.4656L19.7305 12.1177L19.7645 33.4164L20.3623 33.7623L20.3263 12.4656Z" fill="#F0F0F0"/>
<path d="M20.3621 33.7624L19.7643 33.4165L12.8906 37.3612L13.4864 37.709L20.3621 33.7624Z" fill="#F5F5F5"/>
<path d="M21.0528 34.156L12.8037 38.8944L12.7637 16.0182L21.0128 11.2778L21.0528 34.156ZM13.4874 37.7088L20.3631 33.7621L20.3351 12.4654L13.4534 16.4101L13.4874 37.7088Z" fill="#E0E0E0"/>
<path d="M21.012 11.278L20.4142 10.9321L12.165 15.6705L12.7628 16.0184L21.012 11.278Z" fill="#F5F5F5"/>
<path d="M12.7628 16.0193L12.165 15.6714L12.205 38.5496L12.8028 38.8954L12.7628 16.0193Z" fill="#F0F0F0"/>
<path d="M12.7628 16.8122L12.165 16.4644L12.201 37.7631L12.7988 38.1089L12.7628 16.8122Z" fill="#F0F0F0"/>
<path d="M12.7977 38.1096L12.1999 37.7637L5.32422 41.7083L5.92201 42.0562L12.7977 38.1096Z" fill="#F5F5F5"/>
<path d="M13.4854 38.5022L5.23823 43.2406L5.19824 20.3644L13.4474 15.624L13.4854 38.5022ZM5.92199 42.055L12.7976 38.1083L12.7617 16.8116L5.88801 20.7563L5.92199 42.055Z" fill="#E0E0E0"/>
<path d="M13.4485 15.6247L12.8507 15.2788L4.60156 20.0172L5.19936 20.3651L13.4485 15.6247Z" fill="#F5F5F5"/>
<path d="M5.19936 20.365L4.60156 20.0171L4.64155 42.8953L5.23734 43.2411L5.19936 20.365Z" fill="#F0F0F0"/>
<path d="M38.7706 1.84349L38.1748 1.49561L38.2088 22.7943L38.8066 23.1402L38.7706 1.84349Z" fill="#F0F0F0"/>
<path d="M38.8054 23.1398L38.2076 22.7939L31.334 26.7386L31.9298 27.0865L38.8054 23.1398Z" fill="#F5F5F5"/>
<path d="M39.4952 23.5339L31.246 28.2723L31.2061 5.39614L39.4552 0.655762L39.4952 23.5339ZM31.9298 27.0867L38.8055 23.1401L38.7695 1.84336L31.8958 5.78401L31.9298 27.0867Z" fill="#E0E0E0"/>
<path d="M39.4554 0.65594L38.8576 0.310059L30.6084 5.04844L31.2062 5.39632L39.4554 0.65594Z" fill="#F5F5F5"/>
<path d="M31.2062 5.39622L30.6084 5.04834L30.6484 27.9265L31.2462 28.2724L31.2062 5.39622Z" fill="#F0F0F0"/>
<path d="M31.2062 6.19017L30.6084 5.84229L30.6444 27.141L31.2422 27.4869L31.2062 6.19017Z" fill="#F0F0F0"/>
<path d="M31.242 27.4865L30.6442 27.1406L23.7686 31.0873L24.3664 31.4332L31.242 27.4865Z" fill="#F5F5F5"/>
<path d="M31.9297 27.8811L23.6826 32.6195L23.6426 9.74331L31.8918 5.00293L31.9297 27.8811ZM24.3663 31.4339L31.242 27.4872L31.206 6.18453L24.3323 10.1372L24.3663 31.4339Z" fill="#E0E0E0"/>
<path d="M31.8929 5.00262L31.2951 4.65674L23.0459 9.39512L23.6437 9.743L31.8929 5.00262Z" fill="#F5F5F5"/>
<path d="M23.6437 9.7429L23.0459 9.39502L23.0859 32.2732L23.6837 32.6191L23.6437 9.7429Z" fill="#F0F0F0"/>
<path d="M75.5358 24.5793L75.5198 29.5736L74.916 29.9255L74.932 24.2314L75.5358 24.5793Z" fill="#F0F0F0"/>
<path d="M82.0556 33.3484L82.0536 34.0482L74.916 29.9256L75.5198 29.5737L82.0556 33.3484Z" fill="#F5F5F5"/>
<path d="M74.1816 30.3432L82.7787 35.3095L82.7987 27.936L74.2016 22.9697L74.1816 30.3432ZM74.9154 29.9253L74.9314 24.2313L75.5312 24.5792L82.0649 28.3519L82.051 33.3502V34.0519L74.9154 29.9253Z" fill="#E0E0E0"/>
<path d="M74.2021 22.97L74.8079 22.6182L83.409 27.5845L82.8032 27.9363L74.2021 22.97Z" fill="#F5F5F5"/>
<path d="M83.408 27.5845L83.388 34.9579L82.7822 35.3098L82.8022 27.9364L83.408 27.5845Z" fill="#F0F0F0"/>
<path d="M75.5358 13.3957L75.5198 18.39L74.916 18.7419L74.932 13.0479L75.5358 13.3957Z" fill="#F0F0F0"/>
<path d="M82.0556 22.1644L82.0536 22.8641L74.916 18.7415L75.5198 18.3896L82.0556 22.1644Z" fill="#F5F5F5"/>
<path d="M74.1816 19.1592L82.7787 24.1255L82.7987 16.752L74.2016 11.7817L74.1816 19.1592ZM74.9154 18.7414L74.9314 13.0473L75.5312 13.3952L82.0649 17.1679L82.051 22.1662V22.8659L74.9154 18.7414Z" fill="#E0E0E0"/>
<path d="M74.2002 11.786L74.806 11.4341L83.407 16.4004L82.8013 16.7523L74.2002 11.786Z" fill="#F5F5F5"/>
<path d="M83.408 16.4004L83.388 23.7759L82.7822 24.1257L82.8022 16.7523L83.408 16.4004Z" fill="#F0F0F0"/>
<path d="M77.6106 26.4771L75.8292 27.8786L75.8252 29.2501L81.7532 32.6729L81.7572 31.3014L80.6276 29.0582L79.6119 29.8459L79.9718 30.9595L79.45 29.9699L77.6106 26.4771Z" fill="#E0E0E0"/>
<path d="M79.5566 27.1772C79.2787 27.0173 79.0508 27.1452 79.0508 27.4671C79.0599 27.6417 79.11 27.8116 79.1973 27.9631C79.2845 28.1146 79.4062 28.2433 79.5526 28.3388C79.8325 28.4988 80.0604 28.3708 80.0604 28.0489C80.051 27.8742 80.0004 27.7042 79.9129 27.5527C79.8253 27.4013 79.7033 27.2726 79.5566 27.1772Z" fill="#E0E0E0"/>
<path d="M77.6106 15.2925L75.8292 16.696L75.8252 18.0655L81.7532 21.4884L81.7572 20.1168L80.6276 17.8736L79.6119 18.6613L79.9718 19.7749L79.45 18.7853L77.6106 15.2925Z" fill="#E0E0E0"/>
<path d="M79.5566 15.9799C79.2787 15.82 79.0508 15.948 79.0508 16.2698C79.0599 16.4444 79.11 16.6143 79.1973 16.7658C79.2845 16.9173 79.4062 17.046 79.5526 17.1415C79.8325 17.3035 80.0604 17.1735 80.0604 16.8516C80.051 16.6769 80.0004 16.507 79.9129 16.3555C79.8253 16.204 79.7033 16.0753 79.5566 15.9799Z" fill="#E0E0E0"/>
<path d="M43.6449 58.9659L38.4227 61.9529C37.6725 62.3836 36.8226 62.6103 35.9575 62.6103C35.0925 62.6103 34.2425 62.3836 33.4924 61.9529L29.6177 59.7196C29.3918 59.5899 29.2042 59.403 29.0736 59.1776C28.943 58.9523 28.8742 58.6965 28.8739 58.4361V55.793L28.0742 56.2588V58.546C28.0741 58.8505 28.1542 59.1496 28.3065 59.4132C28.4589 59.6768 28.678 59.8956 28.9419 60.0475L33.5403 62.6986C34.2788 63.1231 35.1157 63.3465 35.9675 63.3465C36.8193 63.3465 37.6562 63.1231 38.3947 62.6986L43.6549 59.6996C44.0129 59.4957 44.2981 59.1846 44.4702 58.8102C44.6423 58.4358 44.6928 58.0169 44.6146 57.6123C44.5628 57.8955 44.449 58.1637 44.2813 58.3977C44.1137 58.6317 43.8963 58.8258 43.6449 58.9659Z" fill="#FFAA00"/>
<path opacity="0.1" d="M43.6449 58.9659L38.4227 61.9529C37.6725 62.3836 36.8226 62.6103 35.9575 62.6103C35.0925 62.6103 34.2425 62.3836 33.4924 61.9529L29.6177 59.7196C29.3918 59.5899 29.2042 59.403 29.0736 59.1776C28.943 58.9523 28.8742 58.6965 28.8739 58.4361V55.793L28.0742 56.2588V58.546C28.0741 58.8505 28.1542 59.1496 28.3065 59.4132C28.4589 59.6768 28.678 59.8956 28.9419 60.0475L33.5403 62.6986C34.2788 63.1231 35.1157 63.3465 35.9675 63.3465C36.8193 63.3465 37.6562 63.1231 38.3947 62.6986L43.6549 59.6996C44.0129 59.4957 44.2981 59.1846 44.4702 58.8102C44.6423 58.4358 44.6928 58.0169 44.6146 57.6123C44.5628 57.8955 44.449 58.1637 44.2813 58.3977C44.1137 58.6317 43.8963 58.8258 43.6449 58.9659Z" fill="black"/>
<path d="M29.6179 59.7094L33.4925 61.9426C34.2427 62.3734 35.0926 62.6001 35.9577 62.6001C36.8227 62.6001 37.6727 62.3734 38.4228 61.9426L43.6451 58.9656C43.8947 58.8244 44.1101 58.6299 44.2759 58.3959C44.4418 58.162 44.5541 57.8943 44.6047 57.6121C44.5546 57.3374 44.4463 57.0766 44.287 56.8472C44.1276 56.6179 43.921 56.4253 43.681 56.2825L39.3965 53.7134C39.1398 53.5592 38.9273 53.3411 38.7798 53.0805C38.6323 52.8198 38.5548 52.5254 38.5548 52.2259V50.1826L28.8701 55.7807V58.4238C28.8704 58.685 28.9397 58.9414 29.071 59.1672C29.2023 59.393 29.391 59.58 29.6179 59.7094Z" fill="#FFAA00"/>
<path opacity="0.4" d="M29.6177 59.7094C29.3918 59.5797 29.2042 59.3927 29.0736 59.1674C28.943 58.942 28.8742 58.6863 28.8739 58.4258V55.7827L28.0742 56.2486V58.5458C28.0741 58.8502 28.1542 59.1494 28.3065 59.413C28.4589 59.6766 28.678 59.8954 28.9419 60.0473L30.5734 60.9889V60.2532L29.6177 59.7094Z" fill="black"/>
<path opacity="0.3" d="M29.6179 59.7094L30.5615 60.2532L40.6721 54.4751L39.3965 53.7114C39.1398 53.5572 38.9273 53.3391 38.7798 53.0785C38.6323 52.8178 38.5548 52.5234 38.5548 52.2239V50.1826L28.8701 55.7807V58.4238C28.8704 58.685 28.9397 58.9414 29.071 59.1672C29.2023 59.393 29.391 59.58 29.6179 59.7094Z" fill="black"/>
<path d="M12.0412 65.3254L11.9672 32.2048C11.994 31.6919 12.1418 31.1926 12.3986 30.7478C12.6554 30.303 13.0139 29.9253 13.4447 29.6457L54.6127 5.93777C55.0125 5.70385 55.3884 5.67986 55.6563 5.82981L54.1068 4.93212C53.8349 4.76018 53.453 4.77417 53.0292 5.01809L11.8613 28.728C11.4311 29.0083 11.0732 29.3862 10.8164 29.8308C10.5597 30.2755 10.4115 30.7744 10.3838 31.2871L10.4598 64.4058C10.4598 64.8496 10.6097 65.1675 10.8596 65.3294C10.8858 65.3473 10.9132 65.3634 10.9416 65.3774L12.4711 66.2671C12.2052 66.1132 12.0432 65.7873 12.0412 65.3254Z" fill="#FFAA00"/>
<path opacity="0.3" d="M54.1074 4.93212C53.8355 4.76018 53.4537 4.77417 53.0298 5.01809L11.8619 28.728C11.3783 29.037 10.9895 29.4735 10.7383 29.9895L12.3217 30.9052C12.5751 30.3887 12.9668 29.9527 13.4534 29.6457L54.6133 5.93777C55.0131 5.70385 55.389 5.67986 55.6569 5.82981L54.1074 4.93212Z" fill="white"/>
<path opacity="0.2" d="M10.3838 31.2868L10.4598 64.4055C10.4598 64.8493 10.6097 65.1672 10.8596 65.3292C10.8858 65.347 10.9132 65.3631 10.9416 65.3771L12.4711 66.2668C12.2092 66.1109 12.0472 65.785 12.0452 65.3232L11.9712 32.2025C11.9836 31.7483 12.1021 31.3032 12.3171 30.9029L10.7377 29.9893C10.5207 30.3885 10.3996 30.8327 10.3838 31.2868Z" fill="black"/>
<path d="M56.1007 6.78353C56.1007 6.32169 55.9367 5.9958 55.6748 5.83985H55.6648C55.3969 5.6899 55.027 5.71389 54.6212 5.94781L13.4453 29.6457C13.0144 29.9253 12.656 30.303 12.3992 30.7478C12.1423 31.1926 11.9945 31.6919 11.9678 32.2048L12.0417 65.3255C12.0417 65.7873 12.2057 66.1132 12.4676 66.2692C12.4741 66.275 12.4816 66.2797 12.4896 66.2832H12.5016C12.7675 66.4231 13.1294 66.3971 13.5292 66.1652L54.6971 42.4653C55.1273 42.185 55.4853 41.8071 55.742 41.3625C55.9987 40.9178 56.1469 40.4189 56.1746 39.9062L56.1007 6.78353ZM53.9654 41.1977L13.5032 64.4978L13.4293 32.2008C13.4576 31.946 13.5388 31.7 13.6675 31.4783C13.7963 31.2566 13.9698 31.0642 14.177 30.9133L54.6392 7.61324L54.7111 39.9102C54.6835 40.1649 54.6029 40.4111 54.4744 40.6328C54.346 40.8546 54.1726 41.047 53.9654 41.1977Z" fill="#FFAA00"/>
<path d="M54.6389 7.61377L53.5913 8.21356L53.6613 39.4029C53.6336 39.6576 53.553 39.9038 53.4246 40.1255C53.2961 40.3473 53.1227 40.5397 52.9155 40.6904L13.499 63.3827V64.4983L53.9652 41.1983C54.1724 41.0475 54.3458 40.8551 54.4742 40.6334C54.6026 40.4116 54.6833 40.1655 54.7109 39.9107L54.6389 7.61377Z" fill="#FFAA00"/>
<path opacity="0.3" d="M54.6389 7.61377L53.5913 8.21356L53.6613 39.4029C53.6336 39.6576 53.553 39.9038 53.4246 40.1255C53.2961 40.3473 53.1227 40.5397 52.9155 40.6904L13.499 63.3827V64.4983L53.9652 41.1983C54.1724 41.0475 54.3458 40.8551 54.4742 40.6334C54.6026 40.4116 54.6833 40.1655 54.7109 39.9107L54.6389 7.61377Z" fill="black"/>
<path d="M53.6609 39.3983L53.591 8.20898L14.1765 30.9132C13.9692 31.0641 13.7957 31.2565 13.667 31.4782C13.5382 31.6999 13.4571 31.946 13.4287 32.2008L13.4987 63.3901L52.9232 40.6859C53.1289 40.5343 53.3008 40.3416 53.4278 40.1199C53.5549 39.8982 53.6343 39.6524 53.6609 39.3983Z" fill="#455A64"/>
<path d="M18.2804 66.9994L18.2104 35.6961C18.2362 35.211 18.3764 34.7389 18.6197 34.3185C18.8629 33.898 19.2023 33.5411 19.6099 33.2769L58.5226 10.8686C58.9085 10.6467 59.2564 10.6247 59.5103 10.7666L58.0448 9.91693C57.7889 9.75499 57.429 9.76698 57.0271 9.9989L18.1105 32.4092C17.7024 32.673 17.3628 33.0298 17.1195 33.4504C16.8763 33.8709 16.7362 34.3432 16.7109 34.8284L16.7809 66.1317C16.7809 66.5495 16.9229 66.8494 17.1528 67.0054L17.2308 67.0514L18.6763 67.8931C18.4343 67.7451 18.2824 67.4352 18.2804 66.9994Z" fill="#FFAA00"/>
<path opacity="0.4" d="M58.038 9.91693C57.7821 9.75499 57.4222 9.76698 57.0204 9.9989L18.1097 32.4092C17.6485 32.7019 17.2781 33.1173 17.04 33.6088L18.5375 34.4745C18.7746 33.9829 19.1444 33.5674 19.6052 33.2749L58.5218 10.8686C58.9077 10.6467 59.2556 10.6247 59.5095 10.7666L58.038 9.91693Z" fill="white"/>
<path opacity="0.3" d="M16.7139 34.8287L16.7838 66.1319C16.7838 66.5498 16.9258 66.8497 17.1557 67.0056L17.2337 67.0516L18.6792 67.8933C18.4313 67.7454 18.2793 67.4355 18.2793 66.9996L18.2094 35.6964C18.2205 35.2664 18.3328 34.8452 18.5372 34.4668L17.0398 33.6011C16.8368 33.9792 16.7252 34.3996 16.7139 34.8287Z" fill="white"/>
<path d="M18.2139 37.5098L18.2798 66.9997C18.2798 67.4356 18.4338 67.7454 18.6797 67.8934L18.7017 67.9054C18.9556 68.0393 19.3015 68.0134 19.6734 67.7954L58.596 45.3931C59.0033 45.1285 59.3423 44.7715 59.5855 44.3511C59.8287 43.9307 59.9692 43.4589 59.9956 42.9739L59.9216 13.436L18.2139 37.5098Z" fill="#FFAA00"/>
<path opacity="0.5" d="M18.2139 37.5098L18.2798 66.9997C18.2798 67.4356 18.4338 67.7454 18.6797 67.8934L18.7017 67.9054C18.9556 68.0393 19.3015 68.0134 19.6734 67.7954L58.596 45.3931C59.0033 45.1285 59.3423 44.7715 59.5855 44.3511C59.8287 43.9307 59.9692 43.4589 59.9956 42.9739L59.9216 13.436L18.2139 37.5098Z" fill="white"/>
<path d="M58.322 15.3973C58.6819 15.1973 58.9778 15.3573 58.9778 15.7711C58.9659 15.9979 58.9003 16.2187 58.7863 16.4151C58.6722 16.6115 58.5131 16.778 58.322 16.9007L24.9614 36.1741C24.6016 36.3741 24.3077 36.2161 24.3057 35.8003C24.3182 35.5741 24.3837 35.354 24.4969 35.1578C24.6101 34.9616 24.7679 34.7947 24.9574 34.6707L58.322 15.3973Z" fill="#FFAA00"/>
<g opacity="0.8">
<path opacity="0.8" d="M58.322 15.3973C58.6819 15.1973 58.9778 15.3573 58.9778 15.7711C58.9659 15.9979 58.9003 16.2187 58.7863 16.4151C58.6722 16.6115 58.5131 16.778 58.322 16.9007L24.9614 36.1741C24.6016 36.3741 24.3077 36.2161 24.3057 35.8003C24.3182 35.5741 24.3837 35.354 24.4969 35.1578C24.6101 34.9616 24.7679 34.7947 24.9574 34.6707L58.322 15.3973Z" fill="white"/>
</g>
<path d="M20.0592 37.8477C20.0659 37.8438 20.0734 37.8418 20.0812 37.8418C20.0889 37.8418 20.0965 37.8438 20.1031 37.8477C20.1291 37.8597 20.1311 37.9077 20.1031 37.9517L19.8912 38.3395L20.603 37.9277C20.639 37.9077 20.669 37.9277 20.669 37.9656C20.6682 37.9886 20.6617 38.011 20.6502 38.0309C20.6387 38.0507 20.6225 38.0675 20.603 38.0796L19.8932 38.4915L20.1051 38.6334C20.1291 38.6494 20.1271 38.6994 20.1051 38.7434C20.0948 38.7618 20.0796 38.777 20.0612 38.7874C20.0542 38.7926 20.0458 38.7954 20.0372 38.7954C20.0285 38.7954 20.0201 38.7926 20.0132 38.7874L19.6993 38.5734C19.6932 38.5695 19.6883 38.564 19.6853 38.5574C19.6843 38.5495 19.6843 38.5414 19.6853 38.5335C19.6843 38.5241 19.6843 38.5148 19.6853 38.5055L19.6973 38.4735L20.0092 37.8997C20.021 37.8783 20.0382 37.8604 20.0592 37.8477Z" fill="#FFAA00"/>
<path d="M21.8542 36.8097C21.8615 36.8054 21.8697 36.8032 21.8782 36.8032C21.8866 36.8032 21.8949 36.8054 21.9021 36.8097L22.216 37.0216C22.2216 37.0255 22.2258 37.0311 22.228 37.0376C22.2299 37.0461 22.2299 37.055 22.228 37.0636C22.2289 37.0729 22.2289 37.0822 22.228 37.0916L22.216 37.1215L21.9021 37.6953C21.8917 37.7176 21.875 37.7363 21.8542 37.7493C21.8473 37.7525 21.8398 37.7542 21.8322 37.7542C21.8246 37.7542 21.8171 37.7525 21.8102 37.7493C21.7842 37.7353 21.7822 37.6894 21.8102 37.6434L22.0101 37.2555L21.3004 37.6674C21.2644 37.6874 21.2344 37.6674 21.2344 37.6294C21.2354 37.6067 21.2418 37.5846 21.2529 37.5648C21.264 37.545 21.2796 37.5281 21.2984 37.5154L22.0101 37.1056L21.7982 36.9616C21.7742 36.9456 21.7762 36.8976 21.7982 36.8536C21.8127 36.8344 21.832 36.8192 21.8542 36.8097Z" fill="#FFAA00"/>
<path d="M23.1692 36.0521C23.2335 36.0096 23.3104 35.9905 23.3871 35.9981C23.3902 35.9774 23.3978 35.9576 23.4091 35.94C23.4205 35.9224 23.4355 35.9075 23.4531 35.8961C23.4891 35.8781 23.517 35.8961 23.517 35.9381V36.106C23.5152 36.128 23.5085 36.1492 23.4975 36.1682C23.4864 36.1873 23.4712 36.2036 23.4531 36.216L23.3111 36.306C23.2771 36.326 23.2471 36.306 23.2471 36.272C23.247 36.2522 23.2512 36.2326 23.2595 36.2146C23.2678 36.1966 23.2799 36.1807 23.2951 36.168C23.2534 36.1696 23.2127 36.182 23.1772 36.204C23.0969 36.2558 23.0302 36.326 22.9826 36.4087C22.9349 36.4915 22.9077 36.5844 22.9033 36.6798C22.9033 36.8538 23.0272 36.9258 23.1792 36.8378C23.2916 36.7656 23.3768 36.658 23.4211 36.5319C23.4313 36.5018 23.4518 36.4763 23.4791 36.4599C23.4896 36.4573 23.5005 36.4573 23.511 36.4599C23.543 36.4599 23.555 36.4999 23.537 36.5479C23.4708 36.7333 23.3449 36.8915 23.1792 36.9977C22.9552 37.1277 22.7793 37.0237 22.7793 36.7658C22.7832 36.6245 22.8206 36.4861 22.8883 36.362C22.9561 36.2379 23.0524 36.1317 23.1692 36.0521Z" fill="#FFAA00"/>
<g opacity="0.7">
<path opacity="0.7" d="M20.0601 37.8487C20.0668 37.8448 20.0744 37.8428 20.0821 37.8428C20.0899 37.8428 20.0974 37.8448 20.1041 37.8487C20.1301 37.8607 20.1321 37.9086 20.1041 37.9526L19.8922 38.3405L20.604 37.9286C20.6399 37.9086 20.6699 37.9286 20.6699 37.9666C20.6691 37.9896 20.6627 38.012 20.6512 38.0319C20.6397 38.0517 20.6235 38.0685 20.604 38.0806L19.8942 38.4924L20.1061 38.6344C20.1301 38.6504 20.1281 38.7004 20.1061 38.7444C20.0957 38.7628 20.0805 38.778 20.0621 38.7883C20.0552 38.7935 20.0468 38.7963 20.0381 38.7963C20.0295 38.7963 20.0211 38.7935 20.0142 38.7883L19.7003 38.5744C19.6942 38.5705 19.6893 38.565 19.6863 38.5584C19.6853 38.5505 19.6853 38.5424 19.6863 38.5344C19.6853 38.5251 19.6853 38.5157 19.6863 38.5064L19.6983 38.4745L20.0102 37.9006C20.022 37.8793 20.0392 37.8613 20.0601 37.8487Z" fill="white"/>
<path opacity="0.7" d="M21.8551 36.8111C21.8624 36.8069 21.8707 36.8047 21.8791 36.8047C21.8876 36.8047 21.8958 36.8069 21.9031 36.8111L22.217 37.023C22.2226 37.027 22.2268 37.0326 22.229 37.039C22.2308 37.0476 22.2308 37.0565 22.229 37.065C22.2299 37.0743 22.2299 37.0837 22.229 37.093L22.217 37.123L21.9031 37.6968C21.8926 37.719 21.876 37.7378 21.8551 37.7508C21.8483 37.754 21.8407 37.7557 21.8331 37.7557C21.8255 37.7557 21.818 37.754 21.8112 37.7508C21.7852 37.7368 21.7832 37.6908 21.8112 37.6448L22.0111 37.257L21.3013 37.6688C21.2653 37.6888 21.2354 37.6688 21.2354 37.6308C21.2364 37.6082 21.2428 37.5861 21.2539 37.5663C21.265 37.5465 21.2805 37.5296 21.2993 37.5169L22.0111 37.107L21.7992 36.9631C21.7752 36.9471 21.7772 36.8991 21.7992 36.8551C21.8137 36.8359 21.833 36.8207 21.8551 36.8111Z" fill="white"/>
<path opacity="0.7" d="M23.1692 36.053C23.2335 36.0106 23.3104 35.9915 23.3871 35.999C23.3902 35.9784 23.3978 35.9586 23.4091 35.941C23.4205 35.9234 23.4355 35.9084 23.4531 35.8971C23.4891 35.8791 23.517 35.8971 23.517 35.9391V36.107C23.5152 36.1289 23.5085 36.1502 23.4975 36.1692C23.4864 36.1882 23.4712 36.2046 23.4531 36.217L23.3111 36.3069C23.2771 36.3269 23.2471 36.3069 23.2471 36.273C23.247 36.2532 23.2512 36.2336 23.2595 36.2156C23.2678 36.1976 23.2799 36.1817 23.2951 36.169C23.2534 36.1706 23.2127 36.183 23.1772 36.205C23.0969 36.2568 23.0302 36.327 22.9826 36.4097C22.9349 36.4925 22.9077 36.5854 22.9033 36.6808C22.9033 36.8548 23.0272 36.9267 23.1792 36.8388C23.2916 36.7666 23.3768 36.6589 23.4211 36.5329C23.4313 36.5028 23.4518 36.4772 23.4791 36.4609C23.4896 36.4583 23.5005 36.4583 23.511 36.4609C23.543 36.4609 23.555 36.5009 23.537 36.5489C23.4708 36.7343 23.3449 36.8925 23.1792 36.9987C22.9552 37.1287 22.7793 37.0247 22.7793 36.7668C22.7832 36.6255 22.8206 36.4871 22.8883 36.363C22.9561 36.2389 23.0524 36.1327 23.1692 36.053Z" fill="white"/>
</g>
<g opacity="0.5">
<path opacity="0.5" d="M20.6453 55.5255C20.534 55.5266 20.4243 55.4984 20.3274 55.4435C20.207 55.3614 20.1106 55.2486 20.0484 55.1168C19.9862 54.985 19.9603 54.8389 19.9735 54.6938L19.9355 42.5299C19.9557 42.1554 20.064 41.7908 20.2516 41.466C20.4392 41.1412 20.7008 40.8652 21.0152 40.6606L35.6102 32.2355C35.7241 32.1407 35.8643 32.0831 36.0119 32.0702C36.1595 32.0572 36.3075 32.0897 36.4362 32.1631C36.5649 32.2366 36.668 32.3476 36.7319 32.4813C36.7958 32.6149 36.8174 32.7649 36.7938 32.9112L36.8278 45.0751C36.8079 45.4497 36.6998 45.8143 36.5122 46.1392C36.3245 46.4641 36.0627 46.74 35.7481 46.9444L21.1531 55.3695C21.0005 55.4652 20.8253 55.519 20.6453 55.5255ZM36.13 32.2774C35.9833 32.2832 35.8406 32.3274 35.7161 32.4054L21.1211 40.8305C20.8351 41.0163 20.5971 41.2671 20.4265 41.5625C20.2559 41.8578 20.1575 42.1893 20.1395 42.5299L20.1755 54.6938C20.1624 54.804 20.179 54.9157 20.2237 55.0173C20.2683 55.1189 20.3393 55.2067 20.4294 55.2716C20.5319 55.3169 20.6446 55.3341 20.756 55.3214C20.8674 55.3088 20.9734 55.2667 21.0632 55.1996L35.6582 46.7745C35.9434 46.5883 36.1808 46.3376 36.3513 46.0428C36.5218 45.7479 36.6207 45.4171 36.6398 45.0771L36.6038 32.9112C36.6167 32.801 36.6 32.6894 36.5554 32.5878C36.5107 32.4863 36.4398 32.3984 36.3499 32.3334C36.2831 32.2951 36.207 32.2758 36.13 32.2774Z" fill="white"/>
</g>
<path d="M48.8155 47.2321C48.7681 47.2323 48.7214 47.2206 48.6796 47.1981C48.6311 47.1653 48.5921 47.1204 48.5665 47.0677C48.5408 47.0151 48.5295 46.9566 48.5336 46.8982L48.4736 26.1374C48.4798 26.0048 48.5176 25.8757 48.5841 25.7609C48.6506 25.6461 48.7436 25.5489 48.8555 25.4776L57.0527 20.7432C57.0996 20.7065 57.1564 20.6847 57.2158 20.6805C57.2753 20.6762 57.3346 20.6897 57.3863 20.7193C57.438 20.7489 57.4797 20.7932 57.5061 20.8466C57.5325 20.9 57.5424 20.9601 57.5345 21.0191L57.5945 41.772C57.5888 41.9044 57.5513 42.0334 57.4852 42.1483C57.419 42.2631 57.3263 42.3603 57.2146 42.4318L49.0174 47.1662C48.9573 47.2059 48.8875 47.2287 48.8155 47.2321ZM57.1047 20.8272L57.1527 20.9131L48.9555 25.6475C48.8733 25.7015 48.8049 25.7738 48.7556 25.8589C48.7063 25.9439 48.6775 26.0392 48.6716 26.1374L48.7315 46.8982C48.7285 46.9222 48.7313 46.9465 48.7396 46.9691C48.748 46.9917 48.7617 47.012 48.7795 47.0282C48.8028 47.0352 48.8274 47.0367 48.8513 47.0326C48.8753 47.0284 48.8979 47.0187 48.9175 47.0042L57.1147 42.2698C57.1961 42.2153 57.264 42.1428 57.3128 42.0578C57.3617 41.9729 57.3904 41.8778 57.3966 41.78L57.3386 21.0191C57.3386 20.9551 57.3206 20.9071 57.2886 20.8891C57.2654 20.8816 57.2407 20.8799 57.2167 20.8841C57.1926 20.8882 57.17 20.8982 57.1507 20.9131L57.1047 20.8272Z" fill="white"/>
<path d="M28.2586 52.3891C28.5625 52.2152 28.8084 52.3551 28.8104 52.705L28.8284 59.1808C28.8183 59.371 28.7635 59.5562 28.6683 59.7213C28.5731 59.8863 28.4402 60.0265 28.2806 60.1305L20.5093 64.6169C20.2054 64.7929 19.9594 64.6509 19.9574 64.303L19.9395 57.8253C19.9495 57.635 20.0044 57.4498 20.0996 57.2848C20.1948 57.1198 20.3276 56.9796 20.4873 56.8756L28.2586 52.3891Z" fill="#FFAA00"/>
<g opacity="0.2">
<path opacity="0.2" d="M28.2586 52.3891C28.5625 52.2152 28.8084 52.3551 28.8104 52.705L28.8284 59.1808C28.8183 59.371 28.7635 59.5562 28.6683 59.7213C28.5731 59.8863 28.4402 60.0265 28.2806 60.1305L20.5093 64.6169C20.2054 64.7929 19.9594 64.6509 19.9574 64.303L19.9395 57.8253C19.9495 57.635 20.0044 57.4498 20.0996 57.2848C20.1948 57.1198 20.3276 56.9796 20.4873 56.8756L28.2586 52.3891Z" fill="white"/>
</g>
<path d="M28.3167 52.8146C28.323 52.8098 28.3307 52.8071 28.3387 52.8071C28.3467 52.8071 28.3544 52.8098 28.3607 52.8146C28.3787 52.8306 28.3727 52.8746 28.3487 52.9086L24.476 58.4467L28.3687 59.5023C28.3927 59.5023 28.3987 59.5463 28.3687 59.5843C28.3603 59.6061 28.3448 59.6244 28.3247 59.6363C28.3144 59.6401 28.303 59.6401 28.2927 59.6363L24.374 58.5727L20.4834 64.1647C20.4748 64.1773 20.464 64.1882 20.4514 64.1967C20.445 64.2013 20.4373 64.2037 20.4294 64.2037C20.4215 64.2037 20.4138 64.2013 20.4074 64.1967C20.399 64.1815 20.3956 64.164 20.3977 64.1468C20.3999 64.1295 20.4075 64.1134 20.4194 64.1008L24.2921 58.5667L20.3994 57.511C20.3754 57.511 20.3694 57.467 20.3874 57.4291C20.3972 57.4081 20.4124 57.3902 20.4314 57.3771C20.4424 57.3734 20.4544 57.3734 20.4654 57.3771L24.384 58.4407L28.2827 52.8626C28.2902 52.8442 28.3018 52.8278 28.3167 52.8146Z" fill="white"/>
<path d="M37.7938 47.0185C38.0977 46.8446 38.3456 46.9845 38.3456 47.3344L38.3636 53.8102C38.3543 54.0006 38.2998 54.1861 38.2045 54.3513C38.1092 54.5164 37.976 54.6565 37.8158 54.7599L30.0464 59.2463C29.7425 59.4223 29.4946 59.2803 29.4946 58.9324L29.4746 52.4547C29.4851 52.2643 29.5403 52.079 29.6358 51.914C29.7314 51.749 29.8645 51.6088 30.0244 51.505L37.7938 47.0185Z" fill="#FFAA00"/>
<g opacity="0.2">
<path opacity="0.2" d="M37.7938 47.0185C38.0977 46.8446 38.3456 46.9845 38.3456 47.3344L38.3636 53.8102C38.3543 54.0006 38.2998 54.1861 38.2045 54.3513C38.1092 54.5164 37.976 54.6565 37.8158 54.7599L30.0464 59.2463C29.7425 59.4223 29.4946 59.2803 29.4946 58.9324L29.4746 52.4547C29.4851 52.2643 29.5403 52.079 29.6358 51.914C29.7314 51.749 29.8645 51.6088 30.0244 51.505L37.7938 47.0185Z" fill="white"/>
</g>
<path d="M37.8525 47.4444C37.8705 47.4444 37.8865 47.4344 37.8965 47.4444C37.9049 47.4595 37.9084 47.4768 37.9066 47.4939C37.9048 47.5111 37.8978 47.5273 37.8865 47.5404L34.0138 53.0785L37.9045 54.1341C37.9285 54.1341 37.9345 54.1781 37.9165 54.2161C37.9067 54.237 37.8915 54.2549 37.8725 54.268C37.8614 54.2717 37.8495 54.2717 37.8385 54.268L33.9198 53.2044L30.0212 58.7825C30.0119 58.7952 30.0004 58.806 29.9872 58.8145C29.9806 58.8188 29.973 58.8211 29.9652 58.8211C29.9574 58.8211 29.9497 58.8188 29.9432 58.8145C29.9252 58.7965 29.9312 58.7525 29.9552 58.7185L33.8279 53.1804L29.9332 52.1308C29.9072 52.1308 29.9032 52.0868 29.9212 52.0488C29.9296 52.027 29.9451 52.0087 29.9652 51.9968C29.9755 51.9932 29.9868 51.9932 29.9972 51.9968L33.9158 53.0605L37.8165 47.4824C37.8256 47.4673 37.8379 47.4543 37.8525 47.4444Z" fill="white"/>
<path d="M47.2098 41.5999C47.5137 41.4239 47.7596 41.5639 47.7596 41.9138L47.7796 48.3916C47.7698 48.5818 47.7148 48.767 47.6192 48.9318C47.5236 49.0966 47.3901 49.2363 47.2298 49.3392L39.4604 53.8257C39.1565 54.0016 38.9106 53.8597 38.9086 53.5118L38.8906 47.034C38.8999 46.8436 38.9544 46.6581 39.0497 46.4929C39.145 46.3278 39.2782 46.1877 39.4384 46.0844L47.2098 41.5999Z" fill="#FFAA00"/>
<g opacity="0.2">
<path opacity="0.2" d="M47.2098 41.5999C47.5137 41.4239 47.7596 41.5639 47.7596 41.9138L47.7796 48.3916C47.7698 48.5818 47.7148 48.767 47.6192 48.9318C47.5236 49.0966 47.3901 49.2363 47.2298 49.3392L39.4604 53.8257C39.1565 54.0016 38.9106 53.8597 38.9086 53.5118L38.8906 47.034C38.8999 46.8436 38.9544 46.6581 39.0497 46.4929C39.145 46.3278 39.2782 46.1877 39.4384 46.0844L47.2098 41.5999Z" fill="white"/>
</g>
<path d="M47.2689 42.0261C47.2752 42.0212 47.2829 42.0186 47.2908 42.0186C47.2988 42.0186 47.3065 42.0212 47.3128 42.0261C47.3308 42.0441 47.3248 42.086 47.3008 42.12L43.4282 47.6601L47.3268 48.7158C47.3528 48.7158 47.3568 48.7578 47.3388 48.7977C47.3298 48.8186 47.3144 48.8361 47.2948 48.8477C47.2845 48.8514 47.2732 48.8514 47.2628 48.8477L43.3282 47.7921L39.4355 53.3682C39.4275 53.3812 39.4166 53.3921 39.4035 53.4002C39.3972 53.405 39.3895 53.4077 39.3815 53.4077C39.3736 53.4077 39.3659 53.405 39.3596 53.4002C39.3416 53.3822 39.3456 53.3402 39.3596 53.3042L43.2422 47.7701L39.3516 46.7145C39.3276 46.7145 39.3216 46.6705 39.3396 46.6325C39.3493 46.6115 39.3645 46.5935 39.3835 46.5805C39.3946 46.5768 39.4065 46.5768 39.4175 46.5805L43.3362 47.6441L47.2349 42.066C47.2422 42.0498 47.254 42.0359 47.2689 42.0261Z" fill="white"/>
<path d="M46.4546 27.1773C46.9624 26.8854 47.3743 27.1194 47.3763 27.7032C47.359 28.0205 47.2671 28.3294 47.108 28.6045C46.9489 28.8797 46.7271 29.1134 46.4606 29.2866L38.8152 33.6991C38.3094 33.993 37.8975 33.7591 37.8955 33.1753C37.9122 32.858 38.0037 32.5492 38.1625 32.274C38.3213 31.9988 38.5429 31.7651 38.8092 31.5918L46.4546 27.1773Z" fill="#FFAA00"/>
<g opacity="0.2">
<path opacity="0.2" d="M46.4546 27.1773C46.9624 26.8854 47.3743 27.1194 47.3763 27.7032C47.359 28.0205 47.2671 28.3294 47.108 28.6045C46.9489 28.8797 46.7271 29.1134 46.4606 29.2866L38.8152 33.6991C38.3094 33.993 37.8975 33.7591 37.8955 33.1753C37.9122 32.858 38.0037 32.5492 38.1625 32.274C38.3213 31.9988 38.5429 31.7651 38.8092 31.5918L46.4546 27.1773Z" fill="white"/>
</g>
<path d="M46.4546 30.1422C46.9624 29.8503 47.3743 30.0842 47.3763 30.668C47.3592 30.9854 47.2673 31.2943 47.1082 31.5695C46.9491 31.8447 46.7272 32.0783 46.4606 32.2515L38.8152 36.666C38.3094 36.9579 37.8975 36.7239 37.8955 36.1401C37.9122 35.8229 38.0037 35.514 38.1625 35.2388C38.3213 34.9637 38.5429 34.7299 38.8092 34.5567L46.4546 30.1422Z" fill="#FFAA00"/>
<g opacity="0.2">
<path opacity="0.2" d="M46.4546 30.1422C46.9624 29.8503 47.3743 30.0842 47.3763 30.668C47.3592 30.9854 47.2673 31.2943 47.1082 31.5695C46.9491 31.8447 46.7272 32.0783 46.4606 32.2515L38.8152 36.666C38.3094 36.9579 37.8975 36.7239 37.8955 36.1401C37.9122 35.8229 38.0037 35.514 38.1625 35.2388C38.3213 34.9637 38.5429 34.7299 38.8092 34.5567L46.4546 30.1422Z" fill="white"/>
</g>
<path d="M46.4546 33.1008C46.9624 32.8089 47.3743 33.0448 47.3763 33.6266C47.3592 33.944 47.2673 34.2529 47.1082 34.5281C46.9491 34.8033 46.7272 35.037 46.4606 35.2101L38.8152 39.6246C38.3094 39.9165 37.8975 39.6826 37.8955 39.0988C37.9122 38.7815 38.0037 38.4727 38.1625 38.1975C38.3213 37.9223 38.5429 37.6885 38.8092 37.5153L46.4546 33.1008Z" fill="#FFAA00"/>
<g opacity="0.2">
<path opacity="0.2" d="M46.4546 33.1008C46.9624 32.8089 47.3743 33.0448 47.3763 33.6266C47.3592 33.944 47.2673 34.2529 47.1082 34.5281C46.9491 34.8033 46.7272 35.037 46.4606 35.2101L38.8152 39.6246C38.3094 39.9165 37.8975 39.6826 37.8955 39.0988C37.9122 38.7815 38.0037 38.4727 38.1625 38.1975C38.3213 37.9223 38.5429 37.6885 38.8092 37.5153L46.4546 33.1008Z" fill="white"/>
</g>
<path d="M59.9228 11.6706C59.9228 11.2328 59.7688 10.9249 59.5229 10.777C59.269 10.635 58.9231 10.657 58.5352 10.8789L19.6066 33.2772C19.1989 33.5414 18.8595 33.8983 18.6163 34.3188C18.373 34.7392 18.2328 35.2113 18.207 35.6964V37.5098L59.9228 13.436V11.6706Z" fill="#FFAA00"/>
<path opacity="0.3" d="M59.9228 11.6706C59.9228 11.2328 59.7688 10.9249 59.5229 10.777C59.269 10.635 58.9231 10.657 58.5352 10.8789L19.6066 33.2772C19.1989 33.5414 18.8595 33.8983 18.6163 34.3188C18.373 34.7392 18.2328 35.2113 18.207 35.6964V37.5098L59.9228 13.436V11.6706Z" fill="black"/>
<g opacity="0.5">
<path opacity="0.5" d="M20.0605 34.5451C20.2725 34.4232 20.4444 34.5212 20.4444 34.7631C20.4379 34.8953 20.4 35.024 20.334 35.1387C20.2679 35.2534 20.1756 35.3508 20.0645 35.4228C19.8526 35.5448 19.6807 35.4468 19.6807 35.2049C19.6878 35.0729 19.726 34.9444 19.792 34.8298C19.8579 34.7151 19.9499 34.6177 20.0605 34.5451Z" fill="white"/>
<path opacity="0.5" d="M21.1035 33.9426C21.3154 33.8207 21.4874 33.9186 21.4874 34.1605C21.4802 34.2926 21.4421 34.4211 21.3761 34.5357C21.3101 34.6503 21.2181 34.7478 21.1075 34.8203C20.8956 34.9423 20.7236 34.8443 20.7236 34.6024C20.7308 34.4703 20.7689 34.3418 20.8349 34.2272C20.9009 34.1126 20.9929 34.0151 21.1035 33.9426Z" fill="white"/>
<path opacity="0.5" d="M22.1484 33.341C22.3604 33.2191 22.5323 33.3171 22.5323 33.559C22.5251 33.691 22.487 33.8195 22.421 33.9341C22.355 34.0487 22.263 34.1462 22.1524 34.2187C21.9405 34.3407 21.7686 34.2427 21.7686 33.9988C21.7756 33.867 21.8136 33.7387 21.8797 33.6244C21.9457 33.5101 22.0378 33.413 22.1484 33.341Z" fill="white"/>
</g>
<path d="M20.0615 34.5451C20.2734 34.4232 20.4454 34.5212 20.4454 34.7631C20.4388 34.8953 20.401 35.024 20.3349 35.1387C20.2689 35.2534 20.1766 35.3508 20.0655 35.4228C19.8536 35.5448 19.6816 35.4468 19.6816 35.2049C19.6888 35.0729 19.7269 34.9444 19.7929 34.8298C19.8589 34.7151 19.9509 34.6177 20.0615 34.5451Z" fill="#FFAA00"/>
<path d="M21.1045 33.9426C21.3164 33.8207 21.4883 33.9186 21.4883 34.1605C21.4812 34.2926 21.443 34.4211 21.3771 34.5357C21.3111 34.6503 21.2191 34.7478 21.1085 34.8203C20.8966 34.9423 20.7246 34.8443 20.7246 34.6024C20.7318 34.4703 20.7699 34.3418 20.8359 34.2272C20.9019 34.1126 20.9939 34.0151 21.1045 33.9426Z" fill="#FFAA00"/>
<path d="M22.1484 33.341C22.3604 33.2191 22.5323 33.3171 22.5323 33.559C22.5251 33.691 22.487 33.8195 22.421 33.9341C22.355 34.0487 22.263 34.1462 22.1524 34.2187C21.9405 34.3407 21.7686 34.2427 21.7686 33.9988C21.7756 33.867 21.8136 33.7387 21.8797 33.6244C21.9457 33.5101 22.0378 33.413 22.1484 33.341Z" fill="#FFAA00"/>
<path d="M21.076 80.2227L18.4769 80.2986L15.8778 80.2227C15.7659 81.9761 16.1077 83.7634 16.5796 84.6351C16.6919 84.8591 16.8716 85.0423 17.0934 85.159C17.5217 85.3769 17.9954 85.4904 18.4759 85.4904C18.9564 85.4904 19.4302 85.3769 19.8585 85.159C20.0846 85.0416 20.2653 84.8524 20.3723 84.6212C20.8501 83.7455 21.188 81.9681 21.076 80.2227Z" fill="white"/>
<path d="M20.3103 79.1588C21.3279 79.7466 21.3319 80.6983 20.3222 81.2861C19.3126 81.8739 17.6672 81.8739 16.6495 81.2861C15.6319 80.6983 15.6279 79.7466 16.6495 79.1588C17.6712 78.5711 19.2926 78.5731 20.3103 79.1588Z" fill="#EBEBEB"/>
<path d="M19.9091 79.3933C20.7088 79.8511 20.7088 80.5929 19.9091 81.0527C19.4657 81.2785 18.9752 81.3962 18.4776 81.3962C17.98 81.3962 17.4895 81.2785 17.0461 81.0527C16.2464 80.5949 16.2464 79.8531 17.0461 79.3933C17.4896 79.1678 17.9801 79.0503 18.4776 79.0503C18.9751 79.0503 19.4656 79.1678 19.9091 79.3933Z" fill="#E0E0E0"/>
<g opacity="0.15">
<path opacity="0.15" d="M19.9091 79.3933C20.7088 79.8511 20.7088 80.5929 19.9091 81.0527C19.4657 81.2785 18.9752 81.3962 18.4776 81.3962C17.98 81.3962 17.4895 81.2785 17.0461 81.0527C16.2464 80.5949 16.2464 79.8531 17.0461 79.3933C17.4896 79.1678 17.9801 79.0503 18.4776 79.0503C18.9751 79.0503 19.4656 79.1678 19.9091 79.3933Z" fill="black"/>
</g>
<path d="M17.1546 74.9104C16.7327 74.3846 16.2429 73.9107 15.855 73.3629C15.5911 72.987 15.3712 72.5272 15.4811 72.0814C15.5431 71.8765 15.6611 71.693 15.8219 71.5517C15.9826 71.4104 16.1797 71.3168 16.3908 71.2816C16.817 71.2183 17.2515 71.3151 17.6104 71.5535C17.9652 71.7917 18.2769 72.0885 18.5321 72.4312C19.9938 74.2819 20.6849 76.6253 20.4614 78.973C20.4572 79.2417 20.3737 79.5032 20.2215 79.7247C20.1284 79.8342 20.0058 79.9148 19.8684 79.957C19.7309 79.9991 19.5843 80.0011 19.4458 79.9627C18.738 79.7627 18.832 78.7971 18.716 78.2353C18.4672 77.0186 17.9319 75.8788 17.1546 74.9104Z" fill="#FFAA00"/>
<path opacity="0.2" d="M17.1546 74.9104C16.7327 74.3846 16.2429 73.9107 15.855 73.3629C15.5911 72.987 15.3712 72.5272 15.4811 72.0814C15.5431 71.8765 15.6611 71.693 15.8219 71.5517C15.9826 71.4104 16.1797 71.3168 16.3908 71.2816C16.817 71.2183 17.2515 71.3151 17.6104 71.5535C17.9652 71.7917 18.2769 72.0885 18.5321 72.4312C19.9938 74.2819 20.6849 76.6253 20.4614 78.973C20.4572 79.2417 20.3737 79.5032 20.2215 79.7247C20.1284 79.8342 20.0058 79.9148 19.8684 79.957C19.7309 79.9991 19.5843 80.0011 19.4458 79.9627C18.738 79.7627 18.832 78.7971 18.716 78.2353C18.4672 77.0186 17.9319 75.8788 17.1546 74.9104Z" fill="white"/>
<path d="M19.4905 79.2513C19.4769 79.2486 19.4645 79.2415 19.4555 79.231C19.4464 79.2205 19.4411 79.2072 19.4405 79.1933C19.3905 78.0577 19.0207 74.183 16.3516 71.9838C16.3446 71.9789 16.3387 71.9727 16.3343 71.9654C16.3299 71.9581 16.327 71.95 16.3258 71.9416C16.3246 71.9332 16.3252 71.9246 16.3275 71.9164C16.3298 71.9082 16.3337 71.9006 16.3391 71.894C16.3444 71.8874 16.3511 71.882 16.3587 71.878C16.3662 71.8741 16.3745 71.8718 16.383 71.8712C16.3915 71.8707 16.4 71.8718 16.408 71.8747C16.416 71.8775 16.4233 71.882 16.4295 71.8878C19.1386 74.1191 19.5125 78.0397 19.5645 79.1873C19.5645 79.2036 19.5583 79.2193 19.5472 79.2312C19.536 79.2431 19.5208 79.2503 19.5045 79.2513H19.4905Z" fill="#F0F0F0"/>
<path d="M19.8807 79.3729C19.8235 79.6207 19.7173 79.8545 19.5683 80.0606C19.4192 80.2666 19.2304 80.4407 19.013 80.5725C18.6044 80.7653 18.1504 80.8408 17.7014 80.7905C17.2465 80.7393 16.7993 80.6333 16.3699 80.4746C16.154 80.4026 15.916 80.3066 15.8941 80.0407C15.89 79.971 15.9016 79.9013 15.9278 79.8366C15.9541 79.772 15.9945 79.714 16.046 79.6668C16.0898 79.625 16.1358 79.5856 16.184 79.5489C16.2068 79.5323 16.2239 79.509 16.233 79.4823C16.242 79.4556 16.2425 79.4267 16.2344 79.3996C16.2262 79.3726 16.2099 79.3488 16.1876 79.3314C16.1653 79.3141 16.1382 79.3042 16.11 79.303C15.9826 79.2939 15.8558 79.2779 15.7301 79.255C15.4361 79.2087 15.16 79.0844 14.9304 78.8951C14.7666 78.7494 14.6416 78.5653 14.5665 78.3593C14.5241 78.2741 14.5065 78.1787 14.5157 78.0839C14.5248 77.9892 14.5605 77.8989 14.6185 77.8235C14.7036 77.7546 14.8059 77.7104 14.9144 77.6955C15.0084 77.6755 15.1143 77.6575 15.1983 77.6435C15.2259 77.6399 15.2516 77.6272 15.2712 77.6074C15.2908 77.5876 15.3033 77.5618 15.3068 77.5342C15.3102 77.5065 15.3043 77.4785 15.2901 77.4545C15.2759 77.4305 15.2542 77.4119 15.2283 77.4016L14.8284 77.2337C14.7125 77.1962 14.6075 77.131 14.5225 77.0437C14.4701 76.9623 14.436 76.8704 14.4225 76.7744C14.409 76.6784 14.4166 76.5807 14.4446 76.4879C14.4945 76.236 14.5805 75.9941 14.6445 75.7442C14.7147 75.4954 14.7236 75.2334 14.6705 74.9804C15.4259 74.8966 16.1903 74.9481 16.9277 75.1324C17.1493 75.1781 17.359 75.2694 17.5435 75.4003C17.658 75.5029 17.7446 75.6327 17.7953 75.7778C17.846 75.9229 17.8591 76.0785 17.8334 76.23C17.8317 76.2437 17.8349 76.2576 17.8425 76.2691C17.85 76.2806 17.8615 76.2891 17.8747 76.2929C17.888 76.2968 17.9022 76.2958 17.9147 76.2901C17.9273 76.2845 17.9375 76.2745 17.9434 76.262L18.1993 75.7862C18.2374 75.7182 18.2998 75.6672 18.374 75.6435C18.4482 75.6197 18.5287 75.625 18.5991 75.6582C18.8254 75.7709 19.0261 75.9288 19.1889 76.1221C19.2789 76.2246 19.3476 76.3441 19.3909 76.4735C19.4341 76.603 19.4511 76.7397 19.4408 76.8758C19.4093 77.2489 19.3464 77.6188 19.2529 77.9814C19.2473 78.0019 19.2483 78.0237 19.2558 78.0436C19.2632 78.0636 19.2766 78.0807 19.2943 78.0926C19.3119 78.1045 19.3328 78.1106 19.3541 78.11C19.3753 78.1094 19.3959 78.1022 19.4129 78.0894L19.4248 78.0794C19.4941 78.027 19.5803 78.0021 19.6668 78.0094C19.8947 78.0374 19.9527 78.2673 19.9687 78.4653C19.9761 78.7703 19.9466 79.075 19.8807 79.3729Z" fill="#FFAA00"/>
<path opacity="0.2" d="M19.8807 79.3729C19.8235 79.6207 19.7173 79.8545 19.5683 80.0606C19.4192 80.2666 19.2304 80.4407 19.013 80.5725C18.6044 80.7653 18.1504 80.8408 17.7014 80.7905C17.2465 80.7393 16.7993 80.6333 16.3699 80.4746C16.154 80.4026 15.916 80.3066 15.8941 80.0407C15.89 79.971 15.9016 79.9013 15.9278 79.8366C15.9541 79.772 15.9945 79.714 16.046 79.6668C16.0898 79.625 16.1358 79.5856 16.184 79.5489C16.2068 79.5323 16.2239 79.509 16.233 79.4823C16.242 79.4556 16.2425 79.4267 16.2344 79.3996C16.2262 79.3726 16.2099 79.3488 16.1876 79.3314C16.1653 79.3141 16.1382 79.3042 16.11 79.303C15.9826 79.2939 15.8558 79.2779 15.7301 79.255C15.4361 79.2087 15.16 79.0844 14.9304 78.8951C14.7666 78.7494 14.6416 78.5653 14.5665 78.3593C14.5241 78.2741 14.5065 78.1787 14.5157 78.0839C14.5248 77.9892 14.5605 77.8989 14.6185 77.8235C14.7036 77.7546 14.8059 77.7104 14.9144 77.6955C15.0084 77.6755 15.1143 77.6575 15.1983 77.6435C15.2259 77.6399 15.2516 77.6272 15.2712 77.6074C15.2908 77.5876 15.3033 77.5618 15.3068 77.5342C15.3102 77.5065 15.3043 77.4785 15.2901 77.4545C15.2759 77.4305 15.2542 77.4119 15.2283 77.4016L14.8284 77.2337C14.7125 77.1962 14.6075 77.131 14.5225 77.0437C14.4701 76.9623 14.436 76.8704 14.4225 76.7744C14.409 76.6784 14.4166 76.5807 14.4446 76.4879C14.4945 76.236 14.5805 75.9941 14.6445 75.7442C14.7147 75.4954 14.7236 75.2334 14.6705 74.9804C15.4259 74.8966 16.1903 74.9481 16.9277 75.1324C17.1493 75.1781 17.359 75.2694 17.5435 75.4003C17.658 75.5029 17.7446 75.6327 17.7953 75.7778C17.846 75.9229 17.8591 76.0785 17.8334 76.23C17.8317 76.2437 17.8349 76.2576 17.8425 76.2691C17.85 76.2806 17.8615 76.2891 17.8747 76.2929C17.888 76.2968 17.9022 76.2958 17.9147 76.2901C17.9273 76.2845 17.9375 76.2745 17.9434 76.262L18.1993 75.7862C18.2374 75.7182 18.2998 75.6672 18.374 75.6435C18.4482 75.6197 18.5287 75.625 18.5991 75.6582C18.8254 75.7709 19.0261 75.9288 19.1889 76.1221C19.2789 76.2246 19.3476 76.3441 19.3909 76.4735C19.4341 76.603 19.4511 76.7397 19.4408 76.8758C19.4093 77.2489 19.3464 77.6188 19.2529 77.9814C19.2473 78.0019 19.2483 78.0237 19.2558 78.0436C19.2632 78.0636 19.2766 78.0807 19.2943 78.0926C19.3119 78.1045 19.3328 78.1106 19.3541 78.11C19.3753 78.1094 19.3959 78.1022 19.4129 78.0894L19.4248 78.0794C19.4941 78.027 19.5803 78.0021 19.6668 78.0094C19.8947 78.0374 19.9527 78.2673 19.9687 78.4653C19.9761 78.7703 19.9466 79.075 19.8807 79.3729Z" fill="black"/>
<path opacity="0.2" d="M19.8807 79.3729C19.8235 79.6207 19.7173 79.8545 19.5683 80.0606C19.4192 80.2666 19.2304 80.4407 19.013 80.5725C18.6044 80.7653 18.1504 80.8408 17.7014 80.7905C17.2465 80.7393 16.7993 80.6333 16.3699 80.4746C16.154 80.4026 15.916 80.3066 15.8941 80.0407C15.89 79.971 15.9016 79.9013 15.9278 79.8366C15.9541 79.772 15.9945 79.714 16.046 79.6668C16.0898 79.625 16.1358 79.5856 16.184 79.5489C16.2068 79.5323 16.2239 79.509 16.233 79.4823C16.242 79.4556 16.2425 79.4267 16.2344 79.3996C16.2262 79.3726 16.2099 79.3488 16.1876 79.3314C16.1653 79.3141 16.1382 79.3042 16.11 79.303C15.9826 79.2939 15.8558 79.2779 15.7301 79.255C15.4361 79.2087 15.16 79.0844 14.9304 78.8951C14.7666 78.7494 14.6416 78.5653 14.5665 78.3593C14.5241 78.2741 14.5065 78.1787 14.5157 78.0839C14.5248 77.9892 14.5605 77.8989 14.6185 77.8235C14.7036 77.7546 14.8059 77.7104 14.9144 77.6955C15.0084 77.6755 15.1143 77.6575 15.1983 77.6435C15.2259 77.6399 15.2516 77.6272 15.2712 77.6074C15.2908 77.5876 15.3033 77.5618 15.3068 77.5342C15.3102 77.5065 15.3043 77.4785 15.2901 77.4545C15.2759 77.4305 15.2542 77.4119 15.2283 77.4016L14.8284 77.2337C14.7125 77.1962 14.6075 77.131 14.5225 77.0437C14.4701 76.9623 14.436 76.8704 14.4225 76.7744C14.409 76.6784 14.4166 76.5807 14.4446 76.4879C14.4945 76.236 14.5805 75.9941 14.6445 75.7442C14.7147 75.4954 14.7236 75.2334 14.6705 74.9804C15.4259 74.8966 16.1903 74.9481 16.9277 75.1324C17.1493 75.1781 17.359 75.2694 17.5435 75.4003C17.658 75.5029 17.7446 75.6327 17.7953 75.7778C17.846 75.9229 17.8591 76.0785 17.8334 76.23C17.8317 76.2437 17.8349 76.2576 17.8425 76.2691C17.85 76.2806 17.8615 76.2891 17.8747 76.2929C17.888 76.2968 17.9022 76.2958 17.9147 76.2901C17.9273 76.2845 17.9375 76.2745 17.9434 76.262L18.1993 75.7862C18.2374 75.7182 18.2998 75.6672 18.374 75.6435C18.4482 75.6197 18.5287 75.625 18.5991 75.6582C18.8254 75.7709 19.0261 75.9288 19.1889 76.1221C19.2789 76.2246 19.3476 76.3441 19.3909 76.4735C19.4341 76.603 19.4511 76.7397 19.4408 76.8758C19.4093 77.2489 19.3464 77.6188 19.2529 77.9814C19.2473 78.0019 19.2483 78.0237 19.2558 78.0436C19.2632 78.0636 19.2766 78.0807 19.2943 78.0926C19.3119 78.1045 19.3328 78.1106 19.3541 78.11C19.3753 78.1094 19.3959 78.1022 19.4129 78.0894L19.4248 78.0794C19.4941 78.027 19.5803 78.0021 19.6668 78.0094C19.8947 78.0374 19.9527 78.2673 19.9687 78.4653C19.9761 78.7703 19.9466 79.075 19.8807 79.3729Z" fill="white"/>
<path d="M18.6832 80.5148C18.5447 79.9091 18.3437 79.3195 18.0834 78.7554C18.0834 78.7466 18.0814 78.7379 18.0776 78.7299C18.0738 78.722 18.0683 78.715 18.0614 78.7094L18.0195 78.6174C18.0911 77.9146 18.2946 77.2316 18.6192 76.6041C18.6272 76.5895 18.6292 76.5723 18.6247 76.5562C18.6202 76.5402 18.6097 76.5265 18.5953 76.5181C18.5809 76.5102 18.5641 76.5083 18.5483 76.5128C18.5326 76.5173 18.5193 76.5279 18.5113 76.5421C18.2054 77.1269 18.0025 77.7599 17.9115 78.4135C17.3183 77.1748 16.4248 76.104 15.3124 75.2986C15.3057 75.2933 15.298 75.2894 15.2898 75.2872C15.2816 75.2851 15.2731 75.2846 15.2646 75.2858C15.2562 75.2871 15.2482 75.2901 15.241 75.2946C15.2338 75.2991 15.2276 75.3051 15.2228 75.3121C15.218 75.3191 15.2147 75.327 15.213 75.3353C15.2114 75.3437 15.2115 75.3523 15.2134 75.3605C15.2152 75.3688 15.2187 75.3767 15.2237 75.3836C15.2287 75.3904 15.2351 75.3962 15.2424 75.4005C16.3795 76.2273 17.2843 77.3331 17.8695 78.6114C17.1967 78.3073 16.4498 78.2059 15.7202 78.3195C15.7041 78.3224 15.6897 78.3317 15.6803 78.3452C15.671 78.3587 15.6673 78.3753 15.6703 78.3915C15.6728 78.4038 15.6788 78.4151 15.6877 78.424C15.6966 78.4329 15.7079 78.439 15.7202 78.4415H15.7422C16.4988 78.3266 17.2724 78.4503 17.9555 78.7954C18.2138 79.3541 18.4147 79.9375 18.5553 80.5368C18.5574 80.5489 18.5631 80.5602 18.5716 80.5691C18.5802 80.578 18.5912 80.5841 18.6033 80.5867H18.6272C18.6359 80.5863 18.6444 80.5841 18.6521 80.5801C18.6598 80.5761 18.6665 80.5705 18.6718 80.5637C18.6771 80.5568 18.6809 80.5489 18.6829 80.5405C18.6848 80.532 18.685 80.5233 18.6832 80.5148Z" fill="#F0F0F0"/>
<path d="M82.1642 54.6831L79.3891 54.7631L76.6121 54.6831C76.4941 56.5585 76.86 58.4678 77.3638 59.4015C77.4834 59.6431 77.6767 59.8405 77.9156 59.9653C78.3737 60.198 78.8803 60.3192 79.3941 60.3192C79.9079 60.3192 80.4145 60.198 80.8726 59.9653C81.114 59.8403 81.3068 59.6384 81.4204 59.3915C81.9143 58.4478 82.2841 56.5485 82.1642 54.6831Z" fill="white"/>
<path d="M81.3455 53.5455C82.4331 54.1733 82.4371 55.191 81.3575 55.8208C80.2778 56.4505 78.5184 56.4485 77.4308 55.8208C76.3432 55.193 76.3372 54.1733 77.4188 53.5455C78.5004 52.9178 80.2578 52.9178 81.3455 53.5455Z" fill="#EBEBEB"/>
<path d="M80.9139 53.7957C81.7636 54.2856 81.7676 55.0793 80.9239 55.5691C80.0802 56.059 78.7107 56.061 77.861 55.5691C77.0113 55.0773 77.0093 54.2836 77.851 53.7937C78.3255 53.5525 78.8504 53.4269 79.3827 53.4272C79.915 53.4276 80.4397 53.5539 80.9139 53.7957Z" fill="#E0E0E0"/>
<g opacity="0.15">
<path opacity="0.15" d="M80.9139 53.7957C81.7636 54.2856 81.7676 55.0793 80.9239 55.5691C80.0802 56.059 78.7107 56.061 77.861 55.5691C77.0113 55.0773 77.0093 54.2836 77.851 53.7937C78.3255 53.5525 78.8504 53.4269 79.3827 53.4272C79.915 53.4276 80.4397 53.5539 80.9139 53.7957Z" fill="black"/>
</g>
<path d="M83.9528 42.8354C77.697 44.8847 77.639 49.0713 79.0505 52.0503C79.4064 52.6501 80.482 52.978 81.4197 49.2712L79.7762 49.4812L81.6916 48.5115L82.1874 47.024L80.588 47.144L82.6153 46.2903C82.9891 45.1121 83.4359 43.9582 83.9528 42.8354Z" fill="#FFAA00"/>
<path opacity="0.2" d="M83.9528 42.8354C77.697 44.8847 77.639 49.0713 79.0505 52.0503C79.4064 52.6501 80.482 52.978 81.4197 49.2712L79.7762 49.4812L81.6916 48.5115L82.1874 47.024L80.588 47.144L82.6153 46.2903C82.9891 45.1121 83.4359 43.9582 83.9528 42.8354Z" fill="black"/>
<path opacity="0.2" d="M83.9528 42.8354C77.697 44.8847 77.639 49.0713 79.0505 52.0503C79.4064 52.6501 80.482 52.978 81.4197 49.2712L79.7762 49.4812L81.6916 48.5115L82.1874 47.024L80.588 47.144L82.6153 46.2903C82.9891 45.1121 83.4359 43.9582 83.9528 42.8354Z" fill="white"/>
<path d="M82.1828 43.8828C78.8839 46.386 78.584 49.257 79.5177 52.2539C79.1878 49.6148 78.8319 46.9478 82.1828 43.8828Z" fill="white"/>
<path d="M73.3555 47.0884C79.5214 47.9561 80.2711 51.8448 79.4514 54.8557C79.2215 55.4755 78.2718 55.9573 76.7843 52.6565L78.3498 52.5805L76.4044 51.9947L75.6947 50.6911L77.2001 50.5372L75.1708 50.0794C74.6281 49.0458 74.0218 48.0469 73.3555 47.0884Z" fill="#FFAA00"/>
<path opacity="0.2" d="M73.3555 47.0884C79.5214 47.9561 80.2711 51.8448 79.4514 54.8557C79.2215 55.4755 78.2718 55.9573 76.7843 52.6565L78.3498 52.5805L76.4044 51.9947L75.6947 50.6911L77.2001 50.5372L75.1708 50.0794C74.6281 49.0458 74.0218 48.0469 73.3555 47.0884Z" fill="white"/>
<path opacity="0.1" d="M73.3555 47.0884C79.5214 47.9561 80.2711 51.8448 79.4514 54.8557C79.2215 55.4755 78.2718 55.9573 76.7843 52.6565L78.3498 52.5805L76.4044 51.9947L75.6947 50.6911L77.2001 50.5372L75.1708 50.0794C74.6281 49.0458 74.0218 48.0469 73.3555 47.0884Z" fill="black"/>
<path d="M75.1777 47.7695C78.6665 49.5529 79.4203 52.168 79.0504 55.123C78.9145 52.6099 78.8085 50.0667 75.1777 47.7695Z" fill="white"/>
<path d="M85.7577 48.5449C80.1016 48.6369 78.992 52.0577 79.3919 54.8628C79.5318 55.4486 80.3335 55.9884 82.043 53.1833L80.6434 52.9394L82.4608 52.6275L83.2465 51.5339L81.907 51.226L83.7864 51.0421C84.3914 50.1699 85.0498 49.3359 85.7577 48.5449Z" fill="#FFAA00"/>
<path d="M84.0381 48.9556C80.6953 50.1731 79.7216 52.4524 79.7256 55.1534C80.1255 52.9002 80.5133 50.619 84.0381 48.9556Z" fill="white"/>
<path opacity="0.2" d="M85.7577 48.5449C80.1016 48.6369 78.992 52.0577 79.3919 54.8628C79.5318 55.4486 80.3335 55.9884 82.043 53.1833L80.6434 52.9394L82.4608 52.6275L83.2465 51.5339L81.907 51.226L83.7864 51.0421C84.3914 50.1699 85.0498 49.3359 85.7577 48.5449Z" fill="white"/>
<path d="M63.9581 26.5799L63.9541 28.4352L64.284 31.3442L64.7678 34.1773L66.4253 34.3712L65.7475 31.3442L64.4619 26.3359L63.9581 26.5799Z" fill="#FFA8A7"/>
<path d="M64.6162 33.829C65.7598 33.4032 66.5076 34.0029 66.5076 34.0029L66.6955 38.8553L64.6542 37.6877L64.6162 33.829Z" fill="#FFAA00"/>
<path d="M64.6162 33.829C65.7598 33.4032 66.5076 34.0029 66.5076 34.0029L66.6955 38.8553L64.6542 37.6877L64.6162 33.829Z" fill="#FFAA00"/>
<path opacity="0.3" d="M64.6162 33.829C65.7598 33.4032 66.5076 34.0029 66.5076 34.0029L66.6955 38.8553L64.6542 37.6877L64.6162 33.829Z" fill="black"/>
<path opacity="0.3" d="M64.6162 33.829C65.7598 33.4032 66.5076 34.0029 66.5076 34.0029L66.6955 38.8553L64.6542 37.6877L64.6162 33.829Z" fill="white"/>
<path d="M63.5993 19.8798C63.7872 19.7698 63.9392 19.8578 63.9412 20.0797L64.0012 41.3285C63.9948 41.4463 63.9606 41.5609 63.9016 41.663C63.8425 41.7652 63.7602 41.8519 63.6613 41.9163L55.2642 46.7626C55.0762 46.8706 54.9243 46.7826 54.9223 46.5627L54.8623 25.3159C54.8668 25.1961 54.9001 25.079 54.9592 24.9747C55.0184 24.8703 55.1017 24.7816 55.2022 24.7162L63.5993 19.8798Z" fill="#FFAA00"/>
<g opacity="0.2">
<path opacity="0.2" d="M63.5993 19.8798C63.7872 19.7698 63.9392 19.8578 63.9412 20.0797L64.0012 41.3285C63.9948 41.4463 63.9606 41.5609 63.9016 41.663C63.8425 41.7652 63.7602 41.8519 63.6613 41.9163L55.2642 46.7626C55.0762 46.8706 54.9243 46.7826 54.9223 46.5627L54.8623 25.3159C54.8668 25.1961 54.9001 25.079 54.9592 24.9747C55.0184 24.8703 55.1017 24.7816 55.2022 24.7162L63.5993 19.8798Z" fill="black"/>
</g>
<g opacity="0.1">
<path opacity="0.1" d="M63.5993 19.8798C63.7872 19.7698 63.9392 19.8578 63.9412 20.0797L64.0012 41.3285C63.9948 41.4463 63.9606 41.5609 63.9016 41.663C63.8425 41.7652 63.7602 41.8519 63.6613 41.9163L55.2642 46.7626C55.0762 46.8706 54.9243 46.7826 54.9223 46.5627L54.8623 25.3159C54.8668 25.1961 54.9001 25.079 54.9592 24.9747C55.0184 24.8703 55.1017 24.7816 55.2022 24.7162L63.5993 19.8798Z" fill="white"/>
</g>
<path d="M63.4836 20.6118C63.5635 20.5978 63.5815 20.6458 63.5615 20.7058L59.5209 33.2635L63.6135 41.1288C63.6215 41.1558 63.6218 41.1845 63.6144 41.2117C63.6069 41.2389 63.5921 41.2635 63.5715 41.2827C63.5056 41.3307 63.4736 41.3267 63.4596 41.3007L59.429 33.5534L55.4543 45.9212C55.4419 45.9631 55.415 45.9992 55.3783 46.0231C55.2984 46.0371 55.2804 45.9891 55.3004 45.9292L59.341 33.3755L55.2484 25.5101C55.2404 25.4831 55.2401 25.4544 55.2475 25.4272C55.255 25.4 55.2698 25.3754 55.2904 25.3562C55.3583 25.3082 55.3883 25.3102 55.4023 25.3382L59.433 33.0856L63.4076 20.7178C63.4191 20.6744 63.4462 20.6367 63.4836 20.6118Z" fill="white"/>
<path d="M58.6349 36.574L56.8355 35.9742L55.6499 31.4938C55.6205 31.3601 55.6323 31.2207 55.6839 31.0939L55.8079 30.782C55.8741 30.6177 55.9054 30.4413 55.8998 30.2642L55.8758 29.5784C55.8758 29.5254 55.8548 29.4746 55.8173 29.4371C55.7798 29.3996 55.7289 29.3785 55.6759 29.3785C55.6274 29.378 55.5804 29.3952 55.5436 29.4268C55.5068 29.4585 55.4828 29.5024 55.476 29.5504L55.37 30.1502L55.1181 30.4401L54.8902 29.6264V28.5928L54.3783 29.3365C54.2401 29.5365 54.1849 29.7824 54.2244 30.0223L54.4383 31.3238L55.0161 36.3601C55.058 36.7245 55.1988 37.0705 55.4233 37.3605C55.6478 37.6506 55.9474 37.8736 56.2897 38.0056L58.183 38.7373L58.6349 36.574Z" fill="#FFA8A7"/>
<path d="M62.4957 63.8346C62.4314 63.983 62.3257 64.1097 62.1914 64.1997C62.0571 64.2898 61.8997 64.3393 61.738 64.3424C61.4155 64.3434 61.0942 64.3024 60.7823 64.2205C60.0726 64.0925 59.3828 64.2205 58.677 64.2025C58.4443 64.2042 58.2121 64.1787 57.9853 64.1265C57.7539 64.076 57.5442 63.9544 57.3855 63.7786C57.2969 63.6719 57.2382 63.5436 57.2155 63.4067C57.2006 63.5099 57.208 63.6151 57.2373 63.7152C57.2666 63.8152 57.3172 63.9078 57.3855 63.9865C57.5442 64.1623 57.7539 64.284 57.9853 64.3344C58.2121 64.3867 58.4443 64.4122 58.677 64.4104C59.3868 64.4264 60.0766 64.3004 60.7823 64.4284C61.0942 64.5103 61.4155 64.5513 61.738 64.5503C61.8997 64.5472 62.0571 64.4977 62.1914 64.4077C62.3257 64.3176 62.4314 64.1909 62.4957 64.0425C62.5264 63.9361 62.5345 63.8244 62.5197 63.7146C62.5156 63.7553 62.5076 63.7955 62.4957 63.8346Z" fill="#455A64"/>
<path d="M62.4776 63.2447L62.3457 62.599C62.3304 62.4839 62.2938 62.3727 62.2377 62.2711C62.2089 62.2204 62.167 62.1783 62.1163 62.1495C62.0656 62.1206 62.0081 62.106 61.9498 62.1071C61.5599 62.0551 61.0121 61.9072 60.6902 62.1371C60.1784 62.4865 59.5682 62.663 58.9488 62.6409C58.6292 62.6024 58.3069 62.5897 57.9852 62.603C57.8243 62.6116 57.669 62.6653 57.5372 62.7579C57.4053 62.8505 57.3021 62.9783 57.2394 63.1268C57.2121 63.2175 57.2066 63.3134 57.2234 63.4067C57.2461 63.5435 57.3047 63.6719 57.3934 63.7785C57.5521 63.9543 57.7618 64.076 57.9932 64.1264C58.22 64.1787 58.4522 64.2042 58.6849 64.2024C59.3947 64.2184 60.0845 64.0924 60.7902 64.2204C61.1021 64.3023 61.4234 64.3433 61.7459 64.3424C61.9076 64.3392 62.065 64.2897 62.1993 64.1997C62.3336 64.1096 62.4393 63.9829 62.5036 63.8345C62.5154 63.7954 62.5235 63.7552 62.5276 63.7146C62.5349 63.5563 62.518 63.3979 62.4776 63.2447Z" fill="#37474F"/>
<path d="M60.5936 61.4595L60.5676 62.3012C60.5647 62.3871 60.5952 62.4708 60.6525 62.5349C60.7099 62.599 60.7897 62.6384 60.8755 62.6451C61.1576 62.6681 61.4411 62.6681 61.7232 62.6451C61.8374 62.6347 61.9442 62.5835 62.0238 62.5009C62.1035 62.4183 62.1508 62.3098 62.157 62.1952L62.191 61.5734L60.5936 61.4595Z" fill="#FFA8A7"/>
<path d="M66.0872 61.0119C66.0846 61.1363 66.0457 61.2572 65.9752 61.3598C65.8753 61.4826 65.7323 61.5627 65.5753 61.5837C65.3901 61.6166 65.1993 61.5965 65.0249 61.5257C64.8505 61.455 64.6997 61.3365 64.5897 61.1838C64.4837 61.0319 64.4237 60.8499 64.3238 60.694C64.1715 60.4841 63.9842 60.3022 63.77 60.1562C63.5561 60.0106 63.3683 59.8301 63.2141 59.6224C63.1411 59.5211 63.0933 59.4038 63.0749 59.2803C63.0565 59.1569 63.0679 59.0308 63.1082 58.9126C63.0878 58.94 63.0704 58.9695 63.0562 59.0006C63.0083 59.1252 62.9923 59.2598 63.0098 59.3922C63.0273 59.5245 63.0776 59.6504 63.1562 59.7583C63.3131 59.9722 63.5051 60.1581 63.724 60.3081C63.9422 60.4591 64.1329 60.6464 64.2878 60.8619C64.3897 61.0239 64.4497 61.2098 64.5577 61.3678C64.6682 61.5243 64.8206 61.6465 64.9974 61.7204C65.1742 61.7944 65.3683 61.8169 65.5573 61.7856C65.7143 61.7606 65.8566 61.6788 65.9572 61.5557C66.047 61.4111 66.0883 61.2416 66.0752 61.0719C66.0804 61.0521 66.0844 61.0321 66.0872 61.0119Z" fill="#455A64"/>
<path d="M65.8321 59.9658C65.5761 59.518 65.0483 59.1921 64.6425 58.8742C64.4191 58.6814 64.1449 58.5572 63.8527 58.5163C63.7069 58.4991 63.5593 58.5257 63.4286 58.5926C63.298 58.6595 63.1902 58.7638 63.119 58.8922C63.1181 58.9002 63.1181 58.9082 63.119 58.9162C63.0787 59.0344 63.0673 59.1605 63.0857 59.284C63.1042 59.4074 63.1519 59.5247 63.225 59.626C63.3791 59.8337 63.5669 60.0142 63.7808 60.1598C63.995 60.3058 64.1823 60.4877 64.3346 60.6976C64.4345 60.8535 64.4945 61.0355 64.6005 61.1874C64.7105 61.3401 64.8614 61.4586 65.0357 61.5293C65.2101 61.6001 65.4009 61.6202 65.5861 61.5873C65.7431 61.5663 65.8861 61.4862 65.986 61.3634C66.0565 61.2608 66.0954 61.1399 66.098 61.0155C66.098 60.9755 66.098 60.9355 66.098 60.8955C66.088 60.5684 65.9966 60.2488 65.8321 59.9658Z" fill="#37474F"/>
<path d="M64.7188 59.5659V60.3297C64.9077 60.4196 65.1159 60.4619 65.325 60.4528C65.5341 60.4438 65.7378 60.3836 65.9183 60.2777L65.9903 59.5899L64.7188 59.5659Z" fill="#FFA8A7"/>
<path d="M66.1848 45.6968C66.4147 46.3865 66.1328 49.6534 65.9988 52.7884C66.4966 53.9739 66.3627 57.3368 66.0748 59.726C66.0748 59.726 65.579 60.0319 64.6753 59.726L63.5477 53.1282L63.3897 49.4015C63.3897 49.4015 63.1078 52.7084 62.7899 54.8296C63.0958 56.4531 63.0198 56.759 62.2641 61.7553C62.0016 61.887 61.712 61.9556 61.4184 61.9556C61.1247 61.9556 60.8351 61.887 60.5727 61.7553C60.1468 54.7357 60.3028 48.3379 60.3847 46.0387L66.1848 45.6968Z" fill="#455A64"/>
<path opacity="0.3" d="M63.4912 51.6748L63.3633 48.6358C64.149 48.6358 64.8788 48.048 65.4326 47.4922C65.0607 48.096 64.515 48.5734 63.8671 48.8617L63.4912 51.6748Z" fill="black"/>
<path d="M60.2617 46.229C63.7665 47.6965 66.0377 46.3709 66.3456 45.6792C66.1837 43.258 66.7575 40.423 66.7135 39.2194C66.6695 38.0158 66.5136 36.6583 64.6542 36.9302L62.6689 37.1301L61.6692 37.374L60.4696 39.8832L60.2617 46.229Z" fill="#FFAA00"/>
<path opacity="0.2" d="M60.2617 46.229C63.7665 47.6965 66.0377 46.3709 66.3456 45.6792C66.1837 43.258 66.7575 40.423 66.7135 39.2194C66.6695 38.0158 66.5136 36.6583 64.6542 36.9302L62.6689 37.1301L61.6692 37.374L60.4696 39.8832L60.2617 46.229Z" fill="black"/>
<path opacity="0.3" d="M60.2617 46.229C63.7665 47.6965 66.0377 46.3709 66.3456 45.6792C66.1837 43.258 66.7575 40.423 66.7135 39.2194C66.6695 38.0158 66.5136 36.6583 64.6542 36.9302L62.6689 37.1301L61.6692 37.374L60.4696 39.8832L60.2617 46.229Z" fill="white"/>
<path d="M64.6545 35.9749C64.7247 35.9798 64.7951 35.9706 64.8617 35.9479C64.9283 35.9253 64.9897 35.8896 65.0424 35.8429C65.083 35.799 65.1126 35.7459 65.1286 35.6882C65.1446 35.6304 65.1465 35.5697 65.1343 35.5111C65.1932 35.4996 65.2484 35.474 65.2951 35.4363C65.3418 35.3987 65.3786 35.3502 65.4022 35.2951C65.42 35.2337 65.4237 35.1691 65.4129 35.1061C65.4022 35.0431 65.3773 34.9833 65.3402 34.9313C65.4266 34.9105 65.5072 34.8709 65.5764 34.8152C65.6455 34.7596 65.7014 34.6893 65.7401 34.6094C65.7795 34.5285 65.8015 34.4403 65.8046 34.3504C65.8077 34.2605 65.7918 34.1709 65.7581 34.0875C65.8523 34.0631 65.9386 34.0147 66.0087 33.9471C66.0787 33.8795 66.1301 33.795 66.158 33.7017C66.1884 33.6056 66.194 33.5033 66.1745 33.4044C66.1549 33.3055 66.1107 33.2132 66.046 33.1359C66.1238 33.0267 66.1714 32.8991 66.184 32.7657C66.1966 32.6323 66.1739 32.4979 66.118 32.3761C66.0564 32.2529 65.9641 32.1476 65.8499 32.0706C65.7357 31.9935 65.6035 31.9472 65.4662 31.9363C65.4842 31.807 65.4703 31.6753 65.4257 31.5526C65.3811 31.4299 65.3071 31.32 65.2103 31.2325C65.1119 31.1497 64.994 31.0932 64.8677 31.0684C64.7415 31.0435 64.611 31.0512 64.4885 31.0906C64.4439 30.982 64.3725 30.8866 64.2809 30.8131C64.1893 30.7397 64.0806 30.6907 63.965 30.6708C63.8493 30.6508 63.7305 30.6605 63.6196 30.6989C63.5087 30.7374 63.4094 30.8033 63.3309 30.8906C63.2735 30.8258 63.2009 30.7762 63.1196 30.7462C63.0383 30.7162 62.9509 30.7068 62.8651 30.7187C62.7772 30.7273 62.6928 30.7571 62.619 30.8055C62.5451 30.8539 62.4842 30.9195 62.4412 30.9966C62.3307 30.947 62.2092 30.9265 62.0885 30.9371C61.9677 30.9477 61.8517 30.9891 61.7515 31.0572C61.6513 31.1254 61.5702 31.218 61.5159 31.3264C61.4617 31.4348 61.4361 31.5553 61.4416 31.6764C61.3534 31.7033 61.2764 31.7583 61.2222 31.833C61.1681 31.9077 61.1398 31.998 61.1417 32.0902C61.1488 32.1852 61.1863 32.2753 61.2486 32.3473C61.3109 32.4193 61.3947 32.4693 61.4876 32.4901C61.6634 33.4397 61.9772 34.3585 62.4193 35.2172C62.6192 35.601 62.8571 35.9889 63.239 36.1868C63.6208 36.3848 64.3006 36.2808 64.6545 35.9749Z" fill="#455A64"/>
<path d="M64.6545 35.9749C64.7247 35.9798 64.7951 35.9706 64.8617 35.9479C64.9283 35.9253 64.9897 35.8896 65.0424 35.8429C65.083 35.799 65.1126 35.7459 65.1286 35.6882C65.1446 35.6304 65.1465 35.5697 65.1343 35.5111C65.1932 35.4996 65.2484 35.474 65.2951 35.4363C65.3418 35.3987 65.3786 35.3502 65.4022 35.2951C65.42 35.2337 65.4237 35.1691 65.4129 35.1061C65.4022 35.0431 65.3773 34.9833 65.3402 34.9313C65.4266 34.9105 65.5072 34.8709 65.5764 34.8152C65.6455 34.7596 65.7014 34.6893 65.7401 34.6094C65.7795 34.5285 65.8015 34.4403 65.8046 34.3504C65.8077 34.2605 65.7918 34.1709 65.7581 34.0875C65.8523 34.0631 65.9386 34.0147 66.0087 33.9471C66.0787 33.8795 66.1301 33.795 66.158 33.7017C66.1884 33.6056 66.194 33.5033 66.1745 33.4044C66.1549 33.3055 66.1107 33.2132 66.046 33.1359C66.1238 33.0267 66.1714 32.8991 66.184 32.7657C66.1966 32.6323 66.1739 32.4979 66.118 32.3761C66.0564 32.2529 65.9641 32.1476 65.8499 32.0706C65.7357 31.9935 65.6035 31.9472 65.4662 31.9363C65.4842 31.807 65.4703 31.6753 65.4257 31.5526C65.3811 31.4299 65.3071 31.32 65.2103 31.2325C65.1119 31.1497 64.994 31.0932 64.8677 31.0684C64.7415 31.0435 64.611 31.0512 64.4885 31.0906C64.4439 30.982 64.3725 30.8866 64.2809 30.8131C64.1893 30.7397 64.0806 30.6907 63.965 30.6708C63.8493 30.6508 63.7305 30.6605 63.6196 30.6989C63.5087 30.7374 63.4094 30.8033 63.3309 30.8906C63.2735 30.8258 63.2009 30.7762 63.1196 30.7462C63.0383 30.7162 62.9509 30.7068 62.8651 30.7187C62.7772 30.7273 62.6928 30.7571 62.619 30.8055C62.5451 30.8539 62.4842 30.9195 62.4412 30.9966C62.3307 30.947 62.2092 30.9265 62.0885 30.9371C61.9677 30.9477 61.8517 30.9891 61.7515 31.0572C61.6513 31.1254 61.5702 31.218 61.5159 31.3264C61.4617 31.4348 61.4361 31.5553 61.4416 31.6764C61.3534 31.7033 61.2764 31.7583 61.2222 31.833C61.1681 31.9077 61.1398 31.998 61.1417 32.0902C61.1488 32.1852 61.1863 32.2753 61.2486 32.3473C61.3109 32.4193 61.3947 32.4693 61.4876 32.4901C61.6634 33.4397 61.9772 34.3585 62.4193 35.2172C62.6192 35.601 62.8571 35.9889 63.239 36.1868C63.6208 36.3848 64.3006 36.2808 64.6545 35.9749Z" fill="#FFAA00"/>
<path opacity="0.7" d="M64.6545 35.9749C64.7247 35.9798 64.7951 35.9706 64.8617 35.9479C64.9283 35.9253 64.9897 35.8896 65.0424 35.8429C65.083 35.799 65.1126 35.7459 65.1286 35.6882C65.1446 35.6304 65.1465 35.5697 65.1343 35.5111C65.1932 35.4996 65.2484 35.474 65.2951 35.4363C65.3418 35.3987 65.3786 35.3502 65.4022 35.2951C65.42 35.2337 65.4237 35.1691 65.4129 35.1061C65.4022 35.0431 65.3773 34.9833 65.3402 34.9313C65.4266 34.9105 65.5072 34.8709 65.5764 34.8152C65.6455 34.7596 65.7014 34.6893 65.7401 34.6094C65.7795 34.5285 65.8015 34.4403 65.8046 34.3504C65.8077 34.2605 65.7918 34.1709 65.7581 34.0875C65.8523 34.0631 65.9386 34.0147 66.0087 33.9471C66.0787 33.8795 66.1301 33.795 66.158 33.7017C66.1884 33.6056 66.194 33.5033 66.1745 33.4044C66.1549 33.3055 66.1107 33.2132 66.046 33.1359C66.1238 33.0267 66.1714 32.8991 66.184 32.7657C66.1966 32.6323 66.1739 32.4979 66.118 32.3761C66.0564 32.2529 65.9641 32.1476 65.8499 32.0706C65.7357 31.9935 65.6035 31.9472 65.4662 31.9363C65.4842 31.807 65.4703 31.6753 65.4257 31.5526C65.3811 31.4299 65.3071 31.32 65.2103 31.2325C65.1119 31.1497 64.994 31.0932 64.8677 31.0684C64.7415 31.0435 64.611 31.0512 64.4885 31.0906C64.4439 30.982 64.3725 30.8866 64.2809 30.8131C64.1893 30.7397 64.0806 30.6907 63.965 30.6708C63.8493 30.6508 63.7305 30.6605 63.6196 30.6989C63.5087 30.7374 63.4094 30.8033 63.3309 30.8906C63.2735 30.8258 63.2009 30.7762 63.1196 30.7462C63.0383 30.7162 62.9509 30.7068 62.8651 30.7187C62.7772 30.7273 62.6928 30.7571 62.619 30.8055C62.5451 30.8539 62.4842 30.9195 62.4412 30.9966C62.3307 30.947 62.2092 30.9265 62.0885 30.9371C61.9677 30.9477 61.8517 30.9891 61.7515 31.0572C61.6513 31.1254 61.5702 31.218 61.5159 31.3264C61.4617 31.4348 61.4361 31.5553 61.4416 31.6764C61.3534 31.7033 61.2764 31.7583 61.2222 31.833C61.1681 31.9077 61.1398 31.998 61.1417 32.0902C61.1488 32.1852 61.1863 32.2753 61.2486 32.3473C61.3109 32.4193 61.3947 32.4693 61.4876 32.4901C61.6634 33.4397 61.9772 34.3585 62.4193 35.2172C62.6192 35.601 62.8571 35.9889 63.239 36.1868C63.6208 36.3848 64.3006 36.2808 64.6545 35.9749Z" fill="black"/>
<path d="M61.3474 33.7373L60.9375 34.4511L61.3873 34.617L61.3474 33.7373Z" fill="#F28F8F"/>
<path d="M61.4895 32.4912C61.2167 33.4809 61.1764 34.5203 61.3715 35.5282C61.3936 35.7021 61.4589 35.8678 61.5614 36.01C61.697 36.1555 61.8845 36.2417 62.0832 36.2499C62.2801 36.2572 62.4771 36.2384 62.669 36.1939V37.1236C63.3748 37.2896 64.1006 37.3555 64.6544 36.9237V35.974C64.2566 36.1014 63.8334 36.1282 63.4228 36.052C62.935 35.7881 62.837 34.8964 62.905 34.6625C62.9487 34.7195 63.0081 34.7625 63.076 34.7863C63.1438 34.8101 63.2171 34.8136 63.2868 34.7964C63.3536 34.7775 63.4159 34.7455 63.4702 34.7023C63.5244 34.659 63.5695 34.6054 63.6027 34.5445C63.6685 34.4205 63.7086 34.2845 63.7207 34.1446C63.7563 33.978 63.7307 33.8042 63.6487 33.6548C63.5867 33.5712 63.5006 33.5086 63.402 33.4753C63.3033 33.4421 63.1969 33.4398 63.0969 33.4689C62.8967 33.532 62.7294 33.6713 62.6311 33.8567C62.6001 33.9143 62.5727 33.9737 62.5491 34.0347C62.5411 34.0587 62.525 34.0793 62.5036 34.0928C62.4821 34.1064 62.4567 34.1121 62.4315 34.1091C62.4063 34.106 62.383 34.0943 62.3654 34.0761C62.3479 34.0578 62.3372 34.034 62.3352 34.0087C62.3109 33.7409 62.3592 33.4716 62.4751 33.229C62.3944 33.2209 62.3166 33.1949 62.2473 33.1526C62.1781 33.1104 62.1193 33.0531 62.0753 32.985C62.0287 32.9218 61.9974 32.8486 61.9838 32.7713C61.9703 32.6939 61.9749 32.6145 61.9973 32.5392C61.8265 32.5518 61.6548 32.5356 61.4895 32.4912Z" fill="#FFA8A7"/>
<path d="M63.9587 26.5773L63.6328 25.7995L63.4689 25.0618C63.4608 25.0159 63.4689 24.9686 63.4919 24.9281C63.5149 24.8876 63.5513 24.8564 63.5949 24.8399C63.6421 24.827 63.6924 24.8319 63.7362 24.8536C63.7801 24.8754 63.8144 24.9124 63.8328 24.9578L63.9707 25.3577V24.2261L64.4426 25.0718C64.5129 25.1985 64.5442 25.3432 64.5325 25.4876L64.4626 26.3314L63.9587 26.5773Z" fill="#FFA8A7"/>
<path d="M61.6674 37.3735C60.5498 37.0036 58.5605 36.4038 58.5605 36.4038C57.6688 37.3035 57.7448 38.757 57.7448 38.757L60.4539 39.8846C63.039 40.6963 63.4168 37.9453 61.6674 37.3735Z" fill="#FFAA00"/>
<path opacity="0.3" d="M61.6674 37.3735C60.5498 37.0036 58.5605 36.4038 58.5605 36.4038C57.6688 37.3035 57.7448 38.757 57.7448 38.757L60.4539 39.8846C63.039 40.6963 63.4168 37.9453 61.6674 37.3735Z" fill="black"/>
<path opacity="0.3" d="M61.6674 37.3735C60.5498 37.0036 58.5605 36.4038 58.5605 36.4038C57.6688 37.3035 57.7448 38.757 57.7448 38.757L60.4539 39.8846C63.039 40.6963 63.4168 37.9453 61.6674 37.3735Z" fill="white"/>
<path d="M62.6887 61.2827L58.922 58.4956L57.4705 54.1311C57.4705 53.8052 57.4585 53.4753 57.4505 53.1474C57.4496 53.0489 57.4214 52.9525 57.3692 52.8689C57.317 52.7853 57.2428 52.7177 57.1546 52.6736C56.881 52.5401 56.5859 52.4561 56.2829 52.4257C56.2264 52.217 56.1307 52.0209 56.001 51.8479C55.9667 51.8058 55.9191 51.7767 55.866 51.7654C55.8129 51.7542 55.7576 51.7614 55.7091 51.7859C55.6796 51.8007 55.6534 51.8215 55.6323 51.8469C55.6113 51.8724 55.5957 51.9019 55.5867 51.9337C55.5777 51.9655 55.5753 51.9988 55.5799 52.0315C55.5845 52.0643 55.5958 52.0957 55.6132 52.1238C55.9244 52.5988 56.129 53.1356 56.213 53.6973C56.0149 53.595 55.8358 53.4598 55.6831 53.2974C55.6477 53.2584 55.6032 53.2286 55.5537 53.2107C55.5041 53.1928 55.4509 53.1872 55.3987 53.1945C55.3465 53.2018 55.2969 53.2217 55.2541 53.2525C55.2113 53.2833 55.1767 53.3241 55.1533 53.3714C55.4268 53.914 55.8746 54.3491 56.4249 54.6069L57.1087 59.0814C57.1731 59.5116 57.3852 59.906 57.7084 60.197L60.4975 62.7022L62.6887 61.2827Z" fill="#FFA8A7"/>
<path d="M58.92 58.4955L58.2042 56.3662C57.5381 57.2596 57.1834 58.3468 57.1946 59.4612C57.2994 59.747 57.4723 60.003 57.6984 60.2069L60.4875 62.712L62.6867 61.2885L58.92 58.4955Z" fill="#F28F8F"/>
<path d="M59.8933 88.0956C59.8125 88.2141 59.7071 88.3139 59.5842 88.388C59.4614 88.4622 59.3241 88.5091 59.1815 88.5254C58.8551 88.5547 58.526 88.5338 58.2059 88.4635C57.7224 88.3959 57.2328 88.3831 56.7464 88.4255C56.4462 88.4663 56.1437 88.4884 55.8407 88.4915C55.5347 88.4941 55.2358 88.3996 54.987 88.2215C54.8162 88.0866 54.7021 87.8926 54.6671 87.6777C54.6533 87.8172 54.6754 87.9579 54.7314 88.0863C54.7874 88.2148 54.8754 88.3267 54.987 88.4115C55.2358 88.5895 55.5347 88.684 55.8407 88.6814C56.1437 88.6783 56.4462 88.6563 56.7464 88.6154C57.2328 88.5731 57.7224 88.5858 58.2059 88.6534C58.5331 88.7305 58.8699 88.7595 59.2055 88.7394C59.3481 88.723 59.4854 88.6761 59.6082 88.602C59.731 88.5278 59.8365 88.428 59.9173 88.3095L59.8933 88.0956Z" fill="#263238"/>
<path d="M56.3562 87.5194C56.6281 87.5194 56.5281 87.1196 56.788 86.8477C56.682 86.8477 56.5761 86.8477 56.4701 86.8477C56.2382 87.1895 56.1722 87.5194 56.3562 87.5194Z" fill="white"/>
<path d="M56.922 87.5C57.1959 87.5 57.1219 87.0201 57.3918 86.7402C57.3318 86.7602 57.2679 86.7782 57.2059 86.7922C57.1439 86.8062 57.0979 86.8142 57.0439 86.8222C56.804 87.1561 56.736 87.5 56.922 87.5Z" fill="white"/>
<path d="M59.6127 86.5777C59.5945 86.4898 59.5447 86.4116 59.4728 86.3578L58.0013 86.3198C57.8472 86.516 57.6385 86.6621 57.4015 86.7397C57.1336 87.0196 57.2015 87.4994 56.9316 87.4994C56.7457 87.4994 56.8137 87.1615 57.0536 86.8216C56.9696 86.8336 56.8837 86.8416 56.7977 86.8476C56.5378 87.1175 56.6377 87.5194 56.3658 87.5194C56.1819 87.5194 56.2479 87.1895 56.4798 86.8556H56.2799L56.0919 86.8436C55.5521 87.2715 55.5061 87.7353 55.5761 88.4631C55.6693 88.4791 55.7635 88.4892 55.858 88.4931C56.161 88.49 56.4635 88.468 56.7637 88.4271C57.2501 88.3848 57.7397 88.3975 58.2232 88.4651C58.5434 88.5354 58.8724 88.5563 59.1989 88.5271C59.3414 88.5107 59.4787 88.4638 59.6016 88.3897C59.7244 88.3155 59.8298 88.2157 59.9106 88.0972L59.6127 86.5777Z" fill="#455A64"/>
<path d="M56.0761 86.8422C55.833 86.8032 55.5853 86.8032 55.3423 86.8422C55.1914 86.8721 55.0508 86.941 54.9347 87.042C54.8186 87.143 54.731 87.2727 54.6805 87.418C54.6596 87.5031 54.6556 87.5914 54.6686 87.678C54.7035 87.8928 54.8176 88.0868 54.9884 88.2218C55.156 88.3483 55.3526 88.4308 55.5602 88.4617C55.4903 87.7339 55.5363 87.2701 56.0761 86.8422Z" fill="white"/>
<path d="M57.959 85.9023V86.6101C57.9595 86.6874 57.9904 86.7613 58.0451 86.8159C58.0997 86.8706 58.1736 86.9015 58.2509 86.902H58.9926C59.1163 86.9016 59.235 86.8532 59.3237 86.7671C59.4124 86.6809 59.4643 86.5638 59.4685 86.4402L59.4865 85.9023H57.959Z" fill="#FFA8A7"/>
<path d="M62.86 85.5863C62.8196 85.6733 62.7569 85.748 62.6782 85.8028C62.5995 85.8576 62.5077 85.8905 62.4121 85.8982C62.2143 85.9132 62.0169 85.8648 61.8483 85.7603C61.5944 85.5983 61.4945 85.3444 61.3205 85.1145C61.1386 84.8919 60.932 84.6907 60.7047 84.5147C60.4616 84.3334 60.2615 84.1006 60.1189 83.8329C60.0836 83.7535 60.06 83.6693 60.049 83.583C60.0269 83.7464 60.0511 83.9126 60.1189 84.0628C60.2611 84.3303 60.4612 84.5625 60.7047 84.7426C60.9315 84.9192 61.138 85.1204 61.3205 85.3424C61.4945 85.5703 61.5944 85.8262 61.8483 85.9882C62.0169 86.0928 62.2143 86.1411 62.4121 86.1261C62.5076 86.118 62.5992 86.0849 62.6778 86.0302C62.7565 85.9754 62.8193 85.901 62.86 85.8142C62.8898 85.6832 62.8985 85.5482 62.886 85.4144C62.8866 85.4727 62.8778 85.5308 62.86 85.5863Z" fill="#263238"/>
<path d="M61.1884 84.0326C61.1639 84.0677 61.1513 84.1098 61.1524 84.1526C61.157 84.1733 61.1668 84.1926 61.1808 84.2087C61.1947 84.2247 61.2125 84.2371 61.2324 84.2445C61.2613 84.2522 61.2918 84.2524 61.3208 84.2451C61.3499 84.2377 61.3765 84.2231 61.3983 84.2025C61.4416 84.1612 61.4799 84.1149 61.5123 84.0646C61.6114 83.9398 61.7428 83.8444 61.8922 83.7887C61.9651 83.7629 62.041 83.7461 62.1181 83.7387L61.9342 83.5728C61.8179 83.5779 61.7038 83.6058 61.5983 83.6547C61.4264 83.7361 61.2835 83.8679 61.1884 84.0326Z" fill="white"/>
<path d="M61.2285 83.4495C61.0563 83.5303 60.9132 83.6623 60.8186 83.8274C60.7925 83.8617 60.7797 83.9043 60.7826 83.9473C60.7869 83.9682 60.7965 83.9877 60.8105 84.0038C60.8246 84.0199 60.8425 84.0321 60.8626 84.0393C60.8916 84.0468 60.922 84.0469 60.951 84.0396C60.98 84.0322 61.0067 84.0177 61.0286 83.9973C61.0708 83.955 61.109 83.9088 61.1425 83.8593C61.2413 83.735 61.3718 83.6396 61.5204 83.5834C61.6391 83.5396 61.7663 83.5232 61.8923 83.5355L61.7103 83.3695C61.5455 83.3528 61.3791 83.3804 61.2285 83.4495Z" fill="white"/>
<path d="M61.5945 83.2653C61.4274 83.1021 61.2315 82.9713 61.0167 82.8795C60.8865 82.8214 60.7428 82.8008 60.6015 82.8199C60.4603 82.839 60.3271 82.897 60.217 82.9874C60.1425 83.0665 60.0878 83.162 60.0572 83.2662C60.0266 83.3705 60.0211 83.4804 60.0411 83.5872C60.0521 83.6735 60.0757 83.7577 60.111 83.8371C60.1585 83.9408 60.2197 84.0376 60.293 84.125C60.3709 83.4892 60.9208 83.1934 61.5945 83.2653Z" fill="white"/>
<path d="M62.8737 84.9672C62.8774 84.7519 62.828 84.5391 62.7298 84.3475L62.3719 83.9736L62.12 83.7397C62.0429 83.7471 61.967 83.7638 61.894 83.7896C61.7447 83.8453 61.6133 83.9407 61.5142 84.0656C61.4817 84.1159 61.4435 84.1622 61.4002 84.2035C61.3784 84.224 61.3517 84.2387 61.3227 84.246C61.2937 84.2534 61.2632 84.2532 61.2343 84.2455C61.2144 84.238 61.1966 84.2257 61.1826 84.2096C61.1687 84.1936 61.1589 84.1743 61.1543 84.1535C61.1531 84.1107 61.1658 84.0687 61.1903 84.0336C61.2853 83.8689 61.4283 83.7371 61.6001 83.6557C61.7057 83.6067 61.8198 83.5789 61.936 83.5737L61.894 83.5357C61.7681 83.5235 61.6409 83.5399 61.5222 83.5837C61.3736 83.6399 61.243 83.7352 61.1443 83.8596C61.1107 83.9091 61.0726 83.9553 61.0303 83.9976C61.0084 84.018 60.9818 84.0325 60.9528 84.0398C60.9237 84.0472 60.8934 84.0471 60.8644 84.0396C60.8443 84.0324 60.8263 84.0202 60.8123 84.0041C60.7983 83.988 60.7887 83.9685 60.7844 83.9476C60.7815 83.9046 60.7943 83.8619 60.8204 83.8276C60.9083 83.6727 61.0395 83.5469 61.1979 83.4655C61.3563 83.3842 61.535 83.3509 61.7121 83.3698L61.6022 83.2718C60.9284 83.1998 60.3786 83.4957 60.3086 84.1275C60.4296 84.2726 60.5634 84.4064 60.7085 84.5274C60.9358 84.7034 61.1423 84.9046 61.3242 85.1272C61.4982 85.3571 61.5982 85.611 61.8521 85.773C62.0206 85.8775 62.2181 85.9259 62.4159 85.9109C62.4786 85.912 62.5408 85.9004 62.599 85.8769C62.6571 85.8533 62.7098 85.8183 62.7541 85.7739C62.7983 85.7294 62.8331 85.6765 62.8564 85.6183C62.8797 85.5601 62.8911 85.4978 62.8897 85.4351C62.8937 85.2571 62.8777 85.0312 62.8737 84.9672Z" fill="#455A64"/>
<path d="M61.584 83.8467L61.626 84.6064C61.8002 84.7163 62.0038 84.7704 62.2096 84.7615C62.4154 84.7526 62.6135 84.681 62.7776 84.5564L62.8096 83.8467H61.584Z" fill="#FFA8A7"/>
<path d="M62.5996 67.5384C62.5725 67.5003 62.5485 67.4602 62.5276 67.4185C61.0066 68.2138 59.2439 68.4141 57.5833 67.9803C57.2314 70.5894 56.9315 75.0039 57.1154 77.9169C57.2694 81.3157 57.8932 86.1141 57.8932 86.1141C58.7069 86.358 59.3187 86.208 59.5486 86.0321C59.8205 82.6672 60.4163 80.362 59.9485 78.1368C60.2564 76.5833 60.4563 74.63 60.4563 74.63L60.6902 78.0648L61.4899 84.1067C61.7136 84.2214 61.9636 84.2749 62.2146 84.2619C62.4657 84.2489 62.7088 84.1699 62.9195 84.0328C63.4973 80.58 63.7192 78.2348 63.2094 76.5233C63.9831 70.8513 64.0231 69.4018 62.5996 67.5384Z" fill="#FFAA00"/>
<path opacity="0.4" d="M62.5996 67.5384C62.5725 67.5003 62.5485 67.4602 62.5276 67.4185C61.0066 68.2138 59.2439 68.4141 57.5833 67.9803C57.2314 70.5894 56.9315 75.0039 57.1154 77.9169C57.2694 81.3157 57.8932 86.1141 57.8932 86.1141C58.7069 86.358 59.3187 86.208 59.5486 86.0321C59.8205 82.6672 60.4163 80.362 59.9485 78.1368C60.2564 76.5833 60.4563 74.63 60.4563 74.63L60.6902 78.0648L61.4899 84.1067C61.7136 84.2214 61.9636 84.2749 62.2146 84.2619C62.4657 84.2489 62.7088 84.1699 62.9195 84.0328C63.4973 80.58 63.7192 78.2348 63.2094 76.5233C63.9831 70.8513 64.0231 69.4018 62.5996 67.5384Z" fill="black"/>
<path opacity="0.1" d="M62.5996 67.5384C62.5725 67.5003 62.5485 67.4602 62.5276 67.4185C61.0066 68.2138 59.2439 68.4141 57.5833 67.9803C57.2314 70.5894 56.9315 75.0039 57.1154 77.9169C57.2694 81.3157 57.8932 86.1141 57.8932 86.1141C58.7069 86.358 59.3187 86.208 59.5486 86.0321C59.8205 82.6672 60.4163 80.362 59.9485 78.1368C60.2564 76.5833 60.4563 74.63 60.4563 74.63L60.6902 78.0648L61.4899 84.1067C61.7136 84.2214 61.9636 84.2749 62.2146 84.2619C62.4657 84.2489 62.7088 84.1699 62.9195 84.0328C63.4973 80.58 63.7192 78.2348 63.2094 76.5233C63.9831 70.8513 64.0231 69.4018 62.5996 67.5384Z" fill="white"/>
<path opacity="0.2" d="M60.8048 73.9464L61.2306 72.157C61.571 72.1008 61.8962 71.975 62.1858 71.7875C62.4755 71.6001 62.7234 71.3549 62.9141 71.0674C62.3247 71.5297 61.5997 71.7854 60.8508 71.7951L60.4629 74.6262L60.5449 75.8358L60.5789 75.3939C60.6151 74.9061 60.6906 74.422 60.8048 73.9464Z" fill="black"/>
<path d="M59.5203 61.395L58.2767 61.641C58.0028 62.1428 57.7229 62.6166 57.447 63.1184C57.2471 63.4983 57.0272 63.9002 57.0472 64.332C57.0586 64.5623 57.1343 64.7848 57.2658 64.9742C57.3973 65.1636 57.5792 65.3124 57.7909 65.4037L57.1911 69.6602C59.4963 71.0597 63.2331 70.0761 63.5769 68.8285C63.243 67.9688 62.8892 67.6569 62.6712 66.6412C62.5133 65.8935 62.8872 64.8419 62.9511 64.542C63.0673 64.0835 63.1383 63.6148 63.1631 63.1424C63.1874 62.6668 63.0728 62.1945 62.8332 61.7829V61.7709C62.6694 61.5254 62.4379 61.3328 62.1668 61.2163C61.8956 61.0999 61.5965 61.0648 61.3057 61.1151L59.5203 61.395Z" fill="#FFAA00"/>
<path d="M61.0979 60.401C61.2741 60.3347 61.4331 60.2297 61.5632 60.0937C61.6933 59.9577 61.7912 59.7942 61.8496 59.6152C61.9636 59.2414 61.8836 58.8435 61.9936 58.4676C62.0475 58.2837 62.1455 58.1277 62.1935 57.9358C62.242 57.731 62.2589 57.5199 62.2435 57.31C62.1937 56.9642 62.0577 56.6365 61.8481 56.357C61.6385 56.0775 61.3619 55.8552 61.0439 55.7106C60.2951 55.3754 59.4676 55.2563 58.6547 55.3667C58.3275 55.4005 58.0205 55.541 57.781 55.7665C57.673 55.8881 57.6167 56.0471 57.6242 56.2095C57.6316 56.372 57.7023 56.5251 57.821 56.6363C57.7429 56.6914 57.6773 56.7625 57.6287 56.8449C57.5801 56.9273 57.5496 57.019 57.5391 57.1141C57.5381 57.2372 57.5763 57.3574 57.6482 57.4573C57.7201 57.5572 57.8219 57.6317 57.9389 57.6699C58.1709 59.8951 59.1865 60.343 59.7143 60.5349C60.2422 60.7269 60.612 60.8688 61.0979 60.401Z" fill="#263238"/>
<path d="M57.8067 58.416L57.4229 59.0818L57.8447 59.2377L57.8067 58.416Z" fill="#FFA8A7"/>
<path d="M57.7616 58.1177C57.8236 57.5319 57.9955 56.9801 58.3774 56.7002C58.3134 57.0661 58.3774 57.5879 58.7552 57.8678C58.6916 58.1768 58.7123 58.4972 58.8152 58.7955C58.854 58.6022 58.9535 58.4264 59.0991 58.2937C59.1701 58.2251 59.2588 58.1778 59.3552 58.1569C59.4517 58.1361 59.552 58.1426 59.6449 58.1757C59.7714 58.2367 59.8695 58.3441 59.9188 58.4756C59.9704 58.6018 59.9845 58.7402 59.9595 58.8743C59.9345 59.0083 59.8714 59.1323 59.7778 59.2314C59.6841 59.3306 59.5639 59.4006 59.4315 59.4332C59.2991 59.4658 59.1601 59.4596 59.0311 59.4153C59.0841 59.6753 59.2115 59.9143 59.3978 60.1031C59.5842 60.292 59.8215 60.4226 60.0808 60.4789C60.4203 60.5534 60.7743 60.5263 61.0984 60.4009L61.2584 61.1707C60.6146 61.8564 59.517 61.3946 59.517 61.3946L59.373 60.6188C58.1095 60.6948 57.9915 60.6728 57.8516 59.9771C57.7375 59.3642 57.7072 58.7387 57.7616 58.1177Z" fill="#FFA8A7"/>
<path d="M61.6971 56.9084L61.5711 56.4186C61.5455 56.3785 61.5066 56.3489 61.4611 56.3349C61.4157 56.321 61.3668 56.3237 61.3232 56.3426C61.2819 56.362 61.246 56.3913 61.2188 56.4279C61.1915 56.4646 61.1738 56.5074 61.1672 56.5525C61.154 56.6441 61.1665 56.7375 61.2032 56.8224C61.2255 56.8991 61.2684 56.9683 61.3272 57.0224C61.3561 57.0477 61.3903 57.0661 61.4274 57.0761C61.4645 57.0862 61.5034 57.0876 61.5411 57.0803C61.6151 57.0524 61.7031 56.9844 61.6971 56.9084Z" fill="#FFAA00"/>
<path d="M61.598 56.9243C61.7864 56.8929 61.9798 56.9218 62.1507 57.0069C62.3216 57.092 62.4613 57.2289 62.5497 57.3982C62.7182 57.7435 62.7586 58.1374 62.6637 58.5098C62.5457 59.0696 62.2538 59.5754 62.0019 60.0892C61.75 60.6031 61.5341 61.1629 61.584 61.7327C61.648 62.4824 62.2498 63.0722 62.9836 63.2661C62.8941 63.1916 62.8219 63.0984 62.7722 62.9931C62.7225 62.8878 62.6963 62.7728 62.6957 62.6564C62.7917 62.7971 62.9159 62.9163 63.0605 63.0065C63.205 63.0967 63.3667 63.1558 63.5354 63.1802C63.7012 63.2033 63.8701 63.1908 64.0307 63.1435C64.1913 63.0963 64.3401 63.0154 64.467 62.9063C64.3198 62.9096 64.1733 62.8837 64.036 62.8302C63.8988 62.7766 63.7735 62.6965 63.6673 62.5944C63.8663 62.6294 64.0714 62.6007 64.2531 62.5124C63.6533 62.1705 63.4394 61.3728 63.5154 60.677C63.5914 59.9813 63.8793 59.3295 64.0092 58.6417C64.1392 57.954 64.0772 57.1622 63.5674 56.6844C63.3585 56.5088 63.1125 56.383 62.8478 56.3165C62.5832 56.25 62.3069 56.2445 62.0399 56.3005C61.8643 56.3314 61.6917 56.3776 61.5241 56.4385C61.2621 56.5025 61.4141 56.9663 61.598 56.9243Z" fill="#263238"/>
<path d="M50.2129 59.4313L52.0563 64.7755L55.869 62.6602L54.0456 57.374L50.2129 59.4313Z" fill="#FFAA00"/>
<path opacity="0.3" d="M50.2129 59.4313L52.0563 64.7755L55.869 62.6602L54.0456 57.374L50.2129 59.4313Z" fill="black"/>
<path opacity="0.2" d="M50.2129 59.4313L52.0563 64.7755L55.869 62.6602L54.0456 57.374L50.2129 59.4313Z" fill="white"/>
<path d="M55.3027 62.4425L53.7852 58.042L50.7803 59.6534L52.3157 64.0999L55.3027 62.4425Z" fill="white"/>
<path d="M53.2561 58.3672L51.5866 59.2429L51.5146 59.021L51.8385 58.7351L52.7522 58.2752L53.1681 58.1973L53.2561 58.3672Z" fill="#455A64"/>
<path d="M52.7508 58.2759L52.6789 58.106L51.7852 58.5858L51.8371 58.7357L52.7508 58.2759Z" fill="#37474F"/>
<path d="M53.1971 57.8283L51.1798 58.9119L51.0918 58.702L53.1291 57.6323L53.1971 57.8283Z" fill="#455A64"/>
<path d="M52.6508 57.8845C52.4749 57.3287 51.4192 57.8505 51.6251 58.4223L52.6508 57.8845Z" fill="#37474F"/>
<path d="M57.4216 62.132L54.7345 65.5728L52.2894 63.1736C52.1529 63.0388 52.0657 62.8621 52.0415 62.6718C51.9235 61.7601 51.6716 61.1083 51.3457 61.2223C51.1458 61.2943 51.4037 62.184 51.4037 62.184L51.0998 62.01L50.7439 60.9644H50.582C50.4972 60.9635 50.4143 60.9895 50.3454 61.0387C50.2764 61.088 50.2248 61.1578 50.1981 61.2383L50.0461 61.6781C49.9558 61.9384 49.9509 62.2207 50.0322 62.484C50.1135 62.7472 50.2766 62.9776 50.498 63.1416L51.0358 63.5415C51.1147 63.6018 51.1824 63.6756 51.2357 63.7594C52.0843 65.0623 53.0442 66.2892 54.1048 67.4262C54.224 67.5471 54.3817 67.6227 54.5507 67.6398C54.7197 67.657 54.8893 67.6146 55.0304 67.5201C56.0701 66.8344 58.1874 64.8491 59.275 63.4655C59.3753 63.3375 59.4473 63.1897 59.4861 63.0317C59.525 62.8738 59.5298 62.7094 59.5003 62.5495C59.4708 62.3896 59.4077 62.2377 59.3151 62.1041C59.2224 61.9704 59.1025 61.8579 58.9631 61.7741C58.7094 61.624 58.4077 61.5775 58.1206 61.6441C57.8336 61.7108 57.5832 61.8855 57.4216 62.132Z" fill="#FFA8A7"/>
<path d="M39.0598 32.5268C39.6436 32.1909 40.1175 32.4609 40.1195 33.1266L40.1554 45.5764C40.1362 45.9419 40.0306 46.2976 39.8475 46.6145C39.6644 46.9314 39.4089 47.2005 39.1018 47.3997L24.1669 56.0228C23.5831 56.3607 23.1093 56.0888 23.1073 55.423L23.0713 42.9713C23.0906 42.6055 23.1961 42.2494 23.3792 41.9322C23.5623 41.615 23.8178 41.3455 24.1249 41.1459L39.0598 32.5268Z" fill="#FFAA00"/>
<g opacity="0.8">
<path opacity="0.8" d="M39.0598 32.5268C39.6436 32.1909 40.1175 32.4609 40.1195 33.1266L40.1554 45.5764C40.1362 45.9419 40.0306 46.2976 39.8475 46.6145C39.6644 46.9314 39.4089 47.2005 39.1018 47.3997L24.1669 56.0228C23.5831 56.3607 23.1093 56.0888 23.1073 55.423L23.0713 42.9713C23.0906 42.6055 23.1961 42.2494 23.3792 41.9322C23.5623 41.615 23.8178 41.3455 24.1249 41.1459L39.0598 32.5268Z" fill="white"/>
</g>
<path d="M39.1717 33.347C39.1836 33.3376 39.1984 33.3325 39.2137 33.3325C39.2289 33.3325 39.2437 33.3376 39.2556 33.347C39.2916 33.381 39.2816 33.463 39.2356 33.531L31.7902 44.1713L39.2716 46.2006C39.3176 46.2146 39.3276 46.2846 39.2936 46.3586C39.2756 46.3986 39.2464 46.4326 39.2097 46.4565C39.1906 46.4686 39.168 46.4735 39.1457 46.4705L31.6143 44.4252L24.1168 55.1456C24.1015 55.1704 24.0802 55.191 24.0548 55.2056C24.0424 55.2148 24.0273 55.2198 24.0119 55.2198C23.9964 55.2198 23.9813 55.2148 23.9689 55.2056C23.9349 55.1716 23.9449 55.0896 23.9909 55.0236L31.4343 44.3773L23.9549 42.352C23.9069 42.34 23.8989 42.27 23.9329 42.194C23.9503 42.1536 23.9796 42.1195 24.0169 42.096C24.0262 42.0899 24.0366 42.0856 24.0476 42.0836C24.0586 42.0815 24.0699 42.0817 24.0808 42.084L31.6122 44.1273L39.1097 33.407C39.1257 33.3828 39.1469 33.3623 39.1717 33.347Z" fill="white"/>
<path d="M39.3821 41.4616L40.1478 43.091L38.7863 47.2256L35.7773 49.1789L36.853 51.7261L39.9279 48.7271C40.295 48.368 40.5315 47.8965 40.5997 47.3876L41.1775 43.041L40.5297 40.5719L40.1498 40.208L40.1618 41.7655L39.778 41.2297C39.7438 41.1818 39.6923 41.1492 39.6344 41.1388C39.5765 41.1283 39.5169 41.1408 39.4681 41.1737C39.4206 41.2025 39.3855 41.2479 39.3696 41.3011C39.3538 41.3543 39.3582 41.4115 39.3821 41.4616Z" fill="#AB6060"/>
<path d="M35.6182 48.7693L38.0753 47.5337C39.5128 47.8976 39.5508 49.417 39.5508 49.417L37.0097 51.7263L35.6182 48.7693Z" fill="#37474F"/>
<path d="M33.0236 76.8435C32.9578 76.9987 32.8483 77.1313 32.7084 77.2254C32.5686 77.3194 32.4044 77.3708 32.2359 77.3733C31.8986 77.3752 31.5625 77.3329 31.2363 77.2474C30.4965 77.1134 29.7807 77.2474 29.037 77.2274C28.8006 77.2324 28.5643 77.2096 28.3332 77.1594C28.095 77.1039 27.8795 76.977 27.7155 76.7955C27.6232 76.6851 27.5624 76.5518 27.5395 76.4097C27.5246 76.5164 27.5326 76.6251 27.5629 76.7285C27.5933 76.8319 27.6453 76.9277 27.7155 77.0095C27.8814 77.1858 28.0967 77.3077 28.3332 77.3593C28.5701 77.4124 28.8122 77.4385 29.055 77.4373C29.7927 77.4533 30.5085 77.3214 31.2542 77.4553C31.5806 77.5405 31.9166 77.5835 32.2539 77.5833C32.4226 77.5804 32.5868 77.5286 32.7266 77.4342C32.8664 77.3398 32.9759 77.2068 33.0416 77.0514C33.0743 76.9413 33.0831 76.8254 33.0676 76.7116C33.0589 76.7573 33.0441 76.8017 33.0236 76.8435Z" fill="#263238"/>
<path d="M33.0059 76.23C32.9599 76.006 32.9139 75.7821 32.87 75.5562C32.8527 75.4363 32.8141 75.3206 32.756 75.2143C32.7256 75.1617 32.6819 75.1181 32.6292 75.0879C32.5765 75.0577 32.5168 75.042 32.4561 75.0424C32.0562 74.9884 31.4804 74.8424 31.1425 75.0744C30.6116 75.4395 29.9771 75.6238 29.3332 75.6002C29.0015 75.5611 28.6673 75.5477 28.3335 75.5602C28.1656 75.5697 28.0038 75.6261 27.8663 75.7229C27.7288 75.8197 27.6213 75.9531 27.5558 76.108C27.5285 76.2028 27.523 76.3026 27.5398 76.3999C27.5626 76.542 27.6234 76.6753 27.7157 76.7858C27.8784 76.9709 28.0941 77.1014 28.3335 77.1596C28.5701 77.2146 28.8124 77.2408 29.0553 77.2376C29.793 77.2556 30.5088 77.1236 31.2545 77.2576C31.5808 77.3431 31.9169 77.3855 32.2542 77.3836C32.4227 77.3811 32.5869 77.3297 32.7267 77.2356C32.8665 77.1416 32.9761 77.0089 33.0419 76.8537C33.0555 76.8136 33.0642 76.772 33.0679 76.7298C33.0744 76.5609 33.0535 76.3921 33.0059 76.23Z" fill="#FFAA00"/>
<path d="M31.0459 74.3604L31.0159 75.2381C31.0125 75.3278 31.0443 75.4154 31.1043 75.4822C31.1644 75.549 31.2481 75.5898 31.3378 75.5959C31.6318 75.62 31.9274 75.62 32.2214 75.5959C32.3407 75.585 32.452 75.5315 32.535 75.4452C32.6179 75.359 32.6671 75.2456 32.6733 75.1261L32.7093 74.4783L31.0459 74.3604Z" fill="#FFA8A7"/>
<path opacity="0.4" d="M31.0459 74.3604L31.0159 75.2381C31.0125 75.3278 31.0443 75.4154 31.1043 75.4822C31.1644 75.549 31.2481 75.5898 31.3378 75.5959C31.6318 75.62 31.9274 75.62 32.2214 75.5959C32.3407 75.585 32.452 75.5315 32.535 75.4452C32.6179 75.359 32.6671 75.2456 32.6733 75.1261L32.7093 74.4783L31.0459 74.3604Z" fill="black"/>
<path d="M36.7691 73.9023C36.7658 74.0316 36.7256 74.1571 36.6531 74.2642C36.5485 74.3903 36.4012 74.4736 36.2393 74.4981C36.0454 74.5312 35.8462 74.509 35.6644 74.4341C35.4827 74.3591 35.3257 74.2344 35.2116 74.0743C35.1016 73.9143 35.0377 73.7264 34.9337 73.5644C34.7763 73.3448 34.5814 73.1546 34.3579 73.0026C34.1343 72.8519 33.9382 72.6639 33.7781 72.4468C33.7015 72.3411 33.6515 72.2185 33.6323 72.0894C33.6132 71.9603 33.6255 71.8284 33.6681 71.7051C33.6464 71.7345 33.6277 71.766 33.6122 71.799C33.5636 71.9292 33.5477 72.0692 33.5659 72.2068C33.584 72.3445 33.6356 72.4757 33.7161 72.5888C33.8831 72.8117 34.0858 73.0056 34.3159 73.1626C34.5438 73.3182 34.7422 73.5132 34.9017 73.7384C35.0097 73.9083 35.0737 74.1023 35.1856 74.2662C35.3011 74.4305 35.4609 74.5587 35.6463 74.6358C35.8318 74.713 36.0353 74.7359 36.2333 74.7021C36.3992 74.6784 36.5499 74.5926 36.6551 74.4621C36.7513 74.3126 36.7949 74.1354 36.7791 73.9583C36.7767 73.9395 36.7734 73.9208 36.7691 73.9023Z" fill="#263238"/>
<path d="M36.5034 72.8013C36.2375 72.3354 35.6877 72.0015 35.2639 71.6637C35.0315 71.4627 34.7463 71.3329 34.4422 71.2898C34.2893 71.273 34.1348 71.3021 33.9985 71.3733C33.8621 71.4445 33.75 71.5546 33.6764 71.6896C33.6756 71.6976 33.6756 71.7057 33.6764 71.7136C33.6338 71.837 33.6215 71.9688 33.6406 72.098C33.6598 72.2271 33.7098 72.3497 33.7864 72.4554C33.9465 72.6724 34.1426 72.8604 34.3662 73.0112C34.5851 73.1605 34.7765 73.3465 34.932 73.561C35.0359 73.7229 35.0999 73.9109 35.2099 74.0708C35.324 74.231 35.481 74.3557 35.6627 74.4306C35.8445 74.5056 36.0437 74.5278 36.2375 74.4947C36.3995 74.4701 36.5468 74.3869 36.6514 74.2608C36.7239 74.1537 36.7641 74.0281 36.7674 73.8989C36.7674 73.8569 36.7674 73.8149 36.7674 73.7729C36.7611 73.4322 36.6704 73.0984 36.5034 72.8013Z" fill="#FFAA00"/>
<path d="M35.3467 72.397V73.1967C35.5422 73.2887 35.7572 73.3318 35.9731 73.3224C36.189 73.313 36.3994 73.2513 36.5863 73.1427L36.6622 72.425L35.3467 72.397Z" fill="#FFA8A7"/>
<path opacity="0.4" d="M35.3467 72.397V73.1967C35.5422 73.2887 35.7572 73.3318 35.9731 73.3224C36.189 73.313 36.3994 73.2513 36.5863 73.1427L36.6622 72.425L35.3467 72.397Z" fill="black"/>
<path d="M36.871 57.9385C37.1109 58.6562 37.037 62.4149 36.897 65.6818C37.1249 67.2813 37.1189 70.7181 36.819 73.2073C36.5076 73.3475 36.171 73.4233 35.8295 73.4301C35.4879 73.437 35.1486 73.3748 34.8317 73.2472L34.132 65.6878L33.968 61.8032C33.968 61.8032 33.6741 65.25 33.3342 67.4612C33.4582 69.0847 33.1903 72.1876 32.9504 75.4985C32.9504 75.4985 31.6708 76.2442 30.4012 75.4265C29.9574 68.109 30.6791 60.6975 30.8271 58.2964L36.871 57.9385Z" fill="#37474F"/>
<path opacity="0.3" d="M34.0636 64.1638L33.9316 61.0009C34.7514 61.0009 35.5111 60.3871 36.0889 59.8013C35.7016 60.4308 35.1329 60.9285 34.4575 61.2288L34.0636 64.1638Z" fill="black"/>
<path d="M30.6963 52.2864V58.4843C34.351 60.0157 36.7182 58.6322 37.0401 57.9125C36.8702 55.3873 37.468 52.4323 37.422 51.1788C37.376 49.9252 37.2221 48.5077 35.2767 48.7916L33.2054 48.9915L32.1558 49.2474L30.6963 52.2864Z" fill="#455A64"/>
<path d="M28.7577 51.948L28.0599 52.6738L24.1733 51.1403C24.1724 50.7846 24.1484 50.4293 24.1013 50.0767C24.0773 49.9667 24.0153 49.8768 23.9014 49.8768C23.8254 49.8768 23.7154 50.0007 23.7014 50.2006C23.7014 50.2386 23.7014 50.4606 23.6874 50.5265C23.6851 50.5566 23.6739 50.5854 23.6552 50.609C23.6364 50.6327 23.6111 50.6503 23.5824 50.6595C23.5536 50.6687 23.5228 50.6692 23.4938 50.6608C23.4648 50.6524 23.4389 50.6356 23.4195 50.6125C23.339 50.5271 23.2679 50.4333 23.2076 50.3326L23.1456 50.1607C23.1055 49.9801 23.0854 49.7958 23.0856 49.6108C22.9183 49.6778 22.7732 49.7906 22.6671 49.9363C22.561 50.082 22.4982 50.2547 22.4858 50.4346C22.424 50.7176 22.4131 51.0094 22.4538 51.2963C22.5738 51.6961 22.9317 51.8801 23.5475 52.08C24.7751 52.9377 26.4905 53.9394 27.4121 54.4652C27.6064 54.577 27.8282 54.6322 28.0522 54.6244C28.2763 54.6166 28.4936 54.5462 28.6797 54.4212L30.1552 53.4355L28.7577 51.948Z" fill="#AB6060"/>
<path d="M27.6338 53.5675C27.7027 53.2406 27.8487 52.9349 28.0597 52.6759L27.7278 52.5459C27.5079 52.7298 27.4439 53.2237 27.6338 53.5675Z" fill="#873E3E"/>
<path d="M28.5859 51.9541L30.5493 50.0228C30.9856 49.593 31.5525 49.3208 32.1607 49.249H32.1967C33.0264 51.0684 31.9288 51.9581 31.9288 51.9581L30.1054 53.6335C29.4163 53.271 28.8779 52.676 28.5859 51.9541Z" fill="#37474F"/>
<path d="M35.1731 47.6617C35.8477 47.0621 36.2853 46.2408 36.4067 45.3465C36.4521 45.1013 36.4242 44.8482 36.3267 44.6187C36.2167 44.3968 35.9268 44.1649 35.6929 44.2188C35.6858 44.0656 35.6449 43.9158 35.573 43.7803C35.5011 43.6448 35.4 43.5269 35.2771 43.4351C35.0501 43.3184 34.7961 43.2645 34.5413 43.2792C34.2874 43.2792 34.0355 43.3212 33.7816 43.3212C33.3817 43.3212 32.472 43.2092 32.1121 43.0312C32.1103 43.2633 32.1802 43.4902 32.3121 43.681C32.0522 43.633 31.8202 43.4051 31.6123 43.2392C31.6261 43.5881 31.7753 43.918 32.0282 44.1589C31.6763 44.1249 31.6103 44.7327 32.2121 44.7327C32.478 47.3698 34.3014 48.4014 35.1731 47.6617Z" fill="#263238"/>
<path d="M31.9763 45.8008L31.6504 46.3706L31.9743 46.4885C31.963 46.2594 31.9636 46.0298 31.9763 45.8008Z" fill="#873E3E"/>
<path d="M32.2147 44.7383C32.0946 45.0818 32.0147 45.438 31.9768 45.7999C31.9648 46.029 31.9648 46.2586 31.9768 46.4877C31.99 46.8106 32.0274 47.132 32.0887 47.4494C32.1095 47.6233 32.1742 47.7891 32.2767 47.9312C32.4134 48.0763 32.6013 48.1624 32.8005 48.1711C32.998 48.1784 33.1957 48.1596 33.3883 48.1151V49.0468C34.094 49.2128 34.6798 49.2867 35.2357 48.8609L35.1757 47.6613C34.8344 47.7106 34.4861 47.6563 34.176 47.5053C33.6882 47.2414 33.5522 46.8196 33.6202 46.5857C33.664 46.6427 33.7234 46.6857 33.7912 46.7095C33.859 46.7333 33.9323 46.7368 34.0021 46.7196C34.0692 46.7011 34.132 46.6692 34.1866 46.6259C34.2412 46.5827 34.2866 46.5288 34.32 46.4677C34.3846 46.3432 34.4247 46.2075 34.4379 46.0678C34.4724 45.9012 34.4469 45.7277 34.366 45.578C34.3033 45.4945 34.2169 45.4319 34.1181 45.3984C34.0193 45.3648 33.9126 45.3619 33.8121 45.3901C33.7126 45.421 33.6201 45.4714 33.5401 45.5383C33.4602 45.6052 33.3943 45.6873 33.3463 45.7799C33.3142 45.8369 33.2868 45.8964 33.2643 45.9579C33.2563 45.9819 33.2402 46.0025 33.2188 46.016C33.1974 46.0296 33.1719 46.0353 33.1467 46.0322C33.1216 46.0292 33.0982 46.0175 33.0807 45.9992C33.0631 45.9809 33.0524 45.9571 33.0504 45.9319C33.024 45.664 33.0724 45.3941 33.1904 45.1521C33.1084 45.1908 33.0191 45.2113 32.9284 45.2121C32.881 45.2116 32.8341 45.2009 32.791 45.1809C32.748 45.161 32.7096 45.1321 32.6785 45.0962C32.6489 45.0586 32.632 45.0126 32.6302 44.9648C32.6284 44.917 32.6418 44.8699 32.6685 44.8303C32.5907 44.8483 32.5099 44.8495 32.4316 44.8336C32.3533 44.8177 32.2793 44.7852 32.2147 44.7383Z" fill="#AB6060"/>
<path d="M38.7871 47.2264C38.9519 47.2224 39.114 47.2694 39.2511 47.361C39.3881 47.4526 39.4935 47.5844 39.5528 47.7382C39.5209 46.8485 38.989 46.9925 38.8411 47.0624L38.7871 47.2264Z" fill="#873E3E"/>
<defs>
<filter id="filter0_d" x="20.5107" y="71.3242" width="23.9784" height="17.2458" filterUnits="userSpaceOnUse" color-interpolation-filters="sRGB">
<feFlood flood-opacity="0" result="BackgroundImageFix"/>
<feColorMatrix in="SourceAlpha" type="matrix" values="0 0 0 0 0 0 0 0 0 0 0 0 0 0 0 0 0 0 127 0"/>
<feOffset dy="4"/>
<feGaussianBlur stdDeviation="2"/>
<feColorMatrix type="matrix" values="0 0 0 0 0 0 0 0 0 0 0 0 0 0 0 0 0 0 0.2 0"/>
<feBlend mode="normal" in2="BackgroundImageFix" result="effect1_dropShadow"/>
<feBlend mode="normal" in="SourceGraphic" in2="effect1_dropShadow" result="shape"/>
</filter>
<filter id="filter1_d" x="48.1963" y="82.5474" width="22.4749" height="16.3841" filterUnits="userSpaceOnUse" color-interpolation-filters="sRGB">
<feFlood flood-opacity="0" result="BackgroundImageFix"/>
<feColorMatrix in="SourceAlpha" type="matrix" values="0 0 0 0 0 0 0 0 0 0 0 0 0 0 0 0 0 0 127 0"/>
<feOffset dy="4"/>
<feGaussianBlur stdDeviation="2"/>
<feColorMatrix type="matrix" values="0 0 0 0 0 0 0 0 0 0 0 0 0 0 0 0 0 0 0.2 0"/>
<feBlend mode="normal" in2="BackgroundImageFix" result="effect1_dropShadow"/>
<feBlend mode="normal" in="SourceGraphic" in2="effect1_dropShadow" result="shape"/>
</filter>
<filter id="filter2_d" x="51.2119" y="58.5005" width="22.92" height="16.641" filterUnits="userSpaceOnUse" color-interpolation-filters="sRGB">
<feFlood flood-opacity="0" result="BackgroundImageFix"/>
<feColorMatrix in="SourceAlpha" type="matrix" values="0 0 0 0 0 0 0 0 0 0 0 0 0 0 0 0 0 0 127 0"/>
<feOffset dy="4"/>
<feGaussianBlur stdDeviation="2"/>
<feColorMatrix type="matrix" values="0 0 0 0 0 0 0 0 0 0 0 0 0 0 0 0 0 0 0.2 0"/>
<feBlend mode="normal" in2="BackgroundImageFix" result="effect1_dropShadow"/>
<feBlend mode="normal" in="SourceGraphic" in2="effect1_dropShadow" result="shape"/>
</filter>
</defs>
</svg>
