<svg width="13" height="13" viewBox="0 0 13 13" fill="none" xmlns="http://www.w3.org/2000/svg">
<path d="M6.34672 9.18745H0.317383V10.1592C0.317429 10.4115 0.418216 10.6535 0.597581 10.8319C0.776945 11.0103 1.0202 11.1106 1.27386 11.1106H6.6812C6.46498 10.8401 6.3471 10.5048 6.34672 10.1592V9.18745ZM10.067 0.671878C9.89826 0.672218 9.73652 0.739046 9.6172 0.857733C9.49787 0.976421 9.43068 1.1373 9.43034 1.30515V3.82947H10.7008V1.30515C10.7014 1.22205 10.6855 1.13965 10.6539 1.06272C10.6223 0.985781 10.5757 0.915842 10.5168 0.856946C10.4578 0.798051 10.3877 0.751368 10.3105 0.719601C10.2333 0.687834 10.1506 0.671613 10.067 0.671878Z" fill="#5F6FFF"/>
<path d="M1.83136 1.24971L1.78735 8.60672H6.64017C6.71791 8.60694 6.79241 8.63776 6.84738 8.69244C6.90236 8.74712 6.93334 8.82122 6.93356 8.89855V10.1622C6.93356 10.4145 7.03434 10.6565 7.21371 10.8349C7.39308 11.0133 7.63637 11.1135 7.89004 11.1135C8.14372 11.1135 8.387 11.0133 8.56638 10.8349C8.74575 10.6565 8.84652 10.4145 8.84652 10.1622V1.30516C8.84627 1.08168 8.90822 0.862502 9.0255 0.671889H2.42403C2.26854 0.670812 2.11894 0.730974 2.0079 0.839235C1.89685 0.947497 1.83339 1.09506 1.83136 1.24971ZM3.16339 2.93065C3.18032 2.87873 3.21158 2.8326 3.2536 2.79751C3.29562 2.76242 3.34671 2.73979 3.40105 2.7322L4.50716 2.5717L4.99713 1.57656C5.02142 1.52751 5.05902 1.48621 5.10569 1.45732C5.15236 1.42844 5.20623 1.41313 5.26119 1.41313C5.31616 1.41313 5.37003 1.42844 5.41669 1.45732C5.46336 1.48621 5.50097 1.52751 5.52525 1.57656L6.01816 2.5717L7.12427 2.7322C7.17861 2.73979 7.2297 2.76242 7.27172 2.79751C7.31374 2.8326 7.345 2.87873 7.36193 2.93065C7.37888 2.98259 7.38099 3.0382 7.36804 3.09127C7.35509 3.14434 7.32758 3.19279 7.28858 3.23123L6.4876 4.00749L6.67537 5.10185C6.68433 5.15566 6.6781 5.21087 6.65738 5.26137C6.63666 5.31186 6.60226 5.35564 6.55801 5.38785C6.50799 5.42472 6.44716 5.4442 6.38491 5.44329C6.33714 5.44273 6.29007 5.43177 6.24701 5.41119L5.26119 4.89174L4.27244 5.40827C4.22423 5.43413 4.16957 5.44568 4.11496 5.44154C4.06035 5.4374 4.00808 5.41775 3.96437 5.38493C3.91992 5.3529 3.88538 5.30914 3.86464 5.2586C3.84389 5.20806 3.83779 5.15275 3.84701 5.09893L4.03479 4.00458L3.23674 3.23123C3.19759 3.19289 3.16998 3.14444 3.15702 3.09133C3.14406 3.03822 3.14627 2.98257 3.16339 2.93065ZM2.91107 6.24582H7.59371C7.67152 6.24582 7.74615 6.27657 7.80117 6.3313C7.8562 6.38603 7.88711 6.46025 7.88711 6.53765C7.88711 6.61505 7.8562 6.68928 7.80117 6.74401C7.74615 6.79873 7.67152 6.82948 7.59371 6.82948H2.91107C2.83326 6.82948 2.75863 6.79873 2.70361 6.74401C2.64858 6.68928 2.61767 6.61505 2.61767 6.53765C2.61767 6.46025 2.64858 6.38603 2.70361 6.3313C2.75863 6.27657 2.83326 6.24582 2.91107 6.24582ZM2.91107 7.4394H5.74237C5.82018 7.4394 5.89481 7.47015 5.94983 7.52488C6.00485 7.57961 6.03576 7.65383 6.03576 7.73123C6.03576 7.80863 6.00485 7.88286 5.94983 7.93759C5.89481 7.99231 5.82018 8.02306 5.74237 8.02306H2.91107C2.83326 8.02306 2.75863 7.99231 2.70361 7.93759C2.64858 7.88286 2.61767 7.80863 2.61767 7.73123C2.61767 7.65383 2.64858 7.57961 2.70361 7.52488C2.75863 7.47015 2.83326 7.4394 2.91107 7.4394Z" fill="#5F6FFF"/>
<path d="M4.63901 3.95181L4.52459 4.61426L5.12312 4.302C5.16569 4.28008 5.21309 4.26904 5.26102 4.2699C5.30879 4.27046 5.35586 4.28142 5.39892 4.302L5.99745 4.61426L5.88302 3.95181C5.8746 3.90489 5.87796 3.85664 5.89281 3.81133C5.90765 3.76602 5.93352 3.72505 5.96811 3.69208L6.45222 3.22224L5.78327 3.12593C5.73607 3.11947 5.69123 3.10141 5.65281 3.07339C5.61439 3.04536 5.5836 3.00826 5.56322 2.96543L5.26102 2.36426L4.96175 2.96834C4.94067 3.01066 4.90968 3.04733 4.87139 3.07526C4.83309 3.10319 4.78862 3.12157 4.7417 3.12885L4.07275 3.22515L4.55686 3.695C4.59044 3.72799 4.61546 3.76859 4.62977 3.81333C4.64408 3.85806 4.64725 3.90558 4.63901 3.95181Z" fill="#5F6FFF"/>
<path d="M12.3171 7.39551H11.2021V11.2564H12.3171V7.39551Z" fill="#5F6FFF"/>
<path d="M11.7596 5.93652C11.6864 5.93649 11.6139 5.95081 11.5462 5.97867C11.4786 6.00652 11.4171 6.04736 11.3654 6.09886C11.3136 6.15035 11.2725 6.21149 11.2445 6.27877C11.2165 6.34606 11.2021 6.41818 11.2021 6.491V6.81201H12.3171V6.491C12.3171 6.41818 12.3027 6.34606 12.2747 6.27877C12.2467 6.21149 12.2056 6.15035 12.1539 6.09886C12.1021 6.04736 12.0406 6.00652 11.973 5.97867C11.9053 5.95081 11.8328 5.93649 11.7596 5.93652Z" fill="#5F6FFF"/>
<path d="M11.7716 12.6715L12.153 11.8369H11.3726L11.7716 12.6715Z" fill="#5F6FFF"/>
</svg>
