<svg width="20" height="20" viewBox="0 0 20 20" fill="none" xmlns="http://www.w3.org/2000/svg">
<path fill-rule="evenodd" clip-rule="evenodd" d="M16.2518 9.99984C16.2518 10.2832 16.2268 10.5498 16.1935 10.8165L17.9518 12.1915C18.1102 12.3165 18.1518 12.5415 18.0518 12.7248L16.3852 15.6082C16.2852 15.7915 16.0685 15.8665 15.8768 15.7915L13.8018 14.9582C13.3685 15.2832 12.9018 15.5665 12.3935 15.7748L12.0768 17.9832C12.0518 18.1832 11.8768 18.3332 11.6685 18.3332H8.33515C8.12682 18.3332 7.95182 18.1832 7.92682 17.9832L7.61015 15.7748C7.10182 15.5665 6.63515 15.2915 6.20182 14.9582L4.12682 15.7915C3.94349 15.8582 3.71849 15.7915 3.61849 15.6082L1.95182 12.7248C1.85182 12.5415 1.89349 12.3165 2.05182 12.1915L3.81015 10.8165C3.77682 10.5498 3.75182 10.2748 3.75182 9.99984C3.75182 9.72484 3.77682 9.44984 3.81015 9.18317L2.05182 7.80817C1.89349 7.68317 1.84349 7.45817 1.95182 7.27484L3.61849 4.3915C3.71849 4.20817 3.93515 4.13317 4.12682 4.20817L6.20182 5.0415C6.63515 4.7165 7.10182 4.43317 7.61015 4.22484L7.92682 2.0165C7.95182 1.8165 8.12682 1.6665 8.33515 1.6665H11.6685C11.8768 1.6665 12.0518 1.8165 12.0768 2.0165L12.3935 4.22484C12.9018 4.43317 13.3685 4.70817 13.8018 5.0415L15.8768 4.20817C16.0602 4.1415 16.2852 4.20817 16.3852 4.3915L18.0518 7.27484C18.1518 7.45817 18.1102 7.68317 17.9518 7.80817L16.1935 9.18317C16.2268 9.44984 16.2518 9.7165 16.2518 9.99984ZM7.08516 9.99984C7.08516 11.6082 8.39349 12.9165 10.0018 12.9165C11.6102 12.9165 12.9185 11.6082 12.9185 9.99984C12.9185 8.3915 11.6102 7.08317 10.0018 7.08317C8.39349 7.08317 7.08516 8.3915 7.08516 9.99984Z" fill="#17CA89"/>
</svg>
