<svg width="13" height="13" viewBox="0 0 13 13" fill="none" xmlns="http://www.w3.org/2000/svg">
<path d="M10.2744 2.36035H7.88641C7.57591 1.48885 6.75241 0.860352 5.77441 0.860352H2.77441C2.17768 0.860352 1.60538 1.0974 1.18342 1.51936C0.761467 1.94132 0.524414 2.51361 0.524414 3.11035L0.524414 10.6104C0.524414 11.2071 0.761467 11.7794 1.18342 12.2013C1.60538 12.6233 2.17768 12.8604 2.77441 12.8604H10.2744C11.5164 12.8604 12.5244 11.8531 12.5244 10.6104V4.61035C12.5244 3.3676 11.5164 2.36035 10.2744 2.36035ZM9.14941 11.3604C8.11366 11.3604 7.27441 10.5211 7.27441 9.48535C7.27441 8.4496 8.11366 7.61035 9.14941 7.61035C10.1852 7.61035 11.0244 8.4496 11.0244 9.48535C11.0244 10.5211 10.1852 11.3604 9.14941 11.3604ZM11.0244 5.36035H4.27441C4.0755 5.36035 3.88474 5.43937 3.74408 5.58002C3.60343 5.72067 3.52441 5.91144 3.52441 6.11035V11.3604H2.77441C2.5755 11.3604 2.38474 11.2813 2.24408 11.1407C2.10343 11 2.02441 10.8093 2.02441 10.6104V3.11035C2.02441 2.91144 2.10343 2.72067 2.24408 2.58002C2.38474 2.43937 2.5755 2.36035 2.77441 2.36035H5.77441C5.97333 2.36035 6.16409 2.43937 6.30474 2.58002C6.4454 2.72067 6.52441 2.91144 6.52441 3.11035V3.86035H10.2744C10.6892 3.86035 11.0244 4.1956 11.0244 4.61035V5.36035ZM9.52441 8.36035H8.77441V9.11035H8.02441V9.86035H8.77441V10.6104H9.52441V9.86035H10.2744V9.11035H9.52441V8.36035Z" fill="#17CA89"/>
</svg>
