<svg width="91" height="95" viewBox="0 0 91 95" fill="none" xmlns="http://www.w3.org/2000/svg">
<circle cx="45.0437" cy="45.6208" r="45.0271" fill="#7986FC" fill-opacity="0.2"/>
<g filter="url(#filter0_d)">
<path d="M75.1789 86.0408C80.8529 86.0408 85.4526 83.385 85.4526 80.1088C85.4526 76.8326 80.8529 74.1768 75.1789 74.1768C69.505 74.1768 64.9053 76.8326 64.9053 80.1088C64.9053 83.385 69.505 86.0408 75.1789 86.0408Z" fill="#E0E0E0"/>
</g>
<path d="M12.6046 77.0111C12.4513 75.2674 10.876 71.7675 8.86847 69.662C6.86097 67.5565 3.87359 66.1445 1.91383 67.0163C0.0872347 67.8254 0.506825 70.2826 2.93391 71.7122C5.361 73.1418 8.96394 74.9031 10.2202 77.6443L12.6297 80.9306L12.6046 77.0111Z" fill="#7986FC"/>
<path opacity="0.1" d="M12.6046 77.0111C12.4513 75.2674 10.876 71.7675 8.86847 69.662C6.86097 67.5565 3.87359 66.1445 1.91383 67.0163C0.0872347 67.8254 0.506825 70.2826 2.93391 71.7122C5.361 73.1418 8.96394 74.9031 10.2202 77.6443L12.6297 80.9306L12.6046 77.0111Z" fill="black"/>
<path d="M12.9428 79.386C12.9148 79.3868 12.8873 79.3781 12.8649 79.3612C12.8425 79.3443 12.8266 79.3202 12.8197 79.293C11.1313 73.4439 5.89524 69.0294 2.92043 68.2103C2.90393 68.2059 2.88847 68.1982 2.87493 68.1878C2.86139 68.1774 2.85004 68.1644 2.84153 68.1496C2.83301 68.1347 2.8275 68.1184 2.8253 68.1014C2.8231 68.0845 2.82426 68.0673 2.82872 68.0508C2.83317 68.0343 2.84083 68.0188 2.85126 68.0053C2.86169 67.9918 2.87468 67.9804 2.8895 67.9719C2.90431 67.9634 2.92066 67.9579 2.93761 67.9557C2.95455 67.9535 2.97177 67.9546 2.98826 67.9591C6.01835 68.7932 11.3524 73.2806 13.0634 79.2177C13.0684 79.2337 13.0702 79.2505 13.0686 79.2672C13.067 79.2839 13.0621 79.3001 13.0541 79.3148C13.0461 79.3296 13.0353 79.3426 13.0222 79.3531C13.0092 79.3636 12.9941 79.3713 12.978 79.3759L12.9428 79.386Z" fill="white"/>
<path d="M12.3883 83.2722C12.0215 82.3175 10.6848 80.8049 8.61954 79.6366C6.35828 78.3477 3.57944 77.9055 2.84077 76.8075C1.96892 75.4935 3.02167 74.0865 5.24524 74.1669C7.46881 74.2473 11.5969 76.9105 12.6119 81.3753L12.3883 83.2722Z" fill="#7986FC"/>
<path d="M12.7241 82.2068C12.6992 82.2071 12.6748 82.2001 12.6538 82.1867C12.6328 82.1733 12.6162 82.1541 12.606 82.1315C10.3447 77.1944 6.28951 75.7447 4.46794 75.6668C4.45111 75.6661 4.43457 75.6622 4.41927 75.6551C4.40397 75.6481 4.39021 75.6381 4.37878 75.6257C4.36734 75.6133 4.35846 75.5989 4.35263 75.583C4.34681 75.5672 4.34416 75.5504 4.34483 75.5336C4.34512 75.5168 4.34885 75.5002 4.35581 75.4848C4.36277 75.4695 4.3728 75.4558 4.38528 75.4445C4.39776 75.4332 4.41243 75.4245 4.42837 75.4191C4.44432 75.4137 4.46121 75.4116 4.47799 75.413C6.488 75.4959 10.508 76.9833 12.8396 82.0259C12.8527 82.0567 12.8534 82.0913 12.8418 82.1226C12.8301 82.1539 12.8068 82.1796 12.7768 82.1943C12.7603 82.202 12.7423 82.2063 12.7241 82.2068Z" fill="white"/>
<path d="M80.8345 74.7524C80.7968 73.3479 81.1862 70.9962 82.5681 68.647C84.048 66.1344 86.0002 64.4511 87.6409 64.9636C89.1685 65.441 88.8318 67.5138 86.5354 69.7726C84.9223 71.358 83.3043 73.368 82.5505 75.6669L81.2591 78.6267L80.8345 74.7524Z" fill="#7986FC"/>
<path d="M80.8345 74.7524C80.7968 73.3479 81.1862 70.9962 82.5681 68.647C84.048 66.1344 86.0002 64.4511 87.6409 64.9636C89.1685 65.441 88.8318 67.5138 86.5354 69.7726C84.9223 71.358 83.3043 73.368 82.5505 75.6669L81.2591 78.6267L80.8345 74.7524Z" fill="#7986FC"/>
<g opacity="0.1">
<path opacity="0.1" d="M80.8345 74.7524C80.7968 73.3479 81.1862 70.9962 82.5681 68.647C84.048 66.1344 86.0002 64.4511 87.6409 64.9636C89.1685 65.441 88.8318 67.5138 86.5354 69.7726C84.9223 71.358 83.3043 73.368 82.5505 75.6669L81.2591 78.6267L80.8345 74.7524Z" fill="black"/>
</g>
<path d="M81.0931 75.795C81.1136 75.7933 81.1329 75.785 81.1483 75.7714C81.1637 75.7578 81.1743 75.7397 81.1786 75.7196C82.1635 71.7147 84.6559 67.4987 86.9799 65.9208C86.9983 65.9047 87.0102 65.8826 87.0134 65.8584C87.0166 65.8342 87.011 65.8097 86.9974 65.7894C86.9839 65.7691 86.9634 65.7544 86.9399 65.7481C86.9163 65.7417 86.8913 65.7442 86.8694 65.755C84.5101 67.3655 81.98 71.6292 80.9851 75.6794C80.9821 75.6919 80.9816 75.7049 80.9837 75.7177C80.9857 75.7304 80.9902 75.7426 80.997 75.7536C81.0038 75.7645 81.0127 75.7741 81.0231 75.7816C81.0336 75.7891 81.0454 75.7945 81.0579 75.7975C81.0697 75.7992 81.0817 75.7983 81.0931 75.795Z" fill="white"/>
<path d="M80.8229 79.2925C81.5982 79.9804 82.5411 80.4518 83.5566 80.6593C85.3153 81.0437 86.1344 80.2472 86.1344 80.2472C86.1344 80.2472 85.5364 78.5513 84.5641 78.0262C85.6341 78.3336 86.6443 78.8204 87.5515 79.4658C87.5515 79.4658 88.6268 79.5462 89.1544 77.9282C89.1544 77.9282 88.5741 76.898 86.4635 76.2372C87.5323 76.11 88.6159 76.2286 89.6318 76.584C89.77 76.6493 90.4961 74.5589 90.7373 73.5891C90.9785 72.6192 90.5815 72.6042 89.8303 72.3554C89.0791 72.1067 86.4786 71.8228 85.9761 72.2147C85.4736 72.6067 85.142 74.0287 85.142 74.0287C85.142 74.0287 84.7324 73.1896 84.8907 72.4685C84.3665 72.284 83.7985 72.2639 83.2626 72.4107C82.3857 72.6619 82.4159 73.0815 82.3782 73.7071C82.3375 74.3365 82.3866 74.9685 82.5239 75.584C82.5239 75.584 81.9611 75.0338 82.0541 73.1393C82.0541 73.1393 80.833 74.0639 80.3154 74.8981C79.7978 75.7322 79.7878 77.9508 80.8229 79.2925Z" fill="#7986FC"/>
<path d="M80.8146 79.3924C80.8333 79.3935 80.8518 79.3894 80.8683 79.3805C80.8847 79.3717 80.8983 79.3584 80.9076 79.3422C82.5081 76.4679 88.008 73.3448 89.9275 73.0885C89.9404 73.0867 89.9528 73.0824 89.964 73.0758C89.9752 73.0692 89.9849 73.0605 89.9928 73.0501C90.0006 73.0397 90.0063 73.0279 90.0095 73.0153C90.0128 73.0027 90.0135 72.9896 90.0117 72.9767C90.0099 72.9639 90.0055 72.9515 89.9989 72.9403C89.9923 72.9291 89.9836 72.9193 89.9732 72.9115C89.9628 72.9037 89.951 72.898 89.9384 72.8947C89.9259 72.8915 89.9128 72.8908 89.8999 72.8926C87.9502 73.1438 82.3623 76.3247 80.7342 79.2442C80.7215 79.2672 80.7183 79.2944 80.7253 79.3197C80.7324 79.3451 80.7491 79.3667 80.7719 79.3799C80.7849 79.3875 80.7996 79.3918 80.8146 79.3924Z" fill="white"/>
<path d="M13.9609 85.1966L13.2775 84.8021C12.9848 84.6114 12.7413 84.3543 12.5667 84.0517C12.3921 83.7492 12.2913 83.4097 12.2725 83.0609V23.14C12.2911 22.7908 12.3918 22.4509 12.5664 22.148C12.741 21.845 12.9846 21.5875 13.2775 21.3963L40.9151 5.44186C41.2265 5.28364 41.5708 5.20117 41.9201 5.20117C42.2694 5.20117 42.6137 5.28364 42.9251 5.44186L43.6085 5.83633C43.901 6.02722 44.1444 6.28434 44.319 6.58685C44.4936 6.88935 44.5945 7.22873 44.6135 7.5775V67.5009C44.5945 67.8497 44.4936 68.1891 44.319 68.4916C44.1444 68.7941 43.901 69.0512 43.6085 69.2421L15.9709 85.1966C15.6595 85.3548 15.3152 85.4373 14.9659 85.4373C14.6166 85.4373 14.2723 85.3548 13.9609 85.1966Z" fill="#37474F"/>
<path d="M16.3141 24.3234L12.5654 22.1602C12.3851 22.4608 12.284 22.8022 12.2715 23.1526V83.061C12.2903 83.4098 12.3911 83.7492 12.5657 84.0518C12.7403 84.3543 12.9839 84.6114 13.2765 84.8021L13.9599 85.1966C14.2713 85.3548 14.6156 85.4373 14.9649 85.4373C15.3142 85.4373 15.6585 85.3548 15.9699 85.1966L16.3116 85.0006L16.3141 24.3234Z" fill="#263238"/>
<path d="M14.9668 24.6951V84.6235C14.9668 85.2667 15.4165 85.5255 15.9718 85.2039L43.6094 69.2495C43.9019 69.0586 44.1454 68.8015 44.32 68.499C44.4946 68.1964 44.5955 67.8571 44.6144 67.5083V7.57733C44.6144 6.93664 44.1647 6.67785 43.6094 6.99694L15.9718 22.9539C15.6789 23.1444 15.4352 23.4014 15.2605 23.704C15.0858 24.0066 14.9852 24.3462 14.9668 24.6951Z" fill="#455A64"/>
<path d="M17.1782 28.484L42.3033 13.9743C42.7782 13.7004 43.1651 13.924 43.1651 14.4768V62.2773C43.1489 62.5763 43.0624 62.8673 42.9127 63.1266C42.763 63.3859 42.5542 63.6063 42.3033 63.7698L17.1782 78.277C16.7008 78.5534 16.3164 78.3298 16.3164 77.7745V29.9765C16.332 29.6773 16.4182 29.3861 16.568 29.1267C16.7178 28.8673 16.9269 28.6471 17.1782 28.484Z" fill="#FAFAFA"/>
<g opacity="0.4">
<path opacity="0.4" d="M29.8768 32.2502C32.6933 30.6246 34.9772 31.9437 34.9772 35.1949C34.9772 38.4461 32.6933 42.4058 29.8768 44.0314C27.0602 45.657 24.7764 44.3404 24.7764 41.0867C24.7764 37.833 27.0602 33.8708 29.8768 32.2502Z" fill="#7986FC"/>
<path opacity="0.4" d="M39.9292 49.6496C39.9292 44.3055 36.1781 41.9312 31.55 44.6045L28.6556 46.2753C24.0276 48.9461 20.2764 55.446 20.2764 60.7901V62.2298L39.9292 50.8883V49.6496Z" fill="#7986FC"/>
</g>
<path d="M29.7905 16.5348C30.1624 16.3188 30.4639 16.4947 30.4639 16.9243C30.4514 17.1579 30.3839 17.3853 30.2669 17.5879C30.1499 17.7905 29.9867 17.9626 29.7905 18.0901C29.4187 18.3062 29.1172 18.1303 29.1172 17.7007C29.1296 17.467 29.1971 17.2396 29.3141 17.0371C29.4312 16.8345 29.5944 16.6624 29.7905 16.5348Z" fill="#263238"/>
<path d="M27.8451 19.8964C29.2144 19.1427 31.6566 17.6879 33.0058 16.894C33.2344 16.7583 33.4204 16.8513 33.4204 17.1C33.4104 17.2403 33.3675 17.3762 33.295 17.4968C33.2225 17.6173 33.1226 17.7189 33.0033 17.7935L27.835 20.7783C27.6039 20.9115 27.418 20.8185 27.418 20.5673C27.4296 20.4293 27.4746 20.2961 27.549 20.1793C27.6234 20.0625 27.725 19.9654 27.8451 19.8964Z" fill="#263238"/>
<path d="M26.5386 20.6527C26.7471 20.5321 26.918 20.6301 26.918 20.8713C26.9106 21.0027 26.8724 21.1305 26.8065 21.2444C26.7406 21.3583 26.6488 21.4551 26.5386 21.527C26.33 21.6476 26.1592 21.5497 26.1592 21.3085C26.1666 21.1771 26.2048 21.0492 26.2707 20.9353C26.3366 20.8214 26.4283 20.7246 26.5386 20.6527Z" fill="#263238"/>
<path d="M29.791 72.5637C30.5448 72.1341 31.1403 72.4833 31.1403 73.3426C31.1151 73.8104 30.9797 74.2657 30.7452 74.6713C30.5108 75.0769 30.1838 75.4214 29.791 75.6767C29.0373 76.1064 28.4443 75.7571 28.4443 74.8978C28.4697 74.4303 28.6048 73.9754 28.8388 73.5698C29.0727 73.1643 29.399 72.8196 29.791 72.5637Z" fill="#263238"/>
<path d="M52.7052 55.7646L49.6751 54.0059L49.6424 53.9883C48.1349 53.139 46.0696 53.2622 43.7807 54.5863C41.6401 55.8199 39.6853 57.8776 38.213 60.262C36.512 63.0057 35.4492 66.184 35.4492 69.0307C35.4492 71.6864 36.3789 73.5532 37.8813 74.4251L40.9592 76.1838C42.4792 77.1536 44.6224 77.0657 47.0043 75.6939C51.6047 73.0658 55.3408 66.586 55.3408 61.257C55.3408 58.4932 54.3257 56.5862 52.7052 55.7646Z" fill="#7986FC"/>
<path opacity="0.1" d="M40.8934 76.1679L37.8784 74.4443C36.3709 73.5724 35.4463 71.7056 35.4463 69.0499C35.4463 66.2007 36.5166 63.0199 38.2101 60.2812L41.4311 62.138C39.7276 64.8842 38.6673 68.055 38.6673 70.8991C38.6548 73.4343 39.5065 75.2508 40.8934 76.1679Z" fill="black"/>
<path opacity="0.4" d="M52.652 55.7292C51.1646 55.0081 49.1822 55.1916 47.0064 56.4453C44.8306 57.699 42.901 59.7493 41.4261 62.1336L38.2051 60.2769C39.6774 57.8925 41.6321 55.8348 43.7728 54.6011C46.0592 53.2795 48.127 53.1539 49.6345 54.0031L49.6672 54.0207L52.652 55.7292Z" fill="white"/>
<path d="M51.3419 59.1215L50.1862 58.4531L45.6611 69.1187L46.4325 69.5635L51.3419 59.1215Z" fill="white"/>
<path d="M44.7749 66.7366L43.6191 66.0708L42.3779 68.6964L43.5337 69.3622L44.7749 66.7366Z" fill="white"/>
<path d="M46.7301 72.6917L43.5342 69.3626L44.7754 66.737L46.4336 69.5636L51.3431 59.1216L53.1621 60.8954L46.7301 72.6917Z" fill="#F5F5F5"/>
<path d="M42.3779 68.6968L43.5337 69.3626L46.7296 72.6917L45.5764 72.0309L42.3779 68.6968Z" fill="#E0E0E0"/>
<path d="M76.2701 29.5793C77.5788 29.5793 78.834 29.0594 79.7594 28.134C80.6848 27.2086 81.2047 25.9534 81.2047 24.6447V24.3533C81.205 23.804 81.0971 23.2601 80.8871 22.7526C80.6772 22.245 80.3693 21.7838 79.981 21.3953C79.5928 21.0069 79.1318 20.6987 78.6244 20.4884C78.117 20.2781 77.5731 20.1699 77.0238 20.1699H75.5163C74.4069 20.1699 73.3428 20.6107 72.5583 21.3952C71.7738 22.1797 71.333 23.2438 71.333 24.3533V24.6447C71.333 25.2929 71.4607 25.9348 71.7089 26.5337C71.957 27.1325 72.3207 27.6766 72.7792 28.1349C73.2377 28.5931 73.782 28.9565 74.3809 29.2044C74.9799 29.4522 75.6219 29.5796 76.2701 29.5793Z" fill="#263238"/>
<path d="M71.1798 78.3904C70.6044 78.9942 69.9735 79.5427 69.2954 80.0285C69.1922 80.0976 69.1062 80.1896 69.0442 80.2974C68.9563 80.4833 68.8181 80.9406 69.6598 81.2345C70.0854 81.382 70.5378 81.4359 70.9862 81.3926C71.4345 81.3492 71.8682 81.2096 72.2577 80.9833C72.9512 80.5511 72.9813 79.6516 73.6346 79.1366C74.117 78.7572 74.72 78.6592 75.1119 78.1617C75.3833 77.815 75.3129 77.3552 75.1697 76.7849C75.0164 76.1618 74.9436 75.6919 74.7376 75.7397L74.7727 76.0261C74.5215 76.4356 73.1823 76.5562 72.5894 76.2773C72.5793 76.2723 71.5542 77.9808 71.1798 78.3904Z" fill="#263238"/>
<path d="M70.5945 78.971C70.7955 78.7876 70.9915 78.5967 71.1799 78.3906C71.5744 77.8786 71.9377 77.3433 72.2678 76.7877C72.4953 76.4509 72.6024 76.0472 72.5718 75.6419C72.5241 75.2098 72.406 74.1068 72.406 74.1068L74.5165 73.9561L74.7678 76.0264C74.818 76.4962 74.4311 76.9133 73.7427 77.5062C73.0542 78.0992 72.1849 79.4786 71.5618 79.8253C70.9387 80.172 70.4965 80.1594 70.2302 79.9811C69.9638 79.8027 69.9262 79.6569 70.5945 78.971Z" fill="#B16668"/>
<path d="M79.208 78.5791V78.26C79.0848 78.6344 78.5045 80.2348 77.6226 81.0388C76.9241 81.677 75.9693 82.4132 75.7256 83.1267C75.4819 83.8403 77.0547 84.1141 77.708 83.9986C78.4617 83.8654 79.4517 83.4332 79.9868 82.7775C80.3612 82.3152 80.6024 81.7725 80.8712 81.4031C81.1401 81.0338 81.7582 80.6343 81.9039 80.2122C81.9843 79.9811 81.8888 79.476 81.7757 79.0489C81.6627 78.6218 81.5622 78.2248 81.429 78.26V78.5112C81.1125 78.7593 80.7206 78.8914 80.3185 78.8856C79.9944 78.8906 79.2054 78.8253 79.208 78.5791Z" fill="#263238"/>
<path d="M76.9897 81.6086C77.2058 81.4151 77.4244 81.2267 77.6229 81.0458C78.2384 80.4855 78.7083 79.5383 78.9771 78.885C79.1309 78.5147 79.2103 78.1177 79.2108 77.7167V76.4604H81.4293V78.5207V78.576C81.3238 79.0383 80.3037 80.2644 79.7259 81.0634C79.3389 81.5985 78.6028 82.2819 77.7158 82.4C76.8742 82.4955 76.447 82.2317 76.9897 81.6086Z" fill="#B16668"/>
<path d="M80.9868 44.0917C82.7079 47.8479 80.924 61.0839 80.924 61.0839C80.9767 61.6944 81.6777 62.8954 81.929 65.5788C82.2355 68.7495 81.4466 76.7092 81.4466 76.7092C81.1083 76.9061 80.7271 77.0173 80.336 77.0331C79.9449 77.0488 79.5559 76.9687 79.2029 76.7996C79.2029 76.7996 77.0899 64.8074 76.6904 61.6567C76.3437 58.9055 75.6854 52.4383 75.6854 52.4383L73.9568 61.7145C74.2767 62.5824 74.5033 63.482 74.6327 64.3979C74.811 66.2546 74.6779 74.8298 74.6779 74.8298C74.6779 74.8298 73.9241 75.4077 72.4644 75.1941C72.4644 75.1941 69.9518 63.4507 69.7534 61.2195C69.6378 59.8879 71.1553 43.5415 71.1553 43.5415L80.9868 44.0917Z" fill="#7986FC"/>
<path opacity="0.6" d="M80.9868 44.0917C82.7079 47.8479 80.924 61.0839 80.924 61.0839C80.9767 61.6944 81.6777 62.8954 81.929 65.5788C82.2355 68.7495 81.4466 76.7092 81.4466 76.7092C81.1083 76.9061 80.7271 77.0173 80.336 77.0331C79.9449 77.0488 79.5559 76.9687 79.2029 76.7996C79.2029 76.7996 77.0899 64.8074 76.6904 61.6567C76.3437 58.9055 75.6854 52.4383 75.6854 52.4383L73.9568 61.7145C74.2767 62.5824 74.5033 63.482 74.6327 64.3979C74.811 66.2546 74.6779 74.8298 74.6779 74.8298C74.6779 74.8298 73.9241 75.4077 72.4644 75.1941C72.4644 75.1941 69.9518 63.4507 69.7534 61.2195C69.6378 59.8879 71.1553 43.5415 71.1553 43.5415L80.9868 44.0917Z" fill="black"/>
<path opacity="0.3" d="M75.6838 52.4382L75.126 49.3654C75.126 49.3654 72.7617 48.8755 71.6914 47.8579C71.6914 47.8579 72.8145 49.2574 74.4853 49.7147L75.1135 52.4005L74.126 60.7923L75.6838 52.4382Z" fill="black"/>
<path d="M83.7907 42.4585C83.7731 42.2073 83.3108 39.5817 82.9943 38.1094L79.9014 39.0566L80.4516 41.7651L83.0546 43.8555C83.8736 43.6947 83.8083 42.7048 83.7907 42.4585Z" fill="#B16668"/>
<path d="M68.8324 36.9106L67.3701 39.5915L69.6465 41.5412L71.7293 38.2373L68.8324 36.9106Z" fill="#B16668"/>
<path d="M74.3186 30.939C72.8689 30.954 71.2709 31.4792 70.7207 32.6173C70.1705 33.7555 68.6504 36.8886 68.6504 36.8886C68.6504 36.8886 70.0046 38.7278 72.0373 38.5946L74.3186 30.939Z" fill="#7986FC"/>
<path opacity="0.6" d="M74.3186 30.939C72.8689 30.954 71.2709 31.4792 70.7207 32.6173C70.1705 33.7555 68.6504 36.8886 68.6504 36.8886C68.6504 36.8886 70.0046 38.7278 72.0373 38.5946L74.3186 30.939Z" fill="black"/>
<path d="M77.3186 30.9892L78.5271 31.0395C79.8386 31.3535 80.3135 32.2555 80.8637 33.4188C81.2672 34.3171 81.305 35.3372 80.9693 36.263L79.4316 40.7101C79.4316 40.7101 80.1502 42.4488 80.9868 44.092C77.1301 46.2452 72.3137 45.1121 71.1529 43.5417C71.1051 43.2076 71.1705 41.7076 71.0775 39.9991C70.9795 38.175 70.7283 36.1173 71.0147 34.9916C71.5473 32.9012 72.5423 30.939 74.5322 30.939L77.3186 30.9892Z" fill="#F5F5F5"/>
<path d="M78.5318 31.0391C79.8459 31.225 81.7805 31.4888 82.4463 34.6169C83.1222 37.7877 83.2503 38.5439 83.2503 38.5439C83.2503 38.5439 82.0996 39.6922 79.9162 39.6821C79.9112 39.6821 77.9866 33.4561 78.5318 31.0391Z" fill="#7986FC"/>
<path opacity="0.6" d="M78.5318 31.0391C79.8459 31.225 81.7805 31.4888 82.4463 34.6169C83.1222 37.7877 83.2503 38.5439 83.2503 38.5439C83.2503 38.5439 82.0996 39.6922 79.9162 39.6821C79.9112 39.6821 77.9866 33.4561 78.5318 31.0391Z" fill="black"/>
<path d="M79.8535 39.4885C79.6022 38.6568 79.351 37.7071 79.1123 36.687C79.1226 37.9694 79.253 39.248 79.5017 40.506L79.8535 39.4885Z" fill="#EBEBEB"/>
<path d="M72.9446 22.1646C72.4245 22.4736 71.7813 23.7851 71.8441 26.5338C71.8969 28.8629 72.6531 29.4383 73.0325 29.6041C73.4119 29.7699 74.1431 29.6694 74.8541 29.5513V30.9508C74.8541 30.9508 73.8717 32.0915 73.932 32.7322C73.9923 33.3729 75.3516 33.5261 76.2712 32.898C76.8665 32.4693 77.3776 31.9344 77.7787 31.3201V27.9383C77.7787 27.9383 78.2586 28.579 79.0349 28.0589C79.8113 27.5388 79.849 26.2474 79.3942 25.7826C78.9394 25.3178 77.952 25.466 77.7711 26.1067C77.7711 26.1067 76.6355 26.1494 75.1255 25.3203C74.5399 25.0021 74.0375 24.5507 73.6586 24.0025C73.2798 23.4543 73.0352 22.8247 72.9446 22.1646Z" fill="#B16668"/>
<path d="M74.4434 25.9483C74.4425 26.006 74.4586 26.0627 74.4896 26.1113C74.5207 26.1599 74.5654 26.1983 74.6182 26.2217C74.6709 26.245 74.7294 26.2524 74.7862 26.2428C74.8431 26.2332 74.8959 26.2071 74.9381 26.1677C74.9802 26.1283 75.0098 26.0773 75.0232 26.0212C75.0366 25.9651 75.0332 25.9063 75.0134 25.8521C74.9936 25.7979 74.9583 25.7507 74.9119 25.7164C74.8655 25.6822 74.81 25.6623 74.7524 25.6594C74.7132 25.658 74.674 25.6644 74.6372 25.6782C74.6004 25.692 74.5667 25.7129 74.538 25.7398C74.5093 25.7666 74.4862 25.7988 74.47 25.8346C74.4537 25.8704 74.4447 25.909 74.4434 25.9483Z" fill="#263238"/>
<path d="M74.3664 27.9233L73.6855 28.1419C73.6971 28.188 73.7179 28.2313 73.7467 28.2691C73.7755 28.307 73.8116 28.3386 73.8529 28.3621C73.8943 28.3856 73.9399 28.4004 73.9872 28.4058C74.0344 28.4111 74.0822 28.4068 74.1278 28.3932C74.221 28.3616 74.2983 28.2947 74.3429 28.2069C74.3875 28.1191 74.3959 28.0173 74.3664 27.9233Z" fill="#9A4A4D"/>
<path d="M72.0428 25.0494L72.6357 24.6399C72.6111 24.5984 72.578 24.5624 72.5387 24.5344C72.4993 24.5064 72.4545 24.487 72.4072 24.4773C72.3599 24.4676 72.3111 24.4679 72.2639 24.4781C72.2167 24.4884 72.1722 24.5084 72.1332 24.5369C72.0556 24.5947 72.0031 24.6799 71.9862 24.7752C71.9694 24.8705 71.9897 24.9686 72.0428 25.0494Z" fill="#263238"/>
<path d="M72.1777 25.7373C72.1773 25.7949 72.1938 25.8513 72.2252 25.8996C72.2566 25.9479 72.3015 25.9859 72.3543 26.0089C72.4071 26.0319 72.4655 26.0389 72.5222 26.029C72.5789 26.0191 72.6315 25.9928 72.6734 25.9533C72.7153 25.9138 72.7447 25.8628 72.7578 25.8068C72.771 25.7507 72.7675 25.692 72.7476 25.638C72.7277 25.5839 72.6924 25.5369 72.646 25.5027C72.5997 25.4686 72.5443 25.4488 72.4868 25.4458C72.4074 25.4445 72.3307 25.4742 72.2729 25.5286C72.2152 25.5831 72.181 25.658 72.1777 25.7373Z" fill="#263238"/>
<path d="M73.5593 25.5688L73.514 27.3326L72.5869 27.0462L73.5593 25.5688Z" fill="#9A4A4D"/>
<path d="M74.8535 29.5516C75.6073 29.4536 77.1424 29.0114 77.3836 28.4009C77.2875 28.7097 77.0989 28.9815 76.8434 29.1798C76.3836 29.5742 74.8535 30.0189 74.8535 30.0189V29.5516Z" fill="#9A4A4D"/>
<path d="M62.5898 36.7471L71.0947 38.9857L73.6072 49.5433L65.5194 47.1941L62.5898 36.7471Z" fill="#7986FC"/>
<path opacity="0.15" d="M66.2983 43.7319C66.2204 43.948 65.7531 44.546 64.7632 44.4983L64.6426 44.0611L66.2983 43.7319Z" fill="black"/>
<path opacity="0.15" d="M68.1992 44.061C68.2369 44.3424 68.8148 44.865 69.7922 45.1892C70.9052 45.561 72.6112 45.365 72.6112 45.365L72.4579 44.8399L68.1992 44.061Z" fill="black"/>
<path opacity="0.15" d="M65.0794 38.2746C65.0794 38.2746 65.0493 38.1289 65.0091 37.9505C64.9689 37.7721 65.4714 37.7621 66.1246 37.9329L67.3809 38.257C68.0342 38.4279 68.597 38.7118 68.6372 38.8902L68.7075 39.2143L65.0794 38.2746Z" fill="black"/>
<path d="M64.4914 37.0521C64.4663 36.939 64.6673 36.9114 64.9411 36.9867L65.4436 37.1224C65.4436 37.1224 65.2954 36.4214 66.3959 36.6677C67.4963 36.9139 67.7375 37.7078 67.7375 37.7078L68.2677 37.8586C68.5616 37.9415 68.8255 38.1098 68.8606 38.2129L68.9235 38.4139L64.5416 37.2606C64.5416 37.2606 64.514 37.1626 64.4914 37.0521Z" fill="#37474F"/>
<path d="M65.0945 37.4012C65.4965 37.4992 65.6623 37.552 65.7226 37.8284C65.7905 38.1449 65.8181 38.3761 65.8181 38.3761L67.7578 38.8786C67.7578 38.8786 67.6648 38.4791 67.6347 38.3233C67.6045 38.1675 67.6698 38.0721 67.9789 38.155L68.004 38.0319L64.9639 37.2681L65.0945 37.4012Z" fill="#37474F"/>
<path d="M65.0267 38.3054C65.0267 38.3054 64.9966 38.1597 64.9564 37.9813C64.9162 37.8029 65.4187 37.7953 66.0719 37.9637L67.3282 38.2903C67.9814 38.4586 68.5442 38.7426 68.5844 38.921L68.6548 39.2451L65.0267 38.3054Z" fill="#37474F"/>
<path d="M83.0548 43.8556L80.4493 41.7652C80.4493 41.7652 74.6907 42.7903 74.0123 42.8431C73.6544 42.8528 73.3019 42.7541 73.001 42.5599C72.7002 42.3658 72.465 42.0853 72.3264 41.7551C72.0751 41.0893 71.6153 41.1722 71.6153 41.1722C71.6153 41.1722 71.8138 42.0139 71.8666 42.2828C71.9194 42.5516 70.3088 42.7853 69.4094 42.4687C68.5099 42.1521 67.2059 42.6069 68.0124 43.8305C68.8189 45.0541 70.3892 45.1973 71.4772 45.1973C71.9333 45.1939 72.3889 45.1637 72.8414 45.1068C73.1932 45.0616 73.545 45.0264 73.8992 45.0013C76.1429 44.8405 82.0498 44.1722 83.0548 43.8556Z" fill="#B16668"/>
<path d="M63.4562 39.8327L63.8331 41.1794C63.906 41.4307 64.8934 41.9081 65.519 42.0814C66.1446 42.2548 66.828 42.4558 66.524 43.3377C66.2527 44.1442 65.2225 44.3276 64.6999 44.305C64.1773 44.2824 63.4588 43.7824 63.1774 42.9759C62.8156 41.9458 63.009 40.8453 62.8658 40.2448C62.7226 39.6443 63.1422 39.4734 63.4562 39.8327Z" fill="#B16668"/>
<path d="M80.5773 34.9916C80.2098 34.9919 79.8459 34.9198 79.5063 34.7794C79.1668 34.639 78.8582 34.4331 78.5983 34.1734C78.3383 33.9137 78.1321 33.6053 77.9914 33.2659C77.8507 32.9264 77.7783 32.5626 77.7783 32.1951V28.2681C78.5198 28.2687 79.2307 28.5636 79.755 29.0879C80.2792 29.6121 80.5741 30.323 80.5747 31.0645L80.5773 34.9916Z" fill="#263238"/>
<defs>
<filter id="filter0_d" x="60.9053" y="74.1768" width="28.5473" height="19.8641" filterUnits="userSpaceOnUse" color-interpolation-filters="sRGB">
<feFlood flood-opacity="0" result="BackgroundImageFix"/>
<feColorMatrix in="SourceAlpha" type="matrix" values="0 0 0 0 0 0 0 0 0 0 0 0 0 0 0 0 0 0 127 0"/>
<feOffset dy="4"/>
<feGaussianBlur stdDeviation="2"/>
<feColorMatrix type="matrix" values="0 0 0 0 0.474823 0 0 0 0 0.526091 0 0 0 0 0.9875 0 0 0 0.4 0"/>
<feBlend mode="normal" in2="BackgroundImageFix" result="effect1_dropShadow"/>
<feBlend mode="normal" in="SourceGraphic" in2="effect1_dropShadow" result="shape"/>
</filter>
</defs>
</svg>
