<svg width="17" height="16" viewBox="0 0 17 16" fill="none" xmlns="http://www.w3.org/2000/svg">
<path d="M13.6227 2.66748H12.2894C12.1126 2.66748 11.943 2.73772 11.818 2.86274C11.693 2.98777 11.6227 3.15734 11.6227 3.33415C11.6227 3.51096 11.693 3.68053 11.818 3.80555C11.943 3.93058 12.1126 4.00081 12.2894 4.00081H12.9561V12.0008H12.2894C12.1126 12.0008 11.943 12.0711 11.818 12.1961C11.693 12.3211 11.6227 12.4907 11.6227 12.6675C11.6227 12.8443 11.693 13.0139 11.818 13.1389C11.943 13.2639 12.1126 13.3341 12.2894 13.3341H13.6227C13.7995 13.3341 13.9691 13.2639 14.0941 13.1389C14.2192 13.0139 14.2894 12.8443 14.2894 12.6675V3.33415C14.2894 3.15734 14.2192 2.98777 14.0941 2.86274C13.9691 2.73772 13.7995 2.66748 13.6227 2.66748ZM8.82272 4.93415C8.71664 4.7927 8.5587 4.69919 8.38367 4.67418C8.20864 4.64918 8.03084 4.69473 7.88939 4.80081C7.74794 4.9069 7.65443 5.06483 7.62942 5.23987C7.60442 5.4149 7.64997 5.5927 7.75605 5.73415L8.95605 7.33415H3.62272C3.44591 7.33415 3.27634 7.40439 3.15132 7.52941C3.02629 7.65443 2.95605 7.824 2.95605 8.00081C2.95605 8.17763 3.02629 8.34719 3.15132 8.47222C3.27634 8.59724 3.44591 8.66748 3.62272 8.66748H9.01606L7.86939 10.2941C7.81823 10.3658 7.78177 10.4469 7.76212 10.5327C7.74247 10.6185 7.74001 10.7074 7.75488 10.7942C7.76976 10.8809 7.80168 10.9639 7.84879 11.0383C7.89591 11.1127 7.95729 11.177 8.02939 11.2275C8.14272 11.3066 8.27784 11.3485 8.41605 11.3475C8.52182 11.347 8.62595 11.3213 8.71985 11.2727C8.81375 11.224 8.89471 11.1536 8.95605 11.0675L10.8361 8.40081C10.9195 8.28664 10.9645 8.14889 10.9645 8.00748C10.9645 7.86607 10.9195 7.72832 10.8361 7.61415L8.82272 4.93415Z" fill="#B9C0CE"/>
</svg>
