<svg width="14" height="14" viewBox="0 0 14 14" fill="none" xmlns="http://www.w3.org/2000/svg">
<path fill-rule="evenodd" clip-rule="evenodd" d="M6.99968 0.333252C3.32634 0.333252 0.333008 3.32659 0.333008 6.99992C0.333008 10.6733 3.32634 13.6666 6.99968 13.6666C10.673 13.6666 13.6663 10.6733 13.6663 6.99992C13.6663 3.32659 10.673 0.333252 6.99968 0.333252ZM6.99966 3.66657C6.63299 3.66657 6.33299 3.96657 6.33299 4.33323V6.33323H4.33299C3.96632 6.33323 3.66632 6.63323 3.66632 6.9999C3.66632 7.36657 3.96632 7.66657 4.33299 7.66657H6.33299V9.66657C6.33299 10.0332 6.63299 10.3332 6.99966 10.3332C7.36632 10.3332 7.66632 10.0332 7.66632 9.66657V7.66657H9.66632C10.033 7.66657 10.333 7.36657 10.333 6.9999C10.333 6.63323 10.033 6.33323 9.66632 6.33323H7.66632V4.33323C7.66632 3.96657 7.36632 3.66657 6.99966 3.66657ZM1.66632 6.9999C1.66632 9.9399 4.05966 12.3332 6.99966 12.3332C9.93966 12.3332 12.333 9.9399 12.333 6.9999C12.333 4.0599 9.93966 1.66657 6.99966 1.66657C4.05966 1.66657 1.66632 4.0599 1.66632 6.9999Z" fill="white"/>
</svg>
