<svg width="46" height="46" viewBox="0 0 46 46" fill="none" xmlns="http://www.w3.org/2000/svg">
<path fill-rule="evenodd" clip-rule="evenodd" d="M13.5719 13.1993C18.7856 7.9856 27.2144 7.9856 32.4281 13.1993C37.6418 18.4131 37.6418 26.8418 32.4281 32.0555C27.2144 37.2692 18.7856 37.2692 13.5719 32.0555C8.35817 26.8418 8.35818 18.4131 13.5719 13.1993ZM21.6706 29.4062C21.6706 30.1416 22.2646 30.7356 23 30.7356C23.726 30.7262 24.3294 30.1228 24.3294 29.4062V23.9568L29.7788 23.9568C30.5142 23.9568 31.1082 23.3628 31.1082 22.6274C31.1082 21.8921 30.5142 21.2981 29.7788 21.2981L24.3294 21.2981L24.3294 15.8487C24.3294 15.1133 23.7354 14.5193 23 14.5193C22.6473 14.5189 22.3089 14.6588 22.0596 14.9082C21.8102 15.1576 21.6702 15.496 21.6706 15.8487L21.6706 21.2981H16.2212C15.8685 21.2977 15.5302 21.4376 15.2808 21.687C15.0314 21.9364 14.8914 22.2748 14.8918 22.6275C14.8918 23.3628 15.4858 23.9568 16.2212 23.9568H21.6706V29.4062Z" fill="#5F6FFF"/>
</svg>
