<svg width="20" height="20" viewBox="0 0 20 20" fill="none" xmlns="http://www.w3.org/2000/svg">
<path fill-rule="evenodd" clip-rule="evenodd" d="M5.7573 2.49992V4.16658C5.7573 4.62492 6.1323 4.99992 6.59063 4.99992C7.04896 4.99992 7.42396 4.62492 7.42396 4.16658V3.33325H15.7573V16.6666H7.42396V15.8333C7.42396 15.3749 7.04896 14.9999 6.59063 14.9999C6.1323 14.9999 5.7573 15.3749 5.7573 15.8333V17.4999C5.7573 18.4166 6.5073 19.1666 7.42396 19.1666H15.7573C16.674 19.1666 17.424 18.4166 17.424 17.4999V2.49992C17.424 1.58325 16.674 0.833252 15.7573 0.833252H7.42396C6.5073 0.833252 5.7573 1.58325 5.7573 2.49992ZM7.84055 12.9166C8.08222 12.8166 8.29889 12.6749 8.50722 12.5166L8.49055 12.5416L9.33222 12.8666C9.52389 12.9416 9.74055 12.8666 9.84055 12.6833L10.5406 11.4666C10.6406 11.2916 10.5989 11.0583 10.4406 10.9333L9.73222 10.3666L9.71555 10.3916C9.71972 10.3583 9.72441 10.3249 9.72909 10.2916C9.74316 10.1916 9.75722 10.0916 9.75722 9.99158C9.75722 9.89158 9.74316 9.79158 9.72909 9.69158C9.72441 9.65825 9.71972 9.62492 9.71555 9.59159L9.73222 9.61658L10.4406 9.04992C10.5989 8.92492 10.6406 8.69158 10.5406 8.51658L9.84055 7.29992C9.74055 7.12492 9.52389 7.04158 9.33222 7.11658L8.49055 7.44158L8.50722 7.46658C8.29889 7.32492 8.08222 7.18325 7.84055 7.08325L7.69889 6.18325C7.67389 5.98325 7.49889 5.83325 7.29055 5.83325H5.89055C5.68222 5.83325 5.50722 5.98325 5.48222 6.18325L5.34055 7.08325C5.09889 7.18325 4.88222 7.32492 4.67389 7.48325L4.69055 7.45825L3.84055 7.13325C3.64889 7.05825 3.43222 7.13325 3.33222 7.31658L2.63222 8.53325C2.53222 8.70825 2.57389 8.94158 2.73222 9.06658L3.44055 9.63325L3.45722 9.60825C3.45353 9.63595 3.44942 9.66406 3.44528 9.69249C3.4307 9.79235 3.41555 9.89613 3.41555 9.99992C3.41555 10.0999 3.42962 10.1999 3.44368 10.2999C3.44837 10.3333 3.45305 10.3666 3.45722 10.3999L3.44055 10.3749L2.73222 10.9416C2.57389 11.0666 2.53222 11.2999 2.63222 11.4749L3.33222 12.6916C3.43222 12.8666 3.64889 12.9499 3.84055 12.8749L4.68222 12.5499L4.67389 12.5166C4.88222 12.6749 5.09889 12.8166 5.34055 12.9166L5.48222 13.8083C5.50722 14.0166 5.68222 14.1666 5.89055 14.1666H7.29055C7.49889 14.1666 7.67389 14.0166 7.69889 13.8166L7.84055 12.9166ZM6.59063 8.33325C5.67396 8.33325 4.92396 9.08325 4.92396 9.99992C4.92396 10.9166 5.67396 11.6666 6.59063 11.6666C7.5073 11.6666 8.2573 10.9166 8.2573 9.99992C8.2573 9.08325 7.5073 8.33325 6.59063 8.33325Z" fill="#E3E8F0"/>
</svg>
