<svg width="20" height="20" viewBox="0 0 20 20" fill="none" xmlns="http://www.w3.org/2000/svg">
<path fill-rule="evenodd" clip-rule="evenodd" d="M1.66666 9.99984C1.66666 5.3915 5.39166 1.6665 9.99999 1.6665C14.6083 1.6665 18.3333 5.3915 18.3333 9.99984C18.3333 14.6082 14.6083 18.3332 9.99999 18.3332C5.39166 18.3332 1.66666 14.6082 1.66666 9.99984ZM12.4083 13.5831C12.7333 13.9081 13.2583 13.9081 13.5833 13.5831C13.9 13.2581 13.9 12.7248 13.5833 12.4081L11.175 9.9998L13.5833 7.59147C13.9083 7.26647 13.9083 6.74147 13.5833 6.41647C13.2583 6.09147 12.7333 6.09147 12.4083 6.41647L9.99996 8.8248L7.59162 6.41647C7.26662 6.09147 6.74162 6.09147 6.41662 6.41647C6.26058 6.57216 6.17288 6.78354 6.17288 7.00397C6.17288 7.2244 6.26058 7.43578 6.41662 7.59147L8.82496 9.9998L6.41662 12.4081C6.26058 12.5638 6.17288 12.7752 6.17288 12.9956C6.17288 13.2161 6.26058 13.4274 6.41662 13.5831C6.74162 13.9081 7.26662 13.9081 7.59162 13.5831L9.99996 11.1748L12.4083 13.5831Z" fill="#FF5959"/>
</svg>
