<svg width="4" height="15" viewBox="0 0 4 15" fill="none" xmlns="http://www.w3.org/2000/svg">
<path fill-rule="evenodd" clip-rule="evenodd" d="M1.99992 4.12533C2.91658 4.12533 3.66658 3.37533 3.66658 2.45866C3.66658 1.54199 2.91658 0.791992 1.99992 0.791992C1.08325 0.791992 0.333252 1.54199 0.333252 2.45866C0.333252 3.37533 1.08325 4.12533 1.99992 4.12533ZM1.99992 5.79199C1.08325 5.79199 0.333252 6.54199 0.333252 7.45866C0.333252 8.37532 1.08325 9.12532 1.99992 9.12532C2.91658 9.12532 3.66658 8.37532 3.66658 7.45866C3.66658 6.54199 2.91658 5.79199 1.99992 5.79199ZM0.333252 12.4587C0.333252 11.542 1.08325 10.792 1.99992 10.792C2.91658 10.792 3.66658 11.542 3.66658 12.4587C3.66658 13.3753 2.91658 14.1253 1.99992 14.1253C1.08325 14.1253 0.333252 13.3753 0.333252 12.4587Z" fill="#C6D1E6"/>
</svg>
