<svg width="5" height="16" viewBox="0 0 5 16" fill="none" xmlns="http://www.w3.org/2000/svg">
<path fill-rule="evenodd" clip-rule="evenodd" d="M2.47867 4C3.5764 4 4.47455 3.1 4.47455 2C4.47455 0.9 3.5764 0 2.47867 0C1.38093 0 0.482788 0.9 0.482788 2C0.482788 3.1 1.38093 4 2.47867 4ZM2.47867 6C1.38093 6 0.482788 6.9 0.482788 8C0.482788 9.1 1.38093 10 2.47867 10C3.5764 10 4.47455 9.1 4.47455 8C4.47455 6.9 3.5764 6 2.47867 6ZM0.482788 14C0.482788 12.9 1.38093 12 2.47867 12C3.5764 12 4.47455 12.9 4.47455 14C4.47455 15.1 3.5764 16 2.47867 16C1.38093 16 0.482788 15.1 0.482788 14Z" fill="#B9C0CE"/>
</svg>
