<svg width="10" height="12" viewBox="0 0 10 12" fill="none" xmlns="http://www.w3.org/2000/svg">
<path fill-rule="evenodd" clip-rule="evenodd" d="M7.00065 4.33325H8.06065C8.65398 4.33325 8.94731 5.05325 8.52731 5.47325L5.46731 8.53325C5.20731 8.79325 4.78731 8.79325 4.52731 8.53325L1.46731 5.47325C1.04731 5.05325 1.34731 4.33325 1.94065 4.33325H3.00065V0.999919C3.00065 0.633252 3.30065 0.333252 3.66731 0.333252H6.33398C6.70065 0.333252 7.00065 0.633252 7.00065 0.999919V4.33325ZM1.00065 11.6666C0.633984 11.6666 0.333984 11.3666 0.333984 10.9999C0.333984 10.6333 0.633984 10.3333 1.00065 10.3333H9.00065C9.36732 10.3333 9.66732 10.6333 9.66732 10.9999C9.66732 11.3666 9.36732 11.6666 9.00065 11.6666H1.00065Z" fill="#93A9C7"/>
</svg>
