<svg width="13" height="15" viewBox="0 0 13 15" fill="none" xmlns="http://www.w3.org/2000/svg">
<path d="M11.6302 3.67754C11.767 3.81435 11.8843 4.00001 11.982 4.23453C12.0797 4.46906 12.1286 4.68404 12.1286 4.87947V13.3223C12.1286 13.5177 12.0602 13.6839 11.9234 13.8207C11.7866 13.9575 11.6204 14.0259 11.425 14.0259H1.57503C1.37959 14.0259 1.21347 13.9575 1.07667 13.8207C0.939863 13.6839 0.87146 13.5177 0.87146 13.3223V1.59615C0.87146 1.40071 0.939863 1.23459 1.07667 1.09779C1.21347 0.960981 1.37959 0.892578 1.57503 0.892578H8.14168C8.33712 0.892578 8.5521 0.941437 8.78662 1.03916C9.02114 1.13687 9.20681 1.25413 9.34361 1.39094L11.6302 3.67754ZM8.3762 1.8893V4.64495H11.1319C11.083 4.50326 11.0292 4.4031 10.9706 4.34447L8.67669 2.05054C8.61806 1.99191 8.51789 1.93816 8.3762 1.8893ZM11.1905 13.0878V5.58304H8.14168C7.94624 5.58304 7.78012 5.51464 7.64332 5.37783C7.50651 5.24103 7.43811 5.07491 7.43811 4.87947V1.83067H1.80955V13.0878H11.1905ZM4.01554 11.3728V12.1497H6.07494V11.3728H5.52528L6.28015 10.1929C6.30458 10.1587 6.32901 10.1184 6.35344 10.072C6.37787 10.0255 6.39619 9.99257 6.40841 9.97302C6.42062 9.95348 6.42917 9.94371 6.43406 9.94371H6.44872C6.4536 9.96325 6.46582 9.98768 6.48536 10.017C6.49513 10.0365 6.50612 10.0549 6.51834 10.072C6.53055 10.0891 6.54521 10.1086 6.56231 10.1306C6.57941 10.1526 6.59529 10.1733 6.60995 10.1929L7.39414 11.3728H6.83714V12.1497H8.96984V11.3728H8.47148L7.06434 9.37206L8.49346 7.30532H8.9845V6.52114H6.93975V7.30532H7.48208L6.72721 8.47061C6.70767 8.50481 6.68324 8.54512 6.65392 8.59154C6.62461 8.63795 6.60262 8.67093 6.58796 8.69048L6.57331 8.71246H6.55865C6.55376 8.69292 6.54155 8.66849 6.522 8.63917C6.49269 8.58543 6.45116 8.52924 6.39741 8.47061L5.62056 7.30532H6.17755V6.52114H4.05218V7.30532H4.55054L5.9357 9.29877L4.5139 11.3728H4.01554Z" fill="#B9C0CE"/>
</svg>
