<svg width="167" height="37" viewBox="0 0 167 37" fill="none" xmlns="http://www.w3.org/2000/svg">
<path d="M48.9992 31.042V9.05518H57.7493C61.6768 9.05518 63.6406 10.6194 63.6406 13.7478V16.0206C63.6406 17.6967 62.8205 18.8835 61.1803 19.581C63.3292 20.0435 64.4046 21.3978 64.4065 23.6437V25.997C64.4065 29.3604 62.38 31.042 58.3272 31.042H48.9992ZM59.4437 14.2779C59.4437 13.0846 58.7106 12.4889 57.2443 12.4907H53.2045V18.2601H57.2134C58.7096 18.2601 59.4531 17.5774 59.4437 16.2121V14.2779ZM60.2096 23.8047C60.2096 22.3339 59.4334 21.5939 57.8811 21.5846H53.2045V27.6093H57.5108C59.3156 27.6093 60.2171 26.8942 60.2152 25.4642L60.2096 23.8047Z" fill="#17CA89"/>
<path d="M84.5548 24.6091C84.5548 26.6219 83.9404 28.2074 82.7117 29.3655C81.2791 30.6976 79.0908 31.3636 76.147 31.3636C73.2032 31.3636 71.0197 30.6976 69.5964 29.3655C68.3564 28.2056 67.7374 26.6201 67.7393 24.6091V15.4874C67.7393 13.4783 68.3583 11.8928 69.5964 10.731C71.0178 9.39893 73.2014 8.73291 76.147 8.73291C79.0927 8.73291 81.2809 9.39893 82.7117 10.731C83.9404 11.902 84.5548 13.4875 84.5548 15.4874V24.6091ZM71.9305 24.3676C71.9305 26.5877 73.3332 27.6977 76.1386 27.6977C78.944 27.6977 80.3467 26.5877 80.3467 24.3676V15.7289C80.3467 13.5088 78.944 12.3988 76.1386 12.3988C73.3332 12.3988 71.9305 13.5088 71.9305 15.7289V24.3676Z" fill="#17CA89"/>
<path d="M89.0519 31.042V9.05518H102.798V12.7155H93.26V18.5653H102.077V22.2257H93.2544V31.042H89.0519Z" fill="#17CA89"/>
<path d="M106.471 31.042V9.05518H120.217V12.7155H110.679V18.5653H119.496V22.2257H110.673V31.042H106.471Z" fill="#17CA89"/>
<path d="M128.257 31.042H124.049V9.05518H128.257V31.042Z" fill="#17CA89"/>
<path d="M132.917 15.0991C132.917 10.857 135.552 8.73499 140.82 8.73314C142.858 8.72439 144.889 8.96866 146.866 9.46021L146.392 13.0428C144.604 12.6948 142.788 12.5091 140.966 12.4878C138.402 12.4878 137.12 13.5978 137.12 15.8179V24.2708C137.12 26.4908 138.402 27.6008 140.966 27.6008C142.788 27.5794 144.604 27.3937 146.392 27.0458L146.866 30.6534C144.892 31.1352 142.865 31.372 140.831 31.3583C135.563 31.3583 132.928 29.2363 132.928 24.9923L132.917 15.0991Z" fill="#17CA89"/>
<path d="M150.872 9.05518H164.495V12.7155H155.077V18.0381H163.774V21.6928H155.077V27.3817H164.495V31.042H150.872V9.05518Z" fill="#17CA89"/>
<path d="M40.8916 22.8725L30.8258 33.0848C30.7298 33.1813 30.6154 33.258 30.4893 33.3104C30.3631 33.3628 30.2276 33.3899 30.0908 33.39H2.59782C2.58684 33.3932 2.57514 33.3932 2.56416 33.39C2.54512 33.3815 2.52998 33.3662 2.52168 33.3472C2.51339 33.3283 2.51253 33.3069 2.51927 33.2873L3.1561 32.6407L20.0418 15.4825C20.1168 15.4057 20.2065 15.3445 20.3058 15.3025C20.405 15.2606 20.5118 15.2387 20.6197 15.2383H37.6373C38.5313 15.2382 39.4055 15.499 40.1505 15.9879C40.8954 16.4769 41.4781 17.1723 41.8254 17.9872C42.1728 18.8021 42.2695 19.7002 42.1034 20.5692C41.9372 21.4381 41.5157 22.2393 40.8916 22.8725Z" fill="#17CA89"/>
<path d="M19.0273 13.3008L19.015 13.3125L19.0242 13.3008H19.0273Z" fill="#1EB25B"/>
<path d="M38.6304 10.1069C38.5944 10.4788 38.5095 10.8445 38.3779 11.1947C38.3157 11.3661 38.2417 11.533 38.1563 11.6942C37.9459 12.1023 37.6745 12.4765 37.3511 12.8043C37.3071 12.8493 37.2544 12.8851 37.196 12.9094C37.1377 12.9337 37.075 12.9461 37.0117 12.9458H19.8987C19.7373 12.9457 19.5776 12.9779 19.4292 13.0403C19.2807 13.1028 19.1465 13.1943 19.0346 13.3093L11.6059 22.073L8.20578 26.1745L3.15606 32.6016L2.52484 33.2482L18.9252 2.80569H22.0112C22.5678 2.80321 23.1078 2.99369 23.5373 3.34405C23.8947 3.63453 24.1613 4.01949 24.306 4.45408L24.3396 4.57618L24.4968 5.16172H34.2652C35.0796 5.18234 35.8728 5.4235 36.5583 5.85896C37.2439 6.29442 37.7956 6.90751 38.1535 7.63153C38.2011 7.72311 38.2432 7.81746 38.2853 7.90904C38.4879 8.37953 38.6084 8.88059 38.6416 9.39093C38.6578 9.62948 38.654 9.86895 38.6304 10.1069Z" fill="#17CA89"/>
</svg>
