<svg width="16" height="17" viewBox="0 0 16 17" fill="none" xmlns="http://www.w3.org/2000/svg">
<path d="M3.99992 13.018C3.99992 13.7513 4.59992 14.3513 5.33325 14.3513H10.6666C11.3999 14.3513 11.9999 13.7513 11.9999 13.018V6.35132C11.9999 5.61799 11.3999 5.01799 10.6666 5.01799H5.33325C4.59992 5.01799 3.99992 5.61799 3.99992 6.35132V13.018ZM6.11325 7.79799C6.37325 7.53799 6.79325 7.53799 7.05325 7.79799L7.99992 8.74465L8.94659 7.79799C9.20659 7.53799 9.62659 7.53799 9.88659 7.79799C10.1466 8.05799 10.1466 8.47799 9.88659 8.73799L8.93992 9.68465L9.88659 10.6313C10.1466 10.8913 10.1466 11.3113 9.88659 11.5713C9.62659 11.8313 9.20659 11.8313 8.94659 11.5713L7.99992 10.6247L7.05325 11.5713C6.79325 11.8313 6.37325 11.8313 6.11325 11.5713C5.85325 11.3113 5.85325 10.8913 6.11325 10.6313L7.05992 9.68465L6.11325 8.73799C5.85325 8.48465 5.85325 8.05799 6.11325 7.79799ZM10.3333 3.01799L9.85992 2.54465C9.73992 2.42465 9.56659 2.35132 9.39325 2.35132H6.60659C6.43325 2.35132 6.25992 2.42465 6.13992 2.54465L5.66659 3.01799H3.99992C3.63325 3.01799 3.33325 3.31799 3.33325 3.68465C3.33325 4.05132 3.63325 4.35132 3.99992 4.35132H11.9999C12.3666 4.35132 12.6666 4.05132 12.6666 3.68465C12.6666 3.31799 12.3666 3.01799 11.9999 3.01799H10.3333Z" fill="#17CA89"/>
</svg>
