<svg width="16" height="17" viewBox="0 0 16 17" fill="none" xmlns="http://www.w3.org/2000/svg">
<path d="M3.99992 13.2804C3.99992 14.0138 4.59992 14.6138 5.33325 14.6138H10.6666C11.3999 14.6138 11.9999 14.0138 11.9999 13.2804V6.61377C11.9999 5.88044 11.3999 5.28044 10.6666 5.28044H5.33325C4.59992 5.28044 3.99992 5.88044 3.99992 6.61377V13.2804ZM6.11325 8.06044C6.37325 7.80044 6.79325 7.80044 7.05325 8.06044L7.99992 9.0071L8.94659 8.06044C9.20659 7.80044 9.62659 7.80044 9.88659 8.06044C10.1466 8.32044 10.1466 8.74044 9.88659 9.00044L8.93992 9.9471L9.88659 10.8938C10.1466 11.1538 10.1466 11.5738 9.88659 11.8338C9.62659 12.0938 9.20659 12.0938 8.94659 11.8338L7.99992 10.8871L7.05325 11.8338C6.79325 12.0938 6.37325 12.0938 6.11325 11.8338C5.85325 11.5738 5.85325 11.1538 6.11325 10.8938L7.05992 9.9471L6.11325 9.00044C5.85325 8.7471 5.85325 8.32044 6.11325 8.06044ZM10.3333 3.28044L9.85992 2.8071C9.73992 2.6871 9.56659 2.61377 9.39325 2.61377H6.60659C6.43325 2.61377 6.25992 2.6871 6.13992 2.8071L5.66659 3.28044H3.99992C3.63325 3.28044 3.33325 3.58044 3.33325 3.9471C3.33325 4.31377 3.63325 4.61377 3.99992 4.61377H11.9999C12.3666 4.61377 12.6666 4.31377 12.6666 3.9471C12.6666 3.58044 12.3666 3.28044 11.9999 3.28044H10.3333Z" fill="#B9C0CE"/>
</svg>
