<svg width="25" height="24" viewBox="0 0 25 24" fill="none" xmlns="http://www.w3.org/2000/svg">
<path fill-rule="evenodd" clip-rule="evenodd" d="M15.9326 14.4713H16.721L20.9522 18.7313C21.3614 19.1413 21.3614 19.8113 20.9522 20.2213C20.5431 20.6313 19.8745 20.6313 19.4653 20.2213L15.2241 15.9713V15.1813L14.9546 14.9013C13.5575 16.1013 11.6514 16.7213 9.62561 16.3813C6.85134 15.9113 4.63591 13.5913 4.29662 10.7913C3.77769 6.56133 7.33035 3.00133 11.5516 3.52133C14.3459 3.86133 16.6611 6.08133 17.1301 8.86133C17.4694 10.8913 16.8507 12.8013 15.6532 14.2013L15.9326 14.4713ZM6.2426 9.97133C6.2426 12.4613 8.24845 14.4713 10.7333 14.4713C13.2182 14.4713 15.2241 12.4613 15.2241 9.97133C15.2241 7.48133 13.2182 5.47133 10.7333 5.47133C8.24845 5.47133 6.2426 7.48133 6.2426 9.97133Z" fill="#B9C0CE"/>
</svg>
