<svg width="10" height="12" viewBox="0 0 10 12" fill="none" xmlns="http://www.w3.org/2000/svg">
<path fill-rule="evenodd" clip-rule="evenodd" d="M6.86065 0.193333L7.33398 0.666667H9.00065C9.36732 0.666667 9.66732 0.966667 9.66732 1.33333C9.66732 1.7 9.36732 2 9.00065 2H1.00065C0.633984 2 0.333984 1.7 0.333984 1.33333C0.333984 0.966667 0.633984 0.666667 1.00065 0.666667H2.66732L3.14065 0.193333C3.26065 0.0733333 3.43398 0 3.60732 0H6.39398C6.56732 0 6.74065 0.0733333 6.86065 0.193333ZM1.00065 10.6667C1.00065 11.4 1.60065 12 2.33398 12H7.66732C8.40065 12 9.00065 11.4 9.00065 10.6667V4C9.00065 3.26667 8.40065 2.66667 7.66732 2.66667H2.33398C1.60065 2.66667 1.00065 3.26667 1.00065 4V10.6667ZM3.114 5.44669C3.374 5.18669 3.794 5.18669 4.054 5.44669L5.00067 6.39335L5.94734 5.44669C6.20734 5.18669 6.62734 5.18669 6.88734 5.44669C7.14734 5.70669 7.14734 6.12669 6.88734 6.38669L5.94067 7.33335L6.88734 8.28002C7.14734 8.54002 7.14734 8.96002 6.88734 9.22002C6.62734 9.48002 6.20734 9.48002 5.94734 9.22002L5.00067 8.27335L4.054 9.22002C3.794 9.48002 3.374 9.48002 3.114 9.22002C2.98917 9.09547 2.91901 8.92636 2.91901 8.75002C2.91901 8.57368 2.98917 8.40457 3.114 8.28002L4.06067 7.33335L3.114 6.38669C2.854 6.13335 2.854 5.70669 3.114 5.44669Z" fill="#FF5959"/>
</svg>
