<svg width="20" height="21" viewBox="0 0 20 21" fill="none" xmlns="http://www.w3.org/2000/svg">
<path fill-rule="evenodd" clip-rule="evenodd" d="M5.0005 2.46313C3.97262 2.46313 3.12316 3.31382 3.12316 4.3417V4.96423H2.50063C1.47275 4.96423 0.62207 5.81369 0.62207 6.84157V16.8386C0.62207 17.8665 1.47275 18.7172 2.50063 18.7172H17.4986C18.5265 18.7172 19.3711 17.8665 19.3711 16.8386V10.5926C19.3789 10.5062 19.3685 10.419 19.3408 10.3368C19.313 10.2546 19.2684 10.179 19.2099 10.115C19.1513 10.0509 19.08 9.99975 19.0006 9.96475C18.9212 9.92975 18.8354 9.91168 18.7486 9.91168C18.6618 9.91168 18.5759 9.92975 18.4965 9.96475C18.4171 9.99975 18.3458 10.0509 18.2873 10.115C18.2287 10.179 18.1841 10.2546 18.1564 10.3368C18.1286 10.419 18.1183 10.5062 18.126 10.5926V16.8386C18.126 17.1957 17.8557 17.466 17.4986 17.466H2.50063C2.14359 17.466 1.87201 17.1957 1.87201 16.8386V6.84157C1.87201 6.48452 2.14359 6.21416 2.50063 6.21416H17.4986C17.8557 6.21416 18.126 6.48452 18.126 6.84157V8.0915C18.1183 8.17795 18.1286 8.26506 18.1564 8.34729C18.1841 8.42953 18.2287 8.50508 18.2873 8.56913C18.3458 8.63319 18.4171 8.68435 18.4965 8.71935C18.5759 8.75435 18.6618 8.77242 18.7486 8.77242C18.8354 8.77242 18.9212 8.75435 19.0006 8.71935C19.08 8.68435 19.1513 8.63319 19.2099 8.56913C19.2684 8.50508 19.313 8.42953 19.3408 8.34729C19.3685 8.26506 19.3789 8.17795 19.3711 8.0915V6.84157C19.3711 5.81369 18.5265 4.96423 17.4986 4.96423H16.8761V4.3417C16.8761 3.31382 16.0254 2.46313 14.9975 2.46313H5.0005ZM5.0005 3.71307H14.9975C15.3546 3.71307 15.625 3.98467 15.625 4.3417V4.96423H4.3731V4.3417C4.3731 3.98467 4.64346 3.71307 5.0005 3.71307ZM9.98804 7.45555C9.64275 7.46264 9.36758 7.74622 9.37406 8.0915V14.0848L7.9398 12.6494C7.87479 12.5818 7.79538 12.5296 7.70748 12.4969C7.61958 12.4641 7.52543 12.4516 7.43202 12.4602C7.31345 12.472 7.20072 12.5174 7.10711 12.5911C7.0135 12.6648 6.94291 12.7637 6.90366 12.8762C6.86441 12.9887 6.85813 13.1101 6.88556 13.2261C6.913 13.342 6.973 13.4477 7.0585 13.5307L9.55837 16.0318C9.67548 16.1482 9.8339 16.2135 9.99902 16.2135C10.1641 16.2135 10.3226 16.1482 10.4397 16.0318L12.9408 13.5307C13.0062 13.4746 13.0593 13.4057 13.0968 13.3281C13.1343 13.2506 13.1554 13.1661 13.1587 13.0801C13.162 12.994 13.1475 12.9082 13.1161 12.828C13.0847 12.7478 13.037 12.6749 12.9761 12.614C12.9152 12.5531 12.8424 12.5055 12.7622 12.474C12.682 12.4426 12.5961 12.4281 12.5101 12.4314C12.424 12.4347 12.3395 12.4558 12.262 12.4933C12.1845 12.5308 12.1155 12.584 12.0595 12.6494L10.624 14.0812V8.0915C10.6307 7.73717 10.3424 7.44889 9.98804 7.45555Z" fill="#828282"/>
</svg>
