<svg width="13" height="18" viewBox="0 0 13 18" fill="none" xmlns="http://www.w3.org/2000/svg">
<path d="M11.472 17.4089H1.12715C0.944246 17.4089 0.76883 17.3363 0.639495 17.2069C0.51016 17.0776 0.4375 16.9022 0.4375 16.7193V6.37447C0.4375 6.19156 0.51016 6.01614 0.639495 5.88681C0.76883 5.75747 0.944246 5.68481 1.12715 5.68481H4.23059C4.4135 5.68481 4.58892 5.75747 4.71825 5.88681C4.84759 6.01614 4.92025 6.19156 4.92025 6.37447C4.92025 6.55738 4.84759 6.73279 4.71825 6.86213C4.58892 6.99146 4.4135 7.06412 4.23059 7.06412H1.81681V16.0296H10.7823V7.06412H8.36851C8.18561 7.06412 8.01019 6.99146 7.88086 6.86213C7.75152 6.73279 7.67886 6.55738 7.67886 6.37447C7.67886 6.19156 7.75152 6.01614 7.88086 5.88681C8.01019 5.75747 8.18561 5.68481 8.36851 5.68481H11.472C11.6549 5.68481 11.8303 5.75747 11.9596 5.88681C12.0889 6.01614 12.1616 6.19156 12.1616 6.37447V16.7193C12.1616 16.9022 12.0889 17.0776 11.9596 17.2069C11.8303 17.3363 11.6549 17.4089 11.472 17.4089Z" fill="#233561"/>
<path d="M8.73768 3.96064C8.6471 3.96073 8.5574 3.94293 8.47372 3.90825C8.39005 3.87357 8.31405 3.82271 8.25009 3.75857L6.29906 1.80754L4.34803 3.75788C4.21872 3.8872 4.04333 3.95985 3.86045 3.95985C3.67757 3.95985 3.50218 3.8872 3.37286 3.75788C3.24355 3.62856 3.1709 3.45318 3.1709 3.2703C3.1709 3.08742 3.24355 2.91203 3.37286 2.78271L5.81148 0.344785C5.87547 0.280685 5.95147 0.229831 6.03514 0.195134C6.1188 0.160438 6.20849 0.142578 6.29906 0.142578C6.38964 0.142578 6.47932 0.160438 6.56299 0.195134C6.64665 0.229831 6.72266 0.280685 6.78665 0.344785L9.22526 2.78271C9.32226 2.87899 9.38843 3.00195 9.41535 3.13594C9.44228 3.26993 9.42875 3.4089 9.37648 3.53518C9.32421 3.66146 9.23556 3.76934 9.12181 3.8451C9.00806 3.92086 8.87435 3.96108 8.73768 3.96064Z" fill="#233561"/>
<path d="M6.30001 11.2022C6.1171 11.2022 5.94168 11.1296 5.81235 11.0002C5.68301 10.8709 5.61035 10.6955 5.61035 10.5126V1.54708C5.61035 1.36417 5.68301 1.18875 5.81235 1.05942C5.94168 0.930082 6.1171 0.857422 6.30001 0.857422C6.48291 0.857422 6.65833 0.930082 6.78766 1.05942C6.917 1.18875 6.98966 1.36417 6.98966 1.54708V10.5126C6.98966 10.6955 6.917 10.8709 6.78766 11.0002C6.65833 11.1296 6.48291 11.2022 6.30001 11.2022Z" fill="#233561"/>
</svg>
