<svg width="13" height="14" viewBox="0 0 13 14" fill="none" xmlns="http://www.w3.org/2000/svg">
<path d="M11.6302 2.91924C11.767 3.05605 11.8843 3.24171 11.982 3.47623C12.0797 3.71076 12.1286 3.92574 12.1286 4.12117V12.564C12.1286 12.7594 12.0602 12.9256 11.9234 13.0624C11.7866 13.1992 11.6204 13.2676 11.425 13.2676H1.57503C1.37959 13.2676 1.21347 13.1992 1.07667 13.0624C0.939863 12.9256 0.87146 12.7594 0.87146 12.564V0.837847C0.87146 0.642411 0.939863 0.47629 1.07667 0.339485C1.21347 0.20268 1.37959 0.134277 1.57503 0.134277H8.14168C8.33712 0.134277 8.5521 0.183136 8.78662 0.280854C9.02114 0.378572 9.20681 0.495834 9.34361 0.632639L11.6302 2.91924ZM8.3762 1.131V3.88665H11.1319C11.083 3.74496 11.0292 3.6448 10.9706 3.58617L8.67669 1.29224C8.61806 1.2336 8.51789 1.17986 8.3762 1.131ZM11.1905 12.3295V4.82474H8.14168C7.94624 4.82474 7.78012 4.75634 7.64332 4.61953C7.50651 4.48273 7.43811 4.31661 7.43811 4.12117V1.07237H1.80955V12.3295H11.1905ZM4.01554 10.6145V11.3914H6.07494V10.6145H5.52528L6.28015 9.43459C6.30458 9.40039 6.32901 9.36008 6.35344 9.31366C6.37787 9.26725 6.39619 9.23427 6.40841 9.21472C6.42062 9.19518 6.42917 9.18541 6.43406 9.18541H6.44872C6.4536 9.20495 6.46582 9.22938 6.48536 9.2587C6.49513 9.27824 6.50612 9.29656 6.51834 9.31366C6.53055 9.33076 6.54521 9.35031 6.56231 9.37229C6.57941 9.39428 6.59529 9.41504 6.60995 9.43459L7.39414 10.6145H6.83714V11.3914H8.96984V10.6145H8.47148L7.06434 8.61376L8.49346 6.54702H8.9845V5.76283H6.93975V6.54702H7.48208L6.72721 7.71231C6.70767 7.74651 6.68324 7.78682 6.65392 7.83323C6.62461 7.87965 6.60262 7.91263 6.58796 7.93217L6.57331 7.95416H6.55865C6.55376 7.93462 6.54155 7.91019 6.522 7.88087C6.49269 7.82713 6.45116 7.77094 6.39741 7.71231L5.62056 6.54702H6.17755V5.76283H4.05218V6.54702H4.55054L5.9357 8.54047L4.5139 10.6145H4.01554Z" fill="#B9C0CE"/>
</svg>
