<svg width="40" height="40" viewBox="0 0 40 40" fill="none" xmlns="http://www.w3.org/2000/svg">
<path d="M32.0668 10.35C31.6163 7.46623 30.1509 4.83844 27.935 2.94062C25.719 1.0428 22.8984 -0.000105293 19.9818 7.97331e-09C17.0651 0.000105309 14.2446 1.04322 12.0288 2.94119C9.81294 4.83917 8.34776 7.46707 7.89749 10.3509C5.76159 10.4119 3.73556 11.312 2.25775 12.8565C0.779941 14.401 -0.0308145 16.4657 0.000896385 18.6039C0.0326073 20.742 0.904235 22.7817 2.4272 24.2817C3.95016 25.7816 6.00199 26.6212 8.13876 26.6187H15.4674V15.9453C15.4674 15.7601 15.5409 15.5826 15.6717 15.4516C15.8026 15.3207 15.98 15.2472 16.165 15.2472C16.35 15.2472 16.5274 15.3207 16.6582 15.4516C16.7891 15.5826 16.8625 15.7601 16.8625 15.9453V26.6187H19.304V15.9453C19.304 15.7601 19.3775 15.5826 19.5083 15.4516C19.6391 15.3207 19.8165 15.2472 20.0015 15.2472C20.1865 15.2472 20.364 15.3207 20.4948 15.4516C20.6256 15.5826 20.6991 15.7601 20.6991 15.9453V26.6187H23.1405V15.9453C23.1405 15.7601 23.214 15.5826 23.3448 15.4516C23.4757 15.3207 23.6531 15.2472 23.8381 15.2472C24.0231 15.2472 24.2005 15.3207 24.3313 15.4516C24.4622 15.5826 24.5356 15.7601 24.5356 15.9453V26.6187H31.9143C36.4034 26.6187 40.0305 22.9196 39.9998 18.4271C39.9821 16.3142 39.1449 14.2907 37.6648 12.7837C36.1847 11.2768 34.1775 10.4042 32.0668 10.35Z" fill="#17CA89"/>
<path d="M19.304 34.4147C18.6344 34.5848 18.05 34.9938 17.6606 35.5648C17.2711 36.1359 17.1035 36.8296 17.1892 37.5156C17.2749 38.2016 17.6079 38.8326 18.1258 39.2902C18.6437 39.7477 19.3107 40.0002 20.0015 40.0002C20.6924 40.0002 21.3594 39.7477 21.8773 39.2902C22.3952 38.8326 22.7282 38.2016 22.8139 37.5156C22.8996 36.8296 22.732 36.1359 22.3425 35.5648C21.9531 34.9938 21.3687 34.5848 20.6991 34.4147V26.6189H19.304V34.4147ZM15.4674 29.9348H11.7667C11.6788 29.9319 11.5913 29.9471 11.5096 29.9797C11.428 30.0122 11.3539 30.0612 11.292 30.1237C11.2302 30.1862 11.1819 30.2608 11.1502 30.3428C11.1184 30.4248 11.104 30.5125 11.1077 30.6004V33.9338C10.6034 34.0512 10.1429 34.3097 9.77994 34.6792C9.38544 35.0759 9.1172 35.5807 9.00909 36.1298C8.90097 36.6789 8.95782 37.2478 9.17246 37.7646C9.3871 38.2815 9.74991 38.7231 10.2151 39.0337C10.6803 39.3444 11.227 39.5102 11.7863 39.5102C12.3455 39.5102 12.8923 39.3444 13.3575 39.0337C13.8226 38.7231 14.1855 38.2815 14.4001 37.7646C14.6147 37.2478 14.6716 36.6789 14.5635 36.1298C14.4554 35.5807 14.1871 35.0759 13.7926 34.6792C13.4307 34.328 12.9876 34.0718 12.5028 33.9335V31.331H16.1248C16.3173 31.3252 16.5005 31.2466 16.6374 31.111C16.7743 30.9755 16.8547 30.793 16.8626 30.6004V26.6189H15.4674V29.9348ZM23.1405 30.6004C23.1484 30.793 23.2288 30.9755 23.3657 31.111C23.5026 31.2466 23.6858 31.3252 23.8783 31.331H27.5003V33.9335C27.0157 34.0718 26.5729 34.3279 26.2112 34.679C25.8113 35.0766 25.5385 35.584 25.4272 36.137C25.3159 36.69 25.3712 37.2636 25.5861 37.7851C25.801 38.3066 26.1658 38.7525 26.6342 39.0662C27.1026 39.38 27.6536 39.5475 28.2172 39.5475C28.7809 39.5475 29.3318 39.38 29.8003 39.0662C30.2687 38.7525 30.6334 38.3066 30.8483 37.7851C31.0632 37.2636 31.1185 36.69 31.0072 36.137C30.8959 35.584 30.6231 35.0766 30.2232 34.679C29.8602 34.3095 29.3997 34.0509 28.8954 33.9335V30.6002C28.8991 30.5123 28.8846 30.4246 28.8528 30.3426C28.8211 30.2606 28.7728 30.1861 28.711 30.1236C28.6491 30.0612 28.575 30.0121 28.4934 29.9797C28.4117 29.9472 28.3243 29.9319 28.2364 29.9348H24.5357V26.6189H23.1405V30.6004Z" fill="#17CA89"/>
</svg>
