<svg width="40" height="40" viewBox="0 0 40 40" fill="none" xmlns="http://www.w3.org/2000/svg">
<path d="M20.0063 0.00103782C16.4621 -0.0585128 13.0354 2.45222 12.2931 5.60002C11.6687 7.95317 12.5177 10.5923 14.4209 12.2866C14.4364 12.2995 14.4512 12.3114 14.4652 12.3269C15.969 13.9302 17.5993 15.5227 19.1197 17.1605C19.4514 17.4882 19.7567 17.786 20.0506 18.087C21.6847 16.4256 23.2763 14.7339 24.9267 13.0519C25.2996 12.6393 25.7618 12.2003 25.9019 12.0046C25.9218 11.9763 25.9662 11.9485 25.9906 11.924C28.2059 9.68007 28.5565 6.05786 26.7885 3.50544C25.4013 1.39526 22.7101 0.0194057 20.0063 0.0413183V0.00103782ZM20.0063 3.50544C22.5494 3.43983 24.5784 5.72627 23.9958 7.97657C23.5575 10.1664 20.8712 11.5407 18.5877 10.7156C16.2694 9.99716 15.1829 7.36978 16.4157 5.4389C17.1167 4.25601 18.5198 3.49255 20.0063 3.50544ZM20.0063 4.79441C19.0685 4.78565 18.0997 5.28854 17.6569 6.0431C17.6523 6.04955 17.6617 6.07049 17.6569 6.08338C16.8963 7.26615 17.6464 9.07464 19.0754 9.50722C19.0894 9.5098 19.1061 9.50722 19.1197 9.50722C20.5189 10.0196 22.3632 9.08354 22.6216 7.73488C22.6249 7.72199 22.6175 7.70749 22.6216 7.6946C22.9871 6.3163 21.6095 4.74801 20.0506 4.79441C20.0404 4.79454 20.0165 4.79454 20.0063 4.79441ZM19.6459 20.8618C18.6292 20.9146 17.6217 21.2302 16.8144 21.8738C15.3981 22.894 14.9196 24.532 15.0413 26.0227C15.0651 27.2789 14.976 28.5897 15.0856 29.9299C15.0842 30.6183 15.4643 31.1346 15.7506 31.5008C15.9798 31.7942 16.0904 31.9439 16.1495 32.105C16.0461 32.1734 15.8899 32.2596 15.7062 32.3467C15.2856 32.5462 14.7362 32.756 14.2877 32.9912C12.6084 33.8477 10.5712 34.5048 8.96835 35.9317C8.36529 36.4537 8.13233 37.1139 8.08179 37.704C8.03101 38.2964 8.10548 38.8464 8.08179 39.275C8.0476 39.6194 8.36665 39.9825 8.74671 40C18.4619 40 25.469 40 31.2211 40C31.5942 40 31.9287 39.6946 31.9304 39.3555C31.9353 38.7751 31.9713 38.1166 31.8417 37.4221C31.712 36.7276 31.4071 35.9863 30.6892 35.4483C30.6663 35.4316 30.6256 35.3819 30.6005 35.3678C28.4171 34.114 26.1164 33.1904 23.907 32.1453C23.9279 31.9097 23.9593 31.7 24.2616 31.3397C24.2797 31.3178 24.2909 31.3226 24.3059 31.2994C25.1822 29.9264 24.8193 28.4473 24.8822 27.3519C24.883 27.3339 24.883 27.3297 24.8822 27.3117C24.8381 26.0214 25.1949 24.3034 24.0399 22.8405C23.2762 21.7472 22.0125 21.0859 20.671 20.9071C20.3349 20.862 19.9904 20.8487 19.6514 20.8668L19.6459 20.8618ZM8.96835 25.1768C8.18193 25.218 7.37636 25.4846 6.75194 25.9824C5.65644 26.7715 5.28366 28.0519 5.37777 29.2048C5.39561 30.1736 5.33757 31.1922 5.4221 32.2259C5.421 32.7584 5.73265 33.151 5.95404 33.4343C6.13136 33.6611 6.17425 33.7931 6.22001 33.9177C6.14003 33.9705 6.05179 34.0117 5.90971 34.0788C5.58438 34.2332 5.14834 34.3803 4.8015 34.5621C3.50263 35.2245 1.91874 35.7545 0.678981 36.8581C0.212533 37.2618 0.053149 37.7711 0.0140579 38.2277C-0.0252204 38.6858 0.0322147 39.1044 0.0140579 39.4361C-0.012383 39.7024 0.252034 39.9865 0.545996 40H6.75194C6.66251 39.7591 6.64129 39.4758 6.66329 39.1944C6.66364 39.1815 6.66303 39.167 6.66329 39.1541C6.67322 38.8891 6.60147 38.3042 6.66329 37.5832C6.73024 36.8014 7.08657 35.8058 7.99313 35.0052C8.00278 34.9923 7.98334 34.9778 7.99313 34.9649C9.647 33.5116 11.4956 32.8202 12.9579 32.1453C13.0609 31.4516 12.9707 30.7622 13.0022 30.2119C13.0028 30.1977 13.0028 30.1858 13.0022 30.1716C12.9681 29.1736 13.2306 27.8793 12.3373 26.7477C11.7466 25.9022 10.7595 25.3554 9.72193 25.2171C9.46197 25.1823 9.23049 25.1639 8.96835 25.1768ZM30.4675 25.1768C29.6811 25.218 28.9199 25.4846 28.2954 25.9824C27.1999 26.7715 26.8272 28.0519 26.9213 29.2048C26.9386 30.1485 26.8904 31.1399 26.9656 32.1453C28.408 32.7921 29.8883 33.4385 31.3541 34.2802C31.4591 34.3395 31.5341 34.3701 31.5757 34.401V34.4413C32.6205 35.2242 33.0924 36.2814 33.2602 37.1804C33.4227 38.0507 33.3535 38.8157 33.3489 39.3555C33.3477 39.5813 33.2847 39.8037 33.2159 40H39.4218C39.7104 40 39.9968 39.7789 39.9981 39.5166C40.0019 39.0677 40.0097 38.5231 39.9094 37.986C39.8092 37.4487 39.5781 36.8714 39.0229 36.4553C39.0052 36.4424 38.9979 36.4254 38.9785 36.415C37.2897 35.4453 35.5011 34.726 33.7921 33.9177C33.8084 33.7354 33.8243 33.5921 34.0581 33.3134C34.0722 33.2967 34.0908 33.2912 34.1024 33.2732C34.7802 32.2113 34.4971 31.0591 34.5457 30.2119C34.5463 30.1977 34.5463 30.1858 34.5457 30.1716C34.5116 29.1736 34.7741 27.8793 33.8808 26.7477C33.2901 25.9022 32.303 25.3554 31.2654 25.2171C31.0055 25.1823 30.7297 25.1639 30.4675 25.1768Z" fill="#17CA89"/>
</svg>
