<svg width="16" height="16" viewBox="0 0 16 16" fill="none" xmlns="http://www.w3.org/2000/svg">
<path fill-rule="evenodd" clip-rule="evenodd" d="M12.6667 2.66683H12V2.00016C12 1.6335 11.7 1.3335 11.3333 1.3335C10.9667 1.3335 10.6667 1.6335 10.6667 2.00016V2.66683H5.33333V2.00016C5.33333 1.6335 5.03333 1.3335 4.66667 1.3335C4.3 1.3335 4 1.6335 4 2.00016V2.66683H3.33333C2.59333 2.66683 2.00667 3.26683 2.00667 4.00016L2 13.3335C2 14.0668 2.59333 14.6668 3.33333 14.6668H12.6667C13.4 14.6668 14 14.0668 14 13.3335V4.00016C14 3.26683 13.4 2.66683 12.6667 2.66683ZM12.6667 12.6668C12.6667 13.0335 12.3667 13.3335 12 13.3335H4C3.63333 13.3335 3.33333 13.0335 3.33333 12.6668V6.00016H12.6667V12.6668ZM6 7.3335H4.66667V8.66683H6V7.3335ZM7.33333 7.3335H8.66667V8.66683H7.33333V7.3335ZM11.3333 7.3335H10V8.66683H11.3333V7.3335Z" fill="#93A9C7"/>
</svg>
