<svg width="41" height="42" viewBox="0 0 41 42" fill="none" xmlns="http://www.w3.org/2000/svg">
<path d="M36.4769 0.271973H4.37723C3.21632 0.271973 2.10295 0.733145 1.28206 1.55404C0.461172 2.37493 0 3.48829 0 4.64921V36.7489C0 37.9098 0.461172 39.0232 1.28206 39.8441C2.10295 40.665 3.21632 41.1262 4.37723 41.1262H36.4769C37.6379 41.1262 38.7512 40.665 39.5721 39.8441C40.393 39.0232 40.8542 37.9098 40.8542 36.7489V4.64921C40.8542 3.48829 40.393 2.37493 39.5721 1.55404C38.7512 0.733145 37.6379 0.271973 36.4769 0.271973ZM8.75447 10.4855C8.75447 10.0985 8.90819 9.72743 9.18182 9.4538C9.45545 9.18017 9.82657 9.02644 10.2135 9.02644H21.8862C22.2731 9.02644 22.6443 9.18017 22.9179 9.4538C23.1915 9.72743 23.3452 10.0985 23.3452 10.4855V13.4937C23.3452 13.8807 23.1915 14.2518 22.9179 14.5255C22.6443 14.7991 22.2731 14.9528 21.8862 14.9528H10.2135C9.82657 14.9528 9.45545 14.7991 9.18182 14.5255C8.90819 14.2518 8.75447 13.8807 8.75447 13.4937V10.4855ZM17.5089 30.9126C17.5089 31.2996 17.3552 31.6707 17.0816 31.9443C16.808 32.218 16.4368 32.3717 16.0499 32.3717H10.2135C9.82657 32.3717 9.45545 32.218 9.18182 31.9443C8.90819 31.6707 8.75447 31.2996 8.75447 30.9126V27.9945C8.75447 27.6075 8.90819 27.2364 9.18182 26.9627C9.45545 26.6891 9.82657 26.5354 10.2135 26.5354H16.0499C16.4368 26.5354 16.808 26.6891 17.0816 26.9627C17.3552 27.2364 17.5089 27.6075 17.5089 27.9945V30.9126ZM32.0997 22.1581C32.0997 22.5451 31.946 22.9162 31.6724 23.1899C31.3987 23.4635 31.0276 23.6172 30.6406 23.6172H10.2135C9.82657 23.6172 9.45545 23.4635 9.18182 23.1899C8.90819 22.9162 8.75447 22.5451 8.75447 22.1581V19.24C8.75447 18.853 8.90819 18.4819 9.18182 18.2083C9.45545 17.9346 9.82657 17.7809 10.2135 17.7809H30.6406C31.0276 17.7809 31.3987 17.9346 31.6724 18.2083C31.946 18.4819 32.0997 18.853 32.0997 19.24V22.1581Z" fill="white"/>
</svg>
