<svg width="40" height="41" viewBox="0 0 40 41" fill="none" xmlns="http://www.w3.org/2000/svg">
<path d="M17.4125 34.5192H6.875C6.54348 34.5192 6.22554 34.3875 5.99112 34.1531C5.7567 33.9187 5.625 33.6008 5.625 33.2692C5.625 32.9377 5.7567 32.6198 5.99112 32.3854C6.22554 32.1509 6.54348 32.0192 6.875 32.0192H16.5625C16.3572 31.1211 16.2524 30.203 16.25 29.2817C16.2551 28.2359 16.3894 27.1946 16.65 26.1817H6.875C6.54348 26.1817 6.22554 26.05 5.99112 25.8156C5.7567 25.5812 5.625 25.2633 5.625 24.9317C5.625 24.6002 5.7567 24.2823 5.99112 24.0479C6.22554 23.8134 6.54348 23.6817 6.875 23.6817H17.5875C18.903 21.0805 21.0813 19.017 23.75 17.8442H6.875C6.54348 17.8442 6.22554 17.7125 5.99112 17.4781C5.7567 17.2437 5.625 16.9258 5.625 16.5942C5.625 16.2627 5.7567 15.9448 5.99112 15.7104C6.22554 15.4759 6.54348 15.3442 6.875 15.3442H24.375C24.5954 15.3473 24.811 15.4087 25.0001 15.522C25.1891 15.6353 25.3448 15.7966 25.4514 15.9895C25.558 16.1824 25.6117 16.4001 25.6071 16.6204C25.6024 16.8408 25.5396 17.056 25.425 17.2442C26.508 16.9438 27.6261 16.7882 28.75 16.7817C29.175 16.7817 29.5875 16.7817 30 16.8442V5.53174C30 4.53718 29.6049 3.58335 28.9017 2.88009C28.1984 2.17683 27.2446 1.78174 26.25 1.78174H5C4.00544 1.78174 3.05161 2.17683 2.34835 2.88009C1.64509 3.58335 1.25 4.53718 1.25 5.53174V35.5317C1.25 36.5263 1.64509 37.4801 2.34835 38.1834C3.05161 38.8867 4.00544 39.2817 5 39.2817H21.25C19.5962 38.0365 18.2776 36.4 17.4125 34.5192ZM6.875 7.01924H24.375C24.7065 7.01924 25.0245 7.15093 25.2589 7.38535C25.4933 7.61977 25.625 7.93772 25.625 8.26924C25.625 8.60076 25.4933 8.9187 25.2589 9.15312C25.0245 9.38754 24.7065 9.51924 24.375 9.51924H6.875C6.54348 9.51924 6.22554 9.38754 5.99112 9.15312C5.7567 8.9187 5.625 8.60076 5.625 8.26924C5.625 7.93772 5.7567 7.61977 5.99112 7.38535C6.22554 7.15093 6.54348 7.01924 6.875 7.01924Z" fill="white"/>
<circle cx="28.75" cy="29.2817" r="9.5" stroke="white"/>
<path d="M35.333 27.7771H34.6152C34.4219 27.7771 34.1963 27.6012 34.1201 27.3932C34.0527 27.1998 33.9707 27.0093 33.8799 26.8218C33.7832 26.6255 33.8184 26.3412 33.9561 26.2035L34.4688 25.6907C34.8262 25.3332 34.8262 24.7501 34.4688 24.3926L33.6396 23.5633C33.4668 23.3905 33.2354 23.2938 32.9893 23.2938C32.7432 23.2938 32.5117 23.3875 32.3389 23.5633L31.8291 24.0761C31.7471 24.1582 31.6094 24.208 31.4629 24.208C31.3721 24.208 31.2842 24.1904 31.2109 24.1523C31.0264 24.0615 30.833 23.9824 30.6396 23.912C30.4316 23.8388 30.2559 23.6102 30.2559 23.4168V22.6989C30.2559 22.1949 29.8428 21.7817 29.3359 21.7817H28.1641C27.6572 21.7817 27.2471 22.1949 27.2471 22.6989V23.4168C27.2471 23.6102 27.0713 23.8388 26.8633 23.912C26.6699 23.9794 26.4766 24.0615 26.292 24.1494C26.2188 24.1846 26.1309 24.2051 26.04 24.2051C25.8936 24.2051 25.7559 24.1552 25.6738 24.0732L25.1641 23.5633C24.9912 23.3905 24.7598 23.2938 24.5137 23.2938C24.2676 23.2938 24.0361 23.3905 23.8633 23.5633L23.0312 24.3955C22.8584 24.5684 22.7617 24.7999 22.7617 25.046C22.7617 25.2922 22.8584 25.5207 23.0312 25.6936L23.5439 26.2064C23.6816 26.3442 23.7168 26.6284 23.623 26.8247C23.5322 27.0123 23.4531 27.2027 23.3828 27.3961C23.3096 27.6042 23.0811 27.78 22.8877 27.78H22.1699C21.6631 27.7771 21.25 28.1902 21.25 28.6972V29.8693C21.25 30.3762 21.6631 30.7864 22.167 30.7864H22.8848C23.0781 30.7864 23.3066 30.9622 23.3799 31.1703C23.4473 31.3637 23.5293 31.5542 23.6201 31.7417C23.7168 31.938 23.6787 32.2223 23.541 32.36L23.0283 32.8728C22.6709 33.2303 22.6709 33.8134 23.0283 34.1709L23.8604 35.0031C24.0332 35.176 24.2646 35.2727 24.5107 35.2727C24.7568 35.2727 24.9854 35.176 25.1611 35.0031L25.6738 34.4903C25.7559 34.4082 25.8936 34.3584 26.04 34.3584C26.1309 34.3584 26.2188 34.376 26.292 34.4141C26.4766 34.5049 26.6699 34.584 26.8633 34.6514C27.0713 34.7247 27.2471 34.9533 27.2471 35.1467V35.8646C27.2471 36.3715 27.6602 36.7817 28.1641 36.7817H29.3359C29.8428 36.7817 30.2559 36.3686 30.2559 35.8646V35.1467C30.2559 34.9533 30.4316 34.7247 30.6396 34.6514C30.833 34.584 31.0264 34.502 31.2109 34.4141C31.2812 34.3789 31.3721 34.3584 31.4629 34.3584C31.6094 34.3584 31.7471 34.4082 31.8291 34.4903L32.3389 35.0031C32.5117 35.176 32.7432 35.2727 32.9893 35.2727C33.2354 35.2727 33.4639 35.176 33.6396 35.0031L34.4688 34.1709C34.8262 33.8134 34.8262 33.2303 34.4688 32.8728L33.959 32.3629C33.8213 32.2252 33.7861 31.9409 33.8828 31.7446C33.9736 31.56 34.0527 31.3666 34.1201 31.1732C34.1934 30.9652 34.4219 30.7894 34.6152 30.7894H35.333C35.8398 30.7894 36.25 30.3762 36.25 29.8722V28.6972C36.25 28.1902 35.8369 27.7771 35.333 27.7771ZM28.75 31.9761C27.2646 31.9761 26.0576 30.7688 26.0576 29.2832C26.0576 27.8005 27.2646 26.5903 28.75 26.5903C30.2354 26.5903 31.4424 27.7976 31.4424 29.2832C31.4424 30.7659 30.2354 31.9761 28.75 31.9761Z" fill="white"/>
</svg>
