<svg width="41" height="41" viewBox="0 0 41 41" fill="none" xmlns="http://www.w3.org/2000/svg">
<path d="M32.3664 20.021C32.9331 20.021 33.4997 20.071 34.0497 20.1377V4.88771C34.0497 3.40437 32.2497 2.65438 31.1997 3.70437L3.56639 31.3377C2.51639 32.3877 3.24973 34.1877 4.73306 34.1877H19.9831C19.9164 33.6377 19.8664 33.0877 19.8664 32.521C19.8664 25.621 25.4664 20.021 32.3664 20.021ZM38.5497 33.3377C38.5831 33.071 38.6164 32.8043 38.6164 32.521C38.6164 32.2377 38.5997 31.971 38.5497 31.7043L40.3164 30.321C40.4664 30.1877 40.5164 29.971 40.4164 29.7877L38.7497 26.9044C38.6497 26.721 38.4331 26.6544 38.2331 26.721L36.1664 27.5543C35.7331 27.221 35.2664 26.9377 34.7497 26.7377L34.4331 24.5377C34.4164 24.3377 34.2331 24.1877 34.0331 24.1877H30.6997C30.4997 24.1877 30.3164 24.3377 30.2831 24.5377L29.9664 26.7377C29.4664 26.9543 28.9831 27.221 28.5497 27.5543L26.4831 26.721C26.2997 26.6544 26.0831 26.721 25.9664 26.9044L24.2997 29.7877C24.1997 29.971 24.2331 30.1877 24.3997 30.321L26.1664 31.7043C26.1331 31.971 26.1164 32.2377 26.1164 32.521C26.1164 32.8043 26.1331 33.071 26.1664 33.3377L24.3997 34.721C24.2497 34.8543 24.1997 35.071 24.2997 35.2543L25.9664 38.1377C26.0664 38.321 26.2831 38.3877 26.4831 38.321L28.5497 37.4877C28.9831 37.821 29.4497 38.1043 29.9664 38.3043L30.2831 40.5043C30.3164 40.7043 30.4831 40.8543 30.6997 40.8543H34.0331C34.2331 40.8543 34.4164 40.7043 34.4497 40.5043L34.7664 38.3043C35.2664 38.0877 35.7497 37.821 36.1664 37.4877L38.2497 38.321C38.4331 38.3877 38.6497 38.321 38.7664 38.1377L40.4331 35.2543C40.5331 35.071 40.4831 34.8543 40.3331 34.721L38.5497 33.3377ZM32.3664 35.021C30.9831 35.021 29.8664 33.9043 29.8664 32.521C29.8664 31.1377 30.9831 30.021 32.3664 30.021C33.7497 30.021 34.8664 31.1377 34.8664 32.521C34.8664 33.9043 33.7497 35.021 32.3664 35.021Z" fill="#17CA89"/>
</svg>
