<svg width="12" height="11" viewBox="0 0 12 11" fill="none" xmlns="http://www.w3.org/2000/svg">
<path d="M8.84766 0.978041C8.76797 0.973353 8.68594 1.00151 8.625 1.06245C8.27812 1.42808 7.18125 2.15003 6 2.73128C5.85938 2.29065 5.5782 1.90617 5.18445 1.63429C4.05007 0.856166 2.96243 1.08128 2.36243 1.51253C1.78118 1.9344 1.54688 2.59999 1.73438 3.25624C1.86563 3.70624 2.19375 4.0155 2.67188 4.128C3.39375 4.30613 4.4532 4.02499 5.51257 3.58436C5.4657 3.95936 5.33441 4.35304 5.05316 4.72804H0.75V4.7187C0.590625 4.7187 0.46875 4.84058 0.46875 4.99995V6.31245C0.46875 6.47183 0.590625 6.5937 0.75 6.5937H5.4375C5.59688 6.5937 5.71875 6.47183 5.71875 6.31245V4.79378C5.71875 4.7469 5.72816 4.69999 5.75629 4.66249C6.00004 4.22186 6.09379 3.76242 6.08441 3.32179C7.39691 2.69367 8.60618 1.88753 9.01868 1.46565C9.11243 1.36253 9.14059 1.20315 9.05621 1.09065C9.00465 1.02034 8.92734 0.982728 8.84766 0.978041ZM3.61871 1.68117C3.99371 1.68117 4.4157 1.7937 4.85632 2.0937C5.1657 2.30933 5.38129 2.61878 5.47504 2.96565C4.45316 3.42503 3.42195 3.72503 2.79382 3.57503C2.51257 3.5094 2.34368 3.34992 2.26868 3.08742C2.1468 2.65617 2.29684 2.23429 2.68121 1.96242C2.90621 1.80304 3.23434 1.68117 3.61871 1.68117ZM10.8157 2.55568C10.4953 2.55656 10.1788 2.58128 9.86243 2.63753C9.71243 2.66565 9.6093 2.80613 9.62805 2.95613C9.6468 3.09675 9.76871 3.1905 9.89996 3.1905H9.94684C10.3218 3.12488 10.7157 3.1062 11.1 3.12495C11.2594 3.13433 11.3906 3.01238 11.4 2.86238C11.4093 2.703 11.2876 2.57183 11.1376 2.56245C11.0298 2.55776 10.9225 2.55538 10.8157 2.55568ZM8.53821 3.03541C8.50085 3.03527 8.46332 3.04299 8.42816 3.0594C7.58441 3.4344 6.81555 4.01554 6.3468 4.63429C6.29993 4.69054 6.28125 4.7562 6.28125 4.81245V6.31245C6.28125 6.47183 6.40312 6.5937 6.5625 6.5937H11.1562C11.3156 6.5937 11.4375 6.47183 11.4375 6.31245V4.99995C11.4375 4.84058 11.3156 4.7187 11.1562 4.7187H7.01257C7.3782 4.32495 7.92184 3.90311 8.63434 3.58436C8.77496 3.51874 8.85941 3.35933 8.80316 3.2187C8.76097 3.1062 8.65027 3.03585 8.53821 3.03541ZM1.3125 7.1562C1.15312 7.1562 1.03125 7.27808 1.03125 7.43745V10.625C1.03125 10.7843 1.15312 10.9062 1.3125 10.9062H5.4375C5.59688 10.9062 5.71875 10.7843 5.71875 10.625V7.43745C5.71875 7.27808 5.59688 7.1562 5.4375 7.1562H1.3125ZM6.5625 7.1562C6.40312 7.1562 6.28125 7.27808 6.28125 7.43745V10.625C6.28125 10.7843 6.40312 10.9062 6.5625 10.9062H10.6875C10.8469 10.9062 10.9688 10.7843 10.9688 10.625V7.43745C10.9688 7.27808 10.8469 7.1562 10.6875 7.1562H6.5625Z" fill="#FF7E7E"/>
</svg>
