<svg width="12" height="10" viewBox="0 0 12 10" fill="none" xmlns="http://www.w3.org/2000/svg">
<path fill-rule="evenodd" clip-rule="evenodd" d="M2.07155 5.00077C2.07155 2.47577 4.15655 0.430769 6.70155 0.500769C9.04655 0.565769 11.0065 2.52577 11.0715 4.87077C11.1415 7.41577 9.09655 9.50077 6.57155 9.50077C5.76655 9.50077 5.01655 9.28577 4.36155 8.92077C4.07655 8.76077 4.03155 8.36577 4.26155 8.13577C4.41655 7.97577 4.65655 7.93577 4.85155 8.04577C5.36155 8.33077 5.94655 8.50077 6.57155 8.50077C8.52155 8.50077 10.0965 6.90577 10.0715 4.95077C10.0465 3.09077 8.48155 1.52577 6.62155 1.50077C4.66155 1.47577 3.07155 3.05077 3.07155 5.00077H3.96655C4.19155 5.00077 4.30155 5.27077 4.14655 5.42577L2.75155 6.82077C2.65155 6.92077 2.49655 6.92077 2.39655 6.82077L1.00155 5.42577C0.841548 5.27077 0.951548 5.00077 1.17655 5.00077H2.07155ZM6.57132 4.0008C7.12132 4.0008 7.57132 4.4508 7.57132 5.0008C7.57132 5.5508 7.12132 6.0008 6.57132 6.0008C6.02132 6.0008 5.57132 5.5508 5.57132 5.0008C5.57132 4.4508 6.02132 4.0008 6.57132 4.0008Z" fill="#17CA89"/>
</svg>
