<svg width="46" height="46" viewBox="0 0 46 46" fill="none" xmlns="http://www.w3.org/2000/svg">
<path fill-rule="evenodd" clip-rule="evenodd" d="M13.5719 13.2289C18.7856 8.01514 27.2144 8.01514 32.4281 13.2289C37.6418 18.4426 37.6418 26.8713 32.4281 32.0851C27.2144 37.2988 18.7856 37.2988 13.5719 32.0851C8.35817 26.8713 8.35818 18.4426 13.5719 13.2289ZM21.6706 29.4358C21.6706 30.1712 22.2646 30.7651 23 30.7651C23.726 30.7557 24.3294 30.1523 24.3294 29.4358V23.9864L29.7788 23.9864C30.5142 23.9864 31.1082 23.3924 31.1082 22.657C31.1082 21.9216 30.5142 21.3276 29.7788 21.3276L24.3294 21.3276L24.3294 15.8782C24.3294 15.1428 23.7354 14.5488 23 14.5488C22.6473 14.5484 22.3089 14.6884 22.0596 14.9378C21.8102 15.1871 21.6702 15.5255 21.6706 15.8782L21.6706 21.3276H16.2212C15.8685 21.3272 15.5302 21.4672 15.2808 21.7166C15.0314 21.9659 14.8914 22.3043 14.8918 22.657C14.8918 23.3924 15.4858 23.9864 16.2212 23.9864H21.6706V29.4358Z" fill="#5F6FFF"/>
</svg>
