<svg width="25" height="25" viewBox="0 0 25 25" fill="none" xmlns="http://www.w3.org/2000/svg">
<path d="M16.5161 11.9805C18.1761 11.9805 19.5061 10.6405 19.5061 8.98047C19.5061 7.32047 18.1761 5.98047 16.5161 5.98047C14.8561 5.98047 13.5161 7.32047 13.5161 8.98047C13.5161 10.6405 14.8561 11.9805 16.5161 11.9805ZM8.51611 11.9805C10.1761 11.9805 11.5061 10.6405 11.5061 8.98047C11.5061 7.32047 10.1761 5.98047 8.51611 5.98047C6.85611 5.98047 5.51611 7.32047 5.51611 8.98047C5.51611 10.6405 6.85611 11.9805 8.51611 11.9805ZM8.51611 13.9805C6.18611 13.9805 1.51611 15.1505 1.51611 17.4805V18.9805C1.51611 19.5305 1.96611 19.9805 2.51611 19.9805H14.5161C15.0661 19.9805 15.5161 19.5305 15.5161 18.9805V17.4805C15.5161 15.1505 10.8461 13.9805 8.51611 13.9805ZM16.5161 13.9805C16.2261 13.9805 15.8961 14.0005 15.5461 14.0305C15.5661 14.0405 15.5761 14.0605 15.5861 14.0705C16.7261 14.9005 17.5161 16.0105 17.5161 17.4805V18.9805C17.5161 19.3305 17.4461 19.6705 17.3361 19.9805H22.5161C23.0661 19.9805 23.5161 19.5305 23.5161 18.9805V17.4805C23.5161 15.1505 18.8461 13.9805 16.5161 13.9805Z" fill="#474EFF"/>
</svg>
