<svg width="17" height="17" viewBox="0 0 17 17" fill="none" xmlns="http://www.w3.org/2000/svg">
<path d="M14.5273 3.90991H2.52734C2.46168 3.90991 2.39666 3.92284 2.336 3.94797C2.27534 3.9731 2.22022 4.00992 2.17379 4.05635C2.12736 4.10278 2.09053 4.1579 2.0654 4.21857C2.04027 4.27923 2.02734 4.34425 2.02734 4.40991V12.9099C2.02765 13.175 2.1331 13.4292 2.32057 13.6167C2.50804 13.8042 2.76222 13.9096 3.02734 13.9099H14.0273C14.2925 13.9096 14.5466 13.8042 14.7341 13.6167C14.9216 13.4292 15.027 13.175 15.0273 12.9099V4.40991C15.0273 4.34425 15.0144 4.27923 14.9893 4.21857C14.9642 4.1579 14.9273 4.10278 14.8809 4.05635C14.8345 4.00992 14.7794 3.9731 14.7187 3.94797C14.658 3.92284 14.593 3.90991 14.5273 3.90991V3.90991ZM3.02734 7.90991H5.52734V9.90991H3.02734V7.90991ZM6.52734 7.90991H14.0276L14.0278 9.90991H6.52734V7.90991ZM3.02734 10.9099H5.52734V12.9099H3.02734V10.9099ZM14.0273 12.9099H6.52734V10.9099H14.0278L14.028 12.9099L14.0273 12.9099Z" fill="white"/>
</svg>
