<svg width="20" height="20" viewBox="0 0 20 20" fill="none" xmlns="http://www.w3.org/2000/svg">
<path fill-rule="evenodd" clip-rule="evenodd" d="M2.5 4.99984C2.5 5.45817 2.875 5.83317 3.33333 5.83317H8.33333C8.79167 5.83317 9.16667 5.45817 9.16667 4.99984C9.16667 4.5415 8.79167 4.1665 8.33333 4.1665H3.33333C2.875 4.1665 2.5 4.5415 2.5 4.99984ZM8.33333 9.1665H3.33333C2.875 9.1665 2.5 8.7915 2.5 8.33317C2.5 7.87484 2.875 7.49984 3.33333 7.49984H8.33333C8.79167 7.49984 9.16667 7.87484 9.16667 8.33317C9.16667 8.7915 8.79167 9.1665 8.33333 9.1665ZM3.33333 12.4998H8.33333C8.79167 12.4998 9.16667 12.1248 9.16667 11.6665C9.16667 11.2082 8.79167 10.8332 8.33333 10.8332H3.33333C2.875 10.8332 2.5 11.2082 2.5 11.6665C2.5 12.1248 2.875 12.4998 3.33333 12.4998ZM3.33333 15.8332H8.33333C8.79167 15.8332 9.16667 15.4582 9.16667 14.9998C9.16667 14.5415 8.79167 14.1665 8.33333 14.1665H3.33333C2.875 14.1665 2.5 14.5415 2.5 14.9998C2.5 15.4582 2.875 15.8332 3.33333 15.8332ZM16.6667 4.1665H11.6667C11.2083 4.1665 10.8333 4.5415 10.8333 4.99984V14.9998C10.8333 15.4582 11.2083 15.8332 11.6667 15.8332H16.6667C17.125 15.8332 17.5 15.4582 17.5 14.9998V4.99984C17.5 4.5415 17.125 4.1665 16.6667 4.1665Z" fill="#E3E8F0"/>
</svg>
