<svg width="13" height="16" viewBox="0 0 13 16" fill="none" xmlns="http://www.w3.org/2000/svg">
<path fill-rule="evenodd" clip-rule="evenodd" d="M6.0904 0H11.0389C11.9524 0 12.6883 0.735924 12.6883 1.64948V14.3505C12.6883 15.2641 11.9524 16 11.0389 16H1.64948C0.735924 16 0 15.2641 0 14.3505V4.58049V4.55512C0.0126883 4.19984 0.164949 3.86994 0.431404 3.64155L2.80412 1.62411C2.95638 1.48454 3.19746 1.50991 3.33703 1.66217C3.47661 1.81443 3.46392 2.05551 3.29897 2.19508L0.926249 4.22522C0.824743 4.31404 0.761301 4.45361 0.761301 4.59318C0.761301 4.85964 0.977003 5.07534 1.24346 5.07534H3.55274C4.04758 5.07534 4.44092 4.682 4.44092 4.18715V1.64948C4.44092 0.735924 5.17684 0 6.0904 0ZM6.8615 12.2116C6.58278 12.4779 6.27348 12.7735 5.83104 12.8151H5.71618C5.09932 12.8151 4.67411 12.293 4.29352 11.8256C4.28434 11.8144 4.27519 11.8031 4.26605 11.7919C4.07941 11.5469 3.79225 11.2011 3.61996 11.1578C3.00258 10.9993 3.08873 10.3796 3.47638 10.2932C4.1202 10.207 4.55017 10.7505 4.93677 11.2391L4.94086 11.2443C5.1993 11.5613 5.52953 11.9649 5.74489 11.9504C5.88872 11.9373 6.06826 11.7688 6.251 11.5973C6.26893 11.5805 6.28688 11.5637 6.30484 11.5469C9.07299 7.55796 9.52574 6.89698 9.40609 7.0651C9.51676 6.90641 9.61699 6.75471 9.70294 6.62462C10.0072 6.16404 10.1325 5.97441 9.90861 6.70483C9.67888 7.4542 7.80282 10.6679 6.8935 12.181C6.88288 12.1912 6.87221 12.2013 6.8615 12.2116Z" fill="#E3E8F0"/>
</svg>
