<svg width="20" height="20" viewBox="0 0 20 20" fill="none" xmlns="http://www.w3.org/2000/svg">
<path d="M9.99998 1.25C9.6689 1.25003 9.34768 1.36273 9.08914 1.56955C8.8306 1.77637 8.65013 2.065 8.57741 2.388C8.50469 2.711 8.54403 3.04913 8.68898 3.3468C8.83393 3.64447 9.07586 3.88395 9.37498 4.02588V5.625C9.37381 5.70782 9.38911 5.79005 9.41999 5.8669C9.45088 5.94376 9.49673 6.01371 9.55488 6.07269C9.61303 6.13167 9.68233 6.1785 9.75874 6.21047C9.83515 6.24244 9.91715 6.2589 9.99998 6.2589C10.0828 6.2589 10.1648 6.24244 10.2412 6.21047C10.3176 6.1785 10.3869 6.13167 10.4451 6.07269C10.5032 6.01371 10.5491 5.94376 10.58 5.8669C10.6108 5.79005 10.6262 5.70782 10.625 5.625V4.02425C10.9232 3.88182 11.1642 3.64232 11.3084 3.34501C11.4527 3.0477 11.4917 2.71021 11.4191 2.38782C11.3465 2.06543 11.1665 1.77727 10.9087 1.57055C10.6508 1.36383 10.3304 1.25081 9.99998 1.25ZM3.95831 4.16667C3.57154 4.16667 3.20061 4.32031 2.92712 4.5938C2.65363 4.86729 2.49998 5.23823 2.49998 5.625C2.49998 6.01177 2.65363 6.38271 2.92712 6.6562C3.20061 6.92969 3.57154 7.08333 3.95831 7.08333C4.22122 7.08269 4.47907 7.01099 4.70457 6.87581L6.32404 7.9598C6.39213 8.0085 6.46931 8.04303 6.55101 8.06133C6.6327 8.07963 6.71724 8.08134 6.7996 8.06634C6.88196 8.05135 6.96048 8.01997 7.03048 7.97405C7.10048 7.92813 7.16055 7.86862 7.20711 7.79905C7.25368 7.72947 7.28579 7.65126 7.30155 7.56903C7.31731 7.48681 7.31639 7.40226 7.29884 7.3204C7.2813 7.23854 7.24749 7.16104 7.19942 7.0925C7.15136 7.02396 7.09001 6.96577 7.01902 6.92139L5.39956 5.83822C5.43017 5.63105 5.41582 5.41973 5.35746 5.21861C5.2991 5.01749 5.19812 4.8313 5.06137 4.6727C4.92462 4.5141 4.75532 4.38681 4.56498 4.29949C4.37464 4.21217 4.16773 4.16687 3.95831 4.16667ZM16.0416 4.16667C15.8322 4.16687 15.6253 4.21217 15.435 4.29949C15.2446 4.38681 15.0753 4.5141 14.9386 4.6727C14.8018 4.8313 14.7009 5.01749 14.6425 5.21861C14.5841 5.41973 14.5698 5.63105 14.6004 5.83822L12.9809 6.92139C12.91 6.96577 12.8486 7.02396 12.8005 7.0925C12.7525 7.16104 12.7187 7.23854 12.7011 7.3204C12.6836 7.40226 12.6827 7.48681 12.6984 7.56903C12.7142 7.65126 12.7463 7.72947 12.7928 7.79905C12.8394 7.86862 12.8995 7.92813 12.9695 7.97405C13.0395 8.01997 13.118 8.05135 13.2004 8.06634C13.2827 8.08134 13.3673 8.07963 13.449 8.06133C13.5306 8.04303 13.6078 8.0085 13.6759 7.9598L15.2938 6.87744C15.5199 7.01233 15.7783 7.08348 16.0416 7.08333C16.4284 7.08333 16.7994 6.92969 17.0728 6.6562C17.3463 6.38271 17.5 6.01177 17.5 5.625C17.5 5.23823 17.3463 4.86729 17.0728 4.5938C16.7994 4.32031 16.4284 4.16667 16.0416 4.16667ZM9.99998 7.08333C8.62123 7.08333 7.49998 8.20458 7.49998 9.58333C7.49998 10.9621 8.62123 12.0833 9.99998 12.0833C11.3787 12.0833 12.5 10.9621 12.5 9.58333C12.5 8.20458 11.3787 7.08333 9.99998 7.08333ZM13.6499 10.4858C13.504 10.4841 13.3621 10.5334 13.2488 10.6252C13.1354 10.7171 13.0578 10.8457 13.0293 10.9887C13.0008 11.1318 13.0232 11.2804 13.0927 11.4086C13.1622 11.5369 13.2744 11.6368 13.4098 11.6911L15.0024 12.3592C15.0198 12.7337 15.1807 13.0872 15.4518 13.3462C15.7229 13.6052 16.0834 13.7498 16.4583 13.75C16.8451 13.75 17.216 13.5964 17.4895 13.3229C17.763 13.0494 17.9166 12.6784 17.9166 12.2917C17.9166 11.9049 17.763 11.534 17.4895 11.2605C17.216 10.987 16.8451 10.8333 16.4583 10.8333C16.0996 10.8338 15.7537 10.9665 15.4866 11.2061L13.8932 10.5379C13.8164 10.5044 13.7337 10.4867 13.6499 10.4858ZM6.33136 10.4867C6.25396 10.4897 6.1778 10.5071 6.10675 10.5379L4.51414 11.2061C4.2469 10.9664 3.90064 10.8336 3.54165 10.8333C3.15487 10.8333 2.78394 10.987 2.51045 11.2605C2.23696 11.534 2.08331 11.9049 2.08331 12.2917C2.08331 12.6784 2.23696 13.0494 2.51045 13.3229C2.78394 13.5964 3.15487 13.75 3.54165 13.75C3.91658 13.7498 4.27701 13.6052 4.54812 13.3462C4.81923 13.0872 4.98017 12.7337 4.99754 12.3592L6.59015 11.6911C6.72684 11.6361 6.83972 11.5346 6.90884 11.4044C6.97796 11.2743 6.9989 11.1239 6.96794 10.9799C6.93699 10.8358 6.85614 10.7073 6.73967 10.6171C6.62319 10.5268 6.47858 10.4806 6.33136 10.4867ZM7.70831 12.9167C6.90415 12.9167 6.24998 13.5708 6.24998 14.375V15.4167C6.24998 16.8183 7.89706 17.9167 9.99998 17.9167C12.1029 17.9167 13.75 16.8183 13.75 15.4167V14.375C13.75 13.5708 13.0958 12.9167 12.2916 12.9167H7.70831Z" fill="#dadada"/>
</svg>
