<svg width="14" height="14" viewBox="0 0 14 14" fill="none" xmlns="http://www.w3.org/2000/svg">
<path fill-rule="evenodd" clip-rule="evenodd" d="M6.71 0.323242C3.03667 0.323242 0.043335 3.31658 0.043335 6.98991C0.043335 10.6632 3.03667 13.6566 6.71 13.6566C10.3833 13.6566 13.3767 10.6632 13.3767 6.98991C13.3767 3.31658 10.3833 0.323242 6.71 0.323242ZM6.70998 3.65656C6.34332 3.65656 6.04332 3.95656 6.04332 4.32323V6.32323H4.04332C3.67665 6.32323 3.37665 6.62323 3.37665 6.98989C3.37665 7.35656 3.67665 7.65656 4.04332 7.65656H6.04332V9.65656C6.04332 10.0232 6.34332 10.3232 6.70998 10.3232C7.07665 10.3232 7.37665 10.0232 7.37665 9.65656V7.65656H9.37665C9.74332 7.65656 10.0433 7.35656 10.0433 6.98989C10.0433 6.62323 9.74332 6.32323 9.37665 6.32323H7.37665V4.32323C7.37665 3.95656 7.07665 3.65656 6.70998 3.65656ZM1.37665 6.98989C1.37665 9.92989 3.76999 12.3232 6.70998 12.3232C9.64998 12.3232 12.0433 9.92989 12.0433 6.98989C12.0433 4.04989 9.64998 1.65656 6.70998 1.65656C3.76999 1.65656 1.37665 4.04989 1.37665 6.98989Z" fill="white"/>
</svg>
