<svg width="15" height="14" viewBox="0 0 15 14" fill="none" xmlns="http://www.w3.org/2000/svg">
<path d="M14.668 2.70962L11.4479 0.0345747L10.5381 1.11176L13.7581 3.78644L14.668 2.70962ZM4.76303 1.07679L3.85284 0L0.667969 2.70962L1.57777 3.78641L4.76303 1.07679ZM8.018 4.27288H6.96797V8.44167L10.2929 10.4219L10.818 9.55336L8.01797 7.92057V4.27288H8.018ZM7.66797 1.49371C4.16797 1.49371 1.36794 4.30749 1.36794 7.74681C1.36794 11.1863 4.16797 14 7.66797 14C11.1332 14 13.968 11.1863 13.968 7.74681C13.968 4.30752 11.1332 1.49371 7.66797 1.49371ZM7.66797 12.6105C4.97287 12.6105 2.76797 10.422 2.76797 7.74684C2.76797 5.07189 4.97287 2.88335 7.66797 2.88335C10.3631 2.88335 12.568 5.07186 12.568 7.74684C12.568 10.4565 10.3631 12.6105 7.66797 12.6105Z" fill="#93A9C7"/>
</svg>
