<svg width="13" height="16" viewBox="0 0 13 16" fill="none" xmlns="http://www.w3.org/2000/svg">
<path fill-rule="evenodd" clip-rule="evenodd" d="M8.472 0.472C8.168 0.168 7.76 0 7.336 0H1.6C0.72 0 0 0.72 0 1.6V14.4C0 15.28 0.712 16 1.592 16H11.2C12.08 16 12.8 15.28 12.8 14.4V5.464C12.8 5.04 12.632 4.632 12.328 4.336L8.472 0.472ZM7.2 4.8V1.2L11.6 5.6H8C7.56 5.6 7.2 5.24 7.2 4.8ZM9.37736 11.1528C9.39176 11.0376 9.40256 10.9224 9.40256 10.8C9.40256 10.6776 9.39176 10.5624 9.37736 10.4472L10.137 9.8532C10.2054 9.7992 10.2234 9.702 10.1802 9.6228L9.46016 8.3772C9.41696 8.298 9.31976 8.2692 9.24056 8.298L8.34416 8.658C8.15696 8.514 7.95536 8.3952 7.73576 8.3052L7.59896 7.3512C7.58816 7.2648 7.51256 7.2 7.42256 7.2H5.98256C5.89256 7.2 5.81696 7.2648 5.80616 7.3512L5.66936 8.3052C5.44976 8.3952 5.24816 8.5176 5.06096 8.658L4.16456 8.298C4.08176 8.2656 3.98816 8.298 3.94496 8.3772L3.22496 9.6228C3.17816 9.702 3.19976 9.7992 3.26816 9.8532L4.02776 10.4472C4.01336 10.5624 4.00256 10.6812 4.00256 10.8C4.00256 10.9188 4.01336 11.0376 4.02776 11.1528L3.26816 11.7468C3.19976 11.8008 3.18176 11.898 3.22496 11.9772L3.94496 13.2228C3.98816 13.302 4.08536 13.3308 4.16456 13.302L5.06096 12.942C5.24816 13.086 5.44976 13.2048 5.66936 13.2948L5.80616 14.2488C5.81696 14.3352 5.89256 14.4 5.98256 14.4H7.42256C7.51256 14.4 7.58816 14.3352 7.59896 14.2488L7.73576 13.2948C7.95536 13.2048 8.15696 13.0824 8.34416 12.942L9.24056 13.302C9.32336 13.3344 9.41696 13.302 9.46016 13.2228L10.1802 11.9772C10.2234 11.898 10.2054 11.8008 10.137 11.7468L9.37736 11.1528ZM6.70297 12.0601C6.00817 12.0601 5.44297 11.4949 5.44297 10.8001C5.44297 10.1053 6.00817 9.54009 6.70297 9.54009C7.39777 9.54009 7.96297 10.1053 7.96297 10.8001C7.96297 11.4949 7.39777 12.0601 6.70297 12.0601Z" fill="#17CA89"/>
</svg>
