<svg width="20" height="20" viewBox="0 0 20 20" fill="none" xmlns="http://www.w3.org/2000/svg">
<path fill-rule="evenodd" clip-rule="evenodd" d="M12.35 3.33317H15.8333C16.75 3.33317 17.5 4.08317 17.5 4.99984V16.6665C17.5 17.5832 16.75 18.3332 15.8333 18.3332H4.16667C3.25 18.3332 2.5 17.5832 2.5 16.6665V4.99984C2.5 4.08317 3.25 3.33317 4.16667 3.33317H7.65C8 2.3665 8.91667 1.6665 10 1.6665C11.0833 1.6665 12 2.3665 12.35 3.33317ZM10.8333 4.1665C10.8333 3.70817 10.4583 3.33317 10 3.33317C9.54167 3.33317 9.16667 3.70817 9.16667 4.1665C9.16667 4.62484 9.54167 4.99984 10 4.99984C10.4583 4.99984 10.8333 4.62484 10.8333 4.1665ZM10 6.6665C11.3833 6.6665 12.5 7.78317 12.5 9.1665C12.5 10.5498 11.3833 11.6665 10 11.6665C8.61667 11.6665 7.5 10.5498 7.5 9.1665C7.5 7.78317 8.61667 6.6665 10 6.6665ZM5 15.4998V16.6665H15V15.4998C15 13.8332 11.6667 12.9165 10 12.9165C8.33333 12.9165 5 13.8332 5 15.4998Z" fill="#E3E8F0"/>
</svg>
