<svg width="20" height="20" viewBox="0 0 20 20" fill="none" xmlns="http://www.w3.org/2000/svg">
<path fill-rule="evenodd" clip-rule="evenodd" d="M14.8462 3.72508C14.7796 3.72508 14.7129 3.70841 14.6546 3.67508C13.0546 2.85008 11.6712 2.50008 10.0129 2.50008C8.36292 2.50008 6.79625 2.89175 5.37125 3.67508C5.17125 3.78341 4.92125 3.70841 4.80458 3.50841C4.69625 3.30841 4.77125 3.05008 4.97125 2.94175C6.52125 2.10008 8.22125 1.66675 10.0129 1.66675C11.7879 1.66675 13.3379 2.05841 15.0379 2.93341C15.2462 3.04175 15.3212 3.29175 15.2129 3.49175C15.1379 3.64175 14.9962 3.72508 14.8462 3.72508ZM2.92125 8.10009C2.83792 8.10009 2.75459 8.07509 2.67959 8.02509C2.48792 7.89176 2.44625 7.63342 2.57959 7.44176C3.40459 6.27509 4.45459 5.35842 5.70459 4.71676C8.32125 3.36676 11.6713 3.35842 14.2963 4.70842C15.5463 5.35009 16.5963 6.25842 17.4213 7.41676C17.5546 7.60009 17.5129 7.86676 17.3213 8.00009C17.1296 8.13342 16.8713 8.09176 16.7379 7.90009C15.9879 6.85009 15.0379 6.02509 13.9129 5.45009C11.5213 4.22509 8.46292 4.22509 6.07959 5.45842C4.94625 6.04176 3.99625 6.87509 3.24625 7.92509C3.17959 8.04176 3.05459 8.10009 2.92125 8.10009ZM7.83792 18.0334C7.91292 18.1167 8.02126 18.1584 8.12959 18.1584C8.23792 18.1584 8.34626 18.1167 8.43792 18.0334C8.59626 17.8667 8.59626 17.6084 8.43792 17.4417C7.79626 16.7917 7.42959 16.3834 6.89626 15.4251C6.38792 14.5251 6.12126 13.4167 6.12126 12.2167C6.12126 10.2001 7.86292 8.55841 10.0046 8.55841C12.1463 8.55841 13.8879 10.2001 13.8879 12.2167C13.8879 12.4501 14.0713 12.6334 14.3046 12.6334C14.5379 12.6334 14.7213 12.4501 14.7213 12.2167C14.7213 9.74174 12.6046 7.72508 10.0046 7.72508C7.40459 7.72508 5.28792 9.74174 5.28792 12.2167C5.28792 13.5584 5.58792 14.8084 6.16292 15.8334C6.72126 16.8417 7.11292 17.3084 7.83792 18.0334ZM14.1046 16.6167C13.1129 16.6167 12.2379 16.3667 11.5212 15.8751C10.2796 15.0334 9.53792 13.6667 9.53792 12.2167C9.53792 11.9834 9.72125 11.8001 9.95458 11.8001C10.1879 11.8001 10.3712 11.9834 10.3712 12.2167C10.3712 13.3917 10.9712 14.5001 11.9879 15.1834C12.5796 15.5834 13.2712 15.7751 14.1046 15.7751C14.3046 15.7751 14.6379 15.7501 14.9712 15.6917C15.1962 15.6501 15.4129 15.8001 15.4546 16.0334C15.4962 16.2584 15.3462 16.4751 15.1129 16.5167C14.6379 16.6084 14.2212 16.6167 14.1046 16.6167ZM12.3213 18.3168C12.3546 18.3251 12.3963 18.3334 12.4296 18.3334C12.6046 18.3334 12.7796 18.2084 12.8213 18.0168C12.8796 17.8001 12.7546 17.5668 12.5296 17.5084C11.3546 17.1834 10.5963 16.7501 9.80459 15.9668C8.79626 14.9668 8.24626 13.6334 8.24626 12.2084C8.24626 11.3168 9.02126 10.5918 9.97959 10.5918C10.9379 10.5918 11.7129 11.3168 11.7129 12.2084C11.7129 13.5584 12.8629 14.6584 14.2796 14.6584C15.6963 14.6584 16.8463 13.5584 16.8463 12.2084C16.8463 8.60842 13.7629 5.68342 9.97126 5.68342C7.27959 5.68342 4.82126 7.19176 3.71292 9.51676C3.33792 10.3084 3.14626 11.2168 3.14626 12.2168C3.14626 13.3418 3.34626 14.4251 3.75459 15.5168C3.82959 15.7251 4.07126 15.8418 4.28792 15.7584C4.50459 15.6834 4.61292 15.4418 4.52959 15.2251C4.02959 13.8918 3.97126 12.8668 3.97126 12.2168C3.97126 11.3501 4.13792 10.5584 4.46292 9.88342C5.43792 7.84176 7.60459 6.52509 9.97126 6.52509C13.3046 6.52509 16.0129 9.07509 16.0129 12.2168C16.0129 13.1084 15.2379 13.8334 14.2796 13.8334C13.3213 13.8334 12.5463 13.1084 12.5463 12.2168C12.5463 10.8668 11.3963 9.76676 9.97959 9.76676C8.56292 9.76676 7.41292 10.8668 7.41292 12.2168C7.41292 13.8668 8.05459 15.4084 9.22126 16.5668C10.1296 17.4584 10.9963 17.9501 12.3213 18.3168Z" fill="#17CA89"/>
</svg>
