<svg width="25" height="24" viewBox="0 0 25 24" fill="none" xmlns="http://www.w3.org/2000/svg">
<path fill-rule="evenodd" clip-rule="evenodd" d="M19.9455 17.04L18.6582 15.75V10.75C18.6582 7.68 17.0215 5.11 14.1674 4.43V3.75C14.1674 2.92 13.4988 2.25 12.6705 2.25C11.8422 2.25 11.1736 2.92 11.1736 3.75V4.43C8.30952 5.11 6.68288 7.67 6.68288 10.75V15.75L5.39554 17.04C4.76683 17.67 5.20593 18.75 6.09409 18.75H19.237C20.1351 18.75 20.5742 17.67 19.9455 17.04ZM16.6623 16.75H8.67876V10.75C8.67876 8.27 10.1856 6.25 12.6705 6.25C15.1554 6.25 16.6623 8.27 16.6623 10.75V16.75ZM14.6664 19.75C14.6664 20.85 13.7682 21.75 12.6705 21.75C11.5628 21.75 10.6746 20.85 10.6746 19.75H14.6664Z" fill="#B9C0CE"/>
</svg>
