<svg width="13" height="9" viewBox="0 0 13 9" fill="none" xmlns="http://www.w3.org/2000/svg">
<path d="M6.52435 8.89573C1.68144 8.89573 0.0671387 4.85997 0.0671387 4.85997C0.0671387 4.85997 1.68144 0.824219 6.52435 0.824219C11.3673 0.824219 12.9816 4.85997 12.9816 4.85997C12.9816 4.85997 11.3673 8.89573 6.52435 8.89573ZM6.52435 2.43852C5.1869 2.43852 4.10289 3.52252 4.10289 4.85997C4.10289 6.19742 5.1869 7.28143 6.52435 7.28143C7.86179 7.28143 8.9458 6.19742 8.9458 4.85997C8.9458 3.52252 7.86179 2.43852 6.52435 2.43852ZM6.52435 6.47427C5.63325 6.47427 4.91004 5.75107 4.91004 4.85997H6.52435L5.38303 3.71866C5.53263 3.56839 5.71051 3.44923 5.9064 3.36805C6.10228 3.28687 6.3123 3.24528 6.52435 3.24567C7.41544 3.24567 8.13865 3.96888 8.13865 4.85997C8.13865 5.75107 7.41544 6.47427 6.52435 6.47427Z" fill="#B9C0CE"/>
</svg>
