<svg width="21" height="21" viewBox="0 0 21 21" fill="none" xmlns="http://www.w3.org/2000/svg">
<rect x="0.5" y="0.475586" width="20" height="20" rx="4" fill="#F3F7FE"/>
<path fill-rule="evenodd" clip-rule="evenodd" d="M12.3597 4.66892L12.833 5.14225H14.4997C14.8663 5.14225 15.1663 5.44225 15.1663 5.80892C15.1663 6.17559 14.8663 6.47559 14.4997 6.47559H6.49967C6.13301 6.47559 5.83301 6.17559 5.83301 5.80892C5.83301 5.44225 6.13301 5.14225 6.49967 5.14225H8.16634L8.63967 4.66892C8.75967 4.54892 8.93301 4.47559 9.10634 4.47559H11.893C12.0663 4.47559 12.2397 4.54892 12.3597 4.66892ZM6.49967 15.1423C6.49967 15.8756 7.09967 16.4756 7.83301 16.4756H13.1663C13.8997 16.4756 14.4997 15.8756 14.4997 15.1423V8.47559C14.4997 7.74225 13.8997 7.14225 13.1663 7.14225H7.83301C7.09967 7.14225 6.49967 7.74225 6.49967 8.47559V15.1423ZM8.61303 9.92227C8.87303 9.66227 9.29303 9.66227 9.55303 9.92227L10.4997 10.8689L11.4464 9.92227C11.7064 9.66227 12.1264 9.66227 12.3864 9.92227C12.6464 10.1823 12.6464 10.6023 12.3864 10.8623L11.4397 11.8089L12.3864 12.7556C12.6464 13.0156 12.6464 13.4356 12.3864 13.6956C12.1264 13.9556 11.7064 13.9556 11.4464 13.6956L10.4997 12.7489L9.55303 13.6956C9.29303 13.9556 8.87303 13.9556 8.61303 13.6956C8.48819 13.5711 8.41804 13.402 8.41804 13.2256C8.41804 13.0493 8.48819 12.8802 8.61303 12.7556L9.55969 11.8089L8.61303 10.8623C8.35303 10.6089 8.35303 10.1823 8.61303 9.92227Z" fill="#FF5959"/>
</svg>
