<svg width="21" height="21" viewBox="0 0 21 21" fill="none" xmlns="http://www.w3.org/2000/svg">
<rect x="0.5" y="0.475586" width="20" height="20" rx="4" fill="#F3F7FE"/>
<rect x="3.5" y="3.47559" width="14" height="14" rx="7" fill="#17CA89"/>
<path fill-rule="evenodd" clip-rule="evenodd" d="M4.66699 10.4754C4.66699 7.26126 7.28616 4.64209 10.5003 4.64209C13.7145 4.64209 16.3337 7.26126 16.3337 10.4754C16.3337 13.6896 13.7145 16.3088 10.5003 16.3088C7.28616 16.3088 4.66699 13.6896 4.66699 10.4754ZM9.91702 8.14205C9.91702 7.82122 10.1795 7.55872 10.5003 7.55872C10.8212 7.55872 11.0837 7.82122 11.0837 8.14205V9.89205H12.8337C13.1545 9.89205 13.417 10.1546 13.417 10.4754C13.417 10.7962 13.1545 11.0587 12.8337 11.0587H11.0837V12.8087C11.0837 13.1296 10.8212 13.3921 10.5003 13.3921C10.1795 13.3921 9.91702 13.1296 9.91702 12.8087V11.0587H8.16702C7.84618 11.0587 7.58368 10.7962 7.58368 10.4754C7.58368 10.1546 7.84618 9.89205 8.16702 9.89205H9.91702V8.14205Z" fill="white"/>
</svg>
