<svg width="41" height="41" viewBox="0 0 41 41" fill="none" xmlns="http://www.w3.org/2000/svg">
<path d="M20.3711 40.1004C31.4168 40.1004 40.3711 31.1462 40.3711 20.1005C40.3711 9.05486 31.4168 0.100586 20.3711 0.100586C9.3254 0.100586 0.371094 9.05486 0.371094 20.1005C0.371094 31.1462 9.3254 40.1004 20.3711 40.1004Z" fill="#7986FC"/>
<path fill-rule="evenodd" clip-rule="evenodd" d="M15.423 25.1357L25.7188 25.2322V27.5733L30.2508 29.7344L20.0974 39.2613L11.3848 29.3325L15.423 27.6134V25.1357Z" fill="#F9DCA4"/>
<path fill-rule="evenodd" clip-rule="evenodd" d="M34.9853 33.7524C33.1165 35.758 30.8543 37.3568 28.3399 38.4489C25.8255 39.5411 23.113 40.1031 20.3717 40.1C19.5415 40.0999 18.7121 40.0487 17.8882 39.9466C15.3614 39.5845 12.9167 38.7865 10.6629 37.588C8.76087 36.5294 7.04354 35.1686 5.57812 33.5589L6.40855 31.5524L13.7406 28.2812C14.307 31.2172 16.4817 35.7473 20.327 38.3149C22.1255 37.2287 23.6864 35.7908 24.9161 34.0872C26.1458 32.3836 27.0191 30.4494 27.4837 28.4003L33.997 31.5738L34.9853 33.7524Z" fill="#B16668"/>
<path opacity="0.11" fill-rule="evenodd" clip-rule="evenodd" d="M26.1251 27.7676C26.5963 27.9922 27.4021 28.3682 27.4805 28.4142C26.1665 32.5359 17.3057 34.0452 14.6934 27.9249L26.1251 27.7676Z" fill="black"/>
<path fill-rule="evenodd" clip-rule="evenodd" d="M20.5209 5.55859C34.2951 5.55859 28.9268 28.3845 20.5209 28.3845C12.5817 28.3845 6.74676 5.55859 20.5209 5.55859Z" fill="#FFE8BE"/>
<path fill-rule="evenodd" clip-rule="evenodd" d="M12.2578 15.6641C10.2707 16.5314 11.96 20.6395 13.2105 20.6207C12.6919 19.0135 12.3719 17.349 12.2578 15.6641Z" fill="#F9DCA4"/>
<path fill-rule="evenodd" clip-rule="evenodd" d="M28.9404 15.6641C30.9274 16.5307 29.2381 20.6395 27.9883 20.6207C28.5066 19.0135 28.8263 17.3489 28.9404 15.6641Z" fill="#F9DCA4"/>
<path fill-rule="evenodd" clip-rule="evenodd" d="M15.5141 10.0917C15.1309 11.8832 15.2656 13.6645 13.5672 13.9933C13.1633 14.0709 12.896 14.6179 12.8086 15.1001C12.6116 16.1519 12.5291 17.222 12.5626 18.2917C12.63 18.6599 12.3063 17.5849 12.3063 17.5849L12.2513 15.5305C12.2513 15.5305 12.2274 15.137 12.2364 14.537C12.2558 13.3201 12.3944 11.3473 13.0105 10.7441C13.9303 9.8444 15.5141 10.0917 15.5141 10.0917Z" fill="#AD835F"/>
<path fill-rule="evenodd" clip-rule="evenodd" d="M25.6758 10.0917C26.059 11.8832 25.925 13.6645 27.6227 13.9933C28.0266 14.0709 28.2946 14.6179 28.3813 15.1001C28.5701 16.1562 28.6378 17.2305 28.5832 18.302C28.5153 18.6709 28.8389 17.5952 28.8389 17.5952L28.9463 15.5383C28.9463 15.5383 28.9625 15.137 28.9528 14.537C28.9347 13.3201 28.7962 11.3473 28.1793 10.7441C27.2596 9.8444 25.6758 10.0917 25.6758 10.0917Z" fill="#AD835F"/>
<path fill-rule="evenodd" clip-rule="evenodd" d="M16.7898 30.183C15.8125 29.24 15.0306 28.5086 14.3212 27.7765C13.4118 26.8374 13.1037 25.8853 12.927 24.2179C12.526 21.3368 12.3006 18.4339 12.252 15.5254C12.252 15.5254 12.9212 19.6244 14.1691 21.6451C14.8099 22.6827 17.4313 20.2438 18.4766 19.873C18.832 19.7085 19.2326 19.669 19.6132 19.7609C19.9939 19.8528 20.3324 20.0706 20.5737 20.3791C20.8105 20.0701 21.1459 19.8515 21.5242 19.7594C21.9025 19.6673 22.3009 19.7074 22.6533 19.873C23.6992 20.2438 26.2844 22.3273 26.9614 21.6451C28.5892 20.0037 28.94 15.5312 28.94 15.5312C28.872 18.4722 28.628 21.4065 28.2093 24.3183C27.9743 26.0956 27.8552 26.7843 27.2475 27.4794C26.3554 28.4814 25.3644 29.3906 24.2895 30.1933C23.7536 30.6179 22.8222 31.0166 20.4494 31.0024C18.2449 30.9895 17.3406 30.7137 16.7898 30.1823V30.183Z" fill="#828282"/>
<path fill-rule="evenodd" clip-rule="evenodd" d="M26.0043 10.4546C26.3476 10.3882 26.7029 10.4287 27.0224 10.5707C27.3419 10.7127 27.6101 10.9494 27.7907 11.2488C28.7978 12.94 28.8813 13.1582 28.8813 13.1582C28.8813 13.1582 28.7622 10.1329 28.6904 9.77305C28.777 9.69332 28.8913 9.65058 29.009 9.65397C29.1266 9.65735 29.2383 9.70659 29.3202 9.79118C29.3914 9.93487 29.0328 6.74911 27.1616 6.1381C26.4774 4.19506 24.0846 2.75558 24.0846 2.75558L23.9765 3.83519C23.7355 3.10227 23.2836 2.45675 22.6774 1.9795C22.0712 1.50226 21.3377 1.21453 20.5687 1.15234C21.0004 1.63843 20.8968 1.99377 20.8968 1.99377C20.2234 1.71163 19.4987 1.57234 18.7687 1.58471C18.8593 2.16011 18.1933 2.77241 18.1933 2.77241C18.1933 2.77241 17.7797 2.14199 16.1421 1.92645C15.8541 2.96982 15.3136 3.14975 14.7926 3.63584C14.3549 4.08414 13.9522 4.56538 13.5881 5.07532C13.5881 5.07532 13.6418 4.06755 14.0017 3.77953C14.1369 3.69021 10.9492 4.94652 12.5441 9.62807C12.2584 9.62113 11.9787 9.71077 11.7502 9.88249C11.5218 10.0542 11.3579 10.298 11.2852 10.5743C12.1848 10.8261 11.8127 12.186 12.3162 13.0676C12.6703 12.0449 12.9046 10.0527 15.1175 10.5743C16.702 10.9478 18.223 11.7485 20.0496 11.8125C22.6302 11.9025 23.6101 10.5478 26.0043 10.4546Z" fill="#FCC858"/>
<path fill-rule="evenodd" clip-rule="evenodd" d="M21.3524 25.0811C21.6046 25.1234 21.8629 25.1113 22.1101 25.0457C22.3572 24.98 22.5875 24.8624 22.7854 24.7005C23.2515 24.1633 23.6314 23.4002 22.9246 22.9899C22.2347 22.4999 21.4419 22.174 20.6068 22.0371C19.7667 22.1717 18.9687 22.4972 18.2741 22.9886C17.4068 23.4902 17.9375 24.1633 18.4042 24.7005C18.6022 24.8624 18.8325 24.98 19.0796 25.0457C19.3267 25.1113 19.585 25.1234 19.8372 25.0811C19.3123 23.2533 21.878 23.2533 21.3524 25.0811Z" fill="#FFE8BE"/>
</svg>
