<svg width="17" height="16" viewBox="0 0 17 16" fill="none" xmlns="http://www.w3.org/2000/svg">
<path d="M4.95699 3.97751C4.95699 3.02569 5.3351 2.11286 6.00814 1.43982C6.68118 0.766781 7.59401 0.388672 8.54583 0.388672C9.49765 0.388672 10.4105 0.766781 11.0835 1.43982C11.7566 2.11286 12.1347 3.02569 12.1347 3.97751V6.37007C12.1347 7.32189 11.7566 8.23473 11.0835 8.90776C10.4105 9.5808 9.49765 9.95891 8.54583 9.95891C7.59401 9.95891 6.68118 9.5808 6.00814 8.90776C5.3351 8.23473 4.95699 7.32189 4.95699 6.37007V3.97751ZM0.171875 14.744C0.770015 12.9496 4.95699 11.1552 7.34955 11.1552H9.74211C12.1347 11.1552 16.3217 12.9496 16.9198 14.744V15.9403H0.171875V14.744Z" fill="#5F6FFF"/>
</svg>
