<svg width="41" height="41" viewBox="0 0 41 41" fill="none" xmlns="http://www.w3.org/2000/svg">
<path d="M8.35706 20.272H33.3571V17.772H8.35706V20.272ZM8.35706 15.272H33.3571V12.772H8.35706V15.272ZM33.3571 0.271973H8.35706C6.36793 0.271973 4.46028 1.06215 3.05375 2.46867C1.64723 3.87519 0.857056 5.78285 0.857056 7.77197L0.857056 32.772C0.857056 34.7611 1.64723 36.6688 3.05375 38.0753C4.46028 39.4818 6.36793 40.272 8.35706 40.272H33.3571C35.3462 40.272 37.2538 39.4818 38.6604 38.0753C40.0669 36.6688 40.8571 34.7611 40.8571 32.772V7.77197C40.8571 5.78285 40.0669 3.87519 38.6604 2.46867C37.2538 1.06215 35.3462 0.271973 33.3571 0.271973V0.271973ZM35.8571 32.772C35.8571 34.1545 34.7396 35.272 33.3571 35.272H8.35706C7.69401 35.272 7.05813 35.0086 6.58929 34.5397C6.12045 34.0709 5.85706 33.435 5.85706 32.772V7.77197C5.85706 6.39197 6.97706 5.27197 8.35706 5.27197H33.3571C34.0201 5.27197 34.656 5.53536 35.1248 6.00421C35.5937 6.47305 35.8571 7.10893 35.8571 7.77197V32.772ZM8.35706 10.272H33.3571V7.77197H8.35706V10.272ZM22.6246 23.507C22.3927 23.2744 22.1172 23.0899 21.8139 22.964C21.5106 22.8381 21.1855 22.7733 20.8571 22.7733C20.5287 22.7733 20.2035 22.8381 19.9002 22.964C19.5969 23.0899 19.3214 23.2744 19.0896 23.507L14.0896 28.507C13.7397 28.8563 13.5013 29.3015 13.4047 29.7864C13.3081 30.2713 13.3576 30.7739 13.5468 31.2306C13.7361 31.6874 14.0567 32.0776 14.4679 32.352C14.8792 32.6264 15.3627 32.7726 15.8571 32.772H25.8571C26.8671 32.772 27.7821 32.1645 28.1671 31.2295C28.3558 30.7724 28.4049 30.2698 28.3084 29.7848C28.2119 29.2999 27.9739 28.8544 27.6246 28.5045L22.6246 23.507Z" fill="white"/>
</svg>
