<svg width="41" height="41" viewBox="0 0 41 41" fill="none" xmlns="http://www.w3.org/2000/svg">
<path d="M36.4769 0H4.37723C3.21632 0 2.10295 0.461172 1.28206 1.28206C0.461172 2.10295 0 3.21632 0 4.37723V36.4769C0 37.6379 0.461172 38.7512 1.28206 39.5721C2.10295 40.393 3.21632 40.8542 4.37723 40.8542H36.4769C37.6379 40.8542 38.7512 40.393 39.5721 39.5721C40.393 38.7512 40.8542 37.6379 40.8542 36.4769V4.37723C40.8542 3.21632 40.393 2.10295 39.5721 1.28206C38.7512 0.461172 37.6379 0 36.4769 0ZM8.75447 10.2135C8.75447 9.82657 8.90819 9.45545 9.18182 9.18182C9.45545 8.90819 9.82657 8.75447 10.2135 8.75447H21.8862C22.2731 8.75447 22.6443 8.90819 22.9179 9.18182C23.1915 9.45545 23.3452 9.82657 23.3452 10.2135V13.2218C23.3452 13.6087 23.1915 13.9799 22.9179 14.2535C22.6443 14.5271 22.2731 14.6808 21.8862 14.6808H10.2135C9.82657 14.6808 9.45545 14.5271 9.18182 14.2535C8.90819 13.9799 8.75447 13.6087 8.75447 13.2218V10.2135ZM17.5089 30.6406C17.5089 31.0276 17.3552 31.3987 17.0816 31.6724C16.808 31.946 16.4368 32.0997 16.0499 32.0997H10.2135C9.82657 32.0997 9.45545 31.946 9.18182 31.6724C8.90819 31.3987 8.75447 31.0276 8.75447 30.6406V27.7225C8.75447 27.3355 8.90819 26.9644 9.18182 26.6908C9.45545 26.4171 9.82657 26.2634 10.2135 26.2634H16.0499C16.4368 26.2634 16.808 26.4171 17.0816 26.6908C17.3552 26.9644 17.5089 27.3355 17.5089 27.7225V30.6406ZM32.0997 21.8862C32.0997 22.2731 31.946 22.6443 31.6724 22.9179C31.3987 23.1915 31.0276 23.3452 30.6406 23.3452H10.2135C9.82657 23.3452 9.45545 23.1915 9.18182 22.9179C8.90819 22.6443 8.75447 22.2731 8.75447 21.8862V18.968C8.75447 18.581 8.90819 18.2099 9.18182 17.9363C9.45545 17.6627 9.82657 17.5089 10.2135 17.5089H30.6406C31.0276 17.5089 31.3987 17.6627 31.6724 17.9363C31.946 18.2099 32.0997 18.581 32.0997 18.968V21.8862Z" fill="#17CA89"/>
</svg>
