<svg width="41" height="41" viewBox="0 0 41 41" fill="none" xmlns="http://www.w3.org/2000/svg">
<path d="M8.35706 20.8542H33.3571V18.3542H8.35706V20.8542ZM8.35706 15.8542H33.3571V13.3542H8.35706V15.8542ZM33.3571 0.854248H8.35706C6.36793 0.854248 4.46028 1.64442 3.05375 3.05095C1.64723 4.45747 0.857056 6.36512 0.857056 8.35425L0.857056 33.3542C0.857056 35.3434 1.64723 37.251 3.05375 38.6575C4.46028 40.0641 6.36793 40.8542 8.35706 40.8542H33.3571C35.3462 40.8542 37.2538 40.0641 38.6604 38.6575C40.0669 37.251 40.8571 35.3434 40.8571 33.3542V8.35425C40.8571 6.36512 40.0669 4.45747 38.6604 3.05095C37.2538 1.64442 35.3462 0.854248 33.3571 0.854248V0.854248ZM35.8571 33.3542C35.8571 34.7367 34.7396 35.8542 33.3571 35.8542H8.35706C7.69401 35.8542 7.05813 35.5909 6.58929 35.122C6.12045 34.6532 5.85706 34.0173 5.85706 33.3542V8.35425C5.85706 6.97425 6.97706 5.85425 8.35706 5.85425H33.3571C34.0201 5.85425 34.656 6.11764 35.1248 6.58648C35.5937 7.05532 35.8571 7.69121 35.8571 8.35425V33.3542ZM8.35706 10.8542H33.3571V8.35425H8.35706V10.8542ZM22.6246 24.0892C22.3927 23.8567 22.1172 23.6722 21.8139 23.5463C21.5106 23.4204 21.1855 23.3556 20.8571 23.3556C20.5287 23.3556 20.2035 23.4204 19.9002 23.5463C19.5969 23.6722 19.3214 23.8567 19.0896 24.0892L14.0896 29.0892C13.7397 29.4385 13.5013 29.8838 13.4047 30.3687C13.3081 30.8535 13.3576 31.3562 13.5468 31.8129C13.7361 32.2696 14.0567 32.6599 14.4679 32.9343C14.8792 33.2087 15.3627 33.3548 15.8571 33.3542H25.8571C26.8671 33.3542 27.7821 32.7467 28.1671 31.8117C28.3558 31.3547 28.4049 30.852 28.3084 30.3671C28.2119 29.8822 27.9739 29.4367 27.6246 29.0867L22.6246 24.0892Z" fill="#17CA89"/>
</svg>
