<svg width="40" height="40" viewBox="0 0 40 40" fill="none" xmlns="http://www.w3.org/2000/svg">
<path d="M32.3503 0.271973C28.1776 0.271973 24.7801 3.67566 24.7801 7.8627C24.7801 12.0498 28.1776 15.4534 32.3503 15.4534C36.523 15.4534 39.9206 12.0498 39.9206 7.8627C39.9206 3.67566 36.5261 0.271973 32.3503 0.271973ZM18.718 3.17187C8.67685 3.17187 0.508057 11.3628 0.508057 21.4311C0.508057 25.9947 2.18179 30.2863 5.20988 33.6475C7.27806 31.2701 9.8932 29.4725 12.8274 28.4644C10.8077 26.7945 9.48587 24.2993 9.48587 21.4786C9.48587 16.4049 13.5444 12.3341 18.5347 12.3341C20.4636 12.3341 22.2469 12.9332 23.7155 13.9412C22.4892 12.2075 21.752 10.1045 21.752 7.82119C21.752 6.33645 22.0585 4.92471 22.6096 3.64036C21.3317 3.36102 20.0382 3.17187 18.718 3.17187ZM35.1832 4.11478L37.3242 6.26153L31.2207 12.3816L27.3764 8.52689L29.5174 6.38014L31.2207 8.08805L35.1832 4.11478ZM18.6115 15.3704C15.2201 15.3704 12.514 18.0796 12.514 21.4074C12.514 24.7322 15.1029 27.3794 18.3217 27.4978C18.3975 27.4978 18.4708 27.4799 18.5465 27.4799C18.6343 27.4799 18.713 27.4978 18.8008 27.4978C22.0287 27.3946 24.6263 24.7396 24.6263 21.4786C24.6263 18.0749 21.9303 15.3704 18.6115 15.3704ZM26.1285 16.3845C27.0915 17.8237 27.6544 19.5551 27.6544 21.4133C27.6544 24.2857 26.33 26.8033 24.2951 28.4763C27.296 29.5117 29.9566 31.3658 32.0369 33.8313C35.0559 30.5703 36.922 26.2194 36.922 21.4311C36.922 20.1346 36.739 18.866 36.4726 17.612C35.2038 18.1495 33.8129 18.4482 32.3503 18.4482C30.0217 18.4482 27.8788 17.6658 26.1285 16.3845ZM18.3217 30.5341C14.0885 30.6009 10.1087 32.5049 7.3804 35.7112C10.5932 38.2829 14.5424 39.6845 18.7121 39.6845C22.8999 39.6845 26.7513 38.2461 29.8309 35.8535C27.1116 32.5622 23.0977 30.61 18.8008 30.5341C18.7342 30.5341 18.6782 30.552 18.6115 30.552H18.5347C18.462 30.552 18.3944 30.5341 18.3217 30.5341Z" fill="white"/>
</svg>
