<svg width="40" height="41" viewBox="0 0 40 41" fill="none" xmlns="http://www.w3.org/2000/svg">
<g clip-path="url(#clip0)">
<path d="M26.25 20.272C24.2722 20.272 22.3388 20.8585 20.6943 21.9573C19.0498 23.0561 17.7681 24.6179 17.0112 26.4451C16.2543 28.2724 16.0563 30.2831 16.4422 32.2229C16.828 34.1627 17.7804 35.9445 19.1789 37.343C20.5775 38.7416 22.3593 39.694 24.2991 40.0798C26.2389 40.4657 28.2496 40.2676 30.0768 39.5108C31.9041 38.7539 33.4659 37.4722 34.5647 35.8277C35.6635 34.1832 36.25 32.2498 36.25 30.272C36.2465 27.6209 35.1918 25.0794 33.3172 23.2047C31.4426 21.3301 28.9011 20.2754 26.25 20.272ZM30.625 36.522H21.875V34.022H30.625V36.522ZM30.625 31.522H21.875V29.022H30.625V31.522ZM30.625 26.522H21.875V24.022H30.625V26.522Z" fill="white"/>
<path d="M18.75 40.272H5.3C4.72331 40.2715 4.17038 40.0422 3.76259 39.6344C3.35481 39.2266 3.1255 38.6737 3.125 38.097V29.7532C3.12765 26.9079 4.25911 24.1799 6.27103 22.168C8.28296 20.1561 11.011 19.0246 13.8562 19.022H18.6438C19.2619 19.0219 19.8789 19.0763 20.4875 19.1845C18.6114 20.1586 17.013 21.5929 15.8421 23.3529C14.6712 25.113 13.9659 27.1413 13.7923 29.2482C13.6187 31.355 13.9825 33.4714 14.8495 35.3994C15.7166 37.3274 17.0586 39.0039 18.75 40.272Z" fill="white"/>
<path d="M16.875 0.271973H15.625C12.1732 0.271973 9.375 3.07019 9.375 6.52197V9.02197C9.375 12.4738 12.1732 15.272 15.625 15.272H16.875C20.3268 15.272 23.125 12.4738 23.125 9.02197V6.52197C23.125 3.07019 20.3268 0.271973 16.875 0.271973Z" fill="white"/>
</g>
<defs>
<clipPath id="clip0">
<rect width="40" height="40" fill="white" transform="translate(0 0.271973)"/>
</clipPath>
</defs>
</svg>
