<svg width="40" height="41" viewBox="0 0 40 41" fill="none" xmlns="http://www.w3.org/2000/svg">
<path d="M17.4125 34.2595H6.875C6.54348 34.2595 6.22554 34.1278 5.99112 33.8934C5.7567 33.6589 5.625 33.341 5.625 33.0095C5.625 32.678 5.7567 32.36 5.99112 32.1256C6.22554 31.8912 6.54348 31.7595 6.875 31.7595H16.5625C16.3572 30.8614 16.2524 29.9432 16.25 29.022C16.2551 27.9761 16.3894 26.9349 16.65 25.922H6.875C6.54348 25.922 6.22554 25.7903 5.99112 25.5559C5.7567 25.3214 5.625 25.0035 5.625 24.672C5.625 24.3405 5.7567 24.0225 5.99112 23.7881C6.22554 23.5537 6.54348 23.422 6.875 23.422H17.5875C18.903 20.8207 21.0813 18.7572 23.75 17.5845H6.875C6.54348 17.5845 6.22554 17.4528 5.99112 17.2184C5.7567 16.9839 5.625 16.666 5.625 16.3345C5.625 16.003 5.7567 15.685 5.99112 15.4506C6.22554 15.2162 6.54348 15.0845 6.875 15.0845H24.375C24.5954 15.0876 24.811 15.1489 25.0001 15.2622C25.1891 15.3755 25.3448 15.5368 25.4514 15.7297C25.558 15.9226 25.6117 16.1403 25.6071 16.3607C25.6024 16.581 25.5396 16.7962 25.425 16.9845C26.508 16.684 27.6261 16.5285 28.75 16.522C29.175 16.522 29.5875 16.522 30 16.5845V5.27197C30 4.27741 29.6049 3.32358 28.9017 2.62032C28.1984 1.91706 27.2446 1.52197 26.25 1.52197H5C4.00544 1.52197 3.05161 1.91706 2.34835 2.62032C1.64509 3.32358 1.25 4.27741 1.25 5.27197V35.272C1.25 36.2665 1.64509 37.2204 2.34835 37.9236C3.05161 38.6269 4.00544 39.022 5 39.022H21.25C19.5962 37.7767 18.2776 36.1403 17.4125 34.2595ZM6.875 6.75947H24.375C24.7065 6.75947 25.0245 6.89117 25.2589 7.12559C25.4933 7.36001 25.625 7.67795 25.625 8.00947C25.625 8.34099 25.4933 8.65894 25.2589 8.89336C25.0245 9.12778 24.7065 9.25947 24.375 9.25947H6.875C6.54348 9.25947 6.22554 9.12778 5.99112 8.89336C5.7567 8.65894 5.625 8.34099 5.625 8.00947C5.625 7.67795 5.7567 7.36001 5.99112 7.12559C6.22554 6.89117 6.54348 6.75947 6.875 6.75947Z" fill="#17CA89"/>
<circle cx="28.75" cy="29.022" r="9.5" stroke="#17CA89"/>
<path d="M35.333 27.5173H34.6152C34.4219 27.5173 34.1963 27.3415 34.1201 27.1334C34.0527 26.94 33.9707 26.7496 33.8799 26.562C33.7832 26.3657 33.8184 26.0815 33.9561 25.9437L34.4688 25.4309C34.8262 25.0734 34.8262 24.4903 34.4688 24.1328L33.6396 23.3036C33.4668 23.1307 33.2354 23.034 32.9893 23.034C32.7432 23.034 32.5117 23.1278 32.3389 23.3036L31.8291 23.8164C31.7471 23.8984 31.6094 23.9482 31.4629 23.9482C31.3721 23.9482 31.2842 23.9306 31.2109 23.8926C31.0264 23.8017 30.833 23.7226 30.6396 23.6523C30.4316 23.579 30.2559 23.3505 30.2559 23.1571V22.4391C30.2559 21.9351 29.8428 21.522 29.3359 21.522H28.1641C27.6572 21.522 27.2471 21.9351 27.2471 22.4391V23.1571C27.2471 23.3505 27.0713 23.579 26.8633 23.6523C26.6699 23.7197 26.4766 23.8017 26.292 23.8896C26.2188 23.9248 26.1309 23.9453 26.04 23.9453C25.8936 23.9453 25.7559 23.8955 25.6738 23.8134L25.1641 23.3036C24.9912 23.1307 24.7598 23.034 24.5137 23.034C24.2676 23.034 24.0361 23.1307 23.8633 23.3036L23.0312 24.1358C22.8584 24.3086 22.7617 24.5401 22.7617 24.7863C22.7617 25.0324 22.8584 25.261 23.0312 25.4339L23.5439 25.9467C23.6816 26.0844 23.7168 26.3686 23.623 26.5649C23.5322 26.7525 23.4531 26.943 23.3828 27.1364C23.3096 27.3444 23.0811 27.5202 22.8877 27.5202H22.1699C21.6631 27.5173 21.25 27.9305 21.25 28.4374V29.6095C21.25 30.1164 21.6631 30.5267 22.167 30.5267H22.8848C23.0781 30.5267 23.3066 30.7025 23.3799 30.9105C23.4473 31.1039 23.5293 31.2944 23.6201 31.4819C23.7168 31.6783 23.6787 31.9625 23.541 32.1002L23.0283 32.613C22.6709 32.9705 22.6709 33.5536 23.0283 33.9111L23.8604 34.7433C24.0332 34.9162 24.2646 35.0129 24.5107 35.0129C24.7568 35.0129 24.9854 34.9162 25.1611 34.7433L25.6738 34.2305C25.7559 34.1485 25.8936 34.0986 26.04 34.0986C26.1309 34.0986 26.2188 34.1162 26.292 34.1543C26.4766 34.2452 26.6699 34.3243 26.8633 34.3917C27.0713 34.4649 27.2471 34.6935 27.2471 34.8869V35.6048C27.2471 36.1117 27.6602 36.522 28.1641 36.522H29.3359C29.8428 36.522 30.2559 36.1088 30.2559 35.6048V34.8869C30.2559 34.6935 30.4316 34.4649 30.6396 34.3917C30.833 34.3243 31.0264 34.2422 31.2109 34.1543C31.2812 34.1192 31.3721 34.0986 31.4629 34.0986C31.6094 34.0986 31.7471 34.1485 31.8291 34.2305L32.3389 34.7433C32.5117 34.9162 32.7432 35.0129 32.9893 35.0129C33.2354 35.0129 33.4639 34.9162 33.6396 34.7433L34.4688 33.9111C34.8262 33.5536 34.8262 32.9705 34.4688 32.613L33.959 32.1031C33.8213 31.9654 33.7861 31.6812 33.8828 31.4849C33.9736 31.3003 34.0527 31.1069 34.1201 30.9135C34.1934 30.7054 34.4219 30.5296 34.6152 30.5296H35.333C35.8398 30.5296 36.25 30.1164 36.25 29.6124V28.4374C36.25 27.9305 35.8369 27.5173 35.333 27.5173ZM28.75 31.7163C27.2646 31.7163 26.0576 30.5091 26.0576 29.0234C26.0576 27.5407 27.2646 26.3305 28.75 26.3305C30.2354 26.3305 31.4424 27.5378 31.4424 29.0234C31.4424 30.5061 30.2354 31.7163 28.75 31.7163Z" fill="#17CA89"/>
</svg>
