<svg width="41" height="33" viewBox="0 0 41 33" fill="none" xmlns="http://www.w3.org/2000/svg">
<path d="M20.4923 9.09938C22.8868 9.09938 24.8279 7.15828 24.8279 4.7638C24.8279 2.36933 22.8868 0.428223 20.4923 0.428223C18.0978 0.428223 16.1567 2.36933 16.1567 4.7638C16.1567 7.15828 18.0978 9.09938 20.4923 9.09938Z" fill="white"/>
<path d="M13.06 19.7396V18.9576C13.0604 18.5391 13.167 18.1276 13.3697 17.7614V11.7316C13.3705 11.0748 13.6317 10.445 14.0962 9.98058C14.5606 9.51612 15.1904 9.25486 15.8472 9.25412H17.2035C16.7316 8.90783 16.3168 8.48986 15.9741 8.01538H15.8472C14.8616 8.01538 13.9164 8.40691 13.2194 9.10383C12.5225 9.80076 12.131 10.746 12.131 11.7316V18.5446C12.1315 18.8186 12.223 19.0847 12.3912 19.301C12.5593 19.5173 12.7946 19.6716 13.06 19.7396ZM23.7814 9.25412H25.1377C25.7946 9.25486 26.4243 9.51612 26.8887 9.98058C27.3532 10.445 27.6145 11.0748 27.6152 11.7316V17.7615C27.8179 18.1276 27.9245 18.5391 27.9249 18.9576V19.7396C28.1903 19.6716 28.4256 19.5173 28.5937 19.301C28.7619 19.0847 28.8534 18.8186 28.8539 18.5446V11.7316C28.8539 10.746 28.4624 9.80076 27.7655 9.10383C27.0686 8.40691 26.1233 8.01538 25.1377 8.01538H25.0108C24.6681 8.48986 24.2533 8.90783 23.7814 9.25412ZM26.6861 20.6092V18.9576C26.6861 18.6954 26.603 18.4399 26.4486 18.228C26.2942 18.016 26.0766 17.8585 25.827 17.7781C25.7828 17.6601 25.7347 17.5438 25.6826 17.4292C25.8021 17.1958 25.8446 16.9306 25.8039 16.6716C25.7632 16.4126 25.6414 16.1731 25.456 15.9877L24.2881 14.8198C24.1028 14.6345 23.8634 14.5127 23.6045 14.472C23.3455 14.4313 23.0803 14.4739 22.8471 14.5934C22.7322 14.5413 22.6158 14.4931 22.4978 14.4488C22.4173 14.1992 22.2598 13.9816 22.0479 13.8272C21.8359 13.6729 21.5805 13.5897 21.3183 13.5897H19.6666C19.4044 13.5897 19.149 13.6729 18.937 13.8272C18.7251 13.9816 18.5676 14.1992 18.4871 14.4488C18.3691 14.4931 18.2526 14.5413 18.1379 14.5934C17.9046 14.4738 17.6394 14.4313 17.3805 14.472C17.1215 14.5127 16.8822 14.6345 16.6968 14.8198L15.5289 15.9877C15.3435 16.1731 15.2217 16.4125 15.181 16.6715C15.1403 16.9306 15.1828 17.1958 15.3023 17.4291C15.2503 17.5438 15.2021 17.6601 15.1579 17.7781C14.9083 17.8585 14.6907 18.016 14.5363 18.228C14.3819 18.4399 14.2988 18.6953 14.2988 18.9576V20.6092C14.2988 20.8714 14.3819 21.1269 14.5363 21.3388C14.6907 21.5507 14.9083 21.7083 15.1579 21.7887C15.2021 21.9066 15.2503 22.023 15.3023 22.1376C15.1828 22.371 15.1403 22.6362 15.181 22.8952C15.2217 23.1542 15.3435 23.3936 15.5289 23.579L16.6968 24.7469C16.8823 24.9322 17.1217 25.054 17.3807 25.0947C17.6396 25.1354 17.9049 25.093 18.1382 24.9735C18.2529 25.0256 18.3692 25.0737 18.4872 25.118C18.5676 25.3675 18.7251 25.5852 18.937 25.7395C19.149 25.8939 19.4044 25.9771 19.6666 25.9771H21.3183C21.5805 25.9771 21.8359 25.8939 22.0479 25.7395C22.2598 25.5852 22.4173 25.3675 22.4978 25.118C22.6157 25.0737 22.732 25.0256 22.8467 24.9735C23.0801 25.093 23.3453 25.1354 23.6043 25.0947C23.8632 25.054 24.1027 24.9322 24.2881 24.7469L25.456 23.579C25.6414 23.3936 25.7632 23.1542 25.8039 22.8952C25.8446 22.6362 25.8021 22.371 25.6826 22.1376C25.7347 22.0229 25.7828 21.9066 25.827 21.7887C26.0766 21.7083 26.2942 21.5507 26.4486 21.3388C26.603 21.1269 26.6861 20.8714 26.6861 20.6092ZM25.4474 20.6092H24.8744C24.7611 21.2146 24.5229 21.7898 24.1751 22.2981L24.5801 22.7031L23.4122 23.871L23.0072 23.466C22.4989 23.8139 21.9237 24.052 21.3183 24.1653V24.7383H19.6666V24.1653C19.0612 24.052 18.486 23.8139 17.9777 23.466L17.5727 23.871L16.4048 22.7031L16.8098 22.2981C16.462 21.7898 16.2238 21.2146 16.1106 20.6092H15.5375V18.9576H16.1106C16.2238 18.3521 16.462 17.7769 16.8098 17.2687L16.4048 16.8637L17.5727 15.6958L17.9777 16.1008C18.486 15.7529 19.0612 15.5148 19.6666 15.4015V14.8284H21.3183V15.4015C21.9237 15.5148 22.4989 15.7529 23.0072 16.1008L23.4122 15.6958L24.5801 16.8637L24.1751 17.2687C24.5229 17.7769 24.7611 18.3521 24.8743 18.9576H25.4474V20.6092Z" fill="white"/>
<path d="M39.8618 30.4412L36.1085 27.3443C36.0611 27.3062 36.011 27.2717 35.9585 27.241C35.969 27.1816 35.975 27.1214 35.9766 27.0611V11.5769C35.9766 11.2483 35.8461 10.9333 35.6138 10.701C35.3815 10.4686 35.0664 10.3381 34.7379 10.3381H29.8923C30.0253 10.7907 30.0928 11.26 30.0926 11.7317V18.5448C30.092 19.0932 29.9093 19.6259 29.5731 20.0593C29.2369 20.4926 28.7664 20.802 28.2353 20.9389C28.1339 20.9651 28.0296 20.9784 27.9248 20.9784C27.9147 20.9784 27.9047 20.9762 27.8946 20.9759C27.8082 21.5697 27.5083 22.1116 27.051 22.5001C27.0807 22.8587 27.0318 23.2195 26.9075 23.5572C26.7833 23.8949 26.5867 24.2014 26.3316 24.4552L25.164 25.6231C24.9344 25.8538 24.6614 26.0367 24.3607 26.1613C24.06 26.2858 23.7376 26.3495 23.4122 26.3486C23.3449 26.3486 23.2777 26.3458 23.2106 26.3403C22.9781 26.6153 22.6882 26.8362 22.3613 26.9875C22.0344 27.1387 21.6784 27.2167 21.3182 27.2159H19.6666C19.3065 27.2167 18.9505 27.1387 18.6236 26.9875C18.2967 26.8362 18.0069 26.6153 17.7744 26.3403C17.7074 26.3459 17.6399 26.3486 17.5726 26.3486C17.2472 26.3495 16.9248 26.2858 16.6241 26.1613C16.3234 26.0367 16.0504 25.8538 15.8208 25.6231L14.6529 24.4551C14.3979 24.2012 14.2014 23.8947 14.0772 23.5571C13.953 23.2194 13.9041 22.8586 13.9338 22.5001C13.4765 22.1116 13.1766 21.5697 13.0902 20.9759C13.0801 20.9762 13.0701 20.9784 13.06 20.9784C12.9552 20.9784 12.8509 20.9651 12.7495 20.9389C12.2185 20.802 11.7479 20.4926 11.4117 20.0593C11.0755 19.6259 10.8928 19.0932 10.8922 18.5448V11.7317C10.892 11.26 10.9595 10.7907 11.0925 10.3381H6.24692C5.91839 10.3381 5.60331 10.4686 5.371 10.701C5.1387 10.9333 5.00819 11.2483 5.00819 11.5769V27.0611C5.0098 27.1214 5.01585 27.1816 5.02631 27.241C4.97386 27.2717 4.92374 27.3063 4.87637 27.3443L1.12299 30.4412C0.92623 30.6035 0.784385 30.8226 0.716832 31.0686C0.64928 31.3146 0.659315 31.5755 0.745567 31.8155C0.831818 32.0556 0.990079 32.2632 1.19873 32.4099C1.40738 32.5567 1.65625 32.6354 1.91134 32.6354H39.0735C39.3286 32.6354 39.5774 32.5567 39.7861 32.4099C39.9947 32.2632 40.153 32.0556 40.2393 31.8155C40.3255 31.5755 40.3356 31.3146 40.268 31.0686C40.2004 30.8226 40.0586 30.6035 39.8618 30.4412ZM1.91134 31.3967L5.66472 28.2998H35.3201L39.0735 31.3967H1.91134Z" fill="white"/>
<path d="M20.4924 16.6868C19.8799 16.6868 19.2811 16.8684 18.7718 17.2087C18.2626 17.549 17.8656 18.0326 17.6312 18.5985C17.3968 19.1644 17.3355 19.787 17.455 20.3878C17.5745 20.9885 17.8695 21.5403 18.3026 21.9734C18.7357 22.4065 19.2875 22.7015 19.8882 22.821C20.4889 22.9404 21.1116 22.8791 21.6775 22.6447C22.2433 22.4103 22.727 22.0134 23.0673 21.5041C23.4076 20.9949 23.5892 20.3961 23.5892 19.7836C23.5883 18.9626 23.2617 18.1754 22.6811 17.5948C22.1006 17.0143 21.3134 16.6877 20.4924 16.6868Z" fill="white"/>
</svg>
