<svg width="17" height="17" viewBox="0 0 17 17" fill="none" xmlns="http://www.w3.org/2000/svg">
<path fill-rule="evenodd" clip-rule="evenodd" d="M8.47465 1.87231C4.80132 1.87231 1.80798 4.86565 1.80798 8.53898C1.80798 12.2123 4.80132 15.2056 8.47465 15.2056C12.148 15.2056 15.1413 12.2123 15.1413 8.53898C15.1413 4.86565 12.148 1.87231 8.47465 1.87231ZM8.47463 5.20563C8.10797 5.20563 7.80797 5.50563 7.80797 5.8723V7.8723H5.80797C5.4413 7.8723 5.1413 8.1723 5.1413 8.53896C5.1413 8.90563 5.4413 9.20563 5.80797 9.20563H7.80797V11.2056C7.80797 11.5723 8.10797 11.8723 8.47463 11.8723C8.8413 11.8723 9.1413 11.5723 9.1413 11.2056V9.20563H11.1413C11.508 9.20563 11.808 8.90563 11.808 8.53896C11.808 8.1723 11.508 7.8723 11.1413 7.8723H9.1413V5.8723C9.1413 5.50563 8.8413 5.20563 8.47463 5.20563ZM3.1413 8.53896C3.1413 11.479 5.53463 13.8723 8.47463 13.8723C11.4146 13.8723 13.808 11.479 13.808 8.53896C13.808 5.59896 11.4146 3.20563 8.47463 3.20563C5.53463 3.20563 3.1413 5.59896 3.1413 8.53896Z" fill="white"/>
</svg>
