<svg width="33" height="33" viewBox="0 0 33 33" fill="none" xmlns="http://www.w3.org/2000/svg">
<circle cx="16.8423" cy="16.8984" r="16" fill="#E3E8F0"/>
<path d="M15.2423 19.2984H12.8423C11.4823 19.2984 10.4423 18.2584 10.4423 16.8984C10.4423 15.5384 11.4823 14.4984 12.8423 14.4984H15.2423C15.7223 14.4984 16.0423 14.1784 16.0423 13.6984C16.0423 13.2184 15.7223 12.8984 15.2423 12.8984H12.8423C10.6023 12.8984 8.84229 14.6584 8.84229 16.8984C8.84229 19.1384 10.6023 20.8984 12.8423 20.8984H15.2423C15.7223 20.8984 16.0423 20.5784 16.0423 20.0984C16.0423 19.6184 15.7223 19.2984 15.2423 19.2984ZM20.8423 12.8984H18.4423C17.9623 12.8984 17.6423 13.2184 17.6423 13.6984C17.6423 14.1784 17.9623 14.4984 18.4423 14.4984H20.8423C22.2023 14.4984 23.2423 15.5384 23.2423 16.8984C23.2423 18.2584 22.2023 19.2984 20.8423 19.2984H18.4423C17.9623 19.2984 17.6423 19.6184 17.6423 20.0984C17.6423 20.5784 17.9623 20.8984 18.4423 20.8984H20.8423C23.0823 20.8984 24.8423 19.1384 24.8423 16.8984C24.8423 14.6584 23.0823 12.8984 20.8423 12.8984ZM13.6423 16.8984C13.6423 17.3784 13.9623 17.6984 14.4423 17.6984H19.2423C19.7223 17.6984 20.0423 17.3784 20.0423 16.8984C20.0423 16.4184 19.7223 16.0984 19.2423 16.0984H14.4423C13.9623 16.0984 13.6423 16.4184 13.6423 16.8984Z" fill="#93A9C7"/>
</svg>
