<svg width="33" height="33" viewBox="0 0 33 33" fill="none" xmlns="http://www.w3.org/2000/svg">
<circle cx="16.1426" cy="16.8984" r="16" fill="#E3E8F0"/>
<path d="M16.1426 8.89844C11.7313 8.89844 8.14258 12.4871 8.14258 16.8984C8.14258 21.3097 11.7313 24.8984 16.1426 24.8984C20.5539 24.8984 24.1426 21.3097 24.1426 16.8984C24.1426 12.4871 20.5539 8.89844 16.1426 8.89844ZM16.1426 23.35C12.5851 23.35 9.69097 20.4559 9.69097 16.8984C9.69097 13.341 12.5851 10.4468 16.1426 10.4468C19.7 10.4468 22.5942 13.341 22.5942 16.8984C22.5942 20.4559 19.7 23.35 16.1426 23.35Z" fill="#93A9C7"/>
<path d="M18.5115 18.6123C17.8754 19.2479 17.0337 19.5982 16.1425 19.5982C15.2514 19.5982 14.4097 19.2479 13.7736 18.6123C13.4712 18.3099 12.9802 18.3099 12.6788 18.6123C12.3764 18.9147 12.3764 19.4051 12.6788 19.7071C13.6078 20.6355 14.8376 21.1466 16.1425 21.1466C17.4475 21.1466 18.6773 20.6355 19.6062 19.7071C19.9087 19.4051 19.9087 18.9147 19.6062 18.6123C19.3048 18.3099 18.8139 18.3099 18.5115 18.6123ZM14.2116 14.5328C14.2116 13.9203 13.7151 13.4238 13.1026 13.4238C12.4902 13.4238 11.9937 13.9203 11.9937 14.5328C11.9937 15.1453 12.4902 15.6418 13.1026 15.6418C13.7151 15.6418 14.2116 15.1453 14.2116 14.5328ZM19.1824 13.4238C18.57 13.4238 18.0735 13.9203 18.0735 14.5328C18.0735 15.1453 18.57 15.6418 19.1824 15.6418C19.7949 15.6418 20.2914 15.1453 20.2914 14.5328C20.2914 13.9203 19.7949 13.4238 19.1824 13.4238Z" fill="#93A9C7"/>
</svg>
