<svg width="41" height="41" viewBox="0 0 41 41" fill="none" xmlns="http://www.w3.org/2000/svg">
<path d="M20.168 40.0145C31.2137 40.0145 40.168 31.0602 40.168 20.0146C40.168 8.96892 31.2137 0.0146484 20.168 0.0146484C9.12227 0.0146484 0.167969 8.96892 0.167969 20.0146C0.167969 31.0602 9.12227 40.0145 20.168 40.0145Z" fill="#E9573E"/>
<path fill-rule="evenodd" clip-rule="evenodd" d="M15.2198 25.05L25.5157 25.1465V27.4876L30.0477 29.6488L19.8943 39.1756L11.1816 29.2468L15.2198 27.5277V25.05Z" fill="#F9DCA4"/>
<path fill-rule="evenodd" clip-rule="evenodd" d="M34.7822 33.667C32.9134 35.6726 30.6512 37.2713 28.1368 38.3635C25.6224 39.4556 22.9099 40.0177 20.1686 40.0146C19.3384 40.0145 18.509 39.9633 17.6851 39.8612C15.1583 39.4991 12.7136 38.701 10.4598 37.5026C8.55775 36.4439 6.84042 35.0832 5.375 33.4735L6.20542 31.467L13.5375 28.1958C14.1038 31.1317 16.2786 35.6618 20.1239 38.2295C21.9224 37.1433 23.4832 35.7053 24.7129 34.0017C25.9427 32.2981 26.816 30.3639 27.2806 28.3149L33.7939 31.4884L34.7822 33.667Z" fill="#677079"/>
<path opacity="0.11" fill-rule="evenodd" clip-rule="evenodd" d="M25.922 27.6814C26.3932 27.906 27.199 28.282 27.2773 28.328C25.9634 32.4497 17.1025 33.9591 14.4902 27.8387L25.922 27.6814Z" fill="black"/>
<path fill-rule="evenodd" clip-rule="evenodd" d="M20.3178 5.47241C34.0919 5.47241 28.7236 28.2983 20.3178 28.2983C12.3786 28.2983 6.54363 5.47241 20.3178 5.47241Z" fill="#FFE8BE"/>
<path fill-rule="evenodd" clip-rule="evenodd" d="M12.0547 15.5776C10.0676 16.445 11.7569 20.553 13.0074 20.5343C12.4888 18.9271 12.1688 17.2625 12.0547 15.5776Z" fill="#F9DCA4"/>
<path fill-rule="evenodd" clip-rule="evenodd" d="M28.7373 15.5776C30.7243 16.4443 29.035 20.553 27.7852 20.5343C28.3034 18.9271 28.6232 17.2625 28.7373 15.5776Z" fill="#F9DCA4"/>
<path fill-rule="evenodd" clip-rule="evenodd" d="M15.311 10.0062C14.9278 11.7978 15.0624 13.579 13.364 13.9078C12.9602 13.9855 12.6928 14.5324 12.6055 15.0146C12.4085 16.0665 12.326 17.1366 12.3595 18.2062C12.4268 18.5745 12.1032 17.4994 12.1032 17.4994L12.0482 15.445C12.0482 15.445 12.0242 15.0515 12.0333 14.4515C12.0527 13.2347 12.1912 11.2619 12.8074 10.6586C13.7272 9.75895 15.311 10.0062 15.311 10.0062Z" fill="#AD835F"/>
<path fill-rule="evenodd" clip-rule="evenodd" d="M25.4727 10.0062C25.8558 11.7978 25.7218 13.579 27.4196 13.9078C27.8235 13.9855 28.0914 14.5324 28.1782 15.0146C28.367 16.0708 28.4347 17.145 28.3801 18.2166C28.3121 18.5855 28.6358 17.5098 28.6358 17.5098L28.7432 15.4528C28.7432 15.4528 28.7594 15.0515 28.7497 14.4515C28.7316 13.2347 28.5931 11.2619 27.9762 10.6586C27.0565 9.75895 25.4727 10.0062 25.4727 10.0062Z" fill="#AD835F"/>
<path fill-rule="evenodd" clip-rule="evenodd" d="M16.5867 30.0971C15.6094 29.154 14.8275 28.4226 14.1181 27.6906C13.2087 26.7514 12.9006 25.7993 12.7239 24.132C12.3229 21.2509 12.0974 18.348 12.0488 15.4395C12.0488 15.4395 12.7181 19.5385 13.966 21.5592C14.6068 22.5967 17.2281 20.1579 18.2734 19.787C18.6289 19.6226 19.0294 19.5831 19.4101 19.675C19.7908 19.7668 20.1293 19.9847 20.3705 20.2932C20.6074 19.9842 20.9428 19.7655 21.3211 19.6735C21.6994 19.5814 22.0978 19.6215 22.4502 19.787C23.4961 20.1579 26.0812 22.2414 26.7583 21.5592C28.3861 19.9178 28.7369 15.4453 28.7369 15.4453C28.6689 18.3863 28.4249 21.3205 28.0062 24.2323C27.7712 26.0097 27.6521 26.6983 27.0443 27.3935C26.1523 28.3954 25.1613 29.3047 24.0864 30.1074C23.5505 30.532 22.6191 30.9307 20.2463 30.9165C18.0417 30.9035 17.1375 30.6278 16.5867 30.0964V30.0971Z" fill="#60350A"/>
<path fill-rule="evenodd" clip-rule="evenodd" d="M25.8012 10.3687C26.1444 10.3022 26.4998 10.3428 26.8193 10.4848C27.1388 10.6268 27.4069 10.8635 27.5876 11.1628C28.5947 12.8541 28.6782 13.0722 28.6782 13.0722C28.6782 13.0722 28.5591 10.047 28.4873 9.68712C28.5739 9.60738 28.6882 9.56464 28.8058 9.56803C28.9235 9.57142 29.0352 9.62066 29.117 9.70524C29.1882 9.84893 28.8297 6.66317 26.9585 6.05217C26.2743 4.10912 23.8814 2.66964 23.8814 2.66964L23.7733 3.74925C23.5324 3.01633 23.0805 2.37081 22.4743 1.89357C21.8681 1.41633 21.1346 1.12859 20.3656 1.06641C20.7973 1.55249 20.6937 1.90783 20.6937 1.90783C20.0203 1.6257 19.2956 1.48641 18.5655 1.49877C18.6562 2.07417 17.9901 2.68647 17.9901 2.68647C17.9901 2.68647 17.5766 2.05605 15.939 1.84052C15.651 2.88388 15.1105 3.06382 14.5895 3.5499C14.1517 3.99821 13.749 4.47945 13.385 4.98938C13.385 4.98938 13.4387 3.98162 13.7985 3.69359C13.9338 3.60427 10.7461 4.86058 12.3409 9.54213C12.0552 9.5352 11.7755 9.62483 11.5471 9.79655C11.3186 9.96827 11.1548 10.212 11.082 10.4884C11.9817 10.7402 11.6095 12.1001 12.1131 12.9816C12.4671 11.959 12.7015 9.96673 14.9144 10.4884C16.4989 10.8619 18.0199 11.6625 19.8465 11.7266C22.4271 11.8166 23.407 10.4619 25.8012 10.3687Z" fill="#60350A"/>
<path fill-rule="evenodd" clip-rule="evenodd" d="M21.1493 24.9947C21.4015 25.037 21.6598 25.0249 21.9069 24.9592C22.1541 24.8936 22.3843 24.7759 22.5823 24.6141C23.0483 24.0769 23.4283 23.3138 22.7215 22.9034C22.0315 22.4135 21.2388 22.0876 20.4037 21.9507C19.5636 22.0853 18.7656 22.4108 18.071 22.9021C17.2037 23.4038 17.7344 24.0769 18.2011 24.6141C18.3991 24.7759 18.6293 24.8936 18.8765 24.9592C19.1236 25.0249 19.3819 25.037 19.6341 24.9947C19.1092 23.1669 21.6749 23.1669 21.1493 24.9947Z" fill="#FFE8BE"/>
</svg>
