<svg width="21" height="21" viewBox="0 0 21 21" fill="none" xmlns="http://www.w3.org/2000/svg">
<path fill-rule="evenodd" clip-rule="evenodd" d="M10.4745 7.20565C11.3912 7.20565 12.1412 6.45565 12.1412 5.53898C12.1412 4.62231 11.3912 3.87231 10.4745 3.87231C9.55786 3.87231 8.80786 4.62231 8.80786 5.53898C8.80786 6.45565 9.55786 7.20565 10.4745 7.20565ZM10.4745 8.87231C9.55786 8.87231 8.80786 9.62231 8.80786 10.539C8.80786 11.4556 9.55786 12.2056 10.4745 12.2056C11.3912 12.2056 12.1412 11.4556 12.1412 10.539C12.1412 9.62231 11.3912 8.87231 10.4745 8.87231ZM8.80786 15.539C8.80786 14.6223 9.55786 13.8723 10.4745 13.8723C11.3912 13.8723 12.1412 14.6223 12.1412 15.539C12.1412 16.4556 11.3912 17.2056 10.4745 17.2056C9.55786 17.2056 8.80786 16.4556 8.80786 15.539Z" fill="#C6D1E6"/>
</svg>
