<svg width="12" height="8" viewBox="0 0 12 8" fill="none" xmlns="http://www.w3.org/2000/svg">
<path d="M0.806329 3.32989H9.58633L7.66633 1.40989C7.40633 1.14989 7.40633 0.729893 7.66633 0.469893C7.79088 0.345058 7.95998 0.274902 8.13633 0.274902C8.31267 0.274902 8.48177 0.345058 8.60633 0.469893L11.6663 3.52989C11.9263 3.78989 11.9263 4.20989 11.6663 4.46989L8.60633 7.52989C8.34633 7.78989 7.92633 7.78989 7.66633 7.52989C7.40633 7.26989 7.40633 6.84989 7.66633 6.58989L9.58633 4.66323H0.806329C0.439662 4.66323 0.139662 4.36323 0.139662 3.99656C0.139662 3.62989 0.439662 3.32989 0.806329 3.32989Z" fill="white"/>
</svg>
