<svg width="16" height="16" viewBox="0 0 16 16" fill="none" xmlns="http://www.w3.org/2000/svg">
<path d="M2.83333 2C2.3788 2 2 2.3788 2 2.83333V3.86328C2 4.62883 2.35183 5.35295 2.95312 5.82682L6.33333 8.49023V13.5C6.33333 13.6873 6.43783 13.8587 6.60417 13.9447C6.6765 13.9817 6.75533 14 6.83333 14C6.93567 14 7.03703 13.9686 7.1237 13.9069L7.66602 13.5195C7.73435 13.2765 7.81671 12.8166 7.91471 12.474C7.97538 12.264 8.07821 12.0688 8.21354 11.8991L7.33333 12.5286V8.66667H8.66667V10.5V11.5762V11.6029L9.66667 10.6029V8.48958L13.0469 5.82682C13.6482 5.35295 14 4.62883 14 3.86328V2.83333C14 2.3788 13.6212 2 13.1667 2H2.83333ZM3 3H13V3.86328C13 4.32306 12.7898 4.75623 12.4284 5.04102L9.0957 7.66667H6.9043L3.57161 5.04102C3.21025 4.75623 3 4.32306 3 3.86328V3ZM13.8327 8C13.7413 8.00033 13.649 8.00839 13.556 8.02539C13.2613 8.07839 12.9799 8.23205 12.7422 8.47005L8.80925 12.403C8.69025 12.522 8.60266 12.6704 8.55599 12.8314L8.03255 14.6582C8.00855 14.7215 7.99767 14.7885 8 14.8555C8.00433 14.9765 8.05186 15.0961 8.14453 15.1888C8.23686 15.2811 8.3559 15.3287 8.47656 15.3333C8.54356 15.3357 8.61146 15.3251 8.67513 15.3008L10.502 14.7773C10.663 14.7307 10.8104 14.6434 10.9297 14.5241L14.8633 10.5911C15.1013 10.3535 15.2549 10.072 15.3079 9.77734C15.3246 9.68434 15.3323 9.59198 15.3327 9.50065C15.3337 9.10265 15.1802 8.72644 14.8932 8.4401C14.6069 8.15344 14.2307 7.99933 13.8327 8Z" fill="#5F6FFF"/>
</svg>
