<svg width="40" height="40" viewBox="0 0 40 40" fill="none" xmlns="http://www.w3.org/2000/svg">
<path d="M11.6667 5L14.6549 7.98828L5 17.6432L7.35677 20L17.0117 10.3451L20 13.3333V5H11.6667ZM28.3333 5V6.9987C26.6667 7.4987 25 9 25 11.6667C25 14.8333 27.666 15.834 29.3327 16.5007C31.3327 17.334 31.6667 17.5 31.6667 18.3333C31.6667 19.1667 31.3333 20 30 20C28.6667 20 28.3333 19.1667 28.3333 18.3333H25C25 20 26 22.3346 28.3333 23.0013V25H31.6667V23.0013C34 22.3346 35 20 35 18.3333C35 15.1667 32.334 14.166 30.6673 13.4993C28.6673 12.666 28.3333 12.5 28.3333 11.6667C28.3333 10.3333 29.1667 10 30 10C31.3333 10 31.6667 10.8333 31.6667 11.6667H33.3333H35C35 10 34 7.66536 31.6667 6.9987V5H28.3333ZM18.3333 21.6667V35H21.6667V21.6667H18.3333ZM11.6667 25V35H15V25H11.6667ZM5 28.3333V35H8.33333V28.3333H5ZM25 28.3333V35H28.3333V28.3333H25ZM31.6667 28.3333V35H35V28.3333H31.6667Z" fill="white"/>
</svg>
