<svg width="32" height="32" viewBox="0 0 32 32" fill="none" xmlns="http://www.w3.org/2000/svg">
<path d="M31.6004 30L28.1004 9C27.9754 8.275 27.3504 7.75 26.6254 7.75H9.75039H4.75039C4.37539 7.75 4.07539 8.025 4.00039 8.375L0.425391 29.85C0.350391 30.325 0.475391 30.8 0.800391 31.175C1.12539 31.55 1.57539 31.75 2.05039 31.75C2.30039 31.75 2.55039 31.7 2.77539 31.575L5.35039 30.275C5.72539 30.1 6.10039 29.975 6.50039 29.9L7.25039 27.325L8.00039 29.9C8.40039 29.975 8.77539 30.1 9.15039 30.275L11.7254 31.575C11.9504 31.7 12.2004 31.75 12.4504 31.75C12.6754 31.75 30.1004 31.75 30.1004 31.75C30.5504 31.75 30.9504 31.55 31.2504 31.225C31.5504 30.875 31.6754 30.45 31.6004 30ZM14.1254 30.25L10.6254 9.25H26.6004L30.1004 30.25H14.1254Z" fill="white"/>
<path d="M7.25 14C6.825 14 6.5 14.325 6.5 14.75V29.925C7 29.825 7.5 29.825 8 29.925V14.75C8 14.325 7.675 14 7.25 14Z" fill="white"/>
<path d="M23.5 6.75C23.075 6.75 22.75 6.425 22.75 6C22.75 3.65 20.85 1.75 18.5 1.75C16.15 1.75 14.25 3.65 14.25 6C14.25 6.425 13.925 6.75 13.5 6.75C13.075 6.75 12.75 6.425 12.75 6C12.75 2.825 15.325 0.25 18.5 0.25C21.675 0.25 24.25 2.825 24.25 6C24.25 6.425 23.925 6.75 23.5 6.75Z" fill="white"/>
<path d="M18.5012 6.74996C18.0762 6.74996 17.7512 6.42496 17.7512 5.99996C17.7512 5.42496 17.6262 4.84996 17.4012 4.32496C17.2512 3.94996 17.4262 3.49996 17.8012 3.34996C18.1762 3.19996 18.6262 3.37496 18.7762 3.74996C19.0762 4.47496 19.2262 5.22496 19.2262 5.99996C19.2512 6.42496 18.9262 6.74996 18.5012 6.74996Z" fill="white"/>
<path d="M8.5 6.7499C8.075 6.7499 7.75 6.4249 7.75 5.9999C7.75 3.4499 9.45 1.1749 11.9 0.474899C12.3 0.349899 12.725 0.599899 12.825 0.974899C12.95 1.3749 12.7 1.7999 12.325 1.8999C10.5 2.4499 9.25 4.1249 9.25 5.9999C9.25 6.4249 8.925 6.7499 8.5 6.7499Z" fill="white"/>
<path d="M16.75 19C15.375 19 14.25 17.875 14.25 16.5C14.25 15.125 15.375 14 16.75 14C18.125 14 19.25 15.125 19.25 16.5C19.25 17.875 18.125 19 16.75 19ZM16.75 15.5C16.2 15.5 15.75 15.95 15.75 16.5C15.75 17.05 16.2 17.5 16.75 17.5C17.3 17.5 17.75 17.05 17.75 16.5C17.75 15.95 17.3 15.5 16.75 15.5Z" fill="white"/>
<path d="M24.25 25.5C22.875 25.5 21.75 24.375 21.75 23C21.75 21.625 22.875 20.5 24.25 20.5C25.625 20.5 26.75 21.625 26.75 23C26.75 24.375 25.625 25.5 24.25 25.5ZM24.25 22C23.7 22 23.25 22.45 23.25 23C23.25 23.55 23.7 24 24.25 24C24.8 24 25.25 23.55 25.25 23C25.25 22.45 24.8 22 24.25 22Z" fill="white"/>
<path d="M16.1244 25.2999C15.9494 25.2999 15.7744 25.2249 15.6244 25.0999C15.3244 24.8249 15.2994 24.3499 15.5744 24.0499L24.3244 14.4749C24.5994 14.1749 25.0744 14.1499 25.3744 14.4249C25.6744 14.6999 25.6994 15.1749 25.4244 15.4749L16.6744 25.0499C16.5244 25.1999 16.3244 25.2999 16.1244 25.2999Z" fill="white"/>
</svg>
