<svg width="18" height="18" viewBox="0 0 18 18" fill="none" xmlns="http://www.w3.org/2000/svg">
<path fill-rule="evenodd" clip-rule="evenodd" d="M15.2523 8.99984C15.2523 9.28317 15.2273 9.54984 15.194 9.8165L16.9523 11.1915C17.1106 11.3165 17.1523 11.5415 17.0523 11.7248L15.3856 14.6082C15.2856 14.7915 15.069 14.8665 14.8773 14.7915L12.8023 13.9582C12.369 14.2832 11.9023 14.5665 11.394 14.7748L11.0773 16.9832C11.0523 17.1832 10.8773 17.3332 10.669 17.3332H7.33564C7.12731 17.3332 6.95231 17.1832 6.92731 16.9832L6.61064 14.7748C6.10231 14.5665 5.63564 14.2915 5.20231 13.9582L3.12731 14.7915C2.94397 14.8582 2.71897 14.7915 2.61897 14.6082L0.952308 11.7248C0.852308 11.5415 0.893974 11.3165 1.05231 11.1915L2.81064 9.8165C2.77731 9.54984 2.75231 9.27484 2.75231 8.99984C2.75231 8.72484 2.77731 8.44984 2.81064 8.18317L1.05231 6.80817C0.893974 6.68317 0.843974 6.45817 0.952308 6.27484L2.61897 3.3915C2.71897 3.20817 2.93564 3.13317 3.12731 3.20817L5.20231 4.0415C5.63564 3.7165 6.10231 3.43317 6.61064 3.22484L6.92731 1.0165C6.95231 0.816504 7.12731 0.666504 7.33564 0.666504H10.669C10.8773 0.666504 11.0523 0.816504 11.0773 1.0165L11.394 3.22484C11.9023 3.43317 12.369 3.70817 12.8023 4.0415L14.8773 3.20817C15.0606 3.1415 15.2856 3.20817 15.3856 3.3915L17.0523 6.27484C17.1523 6.45817 17.1106 6.68317 16.9523 6.80817L15.194 8.18317C15.2273 8.44984 15.2523 8.7165 15.2523 8.99984ZM6.08578 8.99984C6.08578 10.6082 7.39411 11.9165 9.00244 11.9165C10.6108 11.9165 11.9191 10.6082 11.9191 8.99984C11.9191 7.3915 10.6108 6.08317 9.00244 6.08317C7.39411 6.08317 6.08578 7.3915 6.08578 8.99984Z" fill="black" fill-opacity="0.54"/>
</svg>
