<svg width="32" height="32" viewBox="0 0 32 32" fill="none" xmlns="http://www.w3.org/2000/svg">
<path d="M14.3184 3.98541C14.2699 3.98667 14.2216 3.99146 14.1738 3.99973H7.00065C4.98747 3.99973 3.33398 5.65322 3.33398 7.6664V24.3331C3.33398 26.3462 4.98747 27.9997 7.00065 27.9997H14.1699C14.2773 28.0174 14.3868 28.0174 14.4941 27.9997H25.0007C27.0138 27.9997 28.6673 26.3462 28.6673 24.3331V7.6664C28.6673 5.65322 27.0138 3.99973 25.0007 3.99973H14.498C14.4387 3.98956 14.3786 3.98476 14.3184 3.98541ZM7.00065 5.99973H13.334V15.82C13.3158 15.9291 13.3158 16.0404 13.334 16.1495V25.9997H7.00065C6.0685 25.9997 5.33398 25.2652 5.33398 24.3331V7.6664C5.33398 6.73425 6.0685 5.99973 7.00065 5.99973ZM15.334 5.99973H25.0007C25.9328 5.99973 26.6673 6.73425 26.6673 7.6664V24.3331C26.6673 25.2652 25.9328 25.9997 25.0007 25.9997H15.334V16.9893L19.2559 16.9971L17.9603 18.2927C17.8643 18.3848 17.7877 18.4952 17.7349 18.6173C17.6821 18.7395 17.6542 18.8709 17.6529 19.0039C17.6515 19.137 17.6767 19.269 17.727 19.3921C17.7773 19.5153 17.8517 19.6272 17.9458 19.7213C18.0398 19.8154 18.1517 19.8897 18.2749 19.94C18.3981 19.9903 18.5301 20.0155 18.6631 20.0142C18.7961 20.0128 18.9276 19.9849 19.0497 19.9321C19.1718 19.8794 19.2822 19.8027 19.3743 19.7068L22.3743 16.7068C22.5618 16.5192 22.6671 16.2649 22.6671 15.9997C22.6671 15.7346 22.5618 15.4802 22.3743 15.2927L19.3743 12.2927C19.2811 12.1967 19.1696 12.1204 19.0464 12.0683C18.9231 12.0162 18.7907 11.9893 18.6569 11.9893C18.4579 11.9894 18.2634 12.0488 18.0984 12.16C17.9333 12.2712 17.8052 12.4291 17.7304 12.6135C17.6556 12.7979 17.6375 13.0005 17.6785 13.1952C17.7194 13.39 17.8175 13.5681 17.9603 13.7068L19.2507 14.9971L15.334 14.9893V5.99973ZM7.66732 7.99973C7.53481 7.99786 7.40324 8.02234 7.28027 8.07175C7.15731 8.12117 7.04538 8.19453 6.95102 8.28757C6.85665 8.38062 6.78171 8.49149 6.73056 8.61375C6.67941 8.736 6.65308 8.86721 6.65308 8.99973C6.65308 9.13226 6.67941 9.26346 6.73056 9.38572C6.78171 9.50797 6.85665 9.61885 6.95102 9.71189C7.04538 9.80494 7.15731 9.8783 7.28027 9.92771C7.40324 9.97712 7.53481 10.0016 7.66732 9.99973H11.0007C11.1332 10.0016 11.2647 9.97712 11.3877 9.92771C11.5107 9.8783 11.6226 9.80494 11.717 9.71189C11.8113 9.61885 11.8863 9.50797 11.9374 9.38572C11.9886 9.26346 12.0149 9.13226 12.0149 8.99973C12.0149 8.86721 11.9886 8.736 11.9374 8.61375C11.8863 8.49149 11.8113 8.38062 11.717 8.28757C11.6226 8.19453 11.5107 8.12117 11.3877 8.07175C11.2647 8.02234 11.1332 7.99786 11.0007 7.99973H7.66732ZM7.66732 11.3331C7.53481 11.3312 7.40324 11.3557 7.28027 11.4051C7.15731 11.4545 7.04538 11.5279 6.95102 11.6209C6.85665 11.7139 6.78171 11.8248 6.73056 11.9471C6.67941 12.0693 6.65308 12.2005 6.65308 12.3331C6.65308 12.4656 6.67941 12.5968 6.73056 12.7191C6.78171 12.8413 6.85665 12.9522 6.95102 13.0452C7.04538 13.1383 7.15731 13.2116 7.28027 13.261C7.40324 13.3105 7.53481 13.3349 7.66732 13.3331H11.0007C11.1332 13.3349 11.2647 13.3105 11.3877 13.261C11.5107 13.2116 11.6226 13.1383 11.717 13.0452C11.8113 12.9522 11.8863 12.8413 11.9374 12.7191C11.9886 12.5968 12.0149 12.4656 12.0149 12.3331C12.0149 12.2005 11.9886 12.0693 11.9374 11.9471C11.8863 11.8248 11.8113 11.7139 11.717 11.6209C11.6226 11.5279 11.5107 11.4545 11.3877 11.4051C11.2647 11.3557 11.1332 11.3312 11.0007 11.3331H7.66732ZM7.66732 14.6664C7.53481 14.6645 7.40324 14.689 7.28027 14.7384C7.15731 14.7878 7.04538 14.8612 6.95102 14.9542C6.85665 15.0473 6.78171 15.1582 6.73056 15.2804C6.67941 15.4027 6.65308 15.5339 6.65308 15.6664C6.65308 15.7989 6.67941 15.9301 6.73056 16.0524C6.78171 16.1746 6.85665 16.2855 6.95102 16.3786C7.04538 16.4716 7.15731 16.545 7.28027 16.5944C7.40324 16.6438 7.53481 16.6683 7.66732 16.6664H11.0007C11.1332 16.6683 11.2647 16.6438 11.3877 16.5944C11.5107 16.545 11.6226 16.4716 11.717 16.3786C11.8113 16.2855 11.8863 16.1746 11.9374 16.0524C11.9886 15.9301 12.0149 15.7989 12.0149 15.6664C12.0149 15.5339 11.9886 15.4027 11.9374 15.2804C11.8863 15.1582 11.8113 15.0473 11.717 14.9542C11.6226 14.8612 11.5107 14.7878 11.3877 14.7384C11.2647 14.689 11.1332 14.6645 11.0007 14.6664H7.66732Z" fill="white"/>
</svg>
