<svg width="40" height="40" viewBox="0 0 40 40" fill="none" xmlns="http://www.w3.org/2000/svg">
<path d="M19.9752 1.64398C19.5335 1.65045 19.1124 1.83203 18.8045 2.14882C18.4965 2.4656 18.3269 2.89168 18.333 3.33343V5.94085C11.8585 6.70626 6.70581 11.8589 5.9404 18.3334H3.33298C3.11213 18.3303 2.89286 18.3711 2.68791 18.4535C2.48296 18.5358 2.29643 18.6581 2.13915 18.8132C1.98186 18.9682 1.85697 19.153 1.77172 19.3568C1.68648 19.5605 1.64258 19.7792 1.64258 20.0001C1.64258 20.221 1.68648 20.4396 1.77172 20.6434C1.85697 20.8472 1.98186 21.032 2.13915 21.187C2.29643 21.3421 2.48296 21.4644 2.68791 21.5467C2.89286 21.6291 3.11213 21.6699 3.33298 21.6668H5.9404C6.70581 28.1413 11.8585 33.2939 18.333 34.0593V36.6668C18.3299 36.8876 18.3707 37.1069 18.453 37.3118C18.5354 37.5168 18.6576 37.7033 18.8127 37.8606C18.9678 38.0179 19.1526 38.1428 19.3563 38.228C19.5601 38.3133 19.7788 38.3572 19.9996 38.3572C20.2205 38.3572 20.4392 38.3133 20.643 38.228C20.8467 38.1428 21.0315 38.0179 21.1866 37.8606C21.3417 37.7033 21.4639 37.5168 21.5463 37.3118C21.6286 37.1069 21.6694 36.8876 21.6663 36.6668V34.0593C28.1408 33.2939 33.2935 28.1413 34.0589 21.6668H36.6663C36.8872 21.6699 37.1064 21.6291 37.3114 21.5467C37.5163 21.4644 37.7029 21.3421 37.8601 21.187C38.0174 21.032 38.1423 20.8472 38.2276 20.6434C38.3128 20.4396 38.3567 20.221 38.3567 20.0001C38.3567 19.7792 38.3128 19.5605 38.2276 19.3568C38.1423 19.153 38.0174 18.9682 37.8601 18.8132C37.7029 18.6581 37.5163 18.5358 37.3114 18.4535C37.1064 18.3711 36.8872 18.3303 36.6663 18.3334H34.0589C33.2935 11.8589 28.1408 6.70626 21.6663 5.94085V3.33343C21.6694 3.11059 21.6277 2.8894 21.5438 2.68294C21.4598 2.47648 21.3354 2.28895 21.1777 2.13144C21.02 1.97392 20.8324 1.84963 20.6258 1.7659C20.4193 1.68217 20.1981 1.64071 19.9752 1.64398ZM19.8011 9.17653C19.9362 9.19315 20.0729 9.19315 20.208 9.17653C26.0462 9.28659 30.7183 13.962 30.8232 19.8015C30.8066 19.9367 30.8066 20.0733 30.8232 20.2084C30.7131 26.0488 26.0342 30.7221 20.1917 30.8237C20.1199 30.8146 20.0476 30.8103 19.9752 30.8106C19.9165 30.8119 19.8578 30.8162 19.7995 30.8237C13.9574 30.7178 9.28107 26.0409 9.17608 20.1987C9.1927 20.0635 9.1927 19.9269 9.17608 19.7918C9.28615 13.9536 13.9616 9.28147 19.8011 9.17653ZM19.9996 16.6668C18.1621 16.6668 16.6663 18.1626 16.6663 20.0001C16.6663 21.8376 18.1621 23.3334 19.9996 23.3334C21.8371 23.3334 23.333 21.8376 23.333 20.0001C23.333 18.1626 21.8371 16.6668 19.9996 16.6668Z" fill="white"/>
</svg>
