<svg width="10" height="12" viewBox="0 0 10 12" fill="none" xmlns="http://www.w3.org/2000/svg">
<path fill-rule="evenodd" clip-rule="evenodd" d="M6.85967 0.193333L7.33301 0.666667H8.99967C9.36634 0.666667 9.66634 0.966667 9.66634 1.33333C9.66634 1.7 9.36634 2 8.99967 2H0.999674C0.633008 2 0.333008 1.7 0.333008 1.33333C0.333008 0.966667 0.633008 0.666667 0.999674 0.666667H2.66634L3.13967 0.193333C3.25967 0.0733333 3.43301 0 3.60634 0H6.39301C6.56634 0 6.73967 0.0733333 6.85967 0.193333ZM0.999675 10.6667C0.999675 11.4 1.59967 12 2.33301 12H7.66634C8.39967 12 8.99967 11.4 8.99967 10.6667V4C8.99967 3.26667 8.39967 2.66667 7.66634 2.66667H2.33301C1.59967 2.66667 0.999675 3.26667 0.999675 4V10.6667ZM3.11303 5.44669C3.37303 5.18669 3.79303 5.18669 4.05303 5.44669L4.99969 6.39335L5.94636 5.44669C6.20636 5.18669 6.62636 5.18669 6.88636 5.44669C7.14636 5.70669 7.14636 6.12669 6.88636 6.38669L5.93969 7.33335L6.88636 8.28002C7.14636 8.54002 7.14636 8.96002 6.88636 9.22002C6.62636 9.48002 6.20636 9.48002 5.94636 9.22002L4.99969 8.27335L4.05303 9.22002C3.79303 9.48002 3.37303 9.48002 3.11303 9.22002C2.98819 9.09547 2.91804 8.92636 2.91804 8.75002C2.91804 8.57368 2.98819 8.40457 3.11303 8.28002L4.05969 7.33335L3.11303 6.38669C2.85303 6.13335 2.85303 5.70669 3.11303 5.44669Z" fill="#FF5959"/>
</svg>
