<svg width="21" height="21" viewBox="0 0 21 21" fill="none" xmlns="http://www.w3.org/2000/svg">
<rect x="0.0598145" y="0.390625" width="20" height="20" rx="4" fill="#F3F7FE"/>
<path d="M15.1391 10.3906C14.4689 9.29499 13.629 8.47563 12.6193 7.93248C12.8882 8.41528 13.0227 8.93754 13.0227 9.49925C13.0227 10.3581 12.7328 11.0927 12.153 11.7032C11.5732 12.3136 10.8755 12.6189 10.0598 12.6189C9.24415 12.6189 8.54641 12.3136 7.96662 11.7032C7.38683 11.0927 7.09693 10.3581 7.09693 9.49925C7.09693 8.93754 7.23141 8.41528 7.50036 7.93248C6.49068 8.47563 5.65075 9.29499 4.98058 10.3906C5.56698 11.3422 6.30219 12.1001 7.18621 12.6641C8.07023 13.2282 9.0281 13.5102 10.0598 13.5102C11.0915 13.5102 12.0494 13.2282 12.9334 12.6641C13.8175 12.1001 14.5527 11.3422 15.1391 10.3906ZM10.3773 7.71662C10.3773 7.62377 10.3464 7.54485 10.2847 7.47986C10.223 7.41487 10.148 7.38237 10.0598 7.38237C9.50869 7.38237 9.03582 7.59011 8.64121 8.0056C8.24659 8.42108 8.04929 8.91897 8.04929 9.49925C8.04929 9.5921 8.08015 9.67102 8.14188 9.73601C8.20361 9.801 8.27856 9.8335 8.36674 9.8335C8.45492 9.8335 8.52988 9.801 8.59161 9.73601C8.65333 9.67102 8.6842 9.5921 8.6842 9.49925C8.6842 9.10002 8.81867 8.75881 9.08763 8.47563C9.35658 8.19245 9.68065 8.05086 10.0598 8.05086C10.148 8.05086 10.223 8.01836 10.2847 7.95337C10.3464 7.88838 10.3773 7.80946 10.3773 7.71662ZM15.9856 10.3906C15.9856 10.5484 15.9415 10.7086 15.8533 10.871C15.2361 11.9388 14.4061 12.7941 13.3633 13.4371C12.3206 14.08 11.2194 14.4015 10.0598 14.4015C8.90024 14.4015 7.79907 14.0789 6.75633 13.4336C5.71358 12.7883 4.88358 11.9341 4.26631 10.871C4.17812 10.7086 4.13403 10.5484 4.13403 10.3906C4.13403 10.2327 4.17812 10.0726 4.26631 9.91009C4.88358 8.84701 5.71358 7.99283 6.75633 7.34755C7.79907 6.70228 8.90024 6.37964 10.0598 6.37964C11.2194 6.37964 12.3206 6.70228 13.3633 7.34755C14.4061 7.99283 15.2361 8.84701 15.8533 9.91009C15.9415 10.0726 15.9856 10.2327 15.9856 10.3906Z" fill="#B9C0CE"/>
</svg>
