<svg width="17" height="16" viewBox="0 0 17 16" fill="none" xmlns="http://www.w3.org/2000/svg">
<path fill-rule="evenodd" clip-rule="evenodd" d="M13.1669 2.66683H12.5002V2.00016C12.5002 1.6335 12.2002 1.3335 11.8336 1.3335C11.4669 1.3335 11.1669 1.6335 11.1669 2.00016V2.66683H5.83358V2.00016C5.83358 1.6335 5.53358 1.3335 5.16691 1.3335C4.80024 1.3335 4.50024 1.6335 4.50024 2.00016V2.66683H3.83358C3.09358 2.66683 2.50691 3.26683 2.50691 4.00016L2.50024 13.3335C2.50024 14.0668 3.09358 14.6668 3.83358 14.6668H13.1669C13.9002 14.6668 14.5002 14.0668 14.5002 13.3335V4.00016C14.5002 3.26683 13.9002 2.66683 13.1669 2.66683ZM13.1669 12.6668C13.1669 13.0335 12.8669 13.3335 12.5002 13.3335H4.50024C4.13358 13.3335 3.83358 13.0335 3.83358 12.6668V6.00016H13.1669V12.6668ZM6.50024 7.3335H5.16691V8.66683H6.50024V7.3335ZM7.83358 7.3335H9.16691V8.66683H7.83358V7.3335ZM11.8336 7.3335H10.5002V8.66683H11.8336V7.3335Z" fill="#93A9C7"/>
</svg>
