<svg width="40" height="41" viewBox="0 0 40 41" fill="none" xmlns="http://www.w3.org/2000/svg">
<path d="M31.6502 19.4387C32.2169 19.4387 32.7835 19.4887 33.3335 19.5554V4.30543C33.3335 2.8221 31.5335 2.0721 30.4835 3.1221L2.85021 30.7554C1.80021 31.8054 2.53354 33.6054 4.01687 33.6054H19.2669C19.2002 33.0554 19.1502 32.5054 19.1502 31.9387C19.1502 25.0387 24.7502 19.4387 31.6502 19.4387ZM37.8335 32.7554C37.8669 32.4887 37.9002 32.2221 37.9002 31.9387C37.9002 31.6554 37.8835 31.3887 37.8335 31.1221L39.6002 29.7387C39.7502 29.6054 39.8002 29.3887 39.7002 29.2054L38.0335 26.3221C37.9335 26.1387 37.7169 26.0721 37.5169 26.1387L35.4502 26.9721C35.0169 26.6387 34.5502 26.3554 34.0335 26.1554L33.7169 23.9554C33.7002 23.7554 33.5169 23.6054 33.3169 23.6054H29.9835C29.7835 23.6054 29.6002 23.7554 29.5669 23.9554L29.2502 26.1554C28.7502 26.3721 28.2669 26.6387 27.8335 26.9721L25.7669 26.1387C25.5835 26.0721 25.3669 26.1387 25.2502 26.3221L23.5835 29.2054C23.4835 29.3887 23.5169 29.6054 23.6835 29.7387L25.4502 31.1221C25.4169 31.3887 25.4002 31.6554 25.4002 31.9387C25.4002 32.2221 25.4169 32.4887 25.4502 32.7554L23.6835 34.1387C23.5335 34.2721 23.4835 34.4887 23.5835 34.6721L25.2502 37.5554C25.3502 37.7387 25.5669 37.8054 25.7669 37.7387L27.8335 36.9054C28.2669 37.2387 28.7335 37.5221 29.2502 37.7221L29.5669 39.9221C29.6002 40.1221 29.7669 40.2721 29.9835 40.2721H33.3169C33.5169 40.2721 33.7002 40.1221 33.7335 39.9221L34.0502 37.7221C34.5502 37.5054 35.0335 37.2387 35.4502 36.9054L37.5335 37.7387C37.7169 37.8054 37.9335 37.7387 38.0502 37.5554L39.7169 34.6721C39.8169 34.4887 39.7669 34.2721 39.6169 34.1387L37.8335 32.7554ZM31.6502 34.4387C30.2669 34.4387 29.1502 33.3221 29.1502 31.9387C29.1502 30.5554 30.2669 29.4387 31.6502 29.4387C33.0335 29.4387 34.1502 30.5554 34.1502 31.9387C34.1502 33.3221 33.0335 34.4387 31.6502 34.4387Z" fill="white"/>
</svg>
