<svg width="40" height="40" viewBox="0 0 40 40" fill="none" xmlns="http://www.w3.org/2000/svg">
<path d="M32.3503 0C28.1776 0 24.7801 3.40368 24.7801 7.59073C24.7801 11.7778 28.1776 15.1815 32.3503 15.1815C36.523 15.1815 39.9206 11.7778 39.9206 7.59073C39.9206 3.40368 36.5261 0 32.3503 0ZM18.718 2.8999C8.67685 2.8999 0.508057 11.0908 0.508057 21.1592C0.508057 25.7227 2.18179 30.0143 5.20988 33.3755C7.27806 30.9981 9.8932 29.2005 12.8274 28.1924C10.8077 26.5225 9.48587 24.0273 9.48587 21.2066C9.48587 16.133 13.5444 12.0621 18.5347 12.0621C20.4636 12.0621 22.2469 12.6612 23.7155 13.6692C22.4892 11.9355 21.752 9.83251 21.752 7.54922C21.752 6.06447 22.0585 4.65274 22.6096 3.36839C21.3317 3.08905 20.0382 2.8999 18.718 2.8999ZM35.1832 3.84281L37.3242 5.98956L31.2207 12.1096L27.3764 8.25492L29.5174 6.10817L31.2207 7.81608L35.1832 3.84281ZM18.6115 15.0984C15.2201 15.0984 12.514 17.8077 12.514 21.1354C12.514 24.4602 15.1029 27.1074 18.3217 27.2258C18.3975 27.2258 18.4708 27.2079 18.5465 27.2079C18.6343 27.2079 18.713 27.2258 18.8008 27.2258C22.0287 27.1226 24.6263 24.4676 24.6263 21.2066C24.6263 17.8029 21.9303 15.0984 18.6115 15.0984ZM26.1285 16.1125C27.0915 17.5517 27.6544 19.2832 27.6544 21.1414C27.6544 24.0137 26.33 26.5313 24.2951 28.2043C27.296 29.2397 29.9566 31.0939 32.0369 33.5593C35.0559 30.2984 36.922 25.9474 36.922 21.1592C36.922 19.8627 36.739 18.5941 36.4726 17.3401C35.2038 17.8775 33.8129 18.1762 32.3503 18.1762C30.0217 18.1762 27.8788 17.3938 26.1285 16.1125ZM18.3217 30.2621C14.0885 30.3289 10.1087 32.2329 7.3804 35.4392C10.5932 38.011 14.5424 39.4125 18.7121 39.4125C22.8999 39.4125 26.7513 37.9742 29.8309 35.5816C27.1116 32.2902 23.0977 30.338 18.8008 30.2621C18.7342 30.2621 18.6782 30.28 18.6115 30.28H18.5347C18.462 30.28 18.3944 30.2621 18.3217 30.2621Z" fill="#17CA89"/>
</svg>
