<svg width="40" height="41" viewBox="0 0 40 41" fill="none" xmlns="http://www.w3.org/2000/svg">
<g clip-path="url(#clip0)">
<path d="M39.0633 34.8032L28.2633 24.0095L27.432 23.1782C27.382 23.122 27.382 23.0657 27.407 23.0282L27.432 22.997C31.0695 17.1907 30.1945 9.46572 25.3508 4.61572C22.5383 1.80947 18.8133 0.271973 14.8508 0.271973C10.8758 0.271973 7.15078 1.80947 4.34453 4.60947C-1.44297 10.397 -1.44297 19.8157 4.34453 25.6095C7.15078 28.4157 10.882 29.9595 14.8445 29.9595C17.657 29.9595 20.382 29.1782 22.7258 27.697L22.7695 27.672C22.782 27.6657 22.8008 27.6595 22.8133 27.6595C22.8445 27.6595 22.8758 27.672 22.9008 27.697L23.7383 28.5345L34.5383 39.3345C35.1383 39.9345 35.9383 40.2657 36.8008 40.272H36.807C37.657 40.272 38.457 39.9407 39.0633 39.3345C40.307 38.0845 40.307 36.0532 39.0633 34.8032ZM22.5258 22.7845C20.4758 24.8345 17.7508 25.9657 14.8508 25.9657C11.9445 25.9657 9.21953 24.8345 7.16953 22.7845C2.93828 18.5532 2.93828 11.6595 7.16953 7.42197C9.21953 5.37822 11.9445 4.24697 14.8508 4.24697C17.757 4.24697 20.482 5.37197 22.5258 7.42197C24.5758 9.46572 25.7008 12.197 25.7008 15.1032C25.7008 18.0157 24.5695 20.7407 22.5258 22.7845Z" fill="#17CA89"/>
<path d="M17.2876 14.4846C17.0751 14.4783 16.8814 14.5783 16.7564 14.7533L14.7314 17.6221L12.9439 14.7783C12.8314 14.5908 12.6189 14.4721 12.3939 14.4846C9.5689 14.5596 7.27515 16.8908 7.27515 19.6908V20.8908C7.27515 21.2346 7.5564 21.5221 7.9064 21.5221H21.7751C22.1189 21.5221 22.4064 21.2408 22.4064 20.8908V19.6908C22.4064 16.8908 20.1126 14.5596 17.2876 14.4846ZM14.8439 13.9221C16.9814 13.9221 18.7189 12.1846 18.7189 10.0533C18.7189 7.92207 16.9814 6.18457 14.8439 6.18457C12.7126 6.18457 10.9751 7.92207 10.9751 10.0533C10.9751 12.1846 12.7064 13.9221 14.8439 13.9221Z" fill="#17CA89"/>
</g>
<defs>
<clipPath id="clip0">
<rect width="40" height="40" fill="white" transform="translate(0 0.271973)"/>
</clipPath>
</defs>
</svg>
