<svg width="40" height="41" viewBox="0 0 40 41" fill="none" xmlns="http://www.w3.org/2000/svg">
<path d="M23.9062 33.272H20.0938V39.9282H23.9062V33.272Z" fill="#17CA89"/>
<path d="M36.125 31.272H32.3125V39.9595H36.125V31.272Z" fill="#17CA89"/>
<path d="M30.0313 26.897H26.2188V39.9595H30.0313V26.897Z" fill="#17CA89"/>
<path d="M33.5938 29.7407H34.875L35.0938 26.7095H36.2188L34.2188 24.022L32.25 26.7095H33.375L33.5938 29.7407Z" fill="#17CA89"/>
<path d="M26.125 22.3345H27.25L27.4688 25.3657H28.75L28.9687 22.3345H30.0938L28.125 19.647L26.125 22.3345Z" fill="#17CA89"/>
<path d="M20.0312 28.9282H21.1562L21.375 31.9595H22.625L22.8437 28.9282H24L22 26.2407L20.0312 28.9282Z" fill="#17CA89"/>
<path d="M11.4375 9.61572C13.7502 9.61572 15.625 7.74091 15.625 5.42822C15.625 3.11553 13.7502 1.24072 11.4375 1.24072C9.12481 1.24072 7.25 3.11553 7.25 5.42822C7.25 7.74091 9.12481 9.61572 11.4375 9.61572Z" fill="#17CA89"/>
<path d="M30.0625 12.8658C29.8438 12.1158 29.0625 11.6783 28.375 11.8658L23.1562 12.9283L14.5625 10.9908C14.5625 10.9908 14.0312 10.9283 13.8125 11.2096C13.0625 12.1158 12.2812 12.9596 11.4688 13.9283C10.625 12.9908 9.875 12.1158 9.09375 11.2096C8.875 10.9283 8.65625 10.8658 8.34375 10.9908C7.03125 11.3971 5.71875 11.8346 4.40625 12.2096C3.96875 12.3346 3.78125 12.6158 3.78125 13.0221C3.78125 13.0846 3.78125 13.1783 3.78125 13.1783L4.4375 24.7408C4.4375 24.7408 4.4375 24.8658 4.4375 24.9283C4.5625 26.5221 4.625 26.7096 6.1875 27.1783L6.90625 38.2408C6.96875 39.1783 7.75 39.8971 8.6875 39.8971H14.1875C15.125 39.8971 15.9062 39.1783 15.9688 38.2408L16.5625 29.3971L16.625 28.7408L16.7188 27.2096L17.5 15.7721L23.125 16.3971C23.375 16.4283 23.625 16.3971 23.8438 16.3346L29.125 14.6158C29.875 14.3658 30.2812 13.5846 30.0625 12.8658Z" fill="#17CA89"/>
</svg>
