<svg width="41" height="33" viewBox="0 0 41 33" fill="none" xmlns="http://www.w3.org/2000/svg">
<path d="M20.4923 8.67116C22.8868 8.67116 24.8279 6.73006 24.8279 4.33558C24.8279 1.94111 22.8868 0 20.4923 0C18.0978 0 16.1567 1.94111 16.1567 4.33558C16.1567 6.73006 18.0978 8.67116 20.4923 8.67116Z" fill="#17CA89"/>
<path d="M13.06 19.3114V18.5294C13.0604 18.1109 13.167 17.6993 13.3697 17.3332V11.3034C13.3705 10.6465 13.6317 10.0168 14.0962 9.55235C14.5606 9.0879 15.1904 8.82664 15.8472 8.8259H17.2035C16.7316 8.47961 16.3168 8.06164 15.9741 7.58716H15.8472C14.8616 7.58716 13.9164 7.97869 13.2194 8.67561C12.5225 9.37254 12.131 10.3178 12.131 11.3034V18.1164C12.1315 18.3904 12.223 18.6565 12.3912 18.8728C12.5593 19.0891 12.7946 19.2433 13.06 19.3114ZM23.7814 8.8259H25.1377C25.7946 8.82664 26.4243 9.0879 26.8887 9.55235C27.3532 10.0168 27.6145 10.6465 27.6152 11.3034V17.3333C27.8179 17.6994 27.9245 18.1109 27.9249 18.5294V19.3114C28.1903 19.2433 28.4256 19.0891 28.5937 18.8728C28.7619 18.6565 28.8534 18.3904 28.8539 18.1164V11.3034C28.8539 10.3178 28.4624 9.37254 27.7655 8.67561C27.0686 7.97869 26.1233 7.58716 25.1377 7.58716H25.0108C24.6681 8.06164 24.2533 8.47961 23.7814 8.8259ZM26.6861 20.181V18.5293C26.6861 18.2671 26.603 18.0117 26.4486 17.7997C26.2942 17.5878 26.0766 17.4303 25.827 17.3499C25.7828 17.2319 25.7347 17.1156 25.6826 17.0009C25.8021 16.7676 25.8446 16.5023 25.8039 16.2433C25.7632 15.9843 25.6414 15.7449 25.456 15.5595L24.2881 14.3916C24.1028 14.2063 23.8634 14.0845 23.6045 14.0438C23.3455 14.0031 23.0803 14.0456 22.8471 14.1652C22.7322 14.1131 22.6158 14.0649 22.4978 14.0206C22.4173 13.771 22.2598 13.5534 22.0479 13.399C21.8359 13.2446 21.5805 13.1615 21.3183 13.1615H19.6666C19.4044 13.1615 19.149 13.2446 18.937 13.399C18.7251 13.5534 18.5676 13.771 18.4871 14.0206C18.3691 14.0649 18.2526 14.1131 18.1379 14.1652C17.9046 14.0456 17.6394 14.0031 17.3805 14.0438C17.1215 14.0845 16.8822 14.2063 16.6968 14.3916L15.5289 15.5595C15.3435 15.7449 15.2217 15.9843 15.181 16.2433C15.1403 16.5023 15.1828 16.7676 15.3023 17.0009C15.2503 17.1156 15.2021 17.2319 15.1579 17.3498C14.9083 17.4303 14.6907 17.5878 14.5363 17.7997C14.3819 18.0117 14.2988 18.2671 14.2988 18.5293V20.181C14.2988 20.4432 14.3819 20.6986 14.5363 20.9106C14.6907 21.1225 14.9083 21.28 15.1579 21.3605C15.2021 21.4784 15.2503 21.5947 15.3023 21.7094C15.1828 21.9427 15.1403 22.208 15.181 22.467C15.2217 22.726 15.3435 22.9654 15.5289 23.1508L16.6968 24.3187C16.8823 24.504 17.1217 24.6258 17.3807 24.6665C17.6396 24.7072 17.9049 24.6648 18.1382 24.5453C18.2529 24.5974 18.3692 24.6455 18.4872 24.6898C18.5676 24.9393 18.7251 25.1569 18.937 25.3113C19.149 25.4657 19.4044 25.5489 19.6666 25.5489H21.3183C21.5805 25.5489 21.8359 25.4657 22.0479 25.3113C22.2598 25.1569 22.4173 24.9393 22.4978 24.6898C22.6157 24.6455 22.732 24.5974 22.8467 24.5453C23.0801 24.6648 23.3453 24.7072 23.6043 24.6665C23.8632 24.6258 24.1027 24.504 24.2881 24.3187L25.456 23.1508C25.6414 22.9654 25.7632 22.726 25.8039 22.467C25.8446 22.208 25.8021 21.9427 25.6826 21.7094C25.7347 21.5947 25.7828 21.4784 25.827 21.3605C26.0766 21.28 26.2942 21.1225 26.4486 20.9106C26.603 20.6986 26.6861 20.4432 26.6861 20.181ZM25.4474 20.181H24.8744C24.7611 20.7864 24.5229 21.3616 24.1751 21.8699L24.5801 22.2749L23.4122 23.4428L23.0072 23.0378C22.4989 23.3856 21.9237 23.6238 21.3183 23.737V24.3101H19.6666V23.737C19.0612 23.6238 18.486 23.3856 17.9777 23.0378L17.5727 23.4428L16.4048 22.2749L16.8098 21.8699C16.462 21.3616 16.2238 20.7864 16.1106 20.181H15.5375V18.5293H16.1106C16.2238 17.9239 16.462 17.3487 16.8098 16.8404L16.4048 16.4354L17.5727 15.2675L17.9777 15.6725C18.486 15.3247 19.0612 15.0865 19.6666 14.9733V14.4002H21.3183V14.9733C21.9237 15.0865 22.4989 15.3247 23.0072 15.6725L23.4122 15.2675L24.5801 16.4354L24.1751 16.8404C24.5229 17.3487 24.7611 17.9239 24.8743 18.5293H25.4474V20.181Z" fill="#17CA89"/>
<path d="M39.8618 30.013L36.1085 26.9161C36.0611 26.878 36.011 26.8435 35.9585 26.8128C35.969 26.7533 35.975 26.6932 35.9766 26.6329V11.1486C35.9766 10.8201 35.8461 10.505 35.6138 10.2727C35.3815 10.0404 35.0664 9.90991 34.7379 9.90991H29.8923C30.0253 10.3625 30.0928 10.8318 30.0926 11.3035V18.1165C30.092 18.665 29.9093 19.1977 29.5731 19.6311C29.2369 20.0644 28.7664 20.3738 28.2353 20.5107C28.1339 20.5369 28.0296 20.5502 27.9248 20.5502C27.9147 20.5502 27.9047 20.5479 27.8946 20.5477C27.8082 21.1415 27.5083 21.6834 27.051 22.0718C27.0807 22.4305 27.0318 22.7912 26.9075 23.129C26.7833 23.4667 26.5867 23.7732 26.3316 24.027L25.164 25.1948C24.9344 25.4256 24.6614 25.6085 24.3607 25.733C24.06 25.8576 23.7376 25.9212 23.4122 25.9204C23.3449 25.9204 23.2777 25.9176 23.2106 25.912C22.9781 26.1871 22.6882 26.408 22.3613 26.5593C22.0344 26.7105 21.6784 26.7885 21.3182 26.7877H19.6666C19.3065 26.7885 18.9505 26.7105 18.6236 26.5592C18.2967 26.408 18.0069 26.1871 17.7744 25.912C17.7074 25.9176 17.6399 25.9204 17.5726 25.9204C17.2472 25.9212 16.9248 25.8576 16.6241 25.733C16.3234 25.6085 16.0504 25.4256 15.8208 25.1948L14.6529 24.0269C14.3979 23.773 14.2014 23.4665 14.0772 23.1288C13.953 22.7911 13.9041 22.4304 13.9338 22.0718C13.4765 21.6834 13.1766 21.1415 13.0902 20.5477C13.0801 20.5479 13.0701 20.5502 13.06 20.5502C12.9552 20.5502 12.8509 20.5369 12.7495 20.5107C12.2185 20.3738 11.7479 20.0644 11.4117 19.6311C11.0755 19.1977 10.8928 18.665 10.8922 18.1165V11.3035C10.892 10.8318 10.9595 10.3625 11.0925 9.90991H6.24692C5.91839 9.90991 5.60331 10.0404 5.371 10.2727C5.1387 10.505 5.00819 10.8201 5.00819 11.1486V26.6329C5.0098 26.6932 5.01585 26.7533 5.02631 26.8128C4.97386 26.8435 4.92374 26.878 4.87637 26.9161L1.12299 30.013C0.92623 30.1753 0.784385 30.3944 0.716832 30.6404C0.64928 30.8864 0.659315 31.1472 0.745567 31.3873C0.831818 31.6274 0.990079 31.8349 1.19873 31.9817C1.40738 32.1284 1.65625 32.2072 1.91134 32.2072H39.0735C39.3286 32.2072 39.5774 32.1284 39.7861 31.9817C39.9947 31.835 40.153 31.6274 40.2393 31.3873C40.3255 31.1472 40.3356 30.8864 40.268 30.6404C40.2004 30.3944 40.0586 30.1753 39.8618 30.013ZM1.91134 30.9684L5.66472 27.8716H35.3201L39.0735 30.9684H1.91134Z" fill="#17CA89"/>
<path d="M20.4924 16.2585C19.8799 16.2585 19.2811 16.4402 18.7718 16.7805C18.2626 17.1207 17.8656 17.6044 17.6312 18.1703C17.3968 18.7362 17.3355 19.3588 17.455 19.9596C17.5745 20.5603 17.8695 21.1121 18.3026 21.5452C18.7357 21.9783 19.2875 22.2732 19.8882 22.3927C20.4889 22.5122 21.1116 22.4509 21.6775 22.2165C22.2433 21.9821 22.727 21.5852 23.0673 21.0759C23.4076 20.5666 23.5892 19.9679 23.5892 19.3554C23.5883 18.5343 23.2617 17.7472 22.6811 17.1666C22.1006 16.586 21.3134 16.2595 20.4924 16.2585Z" fill="#17CA89"/>
</svg>
