<svg width="42" height="35" viewBox="0 0 42 35" fill="none" xmlns="http://www.w3.org/2000/svg">
<path d="M27.0124 9.7071C27.0131 10.3291 26.8147 10.935 26.4462 11.4361C26.0778 11.9372 25.5586 12.3073 24.9647 12.4921C24.3708 12.677 23.7333 12.6669 23.1456 12.4634C22.5578 12.2598 22.0506 11.8735 21.6982 11.361L21.6889 11.3419L21.6743 11.3288C21.4208 10.9503 21.2595 10.5177 21.2033 10.0657C21.1472 9.61367 21.1977 9.15477 21.3508 8.72578C21.504 8.29678 21.7555 7.90963 22.0852 7.59536C22.4149 7.28109 22.8137 7.04843 23.2495 6.91604C23.6854 6.78365 24.1462 6.7552 24.595 6.83299C25.0438 6.91078 25.4681 7.09263 25.834 7.36397C26.1999 7.63531 26.4971 7.98858 26.7018 8.39549C26.9066 8.80239 27.0131 9.2516 27.013 9.7071H27.0124ZM41.6726 1.45833V22.8605C41.6726 23.2473 41.5189 23.6182 41.2454 23.8917C40.9719 24.1652 40.601 24.3189 40.2142 24.3189H22.7142V32.0833H34.3809C34.7677 32.0833 35.1386 32.237 35.4121 32.5105C35.6856 32.784 35.8392 33.1549 35.8392 33.5417C35.8392 33.9284 35.6856 34.2994 35.4121 34.5729C35.1386 34.8464 34.7677 35 34.3809 35H8.1309C7.74413 35 7.37319 34.8464 7.0997 34.5729C6.82621 34.2994 6.67257 33.9284 6.67257 33.5417C6.67257 33.1549 6.82621 32.784 7.0997 32.5105C7.37319 32.237 7.74413 32.0833 8.1309 32.0833H19.7976V24.3189H2.29757C1.91079 24.3189 1.53986 24.1652 1.26637 23.8917C0.992879 23.6182 0.839233 23.2473 0.839233 22.8605V1.45833C0.839233 1.07156 0.992879 0.700627 1.26637 0.427136C1.53986 0.153646 1.91079 0 2.29757 0H40.2142C40.601 0 40.9719 0.153646 41.2454 0.427136C41.5189 0.700627 41.6726 1.07156 41.6726 1.45833ZM29.929 9.7071C29.9345 8.84681 29.7495 7.99596 29.3875 7.21553C29.0255 6.4351 28.4953 5.74441 27.835 5.19296C27.1746 4.6415 26.4005 4.24293 25.568 4.02581C24.7356 3.80869 23.8654 3.77839 23.0198 3.93708C22.1743 4.09577 21.3743 4.43953 20.6772 4.94372C19.9801 5.4479 19.4032 6.10004 18.9877 6.8534C18.5723 7.60675 18.3286 8.44268 18.2742 9.30127C18.2198 10.1599 18.3559 11.0199 18.6729 11.8196L13.1525 16.0573C12.8458 16.293 12.6453 16.6408 12.5951 17.0243C12.5448 17.4079 12.649 17.7957 12.8847 18.1024C13.1204 18.4091 13.4683 18.6096 13.8518 18.6598C14.2353 18.7101 14.6231 18.6059 14.9298 18.3702L20.3924 14.1768C21.4285 15.0519 22.7395 15.5346 24.0957 15.5404C25.6423 15.5389 27.1252 14.9238 28.2188 13.8302C29.3124 12.7366 29.9275 11.2537 29.929 9.7071Z" fill="#17CA89"/>
</svg>
