<svg width="42" height="36" viewBox="0 0 42 36" fill="none" xmlns="http://www.w3.org/2000/svg">
<path d="M27.0124 10.2388C27.0131 10.8608 26.8147 11.4667 26.4462 11.9679C26.0778 12.469 25.5586 12.839 24.9647 13.0239C24.3708 13.2087 23.7333 13.1986 23.1456 12.9951C22.5578 12.7916 22.0506 12.4053 21.6982 11.8927L21.6889 11.8736L21.6743 11.8605C21.4208 11.482 21.2595 11.0495 21.2033 10.5974C21.1472 10.1454 21.1977 9.68651 21.3508 9.25751C21.504 8.82852 21.7555 8.44137 22.0852 8.1271C22.4149 7.81282 22.8137 7.58017 23.2495 7.44778C23.6854 7.31539 24.1462 7.28694 24.595 7.36473C25.0438 7.44251 25.4681 7.62437 25.834 7.8957C26.1999 8.16704 26.4971 8.52032 26.7018 8.92723C26.9066 9.33413 27.0131 9.78334 27.013 10.2388H27.0124ZM41.6726 1.99007V23.3923C41.6726 23.7791 41.5189 24.15 41.2454 24.4235C40.9719 24.697 40.601 24.8506 40.2142 24.8506H22.7142V32.6151H34.3809C34.7677 32.6151 35.1386 32.7687 35.4121 33.0422C35.6856 33.3157 35.8392 33.6866 35.8392 34.0734C35.8392 34.4602 35.6856 34.8311 35.4121 35.1046C35.1386 35.3781 34.7677 35.5317 34.3809 35.5317H8.1309C7.74413 35.5317 7.37319 35.3781 7.0997 35.1046C6.82621 34.8311 6.67257 34.4602 6.67257 34.0734C6.67257 33.6866 6.82621 33.3157 7.0997 33.0422C7.37319 32.7687 7.74413 32.6151 8.1309 32.6151H19.7976V24.8506H2.29757C1.91079 24.8506 1.53986 24.697 1.26637 24.4235C0.992879 24.15 0.839233 23.7791 0.839233 23.3923V1.99007C0.839233 1.6033 0.992879 1.23237 1.26637 0.958875C1.53986 0.685384 1.91079 0.531738 2.29757 0.531738H40.2142C40.601 0.531738 40.9719 0.685384 41.2454 0.958875C41.5189 1.23237 41.6726 1.6033 41.6726 1.99007ZM29.929 10.2388C29.9345 9.37854 29.7495 8.5277 29.3875 7.74727C29.0255 6.96684 28.4953 6.27615 27.835 5.7247C27.1746 5.17324 26.4005 4.77467 25.568 4.55755C24.7356 4.34043 23.8654 4.31013 23.0198 4.46882C22.1743 4.62751 21.3743 4.97127 20.6772 5.47545C19.9801 5.97964 19.4032 6.63178 18.9877 7.38514C18.5723 8.13849 18.3286 8.97441 18.2742 9.83301C18.2198 10.6916 18.3559 11.5516 18.6729 12.3514L13.1525 16.589C12.8458 16.8247 12.6453 17.1726 12.5951 17.5561C12.5448 17.9396 12.649 18.3274 12.8847 18.6341C13.1204 18.9408 13.4683 19.1413 13.8518 19.1916C14.2353 19.2418 14.6231 19.1376 14.9298 18.9019L20.3924 14.7085C21.4285 15.5836 22.7395 16.0664 24.0957 16.0722C25.6423 16.0706 27.1252 15.4556 28.2188 14.3619C29.3124 13.2683 29.9275 11.7855 29.929 10.2388Z" fill="white"/>
</svg>
