<svg width="20" height="20" viewBox="0 0 20 20" fill="none" xmlns="http://www.w3.org/2000/svg">
<path fill-rule="evenodd" clip-rule="evenodd" d="M1.66666 9.99984C1.66666 5.3915 5.39166 1.6665 10 1.6665C14.6083 1.6665 18.3333 5.3915 18.3333 9.99984C18.3333 14.6082 14.6083 18.3332 10 18.3332C5.39166 18.3332 1.66666 14.6082 1.66666 9.99984ZM12.4083 13.5831C12.7333 13.9081 13.2583 13.9081 13.5833 13.5831C13.9 13.2581 13.9 12.7248 13.5833 12.4081L11.175 9.9998L13.5833 7.59147C13.9083 7.26647 13.9083 6.74147 13.5833 6.41647C13.2583 6.09147 12.7333 6.09147 12.4083 6.41647L9.99996 8.8248L7.59163 6.41647C7.26663 6.09147 6.74163 6.09147 6.41663 6.41647C6.26059 6.57216 6.17289 6.78354 6.17289 7.00397C6.17289 7.2244 6.26059 7.43578 6.41663 7.59147L8.82496 9.9998L6.41663 12.4081C6.26059 12.5638 6.17289 12.7752 6.17289 12.9956C6.17289 13.2161 6.26059 13.4274 6.41663 13.5831C6.74163 13.9081 7.26663 13.9081 7.59163 13.5831L9.99996 11.1748L12.4083 13.5831Z" fill="#FF5959"/>
</svg>
