<svg width="16" height="16" viewBox="0 0 16 16" fill="none" xmlns="http://www.w3.org/2000/svg">
<g id="icon/action/done_all_24px">
<path id="icon/action/done_all_24px_2" fill-rule="evenodd" clip-rule="evenodd" d="M14.3355 3.99618L7.74888 10.5828L5.42888 8.26951C5.30433 8.14467 5.13523 8.07452 4.95888 8.07452C4.78254 8.07452 4.61343 8.14467 4.48888 8.26951C4.22888 8.52951 4.22888 8.94951 4.48888 9.20951L7.27555 11.9962C7.53555 12.2562 7.95555 12.2562 8.21555 11.9962L15.2755 4.94284C15.5355 4.68284 15.5355 4.26284 15.2755 4.00284H15.2689C15.0155 3.73618 14.5955 3.73618 14.3355 3.99618ZM11.5092 4.00284C11.3847 3.878 11.2156 3.80785 11.0392 3.80785C10.8629 3.80785 10.6938 3.878 10.5692 4.00284L6.80922 7.76284L7.74922 8.70284L11.5092 4.93617C11.7626 4.68284 11.7626 4.25617 11.5092 4.00284ZM3.50901 12.0029L0.722344 9.2162C0.462344 8.9562 0.462344 8.52954 0.722344 8.26954C0.846898 8.1447 1.016 8.07455 1.19234 8.07455C1.36869 8.07455 1.53779 8.1447 1.66234 8.26954L4.91568 11.5362L4.44901 12.0029C4.18901 12.2629 3.76901 12.2629 3.50901 12.0029Z" fill="#17CA89"/>
</g>
</svg>
