<svg width="15" height="14" viewBox="0 0 15 14" fill="none" xmlns="http://www.w3.org/2000/svg">
<path d="M14.4531 2.70962L11.233 0.0345747L10.3232 1.11176L13.5433 3.78644L14.4531 2.70962ZM4.54819 1.07679L3.63799 0L0.453125 2.70962L1.36293 3.78641L4.54819 1.07679ZM7.80316 4.27288H6.75313V8.44167L10.0781 10.4219L10.6031 9.55336L7.80313 7.92057V4.27288H7.80316ZM7.45312 1.49371C3.95312 1.49371 1.15309 4.30749 1.15309 7.74681C1.15309 11.1863 3.95312 14 7.45312 14C10.9183 14 13.7532 11.1863 13.7532 7.74681C13.7532 4.30752 10.9183 1.49371 7.45312 1.49371ZM7.45312 12.6105C4.75803 12.6105 2.55312 10.422 2.55312 7.74684C2.55312 5.07189 4.75803 2.88335 7.45312 2.88335C10.1483 2.88335 12.3531 5.07186 12.3531 7.74684C12.3531 10.4565 10.1483 12.6105 7.45312 12.6105Z" fill="#93A9C7"/>
</svg>
