<svg width="20" height="20" viewBox="0 0 20 20" fill="none" xmlns="http://www.w3.org/2000/svg">
<path fill-rule="evenodd" clip-rule="evenodd" d="M9.99935 1.66675C5.39935 1.66675 1.66602 5.40008 1.66602 10.0001C1.66602 14.6001 5.39935 18.3334 9.99935 18.3334C14.5993 18.3334 18.3327 14.6001 18.3327 10.0001C18.3327 5.40008 14.5993 1.66675 9.99935 1.66675ZM9.99935 16.6667C6.31602 16.6667 3.33268 13.6834 3.33268 10.0001C3.33268 6.31675 6.31602 3.33341 9.99935 3.33341C13.6827 3.33341 16.666 6.31675 16.666 10.0001C16.666 13.6834 13.6827 16.6667 9.99935 16.6667ZM5.83268 10.0001C5.83268 7.69889 7.69816 5.83341 9.99935 5.83341C12.3005 5.83341 14.166 7.69889 14.166 10.0001C14.166 12.3013 12.3005 14.1667 9.99935 14.1667C7.69816 14.1667 5.83268 12.3013 5.83268 10.0001Z" fill="#17CA89"/>
</svg>
