<svg width="27" height="28" viewBox="0 0 27 28" fill="none" xmlns="http://www.w3.org/2000/svg">
<path fill-rule="evenodd" clip-rule="evenodd" d="M4.19958 23.4281C-1.01416 18.2144 -1.01416 9.78564 4.19958 4.57191C9.41331 -0.641824 17.842 -0.641825 23.0558 4.57191C28.2695 9.78564 28.2695 18.2144 23.0558 23.4281C17.842 28.6418 9.41331 28.6418 4.19958 23.4281ZM20.4065 15.3294C21.1419 15.3294 21.7359 14.7354 21.7359 14C21.7264 13.274 21.123 12.6706 20.4065 12.6706H14.9571L14.9571 7.22121C14.9571 6.48582 14.3631 5.89185 13.6277 5.89185C12.8923 5.89185 12.2983 6.48582 12.2983 7.22121L12.2983 12.6706L6.8489 12.6706C6.11351 12.6706 5.51954 13.2646 5.51954 14C5.51914 14.3527 5.65907 14.6911 5.90846 14.9404C6.15785 15.1898 6.49621 15.3298 6.8489 15.3294L12.2983 15.3294V20.7788C12.2979 21.1315 12.4379 21.4698 12.6873 21.7192C12.9366 21.9686 13.275 22.1086 13.6277 22.1082C14.3631 22.1082 14.9571 21.5142 14.9571 20.7788V15.3294H20.4065Z" fill="#5F6FFF"/>
</svg>
