<svg width="41" height="41" viewBox="0 0 41 41" fill="none" xmlns="http://www.w3.org/2000/svg">
<path d="M20.8711 40.5887C31.9168 40.5887 40.8711 31.6345 40.8711 20.5888C40.8711 9.54314 31.9168 0.588867 20.8711 0.588867C9.8254 0.588867 0.871094 9.54314 0.871094 20.5888C0.871094 31.6345 9.8254 40.5887 20.8711 40.5887Z" fill="#E9573E"/>
<path fill-rule="evenodd" clip-rule="evenodd" d="M15.923 25.624L26.2188 25.7205V28.0616L30.7508 30.2227L20.5974 39.7496L11.8848 29.8208L15.923 28.1017V25.624Z" fill="#F9DCA4"/>
<path fill-rule="evenodd" clip-rule="evenodd" d="M35.4853 34.2407C33.6165 36.2463 31.3543 37.8451 28.8399 38.9372C26.3255 40.0293 23.613 40.5914 20.8717 40.5883C20.0415 40.5882 19.2121 40.537 18.3882 40.4349C15.8614 40.0728 13.4167 39.2748 11.1629 38.0763C9.26087 37.0177 7.54354 35.6569 6.07812 34.0472L6.90855 32.0407L14.2406 28.7695C14.807 31.7055 16.9817 36.2355 20.827 38.8032C22.6255 37.717 24.1864 36.279 25.4161 34.5755C26.6458 32.8719 27.5191 30.9377 27.9837 28.8886L34.497 32.0621L35.4853 34.2407Z" fill="#677079"/>
<path opacity="0.11" fill-rule="evenodd" clip-rule="evenodd" d="M26.6251 28.2559C27.0963 28.4805 27.9021 28.8565 27.9805 28.9025C26.6665 33.0241 17.8057 34.5335 15.1934 28.4131L26.6251 28.2559Z" fill="black"/>
<path fill-rule="evenodd" clip-rule="evenodd" d="M21.0209 6.04688C34.7951 6.04688 29.4268 28.8728 21.0209 28.8728C13.0817 28.8728 7.24676 6.04688 21.0209 6.04688Z" fill="#FFE8BE"/>
<path fill-rule="evenodd" clip-rule="evenodd" d="M12.7578 16.1514C10.7707 17.0187 12.46 21.1268 13.7105 21.108C13.1919 19.5008 12.8719 17.8363 12.7578 16.1514Z" fill="#F9DCA4"/>
<path fill-rule="evenodd" clip-rule="evenodd" d="M29.4404 16.1514C31.4274 17.018 29.7381 21.1268 28.4883 21.108C29.0066 19.5008 29.3263 17.8362 29.4404 16.1514Z" fill="#F9DCA4"/>
<path fill-rule="evenodd" clip-rule="evenodd" d="M16.0141 10.5799C15.6309 12.3715 15.7656 14.1527 14.0672 14.4816C13.6633 14.5592 13.396 15.1061 13.3086 15.5883C13.1116 16.6402 13.0291 17.7103 13.0626 18.7799C13.13 19.1482 12.8063 18.0731 12.8063 18.0731L12.7513 16.0188C12.7513 16.0188 12.7274 15.6252 12.7364 15.0252C12.7558 13.8084 12.8944 11.8356 13.5105 11.2324C14.4303 10.3327 16.0141 10.5799 16.0141 10.5799Z" fill="#AD835F"/>
<path fill-rule="evenodd" clip-rule="evenodd" d="M26.1758 10.5799C26.559 12.3715 26.425 14.1527 28.1227 14.4816C28.5266 14.5592 28.7946 15.1061 28.8813 15.5883C29.0701 16.6445 29.1378 17.7188 29.0832 18.7903C29.0153 19.1592 29.3389 18.0835 29.3389 18.0835L29.4463 16.0265C29.4463 16.0265 29.4625 15.6252 29.4528 15.0252C29.4347 13.8084 29.2962 11.8356 28.6793 11.2324C27.7596 10.3327 26.1758 10.5799 26.1758 10.5799Z" fill="#AD835F"/>
<path fill-rule="evenodd" clip-rule="evenodd" d="M17.2898 30.6713C16.3125 29.7282 15.5306 28.9968 14.8212 28.2648C13.9118 27.3256 13.6037 26.3735 13.427 24.7062C13.026 21.8251 12.8006 18.9222 12.752 16.0137C12.752 16.0137 13.4212 20.1127 14.6691 22.1334C15.3099 23.171 17.9313 20.7321 18.9766 20.3612C19.332 20.1968 19.7326 20.1573 20.1132 20.2492C20.4939 20.3411 20.8324 20.5589 21.0737 20.8674C21.3105 20.5584 21.6459 20.3397 22.0242 20.2477C22.4025 20.1556 22.8009 20.1957 23.1533 20.3612C24.1992 20.7321 26.7844 22.8156 27.4614 22.1334C29.0892 20.492 29.44 16.0195 29.44 16.0195C29.372 18.9605 29.128 21.8947 28.7093 24.8066C28.4743 26.5839 28.3552 27.2726 27.7475 27.9677C26.8554 28.9697 25.8644 29.8789 24.7895 30.6816C24.2536 31.1062 23.3222 31.5049 20.9494 31.4907C18.7449 31.4777 17.8406 31.202 17.2898 30.6706V30.6713Z" fill="#60350A"/>
<path fill-rule="evenodd" clip-rule="evenodd" d="M26.5043 10.9429C26.8476 10.8764 27.2029 10.917 27.5224 11.059C27.8419 11.201 28.1101 11.4377 28.2907 11.7371C29.2978 13.4283 29.3813 13.6464 29.3813 13.6464C29.3813 13.6464 29.2622 10.6212 29.1904 10.2613C29.277 10.1816 29.3913 10.1389 29.509 10.1422C29.6266 10.1456 29.7383 10.1949 29.8202 10.2795C29.8914 10.4231 29.5328 7.23739 27.6616 6.62638C26.9774 4.68334 24.5846 3.24386 24.5846 3.24386L24.4765 4.32347C24.2355 3.59055 23.7836 2.94503 23.1774 2.46779C22.5712 1.99054 21.8377 1.70281 21.0687 1.64062C21.5004 2.12671 21.3968 2.48205 21.3968 2.48205C20.7234 2.19992 19.9987 2.06062 19.2687 2.07299C19.3593 2.64839 18.6933 3.26069 18.6933 3.26069C18.6933 3.26069 18.2797 2.63027 16.6421 2.41473C16.3541 3.4581 15.8136 3.63804 15.2926 4.12412C14.8549 4.57242 14.4522 5.05367 14.0881 5.5636C14.0881 5.5636 14.1418 4.55583 14.5017 4.26781C14.6369 4.17849 11.4492 5.4348 13.0441 10.1164C12.7584 10.1094 12.4787 10.1991 12.2502 10.3708C12.0218 10.5425 11.8579 10.7863 11.7852 11.0626C12.6848 11.3144 12.3127 12.6743 12.8162 13.5558C13.1703 12.5332 13.4046 10.5409 15.6175 11.0626C17.202 11.4361 18.723 12.2367 20.5496 12.3008C23.1302 12.3908 24.1101 11.0361 26.5043 10.9429Z" fill="#60350A"/>
<path fill-rule="evenodd" clip-rule="evenodd" d="M21.8524 25.5694C22.1046 25.6117 22.3629 25.5996 22.6101 25.5339C22.8572 25.4683 23.0875 25.3506 23.2854 25.1888C23.7515 24.6516 24.1314 23.8885 23.4246 23.4781C22.7347 22.9882 21.9419 22.6623 21.1068 22.5254C20.2667 22.66 19.4687 22.9855 18.7741 23.4768C17.9068 23.9785 18.4375 24.6516 18.9042 25.1888C19.1022 25.3506 19.3325 25.4683 19.5796 25.5339C19.8267 25.5996 20.085 25.6117 20.3372 25.5694C19.8123 23.7416 22.378 23.7416 21.8524 25.5694Z" fill="#FFE8BE"/>
</svg>