<svg width="22" height="21" viewBox="0 0 22 21" fill="none" xmlns="http://www.w3.org/2000/svg">
<path d="M21.3293 12.7532C21.1765 12.5092 20.9423 12.3369 20.6691 12.2751C20.5878 12.2556 20.5065 12.2458 20.4252 12.2458C20.2268 12.2458 20.0317 12.3011 19.8626 12.4052L15.0852 15.2768L15.0884 15.3191C15.0917 15.3419 15.0884 15.3679 15.0852 15.4004L15.0884 15.459L15.0754 15.4752L15.0721 15.4947C15.0169 15.7972 14.8738 16.0671 14.6656 16.2753C14.3924 16.5517 14.025 16.7045 13.6282 16.7045H9.2963C9.14995 16.7045 9.02962 16.5842 9.02962 16.4379C9.02962 16.2915 9.14995 16.1712 9.2963 16.1712H13.6282C13.8786 16.1712 14.1128 16.0736 14.2916 15.898C14.4185 15.7712 14.5095 15.5956 14.5518 15.4004L14.5616 15.3386V15.2964C14.5616 15.2638 14.5648 15.2248 14.5583 15.163C14.5551 15.1533 14.5551 15.1337 14.5551 15.111C14.49 14.6492 14.0705 14.3012 13.5762 14.3012H11.7257C10.8866 14.3012 10.0736 14.054 9.3776 13.589C8.70441 13.1434 8.05072 12.8637 7.43931 12.7597C7.24418 12.7239 7.03279 12.7044 6.79538 12.7044C6.70757 12.7044 6.61651 12.7076 6.51895 12.7109C6.3661 12.7174 6.1417 12.7174 5.89128 12.7174C5.5498 12.7174 5.15954 12.7141 4.84733 12.7109H4.77254L5.32215 18.2038V18.2493L5.36443 18.2656C5.96933 18.4965 6.60676 18.8217 6.85067 18.9518L6.88319 18.9681C7.345 19.212 7.59867 19.3453 7.73851 19.4429C8.5483 19.8591 9.40687 20.0673 10.2915 20.0673C11.5501 20.0673 12.5387 19.6347 12.9192 19.3811L20.9846 14.2134C21.3131 14.0085 21.5017 13.6573 21.4919 13.2735C21.4854 13.0979 21.4301 12.9158 21.3293 12.7532ZM4.8018 18.4379L4.20991 12.571V12.5515L4.20341 12.5385C4.1904 12.5125 4.18389 12.4767 4.18389 12.4344C4.18389 12.4149 4.18715 12.4019 4.1904 12.3564L4.1156 11.6084L1.68298 11.9629L0.674805 20.3762L4.90262 19.4689L4.80831 18.4932L4.8018 18.4379Z" fill="white"/>
<path d="M15.1275 6.39518C15.0364 6.30737 14.9324 6.23258 14.8185 6.17078C14.708 6.11224 14.5941 6.06021 14.4771 6.01468C14.3958 5.98216 14.1453 5.8911 14.1453 5.8911C14.051 5.85858 13.9567 5.81955 13.8722 5.77077C13.7974 5.72849 13.7388 5.67971 13.6998 5.62767C13.6608 5.57564 13.6445 5.5171 13.6445 5.4423C13.6445 5.39352 13.6543 5.35124 13.6705 5.31546C13.6868 5.27644 13.7096 5.24717 13.7421 5.22115C13.7811 5.19188 13.8299 5.16912 13.8982 5.1496C13.9632 5.13334 14.0478 5.12359 14.1453 5.12359C14.2527 5.12359 14.3502 5.13659 14.438 5.15936C14.5324 5.18538 14.6137 5.21465 14.6852 5.24392C14.76 5.27319 14.8153 5.30246 14.8641 5.32522C14.9291 5.36099 14.9844 5.37725 15.0299 5.37725C15.0722 5.37725 15.1112 5.36099 15.121 5.34799C15.1503 5.32847 15.173 5.29595 15.186 5.26343C15.2023 5.2244 15.2056 5.18538 15.2121 5.13659C15.2153 5.09432 15.2186 5.04228 15.2186 4.97399L15.2153 4.8374C15.2121 4.79186 15.2056 4.75609 15.2023 4.74308C15.1958 4.7008 15.186 4.66503 15.1698 4.63576C15.1568 4.613 15.1373 4.59023 15.121 4.57397C15.095 4.54145 15.056 4.52194 14.9909 4.48616C14.9421 4.46665 14.8901 4.44388 14.8348 4.42437C14.773 4.4016 14.7112 4.38534 14.6462 4.37234C14.6137 4.36258 14.5811 4.35607 14.5486 4.34957L14.6007 3.84874C14.6007 3.82597 14.6007 3.79345 14.5876 3.75768C14.5714 3.70889 14.5389 3.67637 14.4998 3.66011C14.4608 3.63735 14.4153 3.63084 14.3697 3.62108C14.321 3.61458 14.2624 3.61133 14.1941 3.61133C14.1356 3.61133 14.0933 3.61458 14.0575 3.61783C14.012 3.62108 13.973 3.63084 13.9437 3.6471C13.9079 3.66661 13.8819 3.68613 13.8657 3.70889C13.8461 3.73491 13.8396 3.76418 13.8364 3.79995L13.7844 4.33981C13.6315 4.36258 13.4917 4.39835 13.3616 4.45364C13.2087 4.51543 13.0754 4.59999 12.9713 4.70406C12.864 4.80813 12.7827 4.93171 12.7274 5.0683C12.6721 5.20489 12.6428 5.36099 12.6428 5.5236C12.6428 5.71873 12.6721 5.87158 12.7274 5.99517C12.7827 6.12851 12.8575 6.24233 12.9485 6.33339C13.0396 6.42445 13.1372 6.49925 13.2575 6.5643C13.3681 6.62283 13.4787 6.67487 13.5925 6.7204C13.7031 6.76268 13.8136 6.80496 13.9209 6.84073C14.0185 6.87325 14.1063 6.91553 14.1909 6.96431C14.2624 7.00334 14.321 7.04887 14.3632 7.10416C14.399 7.14969 14.4153 7.20822 14.4153 7.28628C14.4153 7.40335 14.373 7.49116 14.2819 7.56271C14.1844 7.63751 14.025 7.67654 13.8071 7.67654C13.6673 7.67654 13.5404 7.66028 13.4299 7.63426C13.3225 7.60499 13.2282 7.57247 13.1567 7.53995C13.0851 7.50417 13.0233 7.4749 12.9681 7.43913C12.8998 7.4001 12.8477 7.38384 12.8022 7.38384C12.7729 7.38384 12.7339 7.38709 12.6851 7.41636C12.6559 7.43913 12.6331 7.4684 12.6168 7.50742C12.6038 7.53995 12.5941 7.58222 12.5843 7.64402C12.5811 7.6928 12.5811 7.75134 12.5811 7.82614C12.5811 7.93346 12.5843 7.9985 12.5973 8.05054C12.6103 8.11558 12.6363 8.16761 12.6754 8.20339C12.7079 8.23591 12.7567 8.26843 12.8087 8.29445C12.8575 8.32047 12.916 8.34648 12.9811 8.3725C13.0461 8.39852 13.1209 8.41803 13.2055 8.43754C13.2575 8.45055 13.3128 8.46356 13.3681 8.47332L13.316 9.00017C13.3128 9.02619 13.3095 9.06521 13.3258 9.114C13.3421 9.15627 13.3778 9.18229 13.4234 9.21156C13.4559 9.22457 13.4982 9.23758 13.5437 9.24408C13.5892 9.25059 13.6445 9.25059 13.7161 9.25059C13.7746 9.25059 13.8234 9.25059 13.8527 9.24408C13.8982 9.24083 13.9372 9.22782 13.9535 9.21806C14.012 9.19855 14.038 9.16278 14.051 9.13676C14.0608 9.11725 14.0738 9.08798 14.0738 9.05871L14.1323 8.48307C14.3015 8.46356 14.4641 8.42454 14.6137 8.36925C14.786 8.3042 14.9389 8.21314 15.0592 8.10257C15.1828 7.992 15.2804 7.85866 15.3519 7.70255C15.4202 7.54645 15.4527 7.37083 15.4527 7.18546C15.4527 7.00984 15.4234 6.85374 15.3682 6.7204C15.2934 6.59682 15.2218 6.48624 15.1275 6.39518Z" fill="white"/>
<path d="M14.0023 0.941406C10.9713 0.941406 8.50293 3.40655 8.50293 6.43757C8.50293 9.46859 10.9681 11.937 14.0023 11.937C17.0301 11.937 19.4985 9.47184 19.4985 6.43757C19.4953 3.4098 17.0301 0.941406 14.0023 0.941406ZM14.0023 10.7825C11.6087 10.7825 9.65745 8.83116 9.65745 6.43757C9.65745 4.04397 11.6087 2.09267 14.0023 2.09267C16.3959 2.09267 18.3472 4.04397 18.3472 6.43757C18.3472 8.83116 16.3959 10.7825 14.0023 10.7825Z" fill="white"/>
</svg>