<svg width="19" height="18" viewBox="0 0 19 18" fill="none" xmlns="http://www.w3.org/2000/svg">
<path d="M18.1165 8.97842L16.3905 10.027V8.68914L17.3371 8.11511C17.4039 8.07312 17.4518 8.00675 17.4705 7.93006C17.4892 7.85338 17.4774 7.77241 17.4374 7.70433L16.3572 5.9273C16.316 5.85972 16.2497 5.81122 16.1729 5.79241C16.096 5.7736 16.0148 5.78602 15.947 5.82695L13.7379 7.16664H10.7972L14.7706 4.75272C14.8375 4.7108 14.8853 4.64447 14.904 4.56782C14.9227 4.49117 14.9108 4.41024 14.8708 4.34224L14.2502 3.32081C14.209 3.2532 14.1426 3.20469 14.0657 3.18593C13.9888 3.16717 13.9076 3.17968 13.8399 3.22073L7.3449 7.16664H3.26175L13.3078 1.06353C13.511 0.940403 13.7548 0.902863 13.9856 0.959138C14.2165 1.01541 14.4156 1.16091 14.5393 1.36375L18.4171 7.74693C18.5386 7.95061 18.5751 8.19385 18.5189 8.42422C18.4626 8.65459 18.3181 8.85363 18.1165 8.97842ZM15.793 8.90606V16.1292C15.7927 16.3668 15.6982 16.5946 15.5302 16.7626C15.3622 16.9307 15.1343 17.0252 14.8967 17.0254H1.4529C1.21527 17.0252 0.98746 16.9307 0.819436 16.7626C0.651412 16.5946 0.556902 16.3668 0.556641 16.1292V8.6604C0.556902 8.42277 0.651412 8.19496 0.819436 8.02694C0.98746 7.85891 1.21527 7.7644 1.4529 7.76414H14.8967C15.0968 7.76677 15.2903 7.83538 15.4474 7.95931C15.6044 8.08324 15.7162 8.25556 15.7652 8.44951C15.7927 8.60004 15.802 8.75331 15.793 8.90606ZM8.02543 14.0379C8.10273 14.035 8.1759 14.0023 8.22956 13.9466C8.28323 13.8909 8.31321 13.8165 8.31321 13.7392C8.31321 13.6618 8.28323 13.5875 8.22956 13.5318C8.1759 13.4761 8.10273 13.4433 8.02543 13.4404C7.94813 13.4433 7.87496 13.4761 7.8213 13.5318C7.76763 13.5875 7.73765 13.6618 7.73765 13.7392C7.73765 13.8165 7.76763 13.8909 7.8213 13.9466C7.87496 14.0023 7.94813 14.035 8.02543 14.0379ZM7.12918 14.0379C7.20648 14.035 7.27964 14.0023 7.33331 13.9466C7.38697 13.8909 7.41696 13.8165 7.41696 13.7392C7.41696 13.6618 7.38697 13.5875 7.33331 13.5318C7.27964 13.4761 7.20648 13.4433 7.12918 13.4404C7.05188 13.4433 6.97871 13.4761 6.92504 13.5318C6.87138 13.5875 6.84139 13.6618 6.84139 13.7392C6.84139 13.8165 6.87138 13.8909 6.92504 13.9466C6.97871 14.0023 7.05188 14.035 7.12918 14.0379ZM5.03791 14.0379C5.11521 14.035 5.18838 14.0023 5.24205 13.9466C5.29571 13.8909 5.3257 13.8165 5.3257 13.7392C5.3257 13.6618 5.29571 13.5875 5.24205 13.5318C5.18838 13.4761 5.11521 13.4433 5.03791 13.4404C4.96062 13.4433 4.88745 13.4761 4.83378 13.5318C4.78012 13.5875 4.75013 13.6618 4.75013 13.7392C4.75013 13.8165 4.78012 13.8909 4.83378 13.9466C4.88745 14.0023 4.96062 14.035 5.03791 14.0379ZM3.84291 13.7392C3.8458 13.8165 3.87854 13.8896 3.93425 13.9433C3.98996 13.997 4.06431 14.027 4.14166 14.027C4.21901 14.027 4.29336 13.997 4.34907 13.9433C4.40478 13.8896 4.43752 13.8165 4.44041 13.7392C4.43752 13.6619 4.40478 13.5887 4.34907 13.535C4.29336 13.4814 4.21901 13.4514 4.14166 13.4514C4.06431 13.4514 3.98996 13.4814 3.93425 13.535C3.87854 13.5887 3.8458 13.6619 3.84291 13.7392ZM2.0504 12.2454H3.84291C3.92214 12.2454 3.99813 12.2139 4.05416 12.1579C4.11018 12.1019 4.14166 12.0259 4.14166 11.9467V10.1542C4.14166 10.0749 4.11018 9.99893 4.05416 9.9429C3.99813 9.88688 3.92214 9.8554 3.84291 9.8554H2.0504C1.97205 9.85818 1.89766 9.89055 1.84223 9.94598C1.78679 10.0014 1.75442 10.0758 1.75165 10.1542V11.9467C1.75384 12.0251 1.78594 12.0997 1.84136 12.1553C1.89679 12.2108 1.97134 12.2431 2.04977 12.2454H2.0504ZM2.94665 13.7392C2.94955 13.8165 2.98229 13.8896 3.038 13.9433C3.09371 13.997 3.16805 14.027 3.2454 14.027C3.32276 14.027 3.3971 13.997 3.45281 13.9433C3.50852 13.8896 3.54126 13.8165 3.54416 13.7392C3.54126 13.6619 3.50852 13.5887 3.45281 13.535C3.3971 13.4814 3.32276 13.4514 3.2454 13.4514C3.16805 13.4514 3.09371 13.4814 3.038 13.535C2.98229 13.5887 2.94955 13.6619 2.94665 13.7392ZM14.0005 14.9342C14.0005 14.8549 13.969 14.779 13.913 14.7229C13.8569 14.6669 13.7809 14.6354 13.7017 14.6354H2.6479C2.56867 14.6354 2.49268 14.6669 2.43665 14.7229C2.38063 14.779 2.34915 14.8549 2.34915 14.9342C2.34915 15.0134 2.38063 15.0894 2.43665 15.1454C2.49268 15.2015 2.56867 15.2329 2.6479 15.2329H13.7017C13.7809 15.2329 13.8569 15.2015 13.913 15.1454C13.969 15.0894 14.0005 15.0134 14.0005 14.9342ZM9.22044 13.7392C9.21754 13.6619 9.1848 13.5887 9.12909 13.535C9.07338 13.4814 8.99904 13.4514 8.92169 13.4514C8.84433 13.4514 8.76999 13.4814 8.71428 13.535C8.65857 13.5887 8.62583 13.6619 8.62293 13.7392C8.62583 13.8165 8.65857 13.8896 8.71428 13.9433C8.76999 13.997 8.84433 14.027 8.92169 14.027C8.99904 14.027 9.07338 13.997 9.12909 13.9433C9.1848 13.8896 9.21754 13.8165 9.22044 13.7392ZM10.1167 13.7392C10.1138 13.6619 10.0811 13.5887 10.0253 13.535C9.96964 13.4814 9.89529 13.4514 9.81794 13.4514C9.74059 13.4514 9.66624 13.4814 9.61053 13.535C9.55482 13.5887 9.52208 13.6619 9.51919 13.7392C9.52208 13.8165 9.55482 13.8896 9.61053 13.9433C9.66624 13.997 9.74059 14.027 9.81794 14.027C9.89529 14.027 9.96964 13.997 10.0253 13.9433C10.0811 13.8896 10.1138 13.8165 10.1167 13.7392ZM11.0129 13.7392C11.0101 13.6619 10.9773 13.5887 10.9216 13.535C10.8659 13.4814 10.7915 13.4514 10.7142 13.4514C10.6368 13.4514 10.5625 13.4814 10.5068 13.535C10.4511 13.5887 10.4183 13.6619 10.4154 13.7392C10.4183 13.8165 10.4511 13.8896 10.5068 13.9433C10.5625 13.997 10.6368 14.027 10.7142 14.027C10.7915 14.027 10.8659 13.997 10.9216 13.9433C10.9773 13.8896 11.0101 13.8165 11.0129 13.7392ZM11.9092 13.7392C11.9063 13.6619 11.8736 13.5887 11.8179 13.535C11.7621 13.4814 11.6878 13.4514 11.6104 13.4514C11.5331 13.4514 11.4588 13.4814 11.403 13.535C11.3473 13.5887 11.3146 13.6619 11.3117 13.7392C11.3146 13.8165 11.3473 13.8896 11.403 13.9433C11.4588 13.997 11.5331 14.027 11.6104 14.027C11.6878 14.027 11.7621 13.997 11.8179 13.9433C11.8736 13.8896 11.9063 13.8165 11.9092 13.7392ZM12.8055 13.7392C12.8026 13.6619 12.7698 13.5887 12.7141 13.535C12.6584 13.4814 12.5841 13.4514 12.5067 13.4514C12.4294 13.4514 12.355 13.4814 12.2993 13.535C12.2436 13.5887 12.2108 13.6619 12.208 13.7392C12.2108 13.8165 12.2436 13.8896 12.2993 13.9433C12.355 13.997 12.4294 14.027 12.5067 14.027C12.5841 14.027 12.6584 13.997 12.7141 13.9433C12.7698 13.8896 12.8026 13.8165 12.8055 13.7392ZM13.7017 13.7392C13.6988 13.6619 13.6661 13.5887 13.6104 13.535C13.5547 13.4814 13.4803 13.4514 13.403 13.4514C13.3256 13.4514 13.2513 13.4814 13.1956 13.535C13.1398 13.5887 13.1071 13.6619 13.1042 13.7392C13.1071 13.8165 13.1398 13.8896 13.1956 13.9433C13.2513 13.997 13.3256 14.027 13.403 14.027C13.4803 14.027 13.5547 13.997 13.6104 13.9433C13.6661 13.8896 13.6988 13.8165 13.7017 13.7392ZM13.7017 10.1542H8.32418C8.24674 10.1568 8.17336 10.1895 8.11953 10.2452C8.06569 10.301 8.0356 10.3754 8.0356 10.4529C8.0356 10.5304 8.06569 10.6049 8.11953 10.6606C8.17336 10.7163 8.24674 10.749 8.32418 10.7517H13.7017C13.7792 10.749 13.8525 10.7163 13.9064 10.6606C13.9602 10.6049 13.9903 10.5304 13.9903 10.4529C13.9903 10.3754 13.9602 10.301 13.9064 10.2452C13.8525 10.1895 13.7792 10.1568 13.7017 10.1542ZM13.7017 9.2579H9.81794C9.7405 9.26058 9.66712 9.29323 9.61329 9.34896C9.55945 9.4047 9.52936 9.47916 9.52936 9.55665C9.52936 9.63414 9.55945 9.7086 9.61329 9.76433C9.66712 9.82007 9.7405 9.85272 9.81794 9.8554H13.7017C13.7792 9.85272 13.8525 9.82007 13.9064 9.76433C13.9602 9.7086 13.9903 9.63414 13.9903 9.55665C13.9903 9.47916 13.9602 9.4047 13.9064 9.34896C13.8525 9.29323 13.7792 9.26058 13.7017 9.2579ZM2.93554 11.6479H3.54416V11.3492H3.09938C3.06226 11.4574 3.00684 11.5584 2.93554 11.6479ZM2.34915 11.4018C2.40229 11.3652 2.44737 11.3181 2.48161 11.2634C2.51586 11.2086 2.53854 11.1475 2.54827 11.0837C2.52785 10.9466 2.45681 10.8221 2.34915 10.7348V11.4018ZM3.0776 10.7517H3.54416V10.4529H2.89942C2.97288 10.5434 3.03289 10.644 3.0776 10.7517Z" fill="white"/>
</svg>
