<svg width="17" height="16" viewBox="0 0 17 16" fill="none" xmlns="http://www.w3.org/2000/svg">
<path d="M4.95699 3.79294C4.95699 2.84112 5.3351 1.92829 6.00814 1.25525C6.68118 0.58221 7.59401 0.204102 8.54583 0.204102C9.49765 0.204102 10.4105 0.58221 11.0835 1.25525C11.7566 1.92829 12.1347 2.84112 12.1347 3.79294V6.1855C12.1347 7.13732 11.7566 8.05016 11.0835 8.72319C10.4105 9.39623 9.49765 9.77434 8.54583 9.77434C7.59401 9.77434 6.68118 9.39623 6.00814 8.72319C5.3351 8.05016 4.95699 7.13732 4.95699 6.1855V3.79294ZM0.171875 14.5595C0.770015 12.765 4.95699 10.9706 7.34955 10.9706H9.74211C12.1347 10.9706 16.3217 12.765 16.9198 14.5595V15.7557H0.171875V14.5595Z" fill="white"/>
</svg>
