<svg width="21" height="21" viewBox="0 0 21 21" fill="none" xmlns="http://www.w3.org/2000/svg">
<path d="M20.8293 12.6428C20.6765 12.3989 20.4423 12.2265 20.1691 12.1647C20.0878 12.1452 20.0065 12.1355 19.9252 12.1355C19.7268 12.1355 19.5317 12.1908 19.3626 12.2948L14.5852 15.1665L14.5884 15.2088C14.5917 15.2315 14.5884 15.2576 14.5852 15.2901L14.5884 15.3486L14.5754 15.3649L14.5721 15.3844C14.5169 15.6868 14.3738 15.9568 14.1656 16.1649C13.8924 16.4413 13.525 16.5942 13.1282 16.5942H8.7963C8.64995 16.5942 8.52962 16.4739 8.52962 16.3275C8.52962 16.1812 8.64995 16.0608 8.7963 16.0608H13.1282C13.3786 16.0608 13.6128 15.9633 13.7916 15.7877C13.9185 15.6608 14.0095 15.4852 14.0518 15.2901L14.0616 15.2283V15.186C14.0616 15.1535 14.0648 15.1145 14.0583 15.0527C14.0551 15.0429 14.0551 15.0234 14.0551 15.0006C13.99 14.5388 13.5705 14.1908 13.0762 14.1908H11.2257C10.3866 14.1908 9.57357 13.9437 8.8776 13.4786C8.20441 13.0331 7.55072 12.7534 6.93931 12.6493C6.74418 12.6135 6.53279 12.594 6.29538 12.594C6.20757 12.594 6.11651 12.5973 6.01895 12.6005C5.8661 12.607 5.6417 12.607 5.39128 12.607C5.0498 12.607 4.65954 12.6038 4.34733 12.6005H4.27254L4.82215 18.0934V18.139L4.86443 18.1552C5.46933 18.3861 6.10676 18.7114 6.35067 18.8414L6.38319 18.8577C6.845 19.1016 7.09867 19.235 7.23851 19.3325C8.0483 19.7488 8.90687 19.9569 9.79146 19.9569C11.0501 19.9569 12.0387 19.5244 12.4192 19.2707L20.4846 14.103C20.8131 13.8981 21.0017 13.5469 20.9919 13.1632C20.9854 12.9875 20.9301 12.8054 20.8293 12.6428ZM4.3018 18.3276L3.70991 12.4607V12.4412L3.70341 12.4282C3.6904 12.4021 3.68389 12.3664 3.68389 12.3241C3.68389 12.3046 3.68715 12.2916 3.6904 12.246L3.6156 11.498L1.18298 11.8525L0.174805 20.2659L4.40262 19.3585L4.30831 18.3829L4.3018 18.3276Z" fill="#5F6FFF"/>
<path d="M14.6275 6.28483C14.5364 6.19702 14.4324 6.12222 14.3185 6.06043C14.208 6.00189 14.0941 5.94986 13.9771 5.90433C13.8958 5.87181 13.6453 5.78075 13.6453 5.78075C13.551 5.74822 13.4567 5.7092 13.3722 5.66042C13.2974 5.61814 13.2388 5.56936 13.1998 5.51732C13.1608 5.46529 13.1445 5.40675 13.1445 5.33195C13.1445 5.28316 13.1543 5.24089 13.1705 5.20511C13.1868 5.16609 13.2096 5.13682 13.2421 5.1108C13.2811 5.08153 13.3299 5.05876 13.3982 5.03925C13.4632 5.02299 13.5478 5.01323 13.6453 5.01323C13.7527 5.01323 13.8502 5.02624 13.938 5.04901C14.0324 5.07503 14.1137 5.1043 14.1852 5.13356C14.26 5.16283 14.3153 5.1921 14.3641 5.21487C14.4291 5.25064 14.4844 5.2669 14.5299 5.2669C14.5722 5.2669 14.6112 5.25064 14.621 5.23763C14.6503 5.21812 14.673 5.1856 14.686 5.15308C14.7023 5.11405 14.7056 5.07503 14.7121 5.02624C14.7153 4.98396 14.7186 4.93193 14.7186 4.86363L14.7153 4.72704C14.7121 4.68151 14.7056 4.64574 14.7023 4.63273C14.6958 4.59045 14.686 4.55468 14.6698 4.52541C14.6568 4.50264 14.6373 4.47988 14.621 4.46362C14.595 4.4311 14.556 4.41158 14.4909 4.37581C14.4421 4.3563 14.3901 4.33353 14.3348 4.31402C14.273 4.29125 14.2112 4.27499 14.1462 4.26198C14.1137 4.25223 14.0811 4.24572 14.0486 4.23922L14.1007 3.73838C14.1007 3.71562 14.1007 3.6831 14.0876 3.64732C14.0714 3.59854 14.0389 3.56602 13.9998 3.54976C13.9608 3.52699 13.9153 3.52049 13.8697 3.51073C13.821 3.50423 13.7624 3.50098 13.6941 3.50098C13.6356 3.50098 13.5933 3.50423 13.5575 3.50748C13.512 3.51073 13.473 3.52049 13.4437 3.53675C13.4079 3.55626 13.3819 3.57578 13.3657 3.59854C13.3461 3.62456 13.3396 3.65383 13.3364 3.6896L13.2844 4.22946C13.1315 4.25223 12.9917 4.288 12.8616 4.34329C12.7087 4.40508 12.5754 4.48964 12.4713 4.5937C12.364 4.69777 12.2827 4.82136 12.2274 4.95795C12.1721 5.09454 12.1428 5.25064 12.1428 5.41325C12.1428 5.60838 12.1721 5.76123 12.2274 5.88481C12.2827 6.01815 12.3575 6.13198 12.4485 6.22304C12.5396 6.3141 12.6372 6.3889 12.7575 6.45394C12.8681 6.51248 12.9787 6.56452 13.0925 6.61005C13.2031 6.65233 13.3136 6.6946 13.4209 6.73038C13.5185 6.7629 13.6063 6.80518 13.6909 6.85396C13.7624 6.89299 13.821 6.93852 13.8632 6.9938C13.899 7.03933 13.9153 7.09787 13.9153 7.17593C13.9153 7.293 13.873 7.38081 13.7819 7.45236C13.6844 7.52716 13.525 7.56619 13.3071 7.56619C13.1673 7.56619 13.0404 7.54992 12.9299 7.52391C12.8225 7.49464 12.7282 7.46212 12.6567 7.42959C12.5851 7.39382 12.5233 7.36455 12.4681 7.32878C12.3998 7.28975 12.3477 7.27349 12.3022 7.27349C12.2729 7.27349 12.2339 7.27674 12.1851 7.30601C12.1559 7.32878 12.1331 7.35805 12.1168 7.39707C12.1038 7.42959 12.0941 7.47187 12.0843 7.53366C12.0811 7.58245 12.0811 7.64099 12.0811 7.71579C12.0811 7.82311 12.0843 7.88815 12.0973 7.94018C12.1103 8.00523 12.1363 8.05726 12.1754 8.09304C12.2079 8.12556 12.2567 8.15808 12.3087 8.1841C12.3575 8.21011 12.416 8.23613 12.4811 8.26215C12.5461 8.28817 12.6209 8.30768 12.7055 8.32719C12.7575 8.3402 12.8128 8.35321 12.8681 8.36297L12.816 8.88982C12.8128 8.91583 12.8095 8.95486 12.8258 9.00364C12.8421 9.04592 12.8778 9.07194 12.9234 9.10121C12.9559 9.11422 12.9982 9.12723 13.0437 9.13373C13.0892 9.14023 13.1445 9.14023 13.2161 9.14023C13.2746 9.14023 13.3234 9.14023 13.3527 9.13373C13.3982 9.13048 13.4372 9.11747 13.4535 9.10771C13.512 9.0882 13.538 9.05243 13.551 9.02641C13.5608 9.0069 13.5738 8.97763 13.5738 8.94836L13.6323 8.37272C13.8015 8.35321 13.9641 8.31418 14.1137 8.2589C14.286 8.19385 14.4389 8.10279 14.5592 7.99222C14.6828 7.88165 14.7804 7.74831 14.8519 7.5922C14.9202 7.4361 14.9527 7.26048 14.9527 7.07511C14.9527 6.89949 14.9234 6.74339 14.8682 6.61005C14.7934 6.48647 14.7218 6.37589 14.6275 6.28483Z" fill="#5F6FFF"/>
<path d="M13.5023 0.831055C10.4713 0.831055 8.00293 3.2962 8.00293 6.32722C8.00293 9.35824 10.4681 11.8266 13.5023 11.8266C16.5301 11.8266 18.9985 9.36149 18.9985 6.32722C18.9953 3.29945 16.5301 0.831055 13.5023 0.831055ZM13.5023 10.6721C11.1087 10.6721 9.15745 8.72081 9.15745 6.32722C9.15745 3.93362 11.1087 1.98232 13.5023 1.98232C15.8959 1.98232 17.8472 3.93362 17.8472 6.32722C17.8472 8.72081 15.8959 10.6721 13.5023 10.6721Z" fill="#5F6FFF"/>
</svg>
