<svg width="19" height="17" viewBox="0 0 19 17" fill="none" xmlns="http://www.w3.org/2000/svg">
<path d="M17.6165 8.20107L15.8905 9.24963V7.91179L16.8371 7.33777C16.9039 7.29578 16.9518 7.22941 16.9705 7.15272C16.9892 7.07603 16.9774 6.99507 16.9374 6.92699L15.8572 5.14995C15.816 5.08238 15.7497 5.03387 15.6729 5.01507C15.596 4.99626 15.5148 5.00868 15.447 5.0496L13.2379 6.38929H10.2972L14.2706 3.97538C14.3375 3.93346 14.3853 3.86712 14.404 3.79048C14.4227 3.71383 14.4108 3.6329 14.3708 3.5649L13.7502 2.54346C13.709 2.47585 13.6426 2.42735 13.5657 2.40859C13.4888 2.38982 13.4076 2.40234 13.3399 2.44338L6.8449 6.38929H2.76175L12.8078 0.286187C13.011 0.163059 13.2548 0.125519 13.4856 0.181794C13.7165 0.238069 13.9156 0.383569 14.0393 0.586402L17.9171 6.96959C18.0386 7.17326 18.0751 7.41651 18.0189 7.64688C17.9626 7.87724 17.8181 8.07628 17.6165 8.20107ZM15.293 8.12871V15.3518C15.2927 15.5895 15.1982 15.8173 15.0302 15.9853C14.8622 16.1533 14.6343 16.2478 14.3967 16.2481H0.952895C0.715274 16.2478 0.48746 16.1533 0.319436 15.9853C0.151412 15.8173 0.0569016 15.5895 0.0566406 15.3518V7.88305C0.0569016 7.64543 0.151412 7.41762 0.319436 7.24959C0.48746 7.08157 0.715274 6.98706 0.952895 6.9868H14.3967C14.5968 6.98942 14.7903 7.05803 14.9474 7.18196C15.1044 7.30589 15.2162 7.47821 15.2652 7.67216C15.2927 7.82269 15.302 7.97597 15.293 8.12871ZM7.52543 13.2606C7.60273 13.2577 7.6759 13.2249 7.72956 13.1692C7.78323 13.1135 7.81321 13.0392 7.81321 12.9618C7.81321 12.8845 7.78323 12.8101 7.72956 12.7544C7.6759 12.6987 7.60273 12.666 7.52543 12.6631C7.44813 12.666 7.37496 12.6987 7.3213 12.7544C7.26763 12.8101 7.23765 12.8845 7.23765 12.9618C7.23765 13.0392 7.26763 13.1135 7.3213 13.1692C7.37496 13.2249 7.44813 13.2577 7.52543 13.2606ZM6.62918 13.2606C6.70648 13.2577 6.77964 13.2249 6.83331 13.1692C6.88697 13.1135 6.91696 13.0392 6.91696 12.9618C6.91696 12.8845 6.88697 12.8101 6.83331 12.7544C6.77964 12.6987 6.70648 12.666 6.62918 12.6631C6.55188 12.666 6.47871 12.6987 6.42504 12.7544C6.37138 12.8101 6.34139 12.8845 6.34139 12.9618C6.34139 13.0392 6.37138 13.1135 6.42504 13.1692C6.47871 13.2249 6.55188 13.2577 6.62918 13.2606ZM4.53791 13.2606C4.61521 13.2577 4.68838 13.2249 4.74205 13.1692C4.79571 13.1135 4.8257 13.0392 4.8257 12.9618C4.8257 12.8845 4.79571 12.8101 4.74205 12.7544C4.68838 12.6987 4.61521 12.666 4.53791 12.6631C4.46062 12.666 4.38745 12.6987 4.33378 12.7544C4.28012 12.8101 4.25013 12.8845 4.25013 12.9618C4.25013 13.0392 4.28012 13.1135 4.33378 13.1692C4.38745 13.2249 4.46062 13.2577 4.53791 13.2606ZM3.34291 12.9618C3.3458 13.0391 3.37854 13.1123 3.43425 13.166C3.48996 13.2196 3.56431 13.2496 3.64166 13.2496C3.71901 13.2496 3.79336 13.2196 3.84907 13.166C3.90478 13.1123 3.93752 13.0391 3.94041 12.9618C3.93752 12.8845 3.90478 12.8114 3.84907 12.7577C3.79336 12.704 3.71901 12.674 3.64166 12.674C3.56431 12.674 3.48996 12.704 3.43425 12.7577C3.37854 12.8114 3.3458 12.8845 3.34291 12.9618ZM1.5504 11.4681H3.34291C3.42214 11.4681 3.49813 11.4366 3.55416 11.3806C3.61018 11.3245 3.64166 11.2486 3.64166 11.1693V9.37681C3.64166 9.29757 3.61018 9.22159 3.55416 9.16556C3.49813 9.10953 3.42214 9.07806 3.34291 9.07806H1.5504C1.47205 9.08084 1.39766 9.1132 1.34223 9.16864C1.28679 9.22407 1.25442 9.29846 1.25165 9.37681V11.1693C1.25384 11.2478 1.28594 11.3224 1.34136 11.3779C1.39679 11.4335 1.47134 11.4657 1.54977 11.4681H1.5504ZM2.44665 12.9618C2.44955 13.0391 2.48229 13.1123 2.538 13.166C2.59371 13.2196 2.66805 13.2496 2.7454 13.2496C2.82276 13.2496 2.8971 13.2196 2.95281 13.166C3.00852 13.1123 3.04126 13.0391 3.04416 12.9618C3.04126 12.8845 3.00852 12.8114 2.95281 12.7577C2.8971 12.704 2.82276 12.674 2.7454 12.674C2.66805 12.674 2.59371 12.704 2.538 12.7577C2.48229 12.8114 2.44955 12.8845 2.44665 12.9618ZM13.5005 14.1568C13.5005 14.0776 13.469 14.0016 13.413 13.9456C13.3569 13.8896 13.2809 13.8581 13.2017 13.8581H2.1479C2.06867 13.8581 1.99268 13.8896 1.93665 13.9456C1.88063 14.0016 1.84915 14.0776 1.84915 14.1568C1.84915 14.2361 1.88063 14.3121 1.93665 14.3681C1.99268 14.4241 2.06867 14.4556 2.1479 14.4556H13.2017C13.2809 14.4556 13.3569 14.4241 13.413 14.3681C13.469 14.3121 13.5005 14.2361 13.5005 14.1568ZM8.72044 12.9618C8.71754 12.8845 8.6848 12.8114 8.62909 12.7577C8.57338 12.704 8.49904 12.674 8.42169 12.674C8.34433 12.674 8.26999 12.704 8.21428 12.7577C8.15857 12.8114 8.12583 12.8845 8.12293 12.9618C8.12583 13.0391 8.15857 13.1123 8.21428 13.166C8.26999 13.2196 8.34433 13.2496 8.42169 13.2496C8.49904 13.2496 8.57338 13.2196 8.62909 13.166C8.6848 13.1123 8.71754 13.0391 8.72044 12.9618ZM9.61669 12.9618C9.6138 12.8845 9.58106 12.8114 9.52535 12.7577C9.46964 12.704 9.39529 12.674 9.31794 12.674C9.24059 12.674 9.16624 12.704 9.11053 12.7577C9.05482 12.8114 9.02208 12.8845 9.01919 12.9618C9.02208 13.0391 9.05482 13.1123 9.11053 13.166C9.16624 13.2196 9.24059 13.2496 9.31794 13.2496C9.39529 13.2496 9.46964 13.2196 9.52535 13.166C9.58106 13.1123 9.6138 13.0391 9.61669 12.9618ZM10.5129 12.9618C10.5101 12.8845 10.4773 12.8114 10.4216 12.7577C10.3659 12.704 10.2915 12.674 10.2142 12.674C10.1368 12.674 10.0625 12.704 10.0068 12.7577C9.95108 12.8114 9.91834 12.8845 9.91544 12.9618C9.91834 13.0391 9.95108 13.1123 10.0068 13.166C10.0625 13.2196 10.1368 13.2496 10.2142 13.2496C10.2915 13.2496 10.3659 13.2196 10.4216 13.166C10.4773 13.1123 10.5101 13.0391 10.5129 12.9618ZM11.4092 12.9618C11.4063 12.8845 11.3736 12.8114 11.3179 12.7577C11.2621 12.704 11.1878 12.674 11.1104 12.674C11.0331 12.674 10.9588 12.704 10.903 12.7577C10.8473 12.8114 10.8146 12.8845 10.8117 12.9618C10.8146 13.0391 10.8473 13.1123 10.903 13.166C10.9588 13.2196 11.0331 13.2496 11.1104 13.2496C11.1878 13.2496 11.2621 13.2196 11.3179 13.166C11.3736 13.1123 11.4063 13.0391 11.4092 12.9618ZM12.3055 12.9618C12.3026 12.8845 12.2698 12.8114 12.2141 12.7577C12.1584 12.704 12.0841 12.674 12.0067 12.674C11.9294 12.674 11.855 12.704 11.7993 12.7577C11.7436 12.8114 11.7108 12.8845 11.708 12.9618C11.7108 13.0391 11.7436 13.1123 11.7993 13.166C11.855 13.2196 11.9294 13.2496 12.0067 13.2496C12.0841 13.2496 12.1584 13.2196 12.2141 13.166C12.2698 13.1123 12.3026 13.0391 12.3055 12.9618ZM13.2017 12.9618C13.1988 12.8845 13.1661 12.8114 13.1104 12.7577C13.0547 12.704 12.9803 12.674 12.903 12.674C12.8256 12.674 12.7513 12.704 12.6956 12.7577C12.6398 12.8114 12.6071 12.8845 12.6042 12.9618C12.6071 13.0391 12.6398 13.1123 12.6956 13.166C12.7513 13.2196 12.8256 13.2496 12.903 13.2496C12.9803 13.2496 13.0547 13.2196 13.1104 13.166C13.1661 13.1123 13.1988 13.0391 13.2017 12.9618ZM13.2017 9.37681H7.82418C7.74674 9.37949 7.67336 9.41214 7.61953 9.46788C7.56569 9.52361 7.5356 9.59807 7.5356 9.67556C7.5356 9.75305 7.56569 9.82751 7.61953 9.88325C7.67336 9.93898 7.74674 9.97163 7.82418 9.97431H13.2017C13.2792 9.97163 13.3525 9.93898 13.4064 9.88325C13.4602 9.82751 13.4903 9.75305 13.4903 9.67556C13.4903 9.59807 13.4602 9.52361 13.4064 9.46788C13.3525 9.41214 13.2792 9.37949 13.2017 9.37681ZM13.2017 8.48055H9.31794C9.2405 8.48324 9.16712 8.51589 9.11329 8.57162C9.05945 8.62735 9.02936 8.70182 9.02936 8.77931C9.02936 8.8568 9.05945 8.93126 9.11329 8.98699C9.16712 9.04272 9.2405 9.07537 9.31794 9.07806H13.2017C13.2792 9.07537 13.3525 9.04272 13.4064 8.98699C13.4602 8.93126 13.4903 8.8568 13.4903 8.77931C13.4903 8.70182 13.4602 8.62735 13.4064 8.57162C13.3525 8.51589 13.2792 8.48324 13.2017 8.48055ZM2.43554 10.8706H3.04416V10.5718H2.59938C2.56226 10.68 2.50684 10.7811 2.43554 10.8706ZM1.84915 10.6245C1.90229 10.5878 1.94737 10.5407 1.98161 10.486C2.01586 10.4313 2.03854 10.3702 2.04827 10.3063C2.02785 10.1692 1.95681 10.0448 1.84915 9.95743V10.6245ZM2.5776 9.97431H3.04416V9.67556H2.39942C2.47288 9.76605 2.53289 9.86667 2.5776 9.97431Z" fill="#5F6FFF"/>
</svg>
