<svg width="16" height="16" viewBox="0 0 16 16" fill="none" xmlns="http://www.w3.org/2000/svg">
<g id="icon/navigation/cancel_24px">
<path id="icon/navigation/cancel_24px_2" fill-rule="evenodd" clip-rule="evenodd" d="M1.33398 7.99992C1.33398 4.31325 4.31398 1.33325 8.00065 1.33325C11.6873 1.33325 14.6673 4.31325 14.6673 7.99992C14.6673 11.6866 11.6873 14.6666 8.00065 14.6666C4.31398 14.6666 1.33398 11.6866 1.33398 7.99992ZM9.92709 10.8666C10.1871 11.1266 10.6071 11.1266 10.8671 10.8666C11.1204 10.6066 11.1204 10.1799 10.8671 9.92659L8.94042 7.99993L10.8671 6.07326C11.1271 5.81326 11.1271 5.39326 10.8671 5.13326C10.6071 4.87326 10.1871 4.87326 9.92709 5.13326L8.00042 7.05993L6.07376 5.13326C5.81376 4.87326 5.39375 4.87326 5.13375 5.13326C5.00892 5.25782 4.93876 5.42692 4.93876 5.60326C4.93876 5.77961 5.00892 5.94871 5.13375 6.07326L7.06042 7.99993L5.13375 9.92659C5.00892 10.0511 4.93876 10.2203 4.93876 10.3966C4.93876 10.5729 5.00892 10.742 5.13375 10.8666C5.39375 11.1266 5.81376 11.1266 6.07376 10.8666L8.00042 8.93993L9.92709 10.8666Z" fill="#FF5959"/>
</g>
</svg>
