<svg width="32" height="32" viewBox="0 0 32 32" fill="none" xmlns="http://www.w3.org/2000/svg">
<path d="M24.4 7.6134C24.1509 7.36373 23.8127 7.22342 23.46 7.22342C23.1073 7.22342 22.7691 7.36373 22.52 7.6134L16 14.1201L9.47996 7.60006C9.23085 7.35039 8.89265 7.21008 8.53996 7.21008C8.18727 7.21008 7.84907 7.35039 7.59996 7.60006C7.07996 8.12006 7.07996 8.96006 7.59996 9.48006L14.12 16.0001L7.59996 22.5201C7.07996 23.0401 7.07996 23.8801 7.59996 24.4001C8.11996 24.9201 8.95996 24.9201 9.47996 24.4001L16 17.8801L22.52 24.4001C23.04 24.9201 23.88 24.9201 24.4 24.4001C24.92 23.8801 24.92 23.0401 24.4 22.5201L17.88 16.0001L24.4 9.48006C24.9066 8.9734 24.9066 8.12006 24.4 7.6134Z" fill="#EA001B"/>
</svg>
