<svg width="17" height="17" viewBox="0 0 17 17" fill="none" xmlns="http://www.w3.org/2000/svg">
<path fill-rule="evenodd" clip-rule="evenodd" d="M10.3347 2.7324L10.808 3.20573H12.4747C12.8413 3.20573 13.1413 3.50573 13.1413 3.8724C13.1413 4.23906 12.8413 4.53906 12.4747 4.53906H4.47465C4.10798 4.53906 3.80798 4.23906 3.80798 3.8724C3.80798 3.50573 4.10798 3.20573 4.47465 3.20573H6.14132L6.61465 2.7324C6.73465 2.6124 6.90798 2.53906 7.08132 2.53906H9.86798C10.0413 2.53906 10.2147 2.6124 10.3347 2.7324ZM4.47465 13.2057C4.47465 13.9391 5.07465 14.5391 5.80798 14.5391H11.1413C11.8747 14.5391 12.4747 13.9391 12.4747 13.2057V6.53906C12.4747 5.80573 11.8747 5.20573 11.1413 5.20573H5.80798C5.07465 5.20573 4.47465 5.80573 4.47465 6.53906V13.2057ZM6.588 7.98575C6.848 7.72575 7.268 7.72575 7.528 7.98575L8.47467 8.93242L9.42134 7.98575C9.68134 7.72575 10.1013 7.72575 10.3613 7.98575C10.6213 8.24575 10.6213 8.66575 10.3613 8.92575L9.41467 9.87242L10.3613 10.8191C10.6213 11.0791 10.6213 11.4991 10.3613 11.7591C10.1013 12.0191 9.68134 12.0191 9.42134 11.7591L8.47467 10.8124L7.528 11.7591C7.268 12.0191 6.848 12.0191 6.588 11.7591C6.46317 11.6345 6.39301 11.4654 6.39301 11.2891C6.39301 11.1127 6.46317 10.9436 6.588 10.8191L7.53467 9.87242L6.588 8.92575C6.328 8.67242 6.328 8.24575 6.588 7.98575Z" fill="#FF5959"/>
</svg>
