<svg width="201" height="201" viewBox="0 0 201 201" fill="none" xmlns="http://www.w3.org/2000/svg">
<g clip-path="url(#clip0)">
<path d="M31.4629 25.4448C38.366 25.4448 43.9629 19.8479 43.9629 12.9448C43.9629 6.0417 38.366 0.444824 31.4629 0.444824C24.5598 0.444824 18.9629 6.0417 18.9629 12.9448C18.9629 19.8479 24.5598 25.4448 31.4629 25.4448Z" fill="url(#paint0_radial)"/>
<path d="M23.6504 200.445C29.691 200.445 34.5879 195.548 34.5879 189.507C34.5879 183.467 29.691 178.57 23.6504 178.57C17.6098 178.57 12.7129 183.467 12.7129 189.507C12.7129 195.548 17.6098 200.445 23.6504 200.445Z" fill="url(#paint1_radial)"/>
<path d="M193.963 64.5073C193.963 56.7417 187.666 50.4448 179.9 50.4448H137.713C130.81 50.4448 125.213 44.8479 125.213 37.9448C125.213 31.0417 130.81 25.4448 137.713 25.4448H143.963C150.866 25.4448 156.463 19.8479 156.463 12.9448C156.463 6.0417 150.866 0.444824 143.963 0.444824H68.9629C62.0598 0.444824 56.4629 6.0417 56.4629 12.9448C56.4629 19.8479 62.0598 25.4448 68.9629 25.4448H75.2129C80.391 25.4448 84.5879 29.6417 84.5879 34.8198C84.5879 39.9979 80.391 44.1948 75.2129 44.1948H31.4629C26.2848 44.1948 22.0879 48.3917 22.0879 53.5698V56.6948C22.0879 61.8729 26.2848 66.0698 31.4629 66.0698H40.8379C46.016 66.0698 50.2129 70.2667 50.2129 75.4448C50.2129 80.6229 46.016 84.8198 40.8379 84.8198H25.2129C16.5848 84.8198 9.58789 91.8167 9.58789 100.445C9.58789 109.073 16.5848 116.07 25.2129 116.07H42.4004C48.441 116.07 53.3379 120.967 53.3379 127.007C53.3379 133.048 48.441 137.945 42.4004 137.945H28.3379C21.4348 137.945 15.8379 143.542 15.8379 150.445C15.8379 157.348 21.4348 162.945 28.3379 162.945H54.9004C59.216 162.945 62.7129 166.442 62.7129 170.757C62.7129 175.073 59.216 178.57 54.9004 178.57C48.8598 178.57 43.9629 183.467 43.9629 189.507C43.9629 195.548 48.8598 200.445 54.9004 200.445H148.65C154.691 200.445 159.588 195.548 159.588 189.507C159.588 183.467 154.691 178.57 148.65 178.57H147.088C143.635 178.57 140.838 175.773 140.838 172.32C140.838 168.867 143.635 166.07 147.088 166.07H168.963C175.866 166.07 181.463 160.473 181.463 153.57C181.463 146.667 175.866 141.07 168.963 141.07H151.775C147.46 141.07 143.963 137.573 143.963 133.257C143.963 128.942 147.46 125.445 151.775 125.445H153.338C160.241 125.445 165.838 119.848 165.838 112.945C165.838 106.042 160.241 100.445 153.338 100.445H148.65C142.61 100.445 137.713 95.548 137.713 89.5073C137.713 83.4667 142.61 78.5698 148.65 78.5698H179.9C187.666 78.5698 193.963 72.2729 193.963 64.5073Z" fill="url(#paint2_radial)"/>
<path d="M184.588 125.445C177.685 125.445 172.088 119.848 172.088 112.945C172.088 106.042 177.685 100.445 184.588 100.445C191.491 100.445 197.088 106.042 197.088 112.945C197.088 119.848 191.491 125.445 184.588 125.445Z" fill="url(#paint3_radial)"/>
<path d="M157.033 57.2651L149.393 49.6251C149.02 49.2513 148.578 48.9546 148.09 48.7521C147.603 48.5497 147.081 48.4453 146.553 48.4451H140.213V70.4451C140.21 71.505 139.787 72.5205 139.038 73.27C138.288 74.0195 137.273 74.4419 136.213 74.4451H104.213C103.153 74.4419 102.137 74.0195 101.388 73.27C100.638 72.5205 100.216 71.505 100.213 70.4451V66.4451H80.2129C79.153 66.4419 78.1374 66.0195 77.388 65.27C76.6385 64.5205 76.2161 63.505 76.2129 62.4451V48.4451H46.2129C45.153 48.4482 44.1374 48.8707 43.388 49.6201C42.6385 50.3696 42.2161 51.3852 42.2129 52.4451V154.445C42.2161 155.505 42.6385 156.521 43.388 157.27C44.1374 158.019 45.153 158.442 46.2129 158.445H154.213C155.273 158.442 156.288 158.019 157.038 157.27C157.787 156.521 158.21 155.505 158.213 154.445V60.1051C158.213 59.5773 158.108 59.0548 157.906 58.5675C157.703 58.0802 157.407 57.6376 157.033 57.2651ZM134.213 132.445H106.213V124.445H116.213L100.213 104.445L84.2129 124.445H94.2129V132.445H76.2129C71.439 132.445 66.8606 130.549 63.485 127.173C60.1093 123.797 58.2129 119.219 58.2129 114.445C58.2129 109.671 60.1093 105.093 63.485 101.717C66.8606 98.3415 71.439 96.4451 76.2129 96.4451C76.5329 96.4451 76.8329 96.4851 77.1329 96.4851C79.7518 91.4216 83.964 87.3605 89.1197 84.9282C94.2755 82.496 100.088 81.8277 105.661 83.0265C111.235 84.2253 116.259 87.2246 119.958 91.5616C123.658 95.8987 125.828 101.333 126.133 107.025C127.93 105.751 130.003 104.918 132.183 104.596C134.362 104.273 136.587 104.47 138.676 105.17C140.766 105.869 142.66 107.052 144.206 108.622C145.752 110.192 146.906 112.104 147.573 114.204C148.241 116.304 148.403 118.532 148.047 120.706C147.692 122.88 146.828 124.94 145.526 126.718C144.224 128.495 142.521 129.94 140.555 130.936C138.589 131.931 136.416 132.448 134.213 132.445Z" fill="white"/>
<path d="M158.455 55.8588L150.799 48.2028C150.243 47.6434 149.582 47.2 148.853 46.8982C148.125 46.5964 147.343 46.4423 146.555 46.4448H142.213C142.213 44.8535 141.581 43.3274 140.456 42.2022C139.33 41.077 137.804 40.4448 136.213 40.4448H104.213C102.622 40.4448 101.095 41.077 99.9702 42.2022C98.845 43.3274 98.2129 44.8535 98.2129 46.4448H46.2129C44.6216 46.4448 43.0955 47.077 41.9702 48.2022C40.845 49.3274 40.2129 50.8535 40.2129 52.4448V154.445C40.2129 156.036 40.845 157.562 41.9702 158.687C43.0955 159.813 44.6216 160.445 46.2129 160.445H154.213C155.804 160.445 157.33 159.813 158.456 158.687C159.581 157.562 160.213 156.036 160.213 154.445V60.1008C160.215 59.3126 160.061 58.5318 159.759 57.8036C159.457 57.0754 159.014 56.4144 158.455 55.8588ZM102.213 46.4448C102.213 45.9144 102.424 45.4057 102.799 45.0306C103.174 44.6555 103.682 44.4448 104.213 44.4448H136.213C136.743 44.4448 137.252 44.6555 137.627 45.0306C138.002 45.4057 138.213 45.9144 138.213 46.4448V70.4448C138.213 70.9753 138.002 71.484 137.627 71.859C137.252 72.2341 136.743 72.4448 136.213 72.4448H104.213C103.682 72.4448 103.174 72.2341 102.799 71.859C102.424 71.484 102.213 70.9753 102.213 70.4448V46.4448ZM98.2129 50.4448V64.4448H80.2129C79.6824 64.4448 79.1737 64.2341 78.7987 63.859C78.4236 63.484 78.2129 62.9753 78.2129 62.4448V50.4448H98.2129ZM156.213 154.445C156.213 154.975 156.002 155.484 155.627 155.859C155.252 156.234 154.743 156.445 154.213 156.445H46.2129C45.6825 156.445 45.1737 156.234 44.7987 155.859C44.4236 155.484 44.2129 154.975 44.2129 154.445V52.4448C44.2129 51.9144 44.4236 51.4057 44.7987 51.0306C45.1737 50.6555 45.6825 50.4448 46.2129 50.4448H74.2129V62.4448C74.2129 64.0361 74.845 65.5622 75.9702 66.6875C77.0955 67.8127 78.6216 68.4448 80.2129 68.4448H98.2129V70.4448C98.2129 72.0361 98.845 73.5622 99.9702 74.6875C101.095 75.8127 102.622 76.4448 104.213 76.4448H136.213C137.804 76.4448 139.33 75.8127 140.456 74.6875C141.581 73.5622 142.213 72.0361 142.213 70.4448V50.4448H146.555C146.818 50.4446 147.078 50.4963 147.321 50.5968C147.564 50.6974 147.785 50.8449 147.971 51.0308L155.627 58.6868C156 59.0629 156.211 59.5708 156.213 60.1008V154.445Z" fill="#474EFF"/>
<path d="M132.213 48.4451H128.213V68.4451H132.213V48.4451Z" fill="#474EFF"/>
<path d="M54.2129 144.445H50.2129C49.1083 144.445 48.2129 145.34 48.2129 146.445V150.445C48.2129 151.549 49.1083 152.445 50.2129 152.445H54.2129C55.3175 152.445 56.2129 151.549 56.2129 150.445V146.445C56.2129 145.34 55.3175 144.445 54.2129 144.445Z" fill="#474EFF"/>
<path d="M150.212 144.445H146.212C145.107 144.445 144.212 145.34 144.212 146.445V150.445C144.212 151.549 145.107 152.445 146.212 152.445H150.212C151.316 152.445 152.212 151.549 152.212 150.445V146.445C152.212 145.34 151.316 144.445 150.212 144.445Z" fill="#474EFF"/>
<path d="M150.212 118.445C150.207 114.203 148.52 110.136 145.52 107.136C142.521 104.137 138.454 102.45 134.212 102.445C132.002 102.442 129.816 102.901 127.794 103.793C126.843 98.1098 124.159 92.8592 120.111 88.7591C116.062 84.659 110.846 81.9095 105.175 80.8865C99.5047 79.8635 93.6566 80.6169 88.4304 83.0438C83.2043 85.4706 78.8553 89.4525 75.9781 94.4448C70.6737 94.4759 65.599 96.6128 61.8702 100.385C58.1414 104.158 56.064 109.258 56.0951 114.562C56.1261 119.866 58.263 124.941 62.0357 128.67C65.8083 132.398 70.9077 134.476 76.2121 134.445H92.2121V152.445H108.212V134.445H134.212C138.454 134.44 142.521 132.753 145.52 129.753C148.52 126.754 150.207 122.687 150.212 118.445ZM104.212 148.445H96.2121V122.445H88.3741L100.212 107.645L112.05 122.445H104.212V148.445ZM108.212 126.445H120.374L100.212 101.245L80.0501 126.445H92.2121V130.445H76.2121C71.9686 130.445 67.8989 128.759 64.8984 125.759C61.8978 122.758 60.2121 118.688 60.2121 114.445C60.2121 110.201 61.8978 106.132 64.8984 103.131C67.8989 100.131 71.9686 98.4448 76.2121 98.4448C76.3761 98.4448 76.5341 98.4568 76.6941 98.4688L77.0361 98.4888C77.4204 98.5153 77.804 98.4272 78.1383 98.2357C78.4725 98.0441 78.7425 97.7578 78.9141 97.4128C81.3292 92.7377 85.2158 88.9873 89.974 86.7403C94.7323 84.4934 100.098 83.8748 105.243 84.98C110.387 86.0852 115.025 88.8528 118.441 92.8557C121.857 96.8586 123.86 101.874 124.142 107.129C124.161 107.486 124.276 107.832 124.474 108.129C124.672 108.427 124.947 108.667 125.269 108.822C125.591 108.978 125.949 109.044 126.306 109.014C126.662 108.985 127.004 108.86 127.296 108.653C128.837 107.561 130.614 106.849 132.482 106.573C134.351 106.298 136.258 106.467 138.048 107.068C139.839 107.668 141.462 108.683 142.787 110.029C144.111 111.375 145.099 113.015 145.67 114.815C146.242 116.615 146.38 118.524 146.074 120.388C145.768 122.252 145.027 124.017 143.911 125.54C142.794 127.063 141.334 128.301 139.648 129.153C137.963 130.006 136.101 130.448 134.212 130.445H108.212V126.445Z" fill="#474EFF"/>
</g>
<defs>
<radialGradient id="paint0_radial" cx="0" cy="0" r="1" gradientUnits="userSpaceOnUse" gradientTransform="translate(115.316 112.685) scale(81.25)">
<stop stop-color="#AFEEFF"/>
<stop offset="0.193" stop-color="#BBF1FF"/>
<stop offset="0.703" stop-color="#D7F8FF"/>
<stop offset="1" stop-color="#E1FAFF"/>
</radialGradient>
<radialGradient id="paint1_radial" cx="0" cy="0" r="1" gradientUnits="userSpaceOnUse" gradientTransform="translate(98.391 93.9355) scale(89.9062)">
<stop stop-color="#AFEEFF"/>
<stop offset="0.193" stop-color="#BBF1FF"/>
<stop offset="0.703" stop-color="#D7F8FF"/>
<stop offset="1" stop-color="#E1FAFF"/>
</radialGradient>
<radialGradient id="paint2_radial" cx="0" cy="0" r="1" gradientUnits="userSpaceOnUse" gradientTransform="translate(101.775 100.445) scale(96.1719)">
<stop stop-color="#AFEEFF"/>
<stop offset="0.193" stop-color="#BBF1FF"/>
<stop offset="0.703" stop-color="#D7F8FF"/>
<stop offset="1" stop-color="#E1FAFF"/>
</radialGradient>
<radialGradient id="paint3_radial" cx="0" cy="0" r="1" gradientUnits="userSpaceOnUse" gradientTransform="translate(112.454 111.123) scale(87.3062)">
<stop stop-color="#AFEEFF"/>
<stop offset="0.193" stop-color="#BBF1FF"/>
<stop offset="0.703" stop-color="#D7F8FF"/>
<stop offset="1" stop-color="#E1FAFF"/>
</radialGradient>
<clipPath id="clip0">
<rect width="200" height="200" fill="white" transform="translate(0.212891 0.444824)"/>
</clipPath>
</defs>
</svg>
