<svg width="201" height="201" viewBox="0 0 201 201" fill="none" xmlns="http://www.w3.org/2000/svg">
<g clip-path="url(#clip0)">
<path d="M31.959 25.5393C38.8621 25.5393 44.459 19.9424 44.459 13.0393C44.459 6.13618 38.8621 0.539307 31.959 0.539307C25.0559 0.539307 19.459 6.13618 19.459 13.0393C19.459 19.9424 25.0559 25.5393 31.959 25.5393Z" fill="url(#paint0_radial)"/>
<path d="M24.1465 200.539C30.1871 200.539 35.084 195.642 35.084 189.602C35.084 183.561 30.1871 178.664 24.1465 178.664C18.1059 178.664 13.209 183.561 13.209 189.602C13.209 195.642 18.1059 200.539 24.1465 200.539Z" fill="url(#paint1_radial)"/>
<path d="M194.459 64.6018C194.459 56.8362 188.162 50.5393 180.396 50.5393H138.209C131.306 50.5393 125.709 44.9424 125.709 38.0393C125.709 31.1362 131.306 25.5393 138.209 25.5393H144.459C151.362 25.5393 156.959 19.9424 156.959 13.0393C156.959 6.13618 151.362 0.539307 144.459 0.539307H69.459C62.5559 0.539307 56.959 6.13618 56.959 13.0393C56.959 19.9424 62.5559 25.5393 69.459 25.5393H75.709C80.8871 25.5393 85.084 29.7362 85.084 34.9143C85.084 40.0924 80.8871 44.2893 75.709 44.2893H31.959C26.7809 44.2893 22.584 48.4862 22.584 53.6643V56.7893C22.584 61.9674 26.7809 66.1643 31.959 66.1643H41.334C46.5121 66.1643 50.709 70.3612 50.709 75.5393C50.709 80.7174 46.5121 84.9143 41.334 84.9143H25.709C17.0809 84.9143 10.084 91.9112 10.084 100.539C10.084 109.167 17.0809 116.164 25.709 116.164H42.8965C48.9371 116.164 53.834 121.061 53.834 127.102C53.834 133.142 48.9371 138.039 42.8965 138.039H28.834C21.9309 138.039 16.334 143.636 16.334 150.539C16.334 157.442 21.9309 163.039 28.834 163.039H55.3965C59.7121 163.039 63.209 166.536 63.209 170.852C63.209 175.167 59.7121 178.664 55.3965 178.664C49.3559 178.664 44.459 183.561 44.459 189.602C44.459 195.642 49.3559 200.539 55.3965 200.539H149.146C155.187 200.539 160.084 195.642 160.084 189.602C160.084 183.561 155.187 178.664 149.146 178.664H147.584C144.131 178.664 141.334 175.867 141.334 172.414C141.334 168.961 144.131 166.164 147.584 166.164H169.459C176.362 166.164 181.959 160.567 181.959 153.664C181.959 146.761 176.362 141.164 169.459 141.164H152.271C147.956 141.164 144.459 137.667 144.459 133.352C144.459 129.036 147.956 125.539 152.271 125.539H153.834C160.737 125.539 166.334 119.942 166.334 113.039C166.334 106.136 160.737 100.539 153.834 100.539H149.146C143.106 100.539 138.209 95.6424 138.209 89.6018C138.209 83.5612 143.106 78.6643 149.146 78.6643H180.396C188.162 78.6643 194.459 72.3674 194.459 64.6018Z" fill="url(#paint2_radial)"/>
<path d="M185.084 125.539C178.181 125.539 172.584 119.942 172.584 113.039C172.584 106.136 178.181 100.539 185.084 100.539C191.987 100.539 197.584 106.136 197.584 113.039C197.584 119.942 191.987 125.539 185.084 125.539Z" fill="url(#paint3_radial)"/>
<path d="M130.396 45.8518C127.806 45.8518 125.709 43.7549 125.709 41.1643V27.1018C125.709 22.7956 121.503 19.2893 116.334 19.2893H85.084C79.9152 19.2893 75.709 22.7956 75.709 27.1018V41.1643C75.709 43.7549 73.6121 45.8518 71.0215 45.8518C68.4309 45.8518 66.334 43.7549 66.334 41.1643V27.1018C66.334 17.6237 74.7434 9.91431 85.084 9.91431H116.334C126.675 9.91431 135.084 17.6237 135.084 27.1018V41.1643C135.084 43.7549 132.987 45.8518 130.396 45.8518Z" fill="#A9B4CB"/>
<path d="M135.084 184.914H66.334C52.5277 184.914 41.334 173.721 41.334 159.914V66.1643H160.084V159.914C160.084 173.721 148.89 184.914 135.084 184.914Z" fill="#FF5959"/>
<path d="M160.084 66.1643H41.334C36.1559 66.1643 31.959 61.9674 31.959 56.7893V50.5393C31.959 40.1831 40.3527 31.7893 50.709 31.7893H150.709C161.065 31.7893 169.459 40.1831 169.459 50.5393V56.7893C169.459 61.9674 165.262 66.1643 160.084 66.1643Z" fill="#FF7575"/>
<path d="M132.985 83.8863C135.782 86.6832 135.782 91.2176 132.985 94.0113L78.5566 148.443C75.7598 151.239 71.2254 151.239 68.4316 148.443C65.6348 145.646 65.6348 141.111 68.4316 138.318L122.86 83.8895C125.654 81.0895 130.188 81.0895 132.985 83.8863Z" fill="white"/>
<path d="M132.987 148.441C130.19 151.238 125.656 151.238 122.862 148.441L68.4307 94.0127C65.6338 91.2158 65.6338 86.6814 68.4307 83.8877C71.2275 81.0908 75.7619 81.0908 78.5557 83.8877L132.984 138.316C135.784 141.11 135.784 145.644 132.987 148.441Z" fill="white"/>
</g>
<defs>
<radialGradient id="paint0_radial" cx="0" cy="0" r="1" gradientUnits="userSpaceOnUse" gradientTransform="translate(115.812 112.78) scale(81.25)">
<stop stop-color="#AFEEFF"/>
<stop offset="0.193" stop-color="#BBF1FF"/>
<stop offset="0.703" stop-color="#D7F8FF"/>
<stop offset="1" stop-color="#E1FAFF"/>
</radialGradient>
<radialGradient id="paint1_radial" cx="0" cy="0" r="1" gradientUnits="userSpaceOnUse" gradientTransform="translate(98.8871 94.0299) scale(89.9062)">
<stop stop-color="#AFEEFF"/>
<stop offset="0.193" stop-color="#BBF1FF"/>
<stop offset="0.703" stop-color="#D7F8FF"/>
<stop offset="1" stop-color="#E1FAFF"/>
</radialGradient>
<radialGradient id="paint2_radial" cx="0" cy="0" r="1" gradientUnits="userSpaceOnUse" gradientTransform="translate(102.271 100.539) scale(96.1719)">
<stop stop-color="#AFEEFF"/>
<stop offset="0.193" stop-color="#BBF1FF"/>
<stop offset="0.703" stop-color="#D7F8FF"/>
<stop offset="1" stop-color="#E1FAFF"/>
</radialGradient>
<radialGradient id="paint3_radial" cx="0" cy="0" r="1" gradientUnits="userSpaceOnUse" gradientTransform="translate(112.95 111.217) scale(87.3062)">
<stop stop-color="#AFEEFF"/>
<stop offset="0.193" stop-color="#BBF1FF"/>
<stop offset="0.703" stop-color="#D7F8FF"/>
<stop offset="1" stop-color="#E1FAFF"/>
</radialGradient>
<clipPath id="clip0">
<rect width="200" height="200" fill="white" transform="translate(0.708984 0.539307)"/>
</clipPath>
</defs>
</svg>
