<svg width="41" height="42" viewBox="0 0 41 42" fill="none" xmlns="http://www.w3.org/2000/svg">
<rect x="1.01953" y="1.36792" width="39.3843" height="39.3843" rx="3.5" fill="#E3E8F0" stroke="#E3E8F0"/>
<path d="M21.3776 18.3934C21.908 18.3934 22.4167 18.6041 22.7918 18.9792C23.1669 19.3543 23.3776 19.863 23.3776 20.3934C23.3776 20.5702 23.4478 20.7398 23.5729 20.8648C23.6979 20.9898 23.8675 21.0601 24.0443 21.0601C24.2211 21.0601 24.3907 20.9898 24.5157 20.8648C24.6407 20.7398 24.7109 20.5702 24.7109 20.3934C24.7109 19.5093 24.3597 18.6615 23.7346 18.0364C23.1095 17.4112 22.2617 17.0601 21.3776 17.0601C21.2008 17.0601 21.0312 17.1303 20.9062 17.2553C20.7812 17.3803 20.7109 17.5499 20.7109 17.7267C20.7109 17.9035 20.7812 18.0731 20.9062 18.1981C21.0312 18.3232 21.2008 18.3934 21.3776 18.3934Z" fill="#17CA89"/>
<path d="M21.3783 15.7266C22.6159 15.7266 23.8029 16.2183 24.6781 17.0935C25.5533 17.9686 26.0449 19.1556 26.0449 20.3933C26.0449 20.5701 26.1152 20.7397 26.2402 20.8647C26.3652 20.9897 26.5348 21.06 26.7116 21.06C26.8884 21.06 27.058 20.9897 27.183 20.8647C27.308 20.7397 27.3783 20.5701 27.3783 20.3933C27.3783 18.802 26.7461 17.2759 25.6209 16.1507C24.4957 15.0255 22.9696 14.3933 21.3783 14.3933C21.2014 14.3933 21.0319 14.4635 20.9068 14.5886C20.7818 14.7136 20.7116 14.8832 20.7116 15.06C20.7116 15.2368 20.7818 15.4064 20.9068 15.5314C21.0319 15.6564 21.2014 15.7266 21.3783 15.7266ZM27.2116 23.6666C27.1749 23.5596 27.1116 23.4637 27.0276 23.3879C26.9437 23.3121 26.8418 23.2589 26.7316 23.2333L22.7316 22.32C22.623 22.2954 22.51 22.2983 22.4029 22.3286C22.2957 22.3589 22.1979 22.4155 22.1183 22.4933C22.0249 22.58 22.0183 22.5866 21.5849 23.4133C20.1471 22.7507 18.9949 21.5939 18.3383 20.1533C19.1849 19.7266 19.1916 19.7266 19.2783 19.6266C19.3561 19.547 19.4127 19.4492 19.443 19.342C19.4732 19.2349 19.4762 19.1219 19.4516 19.0133L18.5383 15.06C18.5127 14.9498 18.4595 14.8479 18.3837 14.7639C18.3079 14.6799 18.2119 14.6166 18.1049 14.58C17.9492 14.5244 17.7885 14.4842 17.6249 14.46C17.4564 14.4209 17.2845 14.3986 17.1116 14.3933C16.2983 14.3933 15.5182 14.7164 14.9431 15.2915C14.368 15.8666 14.0449 16.6466 14.0449 17.46C14.0484 20.1818 15.1312 22.7911 17.0559 24.7157C18.9805 26.6403 21.5898 27.7231 24.3116 27.7266C24.7143 27.7266 25.1131 27.6473 25.4851 27.4932C25.8572 27.3391 26.1953 27.1132 26.48 26.8284C26.7648 26.5437 26.9907 26.2056 27.1448 25.8335C27.2989 25.4615 27.3783 25.0627 27.3783 24.66C27.3785 24.4903 27.3651 24.3209 27.3383 24.1533C27.3102 23.9877 27.2679 23.8249 27.2116 23.6666Z" fill="#17CA89"/>
</svg>
